<?xml version="1.0" encoding="utf-8" standalone="no"?>
<!DOCTYPE svg PUBLIC "-//W3C//DTD SVG 1.1//EN"
  "http://www.w3.org/Graphics/SVG/1.1/DTD/svg11.dtd">
<svg xmlns:xlink="http://www.w3.org/1999/xlink" width="766.393438pt" height="768.343125pt" viewBox="0 0 766.393438 768.343125" xmlns="http://www.w3.org/2000/svg" version="1.1">
 <metadata>
  <rdf:RDF xmlns:dc="http://purl.org/dc/elements/1.1/" xmlns:cc="http://creativecommons.org/ns#" xmlns:rdf="http://www.w3.org/1999/02/22-rdf-syntax-ns#">
   <cc:Work>
    <dc:type rdf:resource="http://purl.org/dc/dcmitype/StillImage"/>
    <dc:date>2023-08-02T20:36:17.727179</dc:date>
    <dc:format>image/svg+xml</dc:format>
    <dc:creator>
     <cc:Agent>
      <dc:title>Matplotlib v3.6.3, https://matplotlib.org/</dc:title>
     </cc:Agent>
    </dc:creator>
   </cc:Work>
  </rdf:RDF>
 </metadata>
 <defs>
  <style type="text/css">*{stroke-linejoin: round; stroke-linecap: butt}</style>
 </defs>
 <g id="figure_1">
  <g id="patch_1">
   <path d="M 0 768.343125 
L 766.393438 768.343125 
L 766.393438 0 
L 0 0 
L 0 768.343125 
z
" style="fill: none"/>
  </g>
  <g id="axes_1">
   <g id="patch_2">
    <path d="M 135.525313 741.6 
L 747.525313 741.6 
L 747.525313 7.2 
L 135.525313 7.2 
L 135.525313 741.6 
z
" style="fill: none"/>
   </g>
   <g id="patch_3">
    <path d="M 135.525313 734.285259 
L 579.789022 734.285259 
L 579.789022 716.72988 
L 135.525313 716.72988 
z
" clip-path="url(#pc36a9d103c)" style="fill: #8d9bff"/>
   </g>
   <g id="patch_4">
    <path d="M 135.525313 705.026295 
L 587.876201 705.026295 
L 587.876201 687.470916 
L 135.525313 687.470916 
z
" clip-path="url(#pc36a9d103c)" style="fill: #8d9bff"/>
   </g>
   <g id="patch_5">
    <path d="M 135.525313 675.767331 
L 588.306925 675.767331 
L 588.306925 658.211952 
L 135.525313 658.211952 
z
" clip-path="url(#pc36a9d103c)" style="fill: #8d9bff"/>
   </g>
   <g id="patch_6">
    <path d="M 135.525313 646.508367 
L 589.399473 646.508367 
L 589.399473 628.952988 
L 135.525313 628.952988 
z
" clip-path="url(#pc36a9d103c)" style="fill: #8d9bff"/>
   </g>
   <g id="patch_7">
    <path d="M 135.525313 617.249402 
L 594.474992 617.249402 
L 594.474992 599.694024 
L 135.525313 599.694024 
z
" clip-path="url(#pc36a9d103c)" style="fill: #8d9bff"/>
   </g>
   <g id="patch_8">
    <path d="M 135.525313 587.990438 
L 595.080367 587.990438 
L 595.080367 570.43506 
L 135.525313 570.43506 
z
" clip-path="url(#pc36a9d103c)" style="fill: #8d9bff"/>
   </g>
   <g id="patch_9">
    <path d="M 135.525313 558.731474 
L 599.959799 558.731474 
L 599.959799 541.176096 
L 135.525313 541.176096 
z
" clip-path="url(#pc36a9d103c)" style="fill: #8d9bff"/>
   </g>
   <g id="patch_10">
    <path d="M 135.525313 529.47251 
L 600.890943 529.47251 
L 600.890943 511.917131 
L 135.525313 511.917131 
z
" clip-path="url(#pc36a9d103c)" style="fill: #8d9bff"/>
   </g>
   <g id="patch_11">
    <path d="M 135.525313 500.213546 
L 600.991807 500.213546 
L 600.991807 482.658167 
L 135.525313 482.658167 
z
" clip-path="url(#pc36a9d103c)" style="fill: #8d9bff"/>
   </g>
   <g id="patch_12">
    <path d="M 135.525313 470.954582 
L 605.112939 470.954582 
L 605.112939 453.399203 
L 135.525313 453.399203 
z
" clip-path="url(#pc36a9d103c)" style="fill: #8d9bff"/>
   </g>
   <g id="patch_13">
    <path d="M 135.525313 441.695618 
L 609.886614 441.695618 
L 609.886614 424.140239 
L 135.525313 424.140239 
z
" clip-path="url(#pc36a9d103c)" style="fill: #8d9bff"/>
   </g>
   <g id="patch_14">
    <path d="M 135.525313 412.436653 
L 610.425378 412.436653 
L 610.425378 394.881275 
L 135.525313 394.881275 
z
" clip-path="url(#pc36a9d103c)" style="fill: #8d9bff"/>
   </g>
   <g id="patch_15">
    <path d="M 135.525313 383.177689 
L 611.022046 383.177689 
L 611.022046 365.622311 
L 135.525313 365.622311 
z
" clip-path="url(#pc36a9d103c)" style="fill: #8d9bff"/>
   </g>
   <g id="patch_16">
    <path d="M 135.525313 353.918725 
L 611.233386 353.918725 
L 611.233386 336.363347 
L 135.525313 336.363347 
z
" clip-path="url(#pc36a9d103c)" style="fill: #8d9bff"/>
   </g>
   <g id="patch_17">
    <path d="M 135.525313 324.659761 
L 612.158456 324.659761 
L 612.158456 307.104382 
L 135.525313 307.104382 
z
" clip-path="url(#pc36a9d103c)" style="fill: #8d9bff"/>
   </g>
   <g id="patch_18">
    <path d="M 135.525313 295.400797 
L 613.825511 295.400797 
L 613.825511 277.845418 
L 135.525313 277.845418 
z
" clip-path="url(#pc36a9d103c)" style="fill: #8d9bff"/>
   </g>
   <g id="patch_19">
    <path d="M 135.525313 266.141833 
L 614.029782 266.141833 
L 614.029782 248.586454 
L 135.525313 248.586454 
z
" clip-path="url(#pc36a9d103c)" style="fill: #8d9bff"/>
   </g>
   <g id="patch_20">
    <path d="M 135.525313 236.882869 
L 619.510645 236.882869 
L 619.510645 219.32749 
L 135.525313 219.32749 
z
" clip-path="url(#pc36a9d103c)" style="fill: #8d9bff"/>
   </g>
   <g id="patch_21">
    <path d="M 135.525313 207.623904 
L 620.376178 207.623904 
L 620.376178 190.068526 
L 135.525313 190.068526 
z
" clip-path="url(#pc36a9d103c)" style="fill: #8d9bff"/>
   </g>
   <g id="patch_22">
    <path d="M 135.525313 178.36494 
L 622.815385 178.36494 
L 622.815385 160.809562 
L 135.525313 160.809562 
z
" clip-path="url(#pc36a9d103c)" style="fill: #8d9bff"/>
   </g>
   <g id="patch_23">
    <path d="M 135.525313 149.105976 
L 623.194934 149.105976 
L 623.194934 131.550598 
L 135.525313 131.550598 
z
" clip-path="url(#pc36a9d103c)" style="fill: #8d9bff"/>
   </g>
   <g id="patch_24">
    <path d="M 135.525313 119.847012 
L 632.044835 119.847012 
L 632.044835 102.291633 
L 135.525313 102.291633 
z
" clip-path="url(#pc36a9d103c)" style="fill: #8d9bff"/>
   </g>
   <g id="patch_25">
    <path d="M 135.525313 90.588048 
L 633.884782 90.588048 
L 633.884782 73.032669 
L 135.525313 73.032669 
z
" clip-path="url(#pc36a9d103c)" style="fill: #8d9bff"/>
   </g>
   <g id="patch_26">
    <path d="M 135.525313 61.329084 
L 635.03356 61.329084 
L 635.03356 43.773705 
L 135.525313 43.773705 
z
" clip-path="url(#pc36a9d103c)" style="fill: #8d9bff"/>
   </g>
   <g id="patch_27">
    <path d="M 135.525313 32.07012 
L 649.31048 32.07012 
L 649.31048 14.514741 
L 135.525313 14.514741 
z
" clip-path="url(#pc36a9d103c)" style="fill: #8d9bff"/>
   </g>
   <g id="matplotlib.axis_1">
    <g id="xtick_1">
     <g id="line2d_1">
      <defs>
       <path id="mc9836e7ee5" d="M 0 0 
L 0 3.5 
" style="stroke: #000000; stroke-width: 0.8"/>
      </defs>
      <g>
       <use xlink:href="#mc9836e7ee5" x="135.525313" y="741.6" style="stroke: #000000; stroke-width: 0.8"/>
      </g>
     </g>
     <g id="text_1">
      <!-- 0 -->
      <g transform="translate(131.514531 758.721562) scale(0.14 -0.14)">
       <defs>
        <path id="Archivo-Regular-30" d="M 1837 -77 
Q 1478 -77 1196 28 
Q 915 134 716 393 
Q 518 653 416 1091 
Q 314 1530 314 2195 
Q 314 2861 416 3299 
Q 518 3738 716 3997 
Q 915 4256 1196 4361 
Q 1478 4467 1837 4467 
Q 2195 4467 2473 4361 
Q 2752 4256 2950 3997 
Q 3149 3738 3251 3299 
Q 3354 2861 3354 2195 
Q 3354 1530 3251 1091 
Q 3149 653 2950 393 
Q 2752 134 2473 28 
Q 2195 -77 1837 -77 
z
M 1837 397 
Q 2202 397 2403 582 
Q 2605 768 2685 1133 
Q 2765 1498 2765 2042 
L 2765 2336 
Q 2765 2886 2685 3254 
Q 2605 3622 2403 3808 
Q 2202 3994 1837 3994 
Q 1472 3994 1267 3808 
Q 1062 3622 982 3257 
Q 902 2893 902 2342 
L 902 2054 
Q 902 1510 982 1139 
Q 1062 768 1267 582 
Q 1472 397 1837 397 
z
" transform="scale(0.015625)"/>
       </defs>
       <use xlink:href="#Archivo-Regular-30"/>
      </g>
     </g>
    </g>
    <g id="xtick_2">
     <g id="line2d_2">
      <g>
       <use xlink:href="#mc9836e7ee5" x="257.925313" y="741.6" style="stroke: #000000; stroke-width: 0.8"/>
      </g>
     </g>
     <g id="text_2">
      <!-- 20 -->
      <g transform="translate(249.945313 758.721562) scale(0.14 -0.14)">
       <defs>
        <path id="Archivo-Regular-32" d="M 320 0 
L 320 186 
Q 320 454 425 681 
Q 531 909 707 1097 
Q 883 1286 1107 1459 
Q 1331 1632 1562 1798 
Q 1875 2016 2140 2233 
Q 2406 2451 2566 2704 
Q 2726 2957 2726 3270 
Q 2726 3469 2633 3632 
Q 2541 3795 2355 3891 
Q 2170 3987 1882 3987 
Q 1542 3987 1337 3872 
Q 1133 3757 1040 3565 
Q 947 3373 947 3142 
L 947 2880 
L 390 2880 
Q 384 2912 377 2979 
Q 371 3046 371 3136 
Q 371 3610 582 3901 
Q 794 4192 1146 4329 
Q 1498 4467 1907 4467 
Q 2272 4467 2534 4368 
Q 2797 4269 2969 4096 
Q 3142 3923 3225 3702 
Q 3309 3482 3309 3238 
Q 3309 2938 3203 2688 
Q 3098 2438 2909 2224 
Q 2720 2010 2467 1811 
Q 2214 1613 1920 1408 
Q 1715 1274 1516 1123 
Q 1318 973 1177 819 
Q 1037 666 998 525 
L 3334 525 
L 3334 0 
L 320 0 
z
" transform="scale(0.015625)"/>
       </defs>
       <use xlink:href="#Archivo-Regular-32"/>
       <use xlink:href="#Archivo-Regular-30" x="56.699997"/>
      </g>
     </g>
    </g>
    <g id="xtick_3">
     <g id="line2d_3">
      <g>
       <use xlink:href="#mc9836e7ee5" x="380.325312" y="741.6" style="stroke: #000000; stroke-width: 0.8"/>
      </g>
     </g>
     <g id="text_3">
      <!-- 40 -->
      <g transform="translate(372.429531 758.721562) scale(0.14 -0.14)">
       <defs>
        <path id="Archivo-Regular-34" d="M 2221 0 
L 2221 1075 
L 179 1075 
L 179 1549 
Q 448 2010 669 2477 
Q 890 2944 1066 3437 
Q 1242 3930 1357 4467 
L 1958 4467 
Q 1875 4115 1753 3747 
Q 1632 3379 1485 3033 
Q 1338 2688 1194 2387 
Q 1050 2086 925 1868 
Q 800 1651 723 1549 
L 2221 1549 
L 2221 2944 
Q 2259 3046 2300 3158 
Q 2342 3270 2380 3388 
Q 2419 3507 2451 3612 
Q 2483 3718 2502 3814 
L 2784 3814 
L 2784 1549 
L 3366 1549 
L 3366 1075 
L 2784 1075 
L 2784 0 
L 2221 0 
z
" transform="scale(0.015625)"/>
       </defs>
       <use xlink:href="#Archivo-Regular-34"/>
       <use xlink:href="#Archivo-Regular-30" x="55.499985"/>
      </g>
     </g>
    </g>
    <g id="xtick_4">
     <g id="line2d_4">
      <g>
       <use xlink:href="#mc9836e7ee5" x="502.725312" y="741.6" style="stroke: #000000; stroke-width: 0.8"/>
      </g>
     </g>
     <g id="text_4">
      <!-- 60 -->
      <g transform="translate(494.70375 758.721562) scale(0.14 -0.14)">
       <defs>
        <path id="Archivo-Regular-36" d="M 1920 -77 
Q 1542 -77 1244 32 
Q 947 141 739 384 
Q 531 627 422 1040 
Q 314 1453 314 2067 
Q 314 2746 422 3203 
Q 531 3661 732 3939 
Q 934 4218 1232 4342 
Q 1530 4467 1907 4467 
Q 2381 4467 2672 4288 
Q 2963 4109 3097 3805 
Q 3232 3501 3232 3110 
L 2656 3110 
Q 2656 3405 2573 3603 
Q 2490 3802 2314 3898 
Q 2138 3994 1875 3994 
Q 1491 3994 1276 3792 
Q 1062 3590 982 3206 
Q 902 2822 896 2291 
Q 986 2438 1149 2560 
Q 1312 2682 1536 2755 
Q 1760 2829 2010 2829 
Q 2483 2829 2790 2640 
Q 3098 2451 3245 2124 
Q 3392 1798 3392 1395 
Q 3392 954 3200 621 
Q 3008 288 2675 105 
Q 2342 -77 1920 -77 
z
M 1882 397 
Q 2195 397 2400 534 
Q 2605 672 2704 899 
Q 2803 1126 2803 1402 
Q 2803 1664 2707 1881 
Q 2611 2099 2409 2230 
Q 2208 2362 1894 2362 
Q 1581 2362 1369 2227 
Q 1158 2093 1056 1872 
Q 954 1651 954 1370 
Q 954 1107 1056 883 
Q 1158 659 1363 528 
Q 1568 397 1882 397 
z
" transform="scale(0.015625)"/>
       </defs>
       <use xlink:href="#Archivo-Regular-36"/>
       <use xlink:href="#Archivo-Regular-30" x="57.299988"/>
      </g>
     </g>
    </g>
    <g id="xtick_5">
     <g id="line2d_5">
      <g>
       <use xlink:href="#mc9836e7ee5" x="625.125313" y="741.6" style="stroke: #000000; stroke-width: 0.8"/>
      </g>
     </g>
     <g id="text_5">
      <!-- 80 -->
      <g transform="translate(617.096094 758.721562) scale(0.14 -0.14)">
       <defs>
        <path id="Archivo-Regular-38" d="M 1837 -77 
Q 1293 -77 953 96 
Q 614 269 457 557 
Q 301 845 301 1197 
Q 301 1555 480 1830 
Q 659 2106 1043 2253 
Q 736 2413 579 2675 
Q 422 2938 422 3258 
Q 422 3597 579 3869 
Q 736 4141 1053 4304 
Q 1370 4467 1837 4467 
Q 2304 4467 2617 4304 
Q 2931 4141 3091 3869 
Q 3251 3597 3251 3258 
Q 3251 2938 3091 2675 
Q 2931 2413 2624 2253 
Q 3014 2106 3190 1830 
Q 3366 1555 3366 1197 
Q 3366 845 3209 557 
Q 3053 269 2717 96 
Q 2381 -77 1837 -77 
z
M 1837 390 
Q 2304 390 2541 608 
Q 2778 826 2778 1203 
Q 2778 1574 2541 1792 
Q 2304 2010 1837 2010 
Q 1370 2010 1130 1792 
Q 890 1574 890 1203 
Q 890 826 1130 608 
Q 1370 390 1837 390 
z
M 1837 2477 
Q 2227 2477 2451 2678 
Q 2675 2880 2675 3245 
Q 2675 3603 2451 3801 
Q 2227 4000 1837 4000 
Q 1446 4000 1222 3801 
Q 998 3603 998 3245 
Q 998 2880 1222 2678 
Q 1446 2477 1837 2477 
z
" transform="scale(0.015625)"/>
       </defs>
       <use xlink:href="#Archivo-Regular-38"/>
       <use xlink:href="#Archivo-Regular-30" x="57.399994"/>
      </g>
     </g>
    </g>
    <g id="xtick_6">
     <g id="line2d_6">
      <g>
       <use xlink:href="#mc9836e7ee5" x="747.525313" y="741.6" style="stroke: #000000; stroke-width: 0.8"/>
      </g>
     </g>
     <g id="text_6">
      <!-- 100 -->
      <g transform="translate(735.857188 758.721562) scale(0.14 -0.14)">
       <defs>
        <path id="Archivo-Regular-31" d="M 429 0 
L 429 480 
L 1536 480 
L 1536 3520 
L 422 3520 
L 422 3878 
Q 659 3898 912 3949 
Q 1165 4000 1408 4112 
Q 1651 4224 1850 4403 
L 2106 4403 
L 2106 480 
L 3149 480 
L 3149 0 
L 429 0 
z
" transform="scale(0.015625)"/>
       </defs>
       <use xlink:href="#Archivo-Regular-31"/>
       <use xlink:href="#Archivo-Regular-30" x="52.099991"/>
       <use xlink:href="#Archivo-Regular-30" x="109.399979"/>
      </g>
     </g>
    </g>
   </g>
   <g id="matplotlib.axis_2">
    <g id="ytick_1">
     <g id="line2d_7">
      <defs>
       <path id="m5825229565" d="M 0 0 
L -3.5 0 
" style="stroke: #000000; stroke-width: 0.8"/>
      </defs>
      <g>
       <use xlink:href="#m5825229565" x="135.525313" y="725.50757" style="stroke: #000000; stroke-width: 0.8"/>
      </g>
     </g>
     <g id="text_7">
      <!-- Entre Ríos -->
      <g transform="translate(63.311563 730.568351) scale(0.14 -0.14)">
       <defs>
        <path id="Archivo-Regular-45" d="M 550 0 
L 550 4390 
L 3930 4390 
L 3930 3866 
L 1158 3866 
L 1158 2509 
L 3648 2509 
L 3648 1984 
L 1158 1984 
L 1158 525 
L 3968 525 
L 3968 0 
L 550 0 
z
" transform="scale(0.015625)"/>
        <path id="Archivo-Regular-6e" d="M 442 0 
L 442 3366 
L 896 3366 
L 947 2861 
L 992 2861 
Q 1126 3066 1296 3194 
Q 1466 3322 1674 3382 
Q 1882 3443 2118 3443 
Q 2438 3443 2678 3334 
Q 2918 3226 3056 2982 
Q 3194 2739 3194 2323 
L 3194 0 
L 2630 0 
L 2630 2246 
Q 2630 2458 2576 2592 
Q 2522 2726 2429 2803 
Q 2336 2880 2205 2912 
Q 2074 2944 1914 2944 
Q 1677 2944 1465 2829 
Q 1254 2714 1129 2496 
Q 1005 2278 1005 1978 
L 1005 0 
L 442 0 
z
" transform="scale(0.015625)"/>
        <path id="Archivo-Regular-74" d="M 1229 -77 
Q 966 -77 819 22 
Q 672 122 608 285 
Q 544 448 544 634 
L 544 2893 
L 109 2893 
L 109 3366 
L 557 3366 
L 659 4307 
L 1107 4307 
L 1107 3366 
L 1741 3366 
L 1741 2893 
L 1107 2893 
L 1107 717 
Q 1107 557 1164 477 
Q 1222 397 1382 397 
L 1741 397 
L 1741 26 
Q 1677 -6 1587 -25 
Q 1498 -45 1405 -61 
Q 1312 -77 1229 -77 
z
" transform="scale(0.015625)"/>
        <path id="Archivo-Regular-72" d="M 442 0 
L 442 3366 
L 896 3366 
L 947 2810 
L 992 2810 
Q 1043 2970 1132 3114 
Q 1222 3258 1376 3350 
Q 1530 3443 1754 3443 
Q 1850 3443 1930 3427 
Q 2010 3411 2048 3392 
L 2048 2874 
L 1837 2874 
Q 1619 2874 1462 2800 
Q 1306 2726 1203 2592 
Q 1101 2458 1053 2272 
Q 1005 2086 1005 1875 
L 1005 0 
L 442 0 
z
" transform="scale(0.015625)"/>
        <path id="Archivo-Regular-65" d="M 1786 -77 
Q 1286 -77 944 112 
Q 602 301 426 691 
Q 250 1082 250 1683 
Q 250 2291 426 2678 
Q 602 3066 947 3254 
Q 1293 3443 1811 3443 
Q 2285 3443 2605 3260 
Q 2925 3078 3088 2716 
Q 3251 2355 3251 1811 
L 3251 1542 
L 832 1542 
Q 845 1139 950 880 
Q 1056 621 1267 502 
Q 1478 384 1798 384 
Q 2016 384 2179 438 
Q 2342 493 2454 595 
Q 2566 698 2624 838 
Q 2682 979 2688 1146 
L 3238 1146 
Q 3232 877 3136 649 
Q 3040 422 2854 262 
Q 2669 102 2400 12 
Q 2131 -77 1786 -77 
z
M 845 1965 
L 2669 1965 
Q 2669 2246 2605 2438 
Q 2541 2630 2422 2752 
Q 2304 2874 2147 2928 
Q 1990 2982 1792 2982 
Q 1498 2982 1293 2873 
Q 1088 2765 979 2541 
Q 870 2317 845 1965 
z
" transform="scale(0.015625)"/>
        <path id="Archivo-Regular-20" transform="scale(0.015625)"/>
        <path id="Archivo-Regular-52" d="M 550 0 
L 550 4390 
L 2861 4390 
Q 3309 4390 3606 4227 
Q 3904 4064 4051 3773 
Q 4198 3482 4198 3104 
Q 4198 2650 3993 2323 
Q 3789 1997 3430 1856 
L 4352 0 
L 3686 0 
L 2829 1747 
L 1158 1747 
L 1158 0 
L 550 0 
z
M 1158 2266 
L 2803 2266 
Q 3168 2266 3376 2490 
Q 3584 2714 3584 3104 
Q 3584 3347 3494 3513 
Q 3405 3680 3232 3773 
Q 3059 3866 2803 3866 
L 1158 3866 
L 1158 2266 
z
" transform="scale(0.015625)"/>
        <path id="Archivo-Regular-ed" d="M 442 0 
L 442 3366 
L 1005 3366 
L 1005 0 
L 442 0 
z
M 384 3782 
L 941 4627 
L 1574 4627 
L 1581 4608 
L 877 3782 
L 384 3782 
z
" transform="scale(0.015625)"/>
        <path id="Archivo-Regular-6f" d="M 1824 -77 
Q 1312 -77 963 112 
Q 614 301 432 691 
Q 250 1082 250 1683 
Q 250 2291 432 2678 
Q 614 3066 963 3254 
Q 1312 3443 1824 3443 
Q 2336 3443 2685 3254 
Q 3034 3066 3213 2678 
Q 3392 2291 3392 1683 
Q 3392 1082 3213 691 
Q 3034 301 2685 112 
Q 2336 -77 1824 -77 
z
M 1824 397 
Q 2150 397 2368 525 
Q 2586 653 2698 925 
Q 2810 1197 2810 1613 
L 2810 1754 
Q 2810 2176 2698 2445 
Q 2586 2714 2368 2842 
Q 2150 2970 1824 2970 
Q 1498 2970 1277 2842 
Q 1056 2714 947 2445 
Q 838 2176 838 1754 
L 838 1613 
Q 838 1197 947 925 
Q 1056 653 1277 525 
Q 1498 397 1824 397 
z
" transform="scale(0.015625)"/>
        <path id="Archivo-Regular-73" d="M 1619 -77 
Q 1274 -77 1011 -6 
Q 749 64 576 198 
Q 403 333 313 518 
Q 224 704 224 941 
Q 224 973 224 1001 
Q 224 1030 230 1050 
L 787 1050 
Q 781 1024 781 1005 
Q 781 986 781 966 
Q 787 742 899 614 
Q 1011 486 1209 435 
Q 1408 384 1651 384 
Q 1862 384 2041 438 
Q 2221 493 2326 605 
Q 2432 717 2432 890 
Q 2432 1101 2294 1213 
Q 2157 1325 1933 1389 
Q 1709 1453 1466 1523 
Q 1261 1581 1056 1651 
Q 851 1722 688 1824 
Q 525 1926 425 2089 
Q 326 2253 326 2502 
Q 326 2726 419 2899 
Q 512 3072 685 3193 
Q 858 3315 1104 3376 
Q 1350 3437 1651 3437 
Q 1971 3437 2211 3366 
Q 2451 3296 2611 3168 
Q 2771 3040 2848 2877 
Q 2925 2714 2925 2528 
Q 2925 2490 2925 2454 
Q 2925 2419 2918 2400 
L 2368 2400 
L 2368 2470 
Q 2368 2598 2301 2716 
Q 2234 2835 2070 2908 
Q 1907 2982 1619 2982 
Q 1434 2982 1299 2953 
Q 1165 2925 1075 2864 
Q 986 2803 941 2723 
Q 896 2643 896 2541 
Q 896 2374 1005 2284 
Q 1114 2195 1296 2137 
Q 1478 2080 1690 2010 
Q 1914 1946 2147 1878 
Q 2381 1811 2576 1708 
Q 2771 1606 2889 1430 
Q 3008 1254 3008 966 
Q 3008 698 2905 499 
Q 2803 301 2614 173 
Q 2426 45 2173 -16 
Q 1920 -77 1619 -77 
z
" transform="scale(0.015625)"/>
       </defs>
       <use xlink:href="#Archivo-Regular-45"/>
       <use xlink:href="#Archivo-Regular-6e" x="67.699982"/>
       <use xlink:href="#Archivo-Regular-74" x="123.999969"/>
       <use xlink:href="#Archivo-Regular-72" x="153.699966"/>
       <use xlink:href="#Archivo-Regular-65" x="186.899963"/>
       <use xlink:href="#Archivo-Regular-20" x="241.699951"/>
       <use xlink:href="#Archivo-Regular-52" x="262.599945"/>
       <use xlink:href="#Archivo-Regular-ed" x="335.299927"/>
       <use xlink:href="#Archivo-Regular-6f" x="357.799911"/>
       <use xlink:href="#Archivo-Regular-73" x="414.799896"/>
      </g>
     </g>
    </g>
    <g id="ytick_2">
     <g id="line2d_8">
      <g>
       <use xlink:href="#m5825229565" x="135.525313" y="696.248606" style="stroke: #000000; stroke-width: 0.8"/>
      </g>
     </g>
     <g id="text_8">
      <!-- Misiones -->
      <g transform="translate(72.55375 701.309387) scale(0.14 -0.14)">
       <defs>
        <path id="Archivo-Regular-4d" d="M 550 0 
L 550 4390 
L 1491 4390 
L 2490 1542 
Q 2528 1427 2569 1289 
Q 2611 1152 2646 1030 
Q 2682 909 2701 819 
L 2746 819 
Q 2765 915 2797 1040 
Q 2829 1165 2867 1299 
Q 2906 1434 2938 1542 
L 3936 4390 
L 4870 4390 
L 4870 0 
L 4262 0 
L 4262 2573 
Q 4262 2771 4268 3004 
Q 4275 3238 4281 3433 
Q 4288 3629 4288 3712 
L 4237 3712 
Q 4218 3629 4173 3478 
Q 4128 3328 4080 3165 
Q 4032 3002 3994 2874 
L 2963 0 
L 2438 0 
L 1408 2874 
Q 1370 2982 1328 3126 
Q 1286 3270 1244 3424 
Q 1203 3578 1165 3712 
L 1120 3712 
Q 1126 3571 1129 3363 
Q 1133 3155 1136 2947 
Q 1139 2739 1139 2573 
L 1139 0 
L 550 0 
z
" transform="scale(0.015625)"/>
        <path id="Archivo-Regular-69" d="M 442 4000 
L 442 4627 
L 1005 4627 
L 1005 4000 
L 442 4000 
z
M 442 0 
L 442 3366 
L 1005 3366 
L 1005 0 
L 442 0 
z
" transform="scale(0.015625)"/>
       </defs>
       <use xlink:href="#Archivo-Regular-4d"/>
       <use xlink:href="#Archivo-Regular-69" x="84.699982"/>
       <use xlink:href="#Archivo-Regular-73" x="107.199966"/>
       <use xlink:href="#Archivo-Regular-69" x="158.199951"/>
       <use xlink:href="#Archivo-Regular-6f" x="180.699936"/>
       <use xlink:href="#Archivo-Regular-6e" x="237.699921"/>
       <use xlink:href="#Archivo-Regular-65" x="293.999908"/>
       <use xlink:href="#Archivo-Regular-73" x="348.799896"/>
      </g>
     </g>
    </g>
    <g id="ytick_3">
     <g id="line2d_9">
      <g>
       <use xlink:href="#m5825229565" x="135.525313" y="666.989641" style="stroke: #000000; stroke-width: 0.8"/>
      </g>
     </g>
     <g id="text_9">
      <!-- Neuquén -->
      <g transform="translate(71.322188 672.050423) scale(0.14 -0.14)">
       <defs>
        <path id="Archivo-Regular-4e" d="M 550 0 
L 550 4390 
L 1139 4390 
L 3270 1498 
Q 3302 1459 3353 1382 
Q 3405 1306 3456 1232 
Q 3507 1158 3539 1101 
L 3565 1101 
Q 3565 1203 3565 1302 
Q 3565 1402 3565 1498 
L 3565 4390 
L 4160 4390 
L 4160 0 
L 3603 0 
L 1446 2944 
Q 1402 3014 1315 3142 
Q 1229 3270 1171 3347 
L 1139 3347 
Q 1139 3245 1139 3145 
Q 1139 3046 1139 2944 
L 1139 0 
L 550 0 
z
" transform="scale(0.015625)"/>
        <path id="Archivo-Regular-75" d="M 1485 -77 
Q 998 -77 704 172 
Q 410 422 410 1043 
L 410 3366 
L 973 3366 
L 973 1120 
Q 973 909 1024 774 
Q 1075 640 1171 563 
Q 1267 486 1398 454 
Q 1530 422 1683 422 
Q 1926 422 2131 537 
Q 2336 653 2467 873 
Q 2598 1094 2598 1389 
L 2598 3366 
L 3162 3366 
L 3162 0 
L 2707 0 
L 2656 506 
L 2611 506 
Q 2477 301 2307 173 
Q 2138 45 1930 -16 
Q 1722 -77 1485 -77 
z
" transform="scale(0.015625)"/>
        <path id="Archivo-Regular-71" d="M 2624 -1107 
L 2624 422 
L 2586 422 
Q 2470 250 2313 138 
Q 2157 26 1965 -25 
Q 1773 -77 1562 -77 
Q 1171 -77 876 108 
Q 582 294 416 681 
Q 250 1069 250 1658 
Q 250 2285 413 2678 
Q 576 3072 873 3257 
Q 1171 3443 1587 3443 
Q 1926 3443 2195 3305 
Q 2464 3168 2637 2886 
L 2682 2886 
L 2733 3366 
L 3187 3366 
L 3187 -1107 
L 2624 -1107 
z
M 1741 416 
Q 1926 416 2086 473 
Q 2246 531 2364 672 
Q 2483 813 2553 1046 
Q 2624 1280 2624 1632 
L 2624 1728 
Q 2624 2125 2531 2400 
Q 2438 2675 2240 2812 
Q 2042 2950 1722 2950 
Q 1434 2950 1238 2835 
Q 1043 2720 940 2454 
Q 838 2189 838 1747 
L 838 1613 
Q 838 1197 934 931 
Q 1030 666 1228 541 
Q 1427 416 1741 416 
z
" transform="scale(0.015625)"/>
        <path id="Archivo-Regular-e9" d="M 1786 -77 
Q 1286 -77 944 112 
Q 602 301 426 691 
Q 250 1082 250 1683 
Q 250 2291 426 2678 
Q 602 3066 947 3254 
Q 1293 3443 1811 3443 
Q 2285 3443 2605 3260 
Q 2925 3078 3088 2716 
Q 3251 2355 3251 1811 
L 3251 1542 
L 832 1542 
Q 845 1139 950 880 
Q 1056 621 1267 502 
Q 1478 384 1798 384 
Q 2016 384 2179 438 
Q 2342 493 2454 595 
Q 2566 698 2624 838 
Q 2682 979 2688 1146 
L 3238 1146 
Q 3232 877 3136 649 
Q 3040 422 2854 262 
Q 2669 102 2400 12 
Q 2131 -77 1786 -77 
z
M 845 1965 
L 2669 1965 
Q 2669 2246 2605 2438 
Q 2541 2630 2422 2752 
Q 2304 2874 2147 2928 
Q 1990 2982 1792 2982 
Q 1498 2982 1293 2873 
Q 1088 2765 979 2541 
Q 870 2317 845 1965 
z
M 1459 3782 
L 2010 4627 
L 2650 4627 
L 2656 4608 
L 1946 3782 
L 1459 3782 
z
" transform="scale(0.015625)"/>
       </defs>
       <use xlink:href="#Archivo-Regular-4e"/>
       <use xlink:href="#Archivo-Regular-65" x="73.599991"/>
       <use xlink:href="#Archivo-Regular-75" x="128.399979"/>
       <use xlink:href="#Archivo-Regular-71" x="184.599976"/>
       <use xlink:href="#Archivo-Regular-75" x="241.299973"/>
       <use xlink:href="#Archivo-Regular-e9" x="297.499969"/>
       <use xlink:href="#Archivo-Regular-6e" x="352.299957"/>
      </g>
     </g>
    </g>
    <g id="ytick_4">
     <g id="line2d_10">
      <g>
       <use xlink:href="#m5825229565" x="135.525313" y="637.730677" style="stroke: #000000; stroke-width: 0.8"/>
      </g>
     </g>
     <g id="text_10">
      <!-- Chubut -->
      <g transform="translate(82.618437 642.791459) scale(0.14 -0.14)">
       <defs>
        <path id="Archivo-Regular-43" d="M 2426 -77 
Q 1754 -77 1286 169 
Q 819 416 572 918 
Q 326 1421 326 2195 
Q 326 3341 883 3904 
Q 1440 4467 2432 4467 
Q 2995 4467 3430 4284 
Q 3866 4102 4112 3734 
Q 4358 3366 4358 2810 
L 3744 2810 
Q 3744 3194 3581 3443 
Q 3418 3693 3123 3817 
Q 2829 3942 2432 3942 
Q 1971 3942 1638 3763 
Q 1306 3584 1133 3209 
Q 960 2835 960 2246 
L 960 2112 
Q 960 1530 1133 1162 
Q 1306 794 1635 621 
Q 1965 448 2432 448 
Q 2842 448 3139 569 
Q 3437 691 3600 944 
Q 3763 1197 3763 1581 
L 4358 1581 
Q 4358 1011 4105 646 
Q 3853 282 3417 102 
Q 2982 -77 2426 -77 
z
" transform="scale(0.015625)"/>
        <path id="Archivo-Regular-68" d="M 442 0 
L 442 4627 
L 1005 4627 
L 1005 2944 
L 1050 2944 
Q 1178 3117 1338 3225 
Q 1498 3334 1693 3388 
Q 1888 3443 2118 3443 
Q 2438 3443 2678 3334 
Q 2918 3226 3056 2982 
Q 3194 2739 3194 2323 
L 3194 0 
L 2630 0 
L 2630 2246 
Q 2630 2458 2576 2592 
Q 2522 2726 2429 2803 
Q 2336 2880 2205 2912 
Q 2074 2944 1914 2944 
Q 1677 2944 1465 2832 
Q 1254 2720 1129 2505 
Q 1005 2291 1005 1978 
L 1005 0 
L 442 0 
z
" transform="scale(0.015625)"/>
        <path id="Archivo-Regular-62" d="M 2042 -77 
Q 1702 -77 1433 60 
Q 1165 198 992 480 
L 947 480 
L 890 0 
L 442 0 
L 442 4627 
L 1005 4627 
L 1005 2944 
L 1043 2944 
Q 1158 3123 1312 3232 
Q 1466 3341 1658 3392 
Q 1850 3443 2067 3443 
Q 2458 3443 2752 3257 
Q 3046 3072 3209 2688 
Q 3373 2304 3373 1709 
Q 3373 1082 3213 688 
Q 3053 294 2758 108 
Q 2464 -77 2042 -77 
z
M 1907 416 
Q 2195 416 2390 531 
Q 2586 646 2688 912 
Q 2790 1178 2790 1613 
L 2790 1747 
Q 2790 2170 2694 2435 
Q 2598 2701 2400 2825 
Q 2202 2950 1888 2950 
Q 1709 2950 1549 2892 
Q 1389 2835 1264 2694 
Q 1139 2554 1072 2317 
Q 1005 2080 1005 1734 
L 1005 1632 
Q 1005 1235 1097 966 
Q 1190 698 1392 557 
Q 1594 416 1907 416 
z
" transform="scale(0.015625)"/>
       </defs>
       <use xlink:href="#Archivo-Regular-43"/>
       <use xlink:href="#Archivo-Regular-68" x="72.799988"/>
       <use xlink:href="#Archivo-Regular-75" x="129.099976"/>
       <use xlink:href="#Archivo-Regular-62" x="185.299973"/>
       <use xlink:href="#Archivo-Regular-75" x="241.999969"/>
       <use xlink:href="#Archivo-Regular-74" x="298.199966"/>
      </g>
     </g>
    </g>
    <g id="ytick_5">
     <g id="line2d_11">
      <g>
       <use xlink:href="#m5825229565" x="135.525313" y="608.471713" style="stroke: #000000; stroke-width: 0.8"/>
      </g>
     </g>
     <g id="text_11">
      <!-- Mendoza -->
      <g transform="translate(70.59375 613.532494) scale(0.14 -0.14)">
       <defs>
        <path id="Archivo-Regular-64" d="M 1587 -77 
Q 1171 -77 873 108 
Q 576 294 413 688 
Q 250 1082 250 1709 
Q 250 2304 416 2688 
Q 582 3072 876 3257 
Q 1171 3443 1562 3443 
Q 1786 3443 1978 3392 
Q 2170 3341 2320 3232 
Q 2470 3123 2586 2944 
L 2624 2944 
L 2624 4627 
L 3187 4627 
L 3187 0 
L 2733 0 
L 2682 480 
L 2637 480 
Q 2464 198 2189 60 
Q 1914 -77 1587 -77 
z
M 1722 416 
Q 2042 416 2240 557 
Q 2438 698 2531 966 
Q 2624 1235 2624 1632 
L 2624 1734 
Q 2624 2080 2553 2317 
Q 2483 2554 2361 2694 
Q 2240 2835 2080 2892 
Q 1920 2950 1741 2950 
Q 1427 2950 1228 2825 
Q 1030 2701 934 2435 
Q 838 2170 838 1747 
L 838 1613 
Q 838 1178 940 912 
Q 1043 646 1238 531 
Q 1434 416 1722 416 
z
" transform="scale(0.015625)"/>
        <path id="Archivo-Regular-7a" d="M 198 0 
L 198 301 
L 2074 2893 
L 333 2893 
L 333 3366 
L 2880 3366 
L 2880 3072 
L 998 474 
L 2982 474 
L 2982 0 
L 198 0 
z
" transform="scale(0.015625)"/>
        <path id="Archivo-Regular-61" d="M 1286 -77 
Q 1101 -77 915 -32 
Q 730 13 570 115 
Q 410 218 314 400 
Q 218 582 218 858 
Q 218 1203 384 1427 
Q 550 1651 848 1776 
Q 1146 1901 1555 1949 
Q 1965 1997 2445 1997 
L 2445 2381 
Q 2445 2566 2381 2700 
Q 2317 2835 2153 2908 
Q 1990 2982 1690 2982 
Q 1402 2982 1232 2908 
Q 1062 2835 995 2720 
Q 928 2605 928 2464 
L 928 2368 
L 384 2368 
Q 378 2400 378 2432 
Q 378 2464 378 2509 
Q 378 2816 547 3024 
Q 717 3232 1024 3337 
Q 1331 3443 1728 3443 
Q 2150 3443 2435 3321 
Q 2720 3200 2864 2976 
Q 3008 2752 3008 2438 
L 3008 614 
Q 3008 493 3065 445 
Q 3123 397 3206 397 
L 3456 397 
L 3456 26 
Q 3366 -13 3257 -41 
Q 3149 -70 3008 -70 
Q 2842 -70 2733 -3 
Q 2624 64 2566 182 
Q 2509 301 2490 448 
L 2445 448 
Q 2330 288 2154 169 
Q 1978 51 1760 -13 
Q 1542 -77 1286 -77 
z
M 1427 397 
Q 1632 397 1814 461 
Q 1997 525 2137 643 
Q 2278 762 2361 928 
Q 2445 1094 2445 1293 
L 2445 1574 
Q 1926 1574 1561 1516 
Q 1197 1459 1001 1312 
Q 806 1165 806 896 
Q 806 723 883 614 
Q 960 506 1101 451 
Q 1242 397 1427 397 
z
" transform="scale(0.015625)"/>
       </defs>
       <use xlink:href="#Archivo-Regular-4d"/>
       <use xlink:href="#Archivo-Regular-65" x="84.699982"/>
       <use xlink:href="#Archivo-Regular-6e" x="139.499969"/>
       <use xlink:href="#Archivo-Regular-64" x="195.799957"/>
       <use xlink:href="#Archivo-Regular-6f" x="252.499954"/>
       <use xlink:href="#Archivo-Regular-7a" x="309.499939"/>
       <use xlink:href="#Archivo-Regular-61" x="359.299927"/>
      </g>
     </g>
    </g>
    <g id="ytick_6">
     <g id="line2d_12">
      <g>
       <use xlink:href="#m5825229565" x="135.525313" y="579.212749" style="stroke: #000000; stroke-width: 0.8"/>
      </g>
     </g>
     <g id="text_12">
      <!-- Córdoba -->
      <g transform="translate(74.218438 584.27353) scale(0.14 -0.14)">
       <defs>
        <path id="Archivo-Regular-f3" d="M 1824 -77 
Q 1312 -77 963 112 
Q 614 301 432 691 
Q 250 1082 250 1683 
Q 250 2291 432 2678 
Q 614 3066 963 3254 
Q 1312 3443 1824 3443 
Q 2336 3443 2685 3254 
Q 3034 3066 3213 2678 
Q 3392 2291 3392 1683 
Q 3392 1082 3213 691 
Q 3034 301 2685 112 
Q 2336 -77 1824 -77 
z
M 1824 397 
Q 2150 397 2368 525 
Q 2586 653 2698 925 
Q 2810 1197 2810 1613 
L 2810 1754 
Q 2810 2176 2698 2445 
Q 2586 2714 2368 2842 
Q 2150 2970 1824 2970 
Q 1498 2970 1277 2842 
Q 1056 2714 947 2445 
Q 838 2176 838 1754 
L 838 1613 
Q 838 1197 947 925 
Q 1056 653 1277 525 
Q 1498 397 1824 397 
z
M 1491 3782 
L 2042 4627 
L 2682 4627 
L 2688 4608 
L 1978 3782 
L 1491 3782 
z
" transform="scale(0.015625)"/>
       </defs>
       <use xlink:href="#Archivo-Regular-43"/>
       <use xlink:href="#Archivo-Regular-f3" x="72.799988"/>
       <use xlink:href="#Archivo-Regular-72" x="129.799973"/>
       <use xlink:href="#Archivo-Regular-64" x="162.999969"/>
       <use xlink:href="#Archivo-Regular-6f" x="219.699966"/>
       <use xlink:href="#Archivo-Regular-62" x="276.699951"/>
       <use xlink:href="#Archivo-Regular-61" x="333.399948"/>
      </g>
     </g>
    </g>
    <g id="ytick_7">
     <g id="line2d_13">
      <g>
       <use xlink:href="#m5825229565" x="135.525313" y="549.953785" style="stroke: #000000; stroke-width: 0.8"/>
      </g>
     </g>
     <g id="text_13">
      <!-- Tucumán -->
      <g transform="translate(69.486875 555.014566) scale(0.14 -0.14)">
       <defs>
        <path id="Archivo-Regular-54" d="M 1626 0 
L 1626 3859 
L 122 3859 
L 122 4390 
L 3750 4390 
L 3750 3859 
L 2234 3859 
L 2234 0 
L 1626 0 
z
" transform="scale(0.015625)"/>
        <path id="Archivo-Regular-63" d="M 1722 -77 
Q 1235 -77 905 112 
Q 576 301 406 694 
Q 237 1088 237 1683 
Q 237 2278 406 2668 
Q 576 3059 912 3251 
Q 1248 3443 1741 3443 
Q 2086 3443 2339 3353 
Q 2592 3264 2758 3091 
Q 2925 2918 3005 2675 
Q 3085 2432 3085 2118 
L 2515 2118 
Q 2515 2413 2435 2601 
Q 2355 2790 2182 2883 
Q 2010 2976 1728 2976 
Q 1446 2976 1241 2851 
Q 1037 2726 928 2457 
Q 819 2189 819 1747 
L 819 1613 
Q 819 1197 924 921 
Q 1030 646 1235 518 
Q 1440 390 1734 390 
Q 2022 390 2198 492 
Q 2374 595 2454 787 
Q 2534 979 2534 1248 
L 3085 1248 
Q 3085 966 3005 723 
Q 2925 480 2758 301 
Q 2592 122 2336 22 
Q 2080 -77 1722 -77 
z
" transform="scale(0.015625)"/>
        <path id="Archivo-Regular-6d" d="M 442 0 
L 442 3366 
L 896 3366 
L 947 2861 
L 992 2861 
Q 1120 3066 1280 3194 
Q 1440 3322 1632 3382 
Q 1824 3443 2048 3443 
Q 2374 3443 2611 3312 
Q 2848 3181 2963 2861 
L 3002 2861 
Q 3123 3066 3283 3190 
Q 3443 3315 3641 3379 
Q 3840 3443 4064 3443 
Q 4371 3443 4601 3337 
Q 4832 3232 4963 2992 
Q 5094 2752 5094 2349 
L 5094 0 
L 4531 0 
L 4531 2259 
Q 4531 2464 4483 2598 
Q 4435 2733 4345 2806 
Q 4256 2880 4137 2912 
Q 4019 2944 3885 2944 
Q 3661 2944 3472 2829 
Q 3283 2714 3168 2496 
Q 3053 2278 3053 1978 
L 3053 0 
L 2490 0 
L 2490 2259 
Q 2490 2464 2438 2598 
Q 2387 2733 2304 2806 
Q 2221 2880 2102 2912 
Q 1984 2944 1856 2944 
Q 1626 2944 1430 2829 
Q 1235 2714 1120 2496 
Q 1005 2278 1005 1978 
L 1005 0 
L 442 0 
z
" transform="scale(0.015625)"/>
        <path id="Archivo-Regular-e1" d="M 1286 -77 
Q 1101 -77 915 -32 
Q 730 13 570 115 
Q 410 218 314 400 
Q 218 582 218 858 
Q 218 1203 384 1427 
Q 550 1651 848 1776 
Q 1146 1901 1555 1949 
Q 1965 1997 2445 1997 
L 2445 2381 
Q 2445 2566 2381 2700 
Q 2317 2835 2153 2908 
Q 1990 2982 1690 2982 
Q 1402 2982 1232 2908 
Q 1062 2835 995 2720 
Q 928 2605 928 2464 
L 928 2368 
L 384 2368 
Q 378 2400 378 2432 
Q 378 2464 378 2509 
Q 378 2816 547 3024 
Q 717 3232 1024 3337 
Q 1331 3443 1728 3443 
Q 2150 3443 2435 3321 
Q 2720 3200 2864 2976 
Q 3008 2752 3008 2438 
L 3008 614 
Q 3008 493 3065 445 
Q 3123 397 3206 397 
L 3456 397 
L 3456 26 
Q 3366 -13 3257 -41 
Q 3149 -70 3008 -70 
Q 2842 -70 2733 -3 
Q 2624 64 2566 182 
Q 2509 301 2490 448 
L 2445 448 
Q 2330 288 2154 169 
Q 1978 51 1760 -13 
Q 1542 -77 1286 -77 
z
M 1427 397 
Q 1632 397 1814 461 
Q 1997 525 2137 643 
Q 2278 762 2361 928 
Q 2445 1094 2445 1293 
L 2445 1574 
Q 1926 1574 1561 1516 
Q 1197 1459 1001 1312 
Q 806 1165 806 896 
Q 806 723 883 614 
Q 960 506 1101 451 
Q 1242 397 1427 397 
z
M 1370 3782 
L 1926 4627 
L 2560 4627 
L 2566 4608 
L 1862 3782 
L 1370 3782 
z
" transform="scale(0.015625)"/>
       </defs>
       <use xlink:href="#Archivo-Regular-54"/>
       <use xlink:href="#Archivo-Regular-75" x="60.599991"/>
       <use xlink:href="#Archivo-Regular-63" x="116.799988"/>
       <use xlink:href="#Archivo-Regular-75" x="168.699982"/>
       <use xlink:href="#Archivo-Regular-6d" x="224.899979"/>
       <use xlink:href="#Archivo-Regular-e1" x="310.899963"/>
       <use xlink:href="#Archivo-Regular-6e" x="365.399948"/>
      </g>
     </g>
    </g>
    <g id="ytick_8">
     <g id="line2d_14">
      <g>
       <use xlink:href="#m5825229565" x="135.525313" y="520.694821" style="stroke: #000000; stroke-width: 0.8"/>
      </g>
     </g>
     <g id="text_14">
      <!-- Salta -->
      <g transform="translate(96.535313 525.755602) scale(0.14 -0.14)">
       <defs>
        <path id="Archivo-Regular-53" d="M 2163 -77 
Q 1805 -77 1475 -6 
Q 1146 64 890 221 
Q 634 378 483 627 
Q 333 877 333 1242 
Q 333 1274 336 1306 
Q 339 1338 339 1370 
L 954 1370 
Q 954 1350 950 1308 
Q 947 1267 947 1235 
Q 947 979 1100 800 
Q 1254 621 1526 534 
Q 1798 448 2144 448 
Q 2298 448 2467 467 
Q 2637 486 2793 534 
Q 2950 582 3075 662 
Q 3200 742 3273 860 
Q 3347 979 3347 1152 
Q 3347 1370 3222 1514 
Q 3098 1658 2893 1750 
Q 2688 1843 2429 1916 
Q 2170 1990 1894 2060 
Q 1619 2131 1360 2224 
Q 1101 2317 896 2454 
Q 691 2592 566 2797 
Q 442 3002 442 3296 
Q 442 3571 554 3788 
Q 666 4006 886 4156 
Q 1107 4307 1433 4387 
Q 1760 4467 2182 4467 
Q 2528 4467 2825 4393 
Q 3123 4320 3350 4169 
Q 3578 4019 3706 3788 
Q 3834 3558 3834 3232 
L 3834 3155 
L 3232 3155 
L 3232 3251 
Q 3232 3469 3097 3622 
Q 2963 3776 2729 3859 
Q 2496 3942 2202 3942 
Q 1818 3942 1562 3868 
Q 1306 3795 1181 3657 
Q 1056 3520 1056 3347 
Q 1056 3149 1181 3014 
Q 1306 2880 1510 2793 
Q 1715 2707 1977 2636 
Q 2240 2566 2512 2492 
Q 2784 2419 3043 2326 
Q 3302 2234 3510 2096 
Q 3718 1958 3840 1750 
Q 3962 1542 3962 1242 
Q 3962 774 3731 483 
Q 3501 192 3097 57 
Q 2694 -77 2163 -77 
z
" transform="scale(0.015625)"/>
        <path id="Archivo-Regular-6c" d="M 442 0 
L 442 4627 
L 1005 4627 
L 1005 0 
L 442 0 
z
" transform="scale(0.015625)"/>
       </defs>
       <use xlink:href="#Archivo-Regular-53"/>
       <use xlink:href="#Archivo-Regular-61" x="67.299988"/>
       <use xlink:href="#Archivo-Regular-6c" x="121.799973"/>
       <use xlink:href="#Archivo-Regular-74" x="144.299957"/>
       <use xlink:href="#Archivo-Regular-61" x="173.999954"/>
      </g>
     </g>
    </g>
    <g id="ytick_9">
     <g id="line2d_15">
      <g>
       <use xlink:href="#m5825229565" x="135.525313" y="491.435857" style="stroke: #000000; stroke-width: 0.8"/>
      </g>
     </g>
     <g id="text_15">
      <!-- Buenos Aires -->
      <g transform="translate(45.126875 496.496638) scale(0.14 -0.14)">
       <defs>
        <path id="Archivo-Regular-42" d="M 550 0 
L 550 4390 
L 2816 4390 
Q 3194 4390 3469 4259 
Q 3744 4128 3894 3891 
Q 4045 3654 4045 3328 
Q 4045 3078 3955 2867 
Q 3866 2656 3706 2515 
Q 3546 2374 3341 2304 
L 3341 2278 
Q 3571 2227 3756 2092 
Q 3942 1958 4054 1737 
Q 4166 1517 4166 1197 
Q 4166 768 3987 505 
Q 3808 243 3507 121 
Q 3206 0 2816 0 
L 550 0 
z
M 1158 525 
L 2810 525 
Q 3136 525 3341 694 
Q 3546 864 3546 1261 
Q 3546 1504 3456 1667 
Q 3366 1830 3193 1910 
Q 3021 1990 2758 1990 
L 1158 1990 
L 1158 525 
z
M 1158 2509 
L 2701 2509 
Q 2918 2509 3078 2595 
Q 3238 2682 3331 2838 
Q 3424 2995 3424 3194 
Q 3424 3539 3238 3702 
Q 3053 3866 2746 3866 
L 1158 3866 
L 1158 2509 
z
" transform="scale(0.015625)"/>
        <path id="Archivo-Regular-41" d="M 45 0 
L 1779 4390 
L 2579 4390 
L 4320 0 
L 3661 0 
L 3232 1088 
L 1094 1088 
L 672 0 
L 45 0 
z
M 1293 1606 
L 3027 1606 
L 2496 2982 
Q 2477 3040 2438 3142 
Q 2400 3245 2355 3369 
Q 2310 3494 2265 3625 
Q 2221 3757 2182 3866 
L 2144 3866 
Q 2099 3738 2041 3571 
Q 1984 3405 1926 3248 
Q 1869 3091 1830 2982 
L 1293 1606 
z
" transform="scale(0.015625)"/>
       </defs>
       <use xlink:href="#Archivo-Regular-42"/>
       <use xlink:href="#Archivo-Regular-75" x="69.799988"/>
       <use xlink:href="#Archivo-Regular-65" x="125.999985"/>
       <use xlink:href="#Archivo-Regular-6e" x="180.799973"/>
       <use xlink:href="#Archivo-Regular-6f" x="237.09996"/>
       <use xlink:href="#Archivo-Regular-73" x="294.099945"/>
       <use xlink:href="#Archivo-Regular-20" x="345.09993"/>
       <use xlink:href="#Archivo-Regular-41" x="365.999924"/>
       <use xlink:href="#Archivo-Regular-69" x="434.199905"/>
       <use xlink:href="#Archivo-Regular-72" x="456.69989"/>
       <use xlink:href="#Archivo-Regular-65" x="489.899887"/>
       <use xlink:href="#Archivo-Regular-73" x="544.699875"/>
      </g>
     </g>
    </g>
    <g id="ytick_10">
     <g id="line2d_16">
      <g>
       <use xlink:href="#m5825229565" x="135.525313" y="462.176892" style="stroke: #000000; stroke-width: 0.8"/>
      </g>
     </g>
     <g id="text_16">
      <!-- Santiago del Estero -->
      <g transform="translate(7.2 467.237674) scale(0.14 -0.14)">
       <defs>
        <path id="Archivo-Regular-67" d="M 1011 -1165 
Q 768 -1165 563 -1065 
Q 358 -966 236 -780 
Q 115 -595 115 -339 
Q 115 -58 272 128 
Q 429 314 646 403 
Q 486 480 396 617 
Q 307 755 307 922 
Q 307 1146 470 1299 
Q 634 1453 870 1504 
Q 653 1645 528 1865 
Q 403 2086 403 2355 
Q 403 2675 553 2918 
Q 704 3162 1014 3302 
Q 1325 3443 1773 3443 
Q 1978 3443 2157 3414 
Q 2336 3386 2477 3322 
Q 2701 3424 2813 3584 
Q 2925 3744 2950 3910 
L 3507 3910 
Q 3507 3718 3420 3548 
Q 3334 3379 3187 3267 
Q 3040 3155 2829 3117 
Q 2989 2963 3069 2771 
Q 3149 2579 3149 2355 
Q 3149 2035 2998 1788 
Q 2848 1542 2547 1401 
Q 2246 1261 1792 1261 
L 1267 1261 
Q 1094 1261 985 1193 
Q 877 1126 877 979 
Q 877 851 985 771 
Q 1094 691 1267 691 
L 2637 691 
Q 3008 691 3245 444 
Q 3482 198 3482 -186 
Q 3482 -461 3344 -681 
Q 3206 -902 2960 -1033 
Q 2714 -1165 2387 -1165 
L 1011 -1165 
z
M 1171 -736 
L 2381 -736 
Q 2528 -736 2649 -675 
Q 2771 -614 2841 -505 
Q 2912 -397 2912 -269 
Q 2912 -51 2784 77 
Q 2656 205 2464 205 
L 1171 205 
Q 966 205 825 67 
Q 685 -70 685 -269 
Q 685 -480 825 -608 
Q 966 -736 1171 -736 
z
M 1779 1683 
Q 2189 1683 2387 1862 
Q 2586 2042 2586 2355 
Q 2586 2662 2387 2841 
Q 2189 3021 1779 3021 
Q 1370 3021 1168 2841 
Q 966 2662 966 2355 
Q 966 2157 1056 2003 
Q 1146 1850 1325 1766 
Q 1504 1683 1779 1683 
z
" transform="scale(0.015625)"/>
       </defs>
       <use xlink:href="#Archivo-Regular-53"/>
       <use xlink:href="#Archivo-Regular-61" x="67.299988"/>
       <use xlink:href="#Archivo-Regular-6e" x="121.799973"/>
       <use xlink:href="#Archivo-Regular-74" x="178.09996"/>
       <use xlink:href="#Archivo-Regular-69" x="207.799957"/>
       <use xlink:href="#Archivo-Regular-61" x="230.299942"/>
       <use xlink:href="#Archivo-Regular-67" x="284.799927"/>
       <use xlink:href="#Archivo-Regular-6f" x="340.399918"/>
       <use xlink:href="#Archivo-Regular-20" x="397.399902"/>
       <use xlink:href="#Archivo-Regular-64" x="418.299896"/>
       <use xlink:href="#Archivo-Regular-65" x="474.999893"/>
       <use xlink:href="#Archivo-Regular-6c" x="529.799881"/>
       <use xlink:href="#Archivo-Regular-20" x="552.299866"/>
       <use xlink:href="#Archivo-Regular-45" x="573.19986"/>
       <use xlink:href="#Archivo-Regular-73" x="640.899841"/>
       <use xlink:href="#Archivo-Regular-74" x="691.899826"/>
       <use xlink:href="#Archivo-Regular-65" x="721.599823"/>
       <use xlink:href="#Archivo-Regular-72" x="776.399811"/>
       <use xlink:href="#Archivo-Regular-6f" x="809.599808"/>
      </g>
     </g>
    </g>
    <g id="ytick_11">
     <g id="line2d_17">
      <g>
       <use xlink:href="#m5825229565" x="135.525313" y="432.917928" style="stroke: #000000; stroke-width: 0.8"/>
      </g>
     </g>
     <g id="text_17">
      <!-- San Juan -->
      <g transform="translate(69.458438 437.97871) scale(0.14 -0.14)">
       <defs>
        <path id="Archivo-Regular-4a" d="M 1626 -77 
Q 1184 -77 867 67 
Q 550 211 387 489 
Q 224 768 224 1190 
L 224 1382 
L 832 1382 
L 832 1158 
Q 832 813 1037 630 
Q 1242 448 1626 448 
Q 2016 448 2224 697 
Q 2432 947 2432 1440 
L 2432 4390 
L 3040 4390 
L 3040 1472 
Q 3040 954 2873 608 
Q 2707 262 2390 92 
Q 2074 -77 1626 -77 
z
" transform="scale(0.015625)"/>
       </defs>
       <use xlink:href="#Archivo-Regular-53"/>
       <use xlink:href="#Archivo-Regular-61" x="67.299988"/>
       <use xlink:href="#Archivo-Regular-6e" x="121.799973"/>
       <use xlink:href="#Archivo-Regular-20" x="178.09996"/>
       <use xlink:href="#Archivo-Regular-4a" x="198.999954"/>
       <use xlink:href="#Archivo-Regular-75" x="254.899948"/>
       <use xlink:href="#Archivo-Regular-61" x="311.099945"/>
       <use xlink:href="#Archivo-Regular-6e" x="365.59993"/>
      </g>
     </g>
    </g>
    <g id="ytick_12">
     <g id="line2d_18">
      <g>
       <use xlink:href="#m5825229565" x="135.525313" y="403.658964" style="stroke: #000000; stroke-width: 0.8"/>
      </g>
     </g>
     <g id="text_18">
      <!-- Total Nacional -->
      <g transform="translate(39.205313 408.719745) scale(0.14 -0.14)">
       <use xlink:href="#Archivo-Regular-54"/>
       <use xlink:href="#Archivo-Regular-6f" x="60.599991"/>
       <use xlink:href="#Archivo-Regular-74" x="117.599976"/>
       <use xlink:href="#Archivo-Regular-61" x="147.299973"/>
       <use xlink:href="#Archivo-Regular-6c" x="201.799957"/>
       <use xlink:href="#Archivo-Regular-20" x="224.299942"/>
       <use xlink:href="#Archivo-Regular-4e" x="245.199936"/>
       <use xlink:href="#Archivo-Regular-61" x="318.799927"/>
       <use xlink:href="#Archivo-Regular-63" x="373.299911"/>
       <use xlink:href="#Archivo-Regular-69" x="425.199905"/>
       <use xlink:href="#Archivo-Regular-6f" x="447.69989"/>
       <use xlink:href="#Archivo-Regular-6e" x="504.699875"/>
       <use xlink:href="#Archivo-Regular-61" x="560.999863"/>
       <use xlink:href="#Archivo-Regular-6c" x="615.499847"/>
      </g>
     </g>
    </g>
    <g id="ytick_13">
     <g id="line2d_19">
      <g>
       <use xlink:href="#m5825229565" x="135.525313" y="374.4" style="stroke: #000000; stroke-width: 0.8"/>
      </g>
     </g>
     <g id="text_19">
      <!-- San Luis -->
      <g transform="translate(75.00375 379.460781) scale(0.14 -0.14)">
       <defs>
        <path id="Archivo-Regular-4c" d="M 550 0 
L 550 4390 
L 1158 4390 
L 1158 531 
L 3341 531 
L 3341 0 
L 550 0 
z
" transform="scale(0.015625)"/>
       </defs>
       <use xlink:href="#Archivo-Regular-53"/>
       <use xlink:href="#Archivo-Regular-61" x="67.299988"/>
       <use xlink:href="#Archivo-Regular-6e" x="121.799973"/>
       <use xlink:href="#Archivo-Regular-20" x="178.09996"/>
       <use xlink:href="#Archivo-Regular-4c" x="198.999954"/>
       <use xlink:href="#Archivo-Regular-75" x="252.599945"/>
       <use xlink:href="#Archivo-Regular-69" x="308.799942"/>
       <use xlink:href="#Archivo-Regular-73" x="331.299927"/>
      </g>
     </g>
    </g>
    <g id="ytick_14">
     <g id="line2d_20">
      <g>
       <use xlink:href="#m5825229565" x="135.525313" y="345.141036" style="stroke: #000000; stroke-width: 0.8"/>
      </g>
     </g>
     <g id="text_20">
      <!-- Jujuy -->
      <g transform="translate(94.783125 350.201817) scale(0.14 -0.14)">
       <defs>
        <path id="Archivo-Regular-6a" d="M 442 4000 
L 442 4627 
L 1005 4627 
L 1005 4000 
L 442 4000 
z
M 294 -1165 
Q 224 -1165 141 -1155 
Q 58 -1146 -19 -1130 
Q -96 -1114 -147 -1094 
L -147 -704 
L 141 -704 
Q 288 -704 365 -624 
Q 442 -544 442 -397 
L 442 3366 
L 1005 3366 
L 1005 -410 
Q 1005 -602 941 -774 
Q 877 -947 726 -1056 
Q 576 -1165 294 -1165 
z
" transform="scale(0.015625)"/>
        <path id="Archivo-Regular-79" d="M 730 -1165 
Q 576 -1165 464 -1142 
Q 352 -1120 314 -1114 
L 314 -704 
L 595 -704 
Q 749 -704 896 -640 
Q 1043 -576 1171 -422 
Q 1299 -269 1389 0 
L 83 3366 
L 672 3366 
L 1344 1632 
Q 1389 1510 1449 1334 
Q 1510 1158 1571 972 
Q 1632 787 1670 646 
L 1709 646 
Q 1734 749 1772 877 
Q 1811 1005 1852 1142 
Q 1894 1280 1936 1405 
Q 1978 1530 2003 1626 
L 2573 3366 
L 3142 3366 
L 2003 96 
Q 1907 -179 1792 -412 
Q 1677 -646 1536 -812 
Q 1395 -979 1196 -1072 
Q 998 -1165 730 -1165 
z
" transform="scale(0.015625)"/>
       </defs>
       <use xlink:href="#Archivo-Regular-4a"/>
       <use xlink:href="#Archivo-Regular-75" x="55.899994"/>
       <use xlink:href="#Archivo-Regular-6a" x="112.099991"/>
       <use xlink:href="#Archivo-Regular-75" x="134.399979"/>
       <use xlink:href="#Archivo-Regular-79" x="190.599976"/>
      </g>
     </g>
    </g>
    <g id="ytick_15">
     <g id="line2d_21">
      <g>
       <use xlink:href="#m5825229565" x="135.525313" y="315.882072" style="stroke: #000000; stroke-width: 0.8"/>
      </g>
     </g>
     <g id="text_21">
      <!-- La Rioja -->
      <g transform="translate(78.405313 320.942853) scale(0.14 -0.14)">
       <use xlink:href="#Archivo-Regular-4c"/>
       <use xlink:href="#Archivo-Regular-61" x="53.599991"/>
       <use xlink:href="#Archivo-Regular-20" x="108.099976"/>
       <use xlink:href="#Archivo-Regular-52" x="128.999969"/>
       <use xlink:href="#Archivo-Regular-69" x="201.699951"/>
       <use xlink:href="#Archivo-Regular-6f" x="224.199936"/>
       <use xlink:href="#Archivo-Regular-6a" x="281.199921"/>
       <use xlink:href="#Archivo-Regular-61" x="303.499908"/>
      </g>
     </g>
    </g>
    <g id="ytick_16">
     <g id="line2d_22">
      <g>
       <use xlink:href="#m5825229565" x="135.525313" y="286.623108" style="stroke: #000000; stroke-width: 0.8"/>
      </g>
     </g>
     <g id="text_22">
      <!-- La Pampa -->
      <g transform="translate(65.916875 291.683889) scale(0.14 -0.14)">
       <defs>
        <path id="Archivo-Regular-50" d="M 550 0 
L 550 4390 
L 2720 4390 
Q 3174 4390 3475 4220 
Q 3776 4051 3926 3750 
Q 4077 3450 4077 3053 
Q 4077 2650 3910 2339 
Q 3744 2029 3440 1856 
Q 3136 1683 2714 1683 
L 1158 1683 
L 1158 0 
L 550 0 
z
M 1158 2208 
L 2675 2208 
Q 3034 2208 3248 2432 
Q 3462 2656 3462 3046 
Q 3462 3309 3372 3488 
Q 3283 3667 3110 3766 
Q 2938 3866 2675 3866 
L 1158 3866 
L 1158 2208 
z
" transform="scale(0.015625)"/>
        <path id="Archivo-Regular-70" d="M 442 -1107 
L 442 3366 
L 890 3366 
L 947 2886 
L 992 2886 
Q 1165 3168 1433 3305 
Q 1702 3443 2042 3443 
Q 2464 3443 2758 3257 
Q 3053 3072 3213 2678 
Q 3373 2285 3373 1658 
Q 3373 1069 3209 681 
Q 3046 294 2752 108 
Q 2458 -77 2067 -77 
Q 1850 -77 1658 -25 
Q 1466 26 1312 138 
Q 1158 250 1043 422 
L 1005 422 
L 1005 -1107 
L 442 -1107 
z
M 1888 416 
Q 2202 416 2400 541 
Q 2598 666 2694 931 
Q 2790 1197 2790 1613 
L 2790 1747 
Q 2790 2189 2688 2454 
Q 2586 2720 2390 2835 
Q 2195 2950 1907 2950 
Q 1594 2950 1392 2812 
Q 1190 2675 1097 2400 
Q 1005 2125 1005 1728 
L 1005 1632 
Q 1005 1280 1072 1046 
Q 1139 813 1264 672 
Q 1389 531 1549 473 
Q 1709 416 1888 416 
z
" transform="scale(0.015625)"/>
       </defs>
       <use xlink:href="#Archivo-Regular-4c"/>
       <use xlink:href="#Archivo-Regular-61" x="53.599991"/>
       <use xlink:href="#Archivo-Regular-20" x="108.099976"/>
       <use xlink:href="#Archivo-Regular-50" x="128.999969"/>
       <use xlink:href="#Archivo-Regular-61" x="195.499954"/>
       <use xlink:href="#Archivo-Regular-6d" x="249.999939"/>
       <use xlink:href="#Archivo-Regular-70" x="335.999924"/>
       <use xlink:href="#Archivo-Regular-61" x="392.699921"/>
      </g>
     </g>
    </g>
    <g id="ytick_17">
     <g id="line2d_23">
      <g>
       <use xlink:href="#m5825229565" x="135.525313" y="257.364143" style="stroke: #000000; stroke-width: 0.8"/>
      </g>
     </g>
     <g id="text_23">
      <!-- Santa Fe -->
      <g transform="translate(72.636875 262.424925) scale(0.14 -0.14)">
       <defs>
        <path id="Archivo-Regular-46" d="M 550 0 
L 550 4390 
L 3661 4390 
L 3661 3866 
L 1158 3866 
L 1158 2458 
L 3437 2458 
L 3437 1939 
L 1158 1939 
L 1158 0 
L 550 0 
z
" transform="scale(0.015625)"/>
       </defs>
       <use xlink:href="#Archivo-Regular-53"/>
       <use xlink:href="#Archivo-Regular-61" x="67.299988"/>
       <use xlink:href="#Archivo-Regular-6e" x="121.799973"/>
       <use xlink:href="#Archivo-Regular-74" x="178.09996"/>
       <use xlink:href="#Archivo-Regular-61" x="207.799957"/>
       <use xlink:href="#Archivo-Regular-20" x="262.299942"/>
       <use xlink:href="#Archivo-Regular-46" x="283.199936"/>
       <use xlink:href="#Archivo-Regular-65" x="344.399933"/>
      </g>
     </g>
    </g>
    <g id="ytick_18">
     <g id="line2d_24">
      <g>
       <use xlink:href="#m5825229565" x="135.525313" y="228.105179" style="stroke: #000000; stroke-width: 0.8"/>
      </g>
     </g>
     <g id="text_24">
      <!-- Corrientes -->
      <g transform="translate(63.38375 233.165961) scale(0.14 -0.14)">
       <use xlink:href="#Archivo-Regular-43"/>
       <use xlink:href="#Archivo-Regular-6f" x="72.799988"/>
       <use xlink:href="#Archivo-Regular-72" x="129.799973"/>
       <use xlink:href="#Archivo-Regular-72" x="162.999969"/>
       <use xlink:href="#Archivo-Regular-69" x="196.199966"/>
       <use xlink:href="#Archivo-Regular-65" x="218.699951"/>
       <use xlink:href="#Archivo-Regular-6e" x="273.499939"/>
       <use xlink:href="#Archivo-Regular-74" x="329.799927"/>
       <use xlink:href="#Archivo-Regular-65" x="359.499924"/>
       <use xlink:href="#Archivo-Regular-73" x="414.299911"/>
      </g>
     </g>
    </g>
    <g id="ytick_19">
     <g id="line2d_25">
      <g>
       <use xlink:href="#m5825229565" x="135.525313" y="198.846215" style="stroke: #000000; stroke-width: 0.8"/>
      </g>
     </g>
     <g id="text_25">
      <!-- Formosa -->
      <g transform="translate(72.538438 203.906996) scale(0.14 -0.14)">
       <use xlink:href="#Archivo-Regular-46"/>
       <use xlink:href="#Archivo-Regular-6f" x="61.199997"/>
       <use xlink:href="#Archivo-Regular-72" x="118.199982"/>
       <use xlink:href="#Archivo-Regular-6d" x="151.399979"/>
       <use xlink:href="#Archivo-Regular-6f" x="237.399963"/>
       <use xlink:href="#Archivo-Regular-73" x="294.399948"/>
       <use xlink:href="#Archivo-Regular-61" x="345.399933"/>
      </g>
     </g>
    </g>
    <g id="ytick_20">
     <g id="line2d_26">
      <g>
       <use xlink:href="#m5825229565" x="135.525313" y="169.587251" style="stroke: #000000; stroke-width: 0.8"/>
      </g>
     </g>
     <g id="text_26">
      <!-- Río Negro -->
      <g transform="translate(65.90375 174.648032) scale(0.14 -0.14)">
       <use xlink:href="#Archivo-Regular-52"/>
       <use xlink:href="#Archivo-Regular-ed" x="72.699982"/>
       <use xlink:href="#Archivo-Regular-6f" x="95.199966"/>
       <use xlink:href="#Archivo-Regular-20" x="152.199951"/>
       <use xlink:href="#Archivo-Regular-4e" x="173.099945"/>
       <use xlink:href="#Archivo-Regular-65" x="246.699936"/>
       <use xlink:href="#Archivo-Regular-67" x="301.499924"/>
       <use xlink:href="#Archivo-Regular-72" x="357.099915"/>
       <use xlink:href="#Archivo-Regular-6f" x="390.299911"/>
      </g>
     </g>
    </g>
    <g id="ytick_21">
     <g id="line2d_27">
      <g>
       <use xlink:href="#m5825229565" x="135.525313" y="140.328287" style="stroke: #000000; stroke-width: 0.8"/>
      </g>
     </g>
     <g id="text_27">
      <!-- Santa Cruz -->
      <g transform="translate(59.196875 145.389068) scale(0.14 -0.14)">
       <use xlink:href="#Archivo-Regular-53"/>
       <use xlink:href="#Archivo-Regular-61" x="67.299988"/>
       <use xlink:href="#Archivo-Regular-6e" x="121.799973"/>
       <use xlink:href="#Archivo-Regular-74" x="178.09996"/>
       <use xlink:href="#Archivo-Regular-61" x="207.799957"/>
       <use xlink:href="#Archivo-Regular-20" x="262.299942"/>
       <use xlink:href="#Archivo-Regular-43" x="283.199936"/>
       <use xlink:href="#Archivo-Regular-72" x="355.999924"/>
       <use xlink:href="#Archivo-Regular-75" x="389.199921"/>
       <use xlink:href="#Archivo-Regular-7a" x="445.399918"/>
      </g>
     </g>
    </g>
    <g id="ytick_22">
     <g id="line2d_28">
      <g>
       <use xlink:href="#m5825229565" x="135.525313" y="111.069323" style="stroke: #000000; stroke-width: 0.8"/>
      </g>
     </g>
     <g id="text_28">
      <!-- Chaco -->
      <g transform="translate(87.575313 116.130104) scale(0.14 -0.14)">
       <use xlink:href="#Archivo-Regular-43"/>
       <use xlink:href="#Archivo-Regular-68" x="72.799988"/>
       <use xlink:href="#Archivo-Regular-61" x="129.099976"/>
       <use xlink:href="#Archivo-Regular-63" x="183.59996"/>
       <use xlink:href="#Archivo-Regular-6f" x="235.499954"/>
      </g>
     </g>
    </g>
    <g id="ytick_23">
     <g id="line2d_29">
      <g>
       <use xlink:href="#m5825229565" x="135.525313" y="81.810359" style="stroke: #000000; stroke-width: 0.8"/>
      </g>
     </g>
     <g id="text_29">
      <!-- TdF -->
      <g transform="translate(103.535313 86.87114) scale(0.14 -0.14)">
       <use xlink:href="#Archivo-Regular-54"/>
       <use xlink:href="#Archivo-Regular-64" x="60.599991"/>
       <use xlink:href="#Archivo-Regular-46" x="117.299988"/>
      </g>
     </g>
    </g>
    <g id="ytick_24">
     <g id="line2d_30">
      <g>
       <use xlink:href="#m5825229565" x="135.525313" y="52.551394" style="stroke: #000000; stroke-width: 0.8"/>
      </g>
     </g>
     <g id="text_30">
      <!-- Catamarca -->
      <g transform="translate(59.7 57.612176) scale(0.14 -0.14)">
       <use xlink:href="#Archivo-Regular-43"/>
       <use xlink:href="#Archivo-Regular-61" x="72.799988"/>
       <use xlink:href="#Archivo-Regular-74" x="127.299973"/>
       <use xlink:href="#Archivo-Regular-61" x="156.999969"/>
       <use xlink:href="#Archivo-Regular-6d" x="211.499954"/>
       <use xlink:href="#Archivo-Regular-61" x="297.499939"/>
       <use xlink:href="#Archivo-Regular-72" x="351.999924"/>
       <use xlink:href="#Archivo-Regular-63" x="385.199921"/>
       <use xlink:href="#Archivo-Regular-61" x="437.099915"/>
      </g>
     </g>
    </g>
    <g id="ytick_25">
     <g id="line2d_31">
      <g>
       <use xlink:href="#m5825229565" x="135.525313" y="23.29243" style="stroke: #000000; stroke-width: 0.8"/>
      </g>
     </g>
     <g id="text_31">
      <!-- CABA -->
      <g transform="translate(89.465313 28.353212) scale(0.14 -0.14)">
       <use xlink:href="#Archivo-Regular-43"/>
       <use xlink:href="#Archivo-Regular-41" x="72.799988"/>
       <use xlink:href="#Archivo-Regular-42" x="140.999969"/>
       <use xlink:href="#Archivo-Regular-41" x="210.799957"/>
      </g>
     </g>
    </g>
   </g>
   <g id="patch_28">
    <path d="M 135.525313 741.6 
L 135.525313 7.2 
" style="fill: none; stroke: #000000; stroke-width: 0.8; stroke-linejoin: miter; stroke-linecap: square"/>
   </g>
   <g id="patch_29">
    <path d="M 135.525313 741.6 
L 747.525313 741.6 
" style="fill: none; stroke: #000000; stroke-width: 0.8; stroke-linejoin: miter; stroke-linecap: square"/>
   </g>
   <g id="text_32">
    <!-- 72.6 -->
    <g transform="translate(546.129022 729.896414) scale(0.16 -0.16)">
     <defs>
      <path id="Archivo-Regular-37" d="M 928 0 
Q 928 595 1081 1145 
Q 1235 1696 1481 2189 
Q 1728 2682 2022 3104 
Q 2317 3526 2598 3866 
L 250 3866 
L 250 4390 
L 3341 4390 
L 3341 4038 
Q 3104 3763 2851 3427 
Q 2598 3091 2368 2716 
Q 2138 2342 1952 1939 
Q 1766 1536 1657 1123 
Q 1549 710 1549 301 
L 1549 0 
L 928 0 
z
" transform="scale(0.015625)"/>
      <path id="Archivo-Regular-2e" d="M 570 0 
L 570 672 
L 1197 672 
L 1197 0 
L 570 0 
z
" transform="scale(0.015625)"/>
     </defs>
     <use xlink:href="#Archivo-Regular-37"/>
     <use xlink:href="#Archivo-Regular-32" x="55.299988"/>
     <use xlink:href="#Archivo-Regular-2e" x="111.999985"/>
     <use xlink:href="#Archivo-Regular-36" x="139.699982"/>
    </g>
   </g>
   <g id="text_33">
    <!-- 73.9 -->
    <g transform="translate(554.216201 700.63745) scale(0.16 -0.16)">
     <defs>
      <path id="Archivo-Regular-33" d="M 1843 -77 
Q 1331 -77 979 80 
Q 627 237 448 525 
Q 269 813 269 1210 
L 269 1293 
L 838 1293 
L 838 1210 
Q 838 813 1091 605 
Q 1344 397 1792 397 
Q 2240 397 2515 592 
Q 2790 787 2790 1216 
Q 2790 1530 2643 1696 
Q 2496 1862 2262 1929 
Q 2029 1997 1766 1997 
L 1306 1997 
L 1306 2470 
L 1786 2470 
Q 2029 2470 2233 2547 
Q 2438 2624 2563 2800 
Q 2688 2976 2688 3258 
Q 2688 3514 2576 3674 
Q 2464 3834 2272 3914 
Q 2080 3994 1850 3994 
Q 1594 3994 1389 3907 
Q 1184 3821 1065 3648 
Q 947 3475 947 3213 
L 947 3130 
L 371 3130 
L 371 3245 
Q 371 3610 560 3885 
Q 749 4160 1078 4313 
Q 1408 4467 1837 4467 
Q 2259 4467 2582 4332 
Q 2906 4198 3091 3936 
Q 3277 3674 3277 3290 
Q 3277 3008 3174 2813 
Q 3072 2618 2905 2490 
Q 2739 2362 2547 2278 
L 2547 2253 
Q 2899 2150 3136 1881 
Q 3373 1613 3373 1178 
Q 3373 787 3177 505 
Q 2982 224 2633 73 
Q 2285 -77 1843 -77 
z
" transform="scale(0.015625)"/>
      <path id="Archivo-Regular-39" d="M 1760 -77 
Q 1293 -77 998 102 
Q 704 282 569 589 
Q 435 896 435 1280 
L 1011 1280 
Q 1011 986 1097 787 
Q 1184 589 1357 493 
Q 1530 397 1792 397 
Q 2182 397 2390 598 
Q 2598 800 2681 1184 
Q 2765 1568 2771 2099 
Q 2688 1958 2521 1833 
Q 2355 1709 2134 1635 
Q 1914 1562 1664 1562 
Q 1190 1562 883 1750 
Q 576 1939 425 2265 
Q 275 2592 275 2995 
Q 275 3443 467 3772 
Q 659 4102 992 4284 
Q 1325 4467 1741 4467 
Q 2118 4467 2419 4358 
Q 2720 4250 2928 4006 
Q 3136 3763 3245 3350 
Q 3354 2938 3354 2323 
Q 3354 1651 3248 1190 
Q 3142 730 2937 451 
Q 2733 173 2435 48 
Q 2138 -77 1760 -77 
z
M 1779 2029 
Q 2093 2029 2301 2163 
Q 2509 2298 2611 2522 
Q 2714 2746 2714 3021 
Q 2714 3290 2614 3510 
Q 2515 3731 2307 3862 
Q 2099 3994 1786 3994 
Q 1472 3994 1267 3856 
Q 1062 3718 963 3494 
Q 864 3270 864 2989 
Q 864 2726 960 2508 
Q 1056 2291 1257 2160 
Q 1459 2029 1779 2029 
z
" transform="scale(0.015625)"/>
     </defs>
     <use xlink:href="#Archivo-Regular-37"/>
     <use xlink:href="#Archivo-Regular-33" x="55.299988"/>
     <use xlink:href="#Archivo-Regular-2e" x="112.599976"/>
     <use xlink:href="#Archivo-Regular-39" x="140.299973"/>
    </g>
   </g>
   <g id="text_34">
    <!-- 74.0 -->
    <g transform="translate(554.646925 671.378486) scale(0.16 -0.16)">
     <use xlink:href="#Archivo-Regular-37"/>
     <use xlink:href="#Archivo-Regular-34" x="55.299988"/>
     <use xlink:href="#Archivo-Regular-2e" x="110.799973"/>
     <use xlink:href="#Archivo-Regular-30" x="138.499969"/>
    </g>
   </g>
   <g id="text_35">
    <!-- 74.2 -->
    <g transform="translate(555.739473 642.119522) scale(0.16 -0.16)">
     <use xlink:href="#Archivo-Regular-37"/>
     <use xlink:href="#Archivo-Regular-34" x="55.299988"/>
     <use xlink:href="#Archivo-Regular-2e" x="110.799973"/>
     <use xlink:href="#Archivo-Regular-32" x="138.499969"/>
    </g>
   </g>
   <g id="text_36">
    <!-- 75.0 -->
    <g transform="translate(560.814992 612.860558) scale(0.16 -0.16)">
     <defs>
      <path id="Archivo-Regular-35" d="M 1856 -77 
Q 1395 -77 1049 96 
Q 704 269 512 592 
Q 320 915 320 1363 
L 890 1363 
Q 890 1062 1018 844 
Q 1146 627 1366 512 
Q 1587 397 1856 397 
Q 2131 397 2342 509 
Q 2554 621 2672 851 
Q 2790 1082 2790 1434 
Q 2790 1754 2681 1962 
Q 2573 2170 2371 2272 
Q 2170 2374 1907 2374 
Q 1715 2374 1542 2313 
Q 1370 2253 1232 2144 
Q 1094 2035 1005 1875 
L 474 1958 
L 659 4390 
L 3149 4390 
L 3149 3866 
L 1152 3866 
L 1050 2496 
Q 1158 2592 1296 2672 
Q 1434 2752 1613 2800 
Q 1792 2848 2022 2848 
Q 2400 2848 2707 2701 
Q 3014 2554 3193 2246 
Q 3373 1939 3373 1453 
Q 3373 973 3190 627 
Q 3008 282 2669 102 
Q 2330 -77 1856 -77 
z
" transform="scale(0.015625)"/>
     </defs>
     <use xlink:href="#Archivo-Regular-37"/>
     <use xlink:href="#Archivo-Regular-35" x="55.299988"/>
     <use xlink:href="#Archivo-Regular-2e" x="112.399979"/>
     <use xlink:href="#Archivo-Regular-30" x="140.099976"/>
    </g>
   </g>
   <g id="text_37">
    <!-- 75.1 -->
    <g transform="translate(561.420367 583.601594) scale(0.16 -0.16)">
     <use xlink:href="#Archivo-Regular-37"/>
     <use xlink:href="#Archivo-Regular-35" x="55.299988"/>
     <use xlink:href="#Archivo-Regular-2e" x="112.399979"/>
     <use xlink:href="#Archivo-Regular-31" x="140.099976"/>
    </g>
   </g>
   <g id="text_38">
    <!-- 75.9 -->
    <g transform="translate(566.299799 554.342629) scale(0.16 -0.16)">
     <use xlink:href="#Archivo-Regular-37"/>
     <use xlink:href="#Archivo-Regular-35" x="55.299988"/>
     <use xlink:href="#Archivo-Regular-2e" x="112.399979"/>
     <use xlink:href="#Archivo-Regular-39" x="140.099976"/>
    </g>
   </g>
   <g id="text_39">
    <!-- 76.0 -->
    <g transform="translate(567.230943 525.083665) scale(0.16 -0.16)">
     <use xlink:href="#Archivo-Regular-37"/>
     <use xlink:href="#Archivo-Regular-36" x="55.299988"/>
     <use xlink:href="#Archivo-Regular-2e" x="112.599976"/>
     <use xlink:href="#Archivo-Regular-30" x="140.299973"/>
    </g>
   </g>
   <g id="text_40">
    <!-- 76.1 -->
    <g transform="translate(567.331807 495.824701) scale(0.16 -0.16)">
     <use xlink:href="#Archivo-Regular-37"/>
     <use xlink:href="#Archivo-Regular-36" x="55.299988"/>
     <use xlink:href="#Archivo-Regular-2e" x="112.599976"/>
     <use xlink:href="#Archivo-Regular-31" x="140.299973"/>
    </g>
   </g>
   <g id="text_41">
    <!-- 76.7 -->
    <g transform="translate(571.452939 466.565737) scale(0.16 -0.16)">
     <use xlink:href="#Archivo-Regular-37"/>
     <use xlink:href="#Archivo-Regular-36" x="55.299988"/>
     <use xlink:href="#Archivo-Regular-2e" x="112.599976"/>
     <use xlink:href="#Archivo-Regular-37" x="140.299973"/>
    </g>
   </g>
   <g id="text_42">
    <!-- 77.5 -->
    <g transform="translate(576.226614 437.306773) scale(0.16 -0.16)">
     <use xlink:href="#Archivo-Regular-37"/>
     <use xlink:href="#Archivo-Regular-37" x="55.299988"/>
     <use xlink:href="#Archivo-Regular-2e" x="110.599976"/>
     <use xlink:href="#Archivo-Regular-35" x="138.299973"/>
    </g>
   </g>
   <g id="text_43">
    <!-- 77.6 -->
    <g transform="translate(576.765378 408.047809) scale(0.16 -0.16)">
     <use xlink:href="#Archivo-Regular-37"/>
     <use xlink:href="#Archivo-Regular-37" x="55.299988"/>
     <use xlink:href="#Archivo-Regular-2e" x="110.599976"/>
     <use xlink:href="#Archivo-Regular-36" x="138.299973"/>
    </g>
   </g>
   <g id="text_44">
    <!-- 77.7 -->
    <g transform="translate(577.362046 378.788845) scale(0.16 -0.16)">
     <use xlink:href="#Archivo-Regular-37"/>
     <use xlink:href="#Archivo-Regular-37" x="55.299988"/>
     <use xlink:href="#Archivo-Regular-2e" x="110.599976"/>
     <use xlink:href="#Archivo-Regular-37" x="138.299973"/>
    </g>
   </g>
   <g id="text_45">
    <!-- 77.7 -->
    <g transform="translate(577.573386 349.52988) scale(0.16 -0.16)">
     <use xlink:href="#Archivo-Regular-37"/>
     <use xlink:href="#Archivo-Regular-37" x="55.299988"/>
     <use xlink:href="#Archivo-Regular-2e" x="110.599976"/>
     <use xlink:href="#Archivo-Regular-37" x="138.299973"/>
    </g>
   </g>
   <g id="text_46">
    <!-- 77.9 -->
    <g transform="translate(578.498456 320.270916) scale(0.16 -0.16)">
     <use xlink:href="#Archivo-Regular-37"/>
     <use xlink:href="#Archivo-Regular-37" x="55.299988"/>
     <use xlink:href="#Archivo-Regular-2e" x="110.599976"/>
     <use xlink:href="#Archivo-Regular-39" x="138.299973"/>
    </g>
   </g>
   <g id="text_47">
    <!-- 78.2 -->
    <g transform="translate(580.165511 291.011952) scale(0.16 -0.16)">
     <use xlink:href="#Archivo-Regular-37"/>
     <use xlink:href="#Archivo-Regular-38" x="55.299988"/>
     <use xlink:href="#Archivo-Regular-2e" x="112.699982"/>
     <use xlink:href="#Archivo-Regular-32" x="140.399979"/>
    </g>
   </g>
   <g id="text_48">
    <!-- 78.2 -->
    <g transform="translate(580.369782 261.752988) scale(0.16 -0.16)">
     <use xlink:href="#Archivo-Regular-37"/>
     <use xlink:href="#Archivo-Regular-38" x="55.299988"/>
     <use xlink:href="#Archivo-Regular-2e" x="112.699982"/>
     <use xlink:href="#Archivo-Regular-32" x="140.399979"/>
    </g>
   </g>
   <g id="text_49">
    <!-- 79.1 -->
    <g transform="translate(585.850645 232.494024) scale(0.16 -0.16)">
     <use xlink:href="#Archivo-Regular-37"/>
     <use xlink:href="#Archivo-Regular-39" x="55.299988"/>
     <use xlink:href="#Archivo-Regular-2e" x="112.599976"/>
     <use xlink:href="#Archivo-Regular-31" x="140.299973"/>
    </g>
   </g>
   <g id="text_50">
    <!-- 79.2 -->
    <g transform="translate(586.716178 203.23506) scale(0.16 -0.16)">
     <use xlink:href="#Archivo-Regular-37"/>
     <use xlink:href="#Archivo-Regular-39" x="55.299988"/>
     <use xlink:href="#Archivo-Regular-2e" x="112.599976"/>
     <use xlink:href="#Archivo-Regular-32" x="140.299973"/>
    </g>
   </g>
   <g id="text_51">
    <!-- 79.6 -->
    <g transform="translate(589.155385 173.976096) scale(0.16 -0.16)">
     <use xlink:href="#Archivo-Regular-37"/>
     <use xlink:href="#Archivo-Regular-39" x="55.299988"/>
     <use xlink:href="#Archivo-Regular-2e" x="112.599976"/>
     <use xlink:href="#Archivo-Regular-36" x="140.299973"/>
    </g>
   </g>
   <g id="text_52">
    <!-- 79.7 -->
    <g transform="translate(589.534934 144.717131) scale(0.16 -0.16)">
     <use xlink:href="#Archivo-Regular-37"/>
     <use xlink:href="#Archivo-Regular-39" x="55.299988"/>
     <use xlink:href="#Archivo-Regular-2e" x="112.599976"/>
     <use xlink:href="#Archivo-Regular-37" x="140.299973"/>
    </g>
   </g>
   <g id="text_53">
    <!-- 81.1 -->
    <g transform="translate(598.384835 115.458167) scale(0.16 -0.16)">
     <use xlink:href="#Archivo-Regular-38"/>
     <use xlink:href="#Archivo-Regular-31" x="57.399994"/>
     <use xlink:href="#Archivo-Regular-2e" x="109.499985"/>
     <use xlink:href="#Archivo-Regular-31" x="137.199982"/>
    </g>
   </g>
   <g id="text_54">
    <!-- 81.4 -->
    <g transform="translate(600.224782 86.199203) scale(0.16 -0.16)">
     <use xlink:href="#Archivo-Regular-38"/>
     <use xlink:href="#Archivo-Regular-31" x="57.399994"/>
     <use xlink:href="#Archivo-Regular-2e" x="109.499985"/>
     <use xlink:href="#Archivo-Regular-34" x="137.199982"/>
    </g>
   </g>
   <g id="text_55">
    <!-- 81.6 -->
    <g transform="translate(601.37356 56.940239) scale(0.16 -0.16)">
     <use xlink:href="#Archivo-Regular-38"/>
     <use xlink:href="#Archivo-Regular-31" x="57.399994"/>
     <use xlink:href="#Archivo-Regular-2e" x="109.499985"/>
     <use xlink:href="#Archivo-Regular-36" x="137.199982"/>
    </g>
   </g>
   <g id="text_56">
    <!-- 84.0 -->
    <g transform="translate(615.65048 27.681275) scale(0.16 -0.16)">
     <use xlink:href="#Archivo-Regular-38"/>
     <use xlink:href="#Archivo-Regular-34" x="57.399994"/>
     <use xlink:href="#Archivo-Regular-2e" x="112.899979"/>
     <use xlink:href="#Archivo-Regular-30" x="140.599976"/>
    </g>
   </g>
  </g>
 </g>
 <defs>
  <clipPath id="pc36a9d103c">
   <rect x="135.525313" y="7.2" width="612" height="734.4"/>
  </clipPath>
 </defs>
</svg>
