<?xml version="1.0" encoding="utf-8" standalone="no"?>
<!DOCTYPE svg PUBLIC "-//W3C//DTD SVG 1.1//EN"
  "http://www.w3.org/Graphics/SVG/1.1/DTD/svg11.dtd">
<svg xmlns:xlink="http://www.w3.org/1999/xlink" width="608.503125pt" height="807.57pt" viewBox="0 0 608.503125 807.57" xmlns="http://www.w3.org/2000/svg" version="1.1">
 <metadata>
  <rdf:RDF xmlns:dc="http://purl.org/dc/elements/1.1/" xmlns:cc="http://creativecommons.org/ns#" xmlns:rdf="http://www.w3.org/1999/02/22-rdf-syntax-ns#">
   <cc:Work>
    <dc:type rdf:resource="http://purl.org/dc/dcmitype/StillImage"/>
    <dc:date>2023-11-06T23:28:07.317699</dc:date>
    <dc:format>image/svg+xml</dc:format>
    <dc:creator>
     <cc:Agent>
      <dc:title>Matplotlib v3.6.3, https://matplotlib.org/</dc:title>
     </cc:Agent>
    </dc:creator>
   </cc:Work>
  </rdf:RDF>
 </metadata>
 <defs>
  <style type="text/css">*{stroke-linejoin: round; stroke-linecap: butt}</style>
 </defs>
 <g id="figure_1">
  <g id="patch_1">
   <path d="M 0 807.57 
L 608.503125 807.57 
L 608.503125 0 
L 0 0 
L 0 807.57 
z
" style="fill: none"/>
  </g>
  <g id="axes_1">
   <g id="patch_2">
    <path d="M 103.36875 741.6 
L 592.96875 741.6 
L 592.96875 7.2 
L 103.36875 7.2 
L 103.36875 741.6 
z
" style="fill: none"/>
   </g>
   <g id="patch_3">
    <path d="M 103.36875 734.314286 
L 460.894121 734.314286 
L 460.894121 724.114286 
L 103.36875 724.114286 
z
" clip-path="url(#p1497d2d7a8)" style="fill: #ff9750; opacity: 0.9"/>
   </g>
   <g id="patch_4">
    <path d="M 103.36875 705.171429 
L 476.996635 705.171429 
L 476.996635 694.971429 
L 103.36875 694.971429 
z
" clip-path="url(#p1497d2d7a8)" style="fill: #ff9750; opacity: 0.9"/>
   </g>
   <g id="patch_5">
    <path d="M 103.36875 676.028571 
L 472.775567 676.028571 
L 472.775567 665.828571 
L 103.36875 665.828571 
z
" clip-path="url(#p1497d2d7a8)" style="fill: #ff9750; opacity: 0.9"/>
   </g>
   <g id="patch_6">
    <path d="M 103.36875 646.885714 
L 486.989583 646.885714 
L 486.989583 636.685714 
L 103.36875 636.685714 
z
" clip-path="url(#p1497d2d7a8)" style="fill: #ff9750; opacity: 0.9"/>
   </g>
   <g id="patch_7">
    <path d="M 103.36875 617.742857 
L 475.011308 617.742857 
L 475.011308 607.542857 
L 103.36875 607.542857 
z
" clip-path="url(#p1497d2d7a8)" style="fill: #ff9750; opacity: 0.9"/>
   </g>
   <g id="patch_8">
    <path d="M 103.36875 588.6 
L 477.991382 588.6 
L 477.991382 578.4 
L 103.36875 578.4 
z
" clip-path="url(#p1497d2d7a8)" style="fill: #ff9750; opacity: 0.9"/>
   </g>
   <g id="patch_9">
    <path d="M 103.36875 559.457143 
L 474.795485 559.457143 
L 474.795485 549.257143 
L 103.36875 549.257143 
z
" clip-path="url(#p1497d2d7a8)" style="fill: #ff9750; opacity: 0.9"/>
   </g>
   <g id="patch_10">
    <path d="M 103.36875 530.314286 
L 488.90089 530.314286 
L 488.90089 520.114286 
L 103.36875 520.114286 
z
" clip-path="url(#p1497d2d7a8)" style="fill: #ff9750; opacity: 0.9"/>
   </g>
   <g id="patch_11">
    <path d="M 103.36875 501.171429 
L 473.43652 501.171429 
L 473.43652 490.971429 
L 103.36875 490.971429 
z
" clip-path="url(#p1497d2d7a8)" style="fill: #ff9750; opacity: 0.9"/>
   </g>
   <g id="patch_12">
    <path d="M 103.36875 472.028571 
L 478.545892 472.028571 
L 478.545892 461.828571 
L 103.36875 461.828571 
z
" clip-path="url(#p1497d2d7a8)" style="fill: #ff9750; opacity: 0.9"/>
   </g>
   <g id="patch_13">
    <path d="M 103.36875 442.885714 
L 490.277315 442.885714 
L 490.277315 432.685714 
L 103.36875 432.685714 
z
" clip-path="url(#p1497d2d7a8)" style="fill: #ff9750; opacity: 0.9; stroke: #000000; stroke-linejoin: miter"/>
   </g>
   <g id="patch_14">
    <path d="M 103.36875 413.742857 
L 485.513055 413.742857 
L 485.513055 403.542857 
L 103.36875 403.542857 
z
" clip-path="url(#p1497d2d7a8)" style="fill: #ff9750; opacity: 0.9"/>
   </g>
   <g id="patch_15">
    <path d="M 103.36875 384.6 
L 486.270175 384.6 
L 486.270175 374.4 
L 103.36875 374.4 
z
" clip-path="url(#p1497d2d7a8)" style="fill: #ff9750; opacity: 0.9"/>
   </g>
   <g id="patch_16">
    <path d="M 103.36875 355.457143 
L 514.843877 355.457143 
L 514.843877 345.257143 
L 103.36875 345.257143 
z
" clip-path="url(#p1497d2d7a8)" style="fill: #ff9750; opacity: 0.9"/>
   </g>
   <g id="patch_17">
    <path d="M 103.36875 326.314286 
L 494.415355 326.314286 
L 494.415355 316.114286 
L 103.36875 316.114286 
z
" clip-path="url(#p1497d2d7a8)" style="fill: #ff9750; opacity: 0.9"/>
   </g>
   <g id="patch_18">
    <path d="M 103.36875 297.171429 
L 483.03414 297.171429 
L 483.03414 286.971429 
L 103.36875 286.971429 
z
" clip-path="url(#p1497d2d7a8)" style="fill: #ff9750; opacity: 0.9"/>
   </g>
   <g id="patch_19">
    <path d="M 103.36875 268.028571 
L 476.711695 268.028571 
L 476.711695 257.828571 
L 103.36875 257.828571 
z
" clip-path="url(#p1497d2d7a8)" style="fill: #ff9750; opacity: 0.9"/>
   </g>
   <g id="patch_20">
    <path d="M 103.36875 238.885714 
L 501.331408 238.885714 
L 501.331408 228.685714 
L 103.36875 228.685714 
z
" clip-path="url(#p1497d2d7a8)" style="fill: #ff9750; opacity: 0.9"/>
   </g>
   <g id="patch_21">
    <path d="M 103.36875 209.742857 
L 495.504208 209.742857 
L 495.504208 199.542857 
L 103.36875 199.542857 
z
" clip-path="url(#p1497d2d7a8)" style="fill: #ff9750; opacity: 0.9"/>
   </g>
   <g id="patch_22">
    <path d="M 103.36875 180.6 
L 513.113189 180.6 
L 513.113189 170.4 
L 103.36875 170.4 
z
" clip-path="url(#p1497d2d7a8)" style="fill: #ff9750; opacity: 0.9"/>
   </g>
   <g id="patch_23">
    <path d="M 103.36875 151.457143 
L 493.557873 151.457143 
L 493.557873 141.257143 
L 103.36875 141.257143 
z
" clip-path="url(#p1497d2d7a8)" style="fill: #ff9750; opacity: 0.9"/>
   </g>
   <g id="patch_24">
    <path d="M 103.36875 122.314286 
L 524.433161 122.314286 
L 524.433161 112.114286 
L 103.36875 112.114286 
z
" clip-path="url(#p1497d2d7a8)" style="fill: #ff9750; opacity: 0.9"/>
   </g>
   <g id="patch_25">
    <path d="M 103.36875 93.171429 
L 497.948411 93.171429 
L 497.948411 82.971429 
L 103.36875 82.971429 
z
" clip-path="url(#p1497d2d7a8)" style="fill: #ff9750; opacity: 0.9"/>
   </g>
   <g id="patch_26">
    <path d="M 103.36875 64.028571 
L 511.369232 64.028571 
L 511.369232 53.828571 
L 103.36875 53.828571 
z
" clip-path="url(#p1497d2d7a8)" style="fill: #ff9750; opacity: 0.9"/>
   </g>
   <g id="patch_27">
    <path d="M 103.36875 34.885714 
L 522.272396 34.885714 
L 522.272396 24.685714 
L 103.36875 24.685714 
z
" clip-path="url(#p1497d2d7a8)" style="fill: #ff9750; opacity: 0.9"/>
   </g>
   <g id="patch_28">
    <path d="M 103.36875 724.114286 
L 456.33748 724.114286 
L 456.33748 713.914286 
L 103.36875 713.914286 
z
" clip-path="url(#p1497d2d7a8)" style="fill: #9fc1ad; opacity: 0.9"/>
   </g>
   <g id="patch_29">
    <path d="M 103.36875 694.971429 
L 452.508139 694.971429 
L 452.508139 684.771429 
L 103.36875 684.771429 
z
" clip-path="url(#p1497d2d7a8)" style="fill: #9fc1ad; opacity: 0.9"/>
   </g>
   <g id="patch_30">
    <path d="M 103.36875 665.828571 
L 459.55573 665.828571 
L 459.55573 655.628571 
L 103.36875 655.628571 
z
" clip-path="url(#p1497d2d7a8)" style="fill: #9fc1ad; opacity: 0.9"/>
   </g>
   <g id="patch_31">
    <path d="M 103.36875 636.685714 
L 446.7067 636.685714 
L 446.7067 626.485714 
L 103.36875 626.485714 
z
" clip-path="url(#p1497d2d7a8)" style="fill: #9fc1ad; opacity: 0.9"/>
   </g>
   <g id="patch_32">
    <path d="M 103.36875 607.542857 
L 463.504733 607.542857 
L 463.504733 597.342857 
L 103.36875 597.342857 
z
" clip-path="url(#p1497d2d7a8)" style="fill: #9fc1ad; opacity: 0.9"/>
   </g>
   <g id="patch_33">
    <path d="M 103.36875 578.4 
L 462.756735 578.4 
L 462.756735 568.2 
L 103.36875 568.2 
z
" clip-path="url(#p1497d2d7a8)" style="fill: #9fc1ad; opacity: 0.9"/>
   </g>
   <g id="patch_34">
    <path d="M 103.36875 549.257143 
L 474.862622 549.257143 
L 474.862622 539.057143 
L 103.36875 539.057143 
z
" clip-path="url(#p1497d2d7a8)" style="fill: #9fc1ad; opacity: 0.9"/>
   </g>
   <g id="patch_35">
    <path d="M 103.36875 520.114286 
L 461.990602 520.114286 
L 461.990602 509.914286 
L 103.36875 509.914286 
z
" clip-path="url(#p1497d2d7a8)" style="fill: #9fc1ad; opacity: 0.9"/>
   </g>
   <g id="patch_36">
    <path d="M 103.36875 490.971429 
L 477.643426 490.971429 
L 477.643426 480.771429 
L 103.36875 480.771429 
z
" clip-path="url(#p1497d2d7a8)" style="fill: #9fc1ad; opacity: 0.9"/>
   </g>
   <g id="patch_37">
    <path d="M 103.36875 461.828571 
L 477.96418 461.828571 
L 477.96418 451.628571 
L 103.36875 451.628571 
z
" clip-path="url(#p1497d2d7a8)" style="fill: #9fc1ad; opacity: 0.9"/>
   </g>
   <g id="patch_38">
    <path d="M 103.36875 432.685714 
L 475.810621 432.685714 
L 475.810621 422.485714 
L 103.36875 422.485714 
z
" clip-path="url(#p1497d2d7a8)" style="fill: #9fc1ad; opacity: 0.9; stroke: #000000; stroke-linejoin: miter"/>
   </g>
   <g id="patch_39">
    <path d="M 103.36875 403.542857 
L 480.359852 403.542857 
L 480.359852 393.342857 
L 103.36875 393.342857 
z
" clip-path="url(#p1497d2d7a8)" style="fill: #9fc1ad; opacity: 0.9"/>
   </g>
   <g id="patch_40">
    <path d="M 103.36875 374.4 
L 479.840226 374.4 
L 479.840226 364.2 
L 103.36875 364.2 
z
" clip-path="url(#p1497d2d7a8)" style="fill: #9fc1ad; opacity: 0.9"/>
   </g>
   <g id="patch_41">
    <path d="M 103.36875 345.257143 
L 454.657804 345.257143 
L 454.657804 335.057143 
L 103.36875 335.057143 
z
" clip-path="url(#p1497d2d7a8)" style="fill: #9fc1ad; opacity: 0.9"/>
   </g>
   <g id="patch_42">
    <path d="M 103.36875 316.114286 
L 474.451809 316.114286 
L 474.451809 305.914286 
L 103.36875 305.914286 
z
" clip-path="url(#p1497d2d7a8)" style="fill: #9fc1ad; opacity: 0.9"/>
   </g>
   <g id="patch_43">
    <path d="M 103.36875 286.971429 
L 487.065596 286.971429 
L 487.065596 276.771429 
L 103.36875 276.771429 
z
" clip-path="url(#p1497d2d7a8)" style="fill: #9fc1ad; opacity: 0.9"/>
   </g>
   <g id="patch_44">
    <path d="M 103.36875 257.828571 
L 495.354434 257.828571 
L 495.354434 247.628571 
L 103.36875 247.628571 
z
" clip-path="url(#p1497d2d7a8)" style="fill: #9fc1ad; opacity: 0.9"/>
   </g>
   <g id="patch_45">
    <path d="M 103.36875 228.685714 
L 478.635924 228.685714 
L 478.635924 218.485714 
L 103.36875 218.485714 
z
" clip-path="url(#p1497d2d7a8)" style="fill: #9fc1ad; opacity: 0.9"/>
   </g>
   <g id="patch_46">
    <path d="M 103.36875 199.542857 
L 487.210029 199.542857 
L 487.210029 189.342857 
L 103.36875 189.342857 
z
" clip-path="url(#p1497d2d7a8)" style="fill: #9fc1ad; opacity: 0.9"/>
   </g>
   <g id="patch_47">
    <path d="M 103.36875 170.4 
L 471.479386 170.4 
L 471.479386 160.2 
L 103.36875 160.2 
z
" clip-path="url(#p1497d2d7a8)" style="fill: #9fc1ad; opacity: 0.9"/>
   </g>
   <g id="patch_48">
    <path d="M 103.36875 141.257143 
L 493.451029 141.257143 
L 493.451029 131.057143 
L 103.36875 131.057143 
z
" clip-path="url(#p1497d2d7a8)" style="fill: #9fc1ad; opacity: 0.9"/>
   </g>
   <g id="patch_49">
    <path d="M 103.36875 112.114286 
L 477.407913 112.114286 
L 477.407913 101.914286 
L 103.36875 101.914286 
z
" clip-path="url(#p1497d2d7a8)" style="fill: #9fc1ad; opacity: 0.9"/>
   </g>
   <g id="patch_50">
    <path d="M 103.36875 82.971429 
L 503.237934 82.971429 
L 503.237934 72.771429 
L 103.36875 72.771429 
z
" clip-path="url(#p1497d2d7a8)" style="fill: #9fc1ad; opacity: 0.9"/>
   </g>
   <g id="patch_51">
    <path d="M 103.36875 53.828571 
L 495.555062 53.828571 
L 495.555062 43.628571 
L 103.36875 43.628571 
z
" clip-path="url(#p1497d2d7a8)" style="fill: #9fc1ad; opacity: 0.9"/>
   </g>
   <g id="patch_52">
    <path d="M 103.36875 24.685714 
L 506.917562 24.685714 
L 506.917562 14.485714 
L 103.36875 14.485714 
z
" clip-path="url(#p1497d2d7a8)" style="fill: #9fc1ad; opacity: 0.9"/>
   </g>
   <g id="PathCollection_1">
    <defs>
     <path id="m36c58d7922" d="M 0 4.330127 
C 1.148363 4.330127 2.249847 3.873878 3.061862 3.061862 
C 3.873878 2.249847 4.330127 1.148363 4.330127 0 
C 4.330127 -1.148363 3.873878 -2.249847 3.061862 -3.061862 
C 2.249847 -3.873878 1.148363 -4.330127 0 -4.330127 
C -1.148363 -4.330127 -2.249847 -3.873878 -3.061862 -3.061862 
C -3.873878 -2.249847 -4.330127 -1.148363 -4.330127 0 
C -4.330127 1.148363 -3.873878 2.249847 -3.061862 3.061862 
C -2.249847 3.873878 -1.148363 4.330127 0 4.330127 
z
" style="stroke: #8d9bff"/>
    </defs>
    <g clip-path="url(#p1497d2d7a8)">
     <use xlink:href="#m36c58d7922" x="458.608494" y="724.114286" style="fill: #8d9bff; stroke: #8d9bff"/>
     <use xlink:href="#m36c58d7922" x="464.5449" y="694.971429" style="fill: #8d9bff; stroke: #8d9bff"/>
     <use xlink:href="#m36c58d7922" x="466.105429" y="665.828571" style="fill: #8d9bff; stroke: #8d9bff"/>
     <use xlink:href="#m36c58d7922" x="466.289665" y="636.685714" style="fill: #8d9bff; stroke: #8d9bff"/>
     <use xlink:href="#m36c58d7922" x="469.212785" y="607.542857" style="fill: #8d9bff; stroke: #8d9bff"/>
     <use xlink:href="#m36c58d7922" x="470.295" y="578.4" style="fill: #8d9bff; stroke: #8d9bff"/>
     <use xlink:href="#m36c58d7922" x="474.829052" y="549.257143" style="fill: #8d9bff; stroke: #8d9bff"/>
     <use xlink:href="#m36c58d7922" x="475.202382" y="520.114286" style="fill: #8d9bff; stroke: #8d9bff"/>
     <use xlink:href="#m36c58d7922" x="475.534029" y="490.971429" style="fill: #8d9bff; stroke: #8d9bff"/>
     <use xlink:href="#m36c58d7922" x="478.254923" y="461.828571" style="fill: #8d9bff; stroke: #8d9bff"/>
     <use xlink:href="#m36c58d7922" x="482.86609" y="432.685714" style="fill: #8d9bff; stroke: #8d9bff"/>
     <use xlink:href="#m36c58d7922" x="482.927708" y="403.542857" style="fill: #8d9bff; stroke: #8d9bff"/>
     <use xlink:href="#m36c58d7922" x="483.041589" y="374.4" style="fill: #8d9bff; stroke: #8d9bff"/>
     <use xlink:href="#m36c58d7922" x="483.561738" y="345.257143" style="fill: #8d9bff; stroke: #8d9bff"/>
     <use xlink:href="#m36c58d7922" x="484.302826" y="316.114286" style="fill: #8d9bff; stroke: #8d9bff"/>
     <use xlink:href="#m36c58d7922" x="485.044545" y="286.971429" style="fill: #8d9bff; stroke: #8d9bff"/>
     <use xlink:href="#m36c58d7922" x="485.919517" y="257.828571" style="fill: #8d9bff; stroke: #8d9bff"/>
     <use xlink:href="#m36c58d7922" x="489.817093" y="228.685714" style="fill: #8d9bff; stroke: #8d9bff"/>
     <use xlink:href="#m36c58d7922" x="491.334955" y="199.542857" style="fill: #8d9bff; stroke: #8d9bff"/>
     <use xlink:href="#m36c58d7922" x="491.738788" y="170.4" style="fill: #8d9bff; stroke: #8d9bff"/>
     <use xlink:href="#m36c58d7922" x="493.504447" y="141.257143" style="fill: #8d9bff; stroke: #8d9bff"/>
     <use xlink:href="#m36c58d7922" x="500.224618" y="112.114286" style="fill: #8d9bff; stroke: #8d9bff"/>
     <use xlink:href="#m36c58d7922" x="500.584368" y="82.971429" style="fill: #8d9bff; stroke: #8d9bff"/>
     <use xlink:href="#m36c58d7922" x="503.384005" y="53.828571" style="fill: #8d9bff; stroke: #8d9bff"/>
     <use xlink:href="#m36c58d7922" x="514.523305" y="24.685714" style="fill: #8d9bff; stroke: #8d9bff"/>
    </g>
   </g>
   <g id="matplotlib.axis_1">
    <g id="xtick_1">
     <g id="line2d_1">
      <defs>
       <path id="m9c81c4b8f9" d="M 0 0 
L 0 3.5 
" style="stroke: #000000; stroke-width: 0.8"/>
      </defs>
      <g>
       <use xlink:href="#m9c81c4b8f9" x="103.36875" y="741.6" style="stroke: #000000; stroke-width: 0.8"/>
      </g>
     </g>
     <g id="text_1">
      <!-- 0 -->
      <g transform="translate(100.503906 755.829687) scale(0.1 -0.1)">
       <defs>
        <path id="Archivo-Regular-30" d="M 1837 -77 
Q 1478 -77 1196 28 
Q 915 134 716 393 
Q 518 653 416 1091 
Q 314 1530 314 2195 
Q 314 2861 416 3299 
Q 518 3738 716 3997 
Q 915 4256 1196 4361 
Q 1478 4467 1837 4467 
Q 2195 4467 2473 4361 
Q 2752 4256 2950 3997 
Q 3149 3738 3251 3299 
Q 3354 2861 3354 2195 
Q 3354 1530 3251 1091 
Q 3149 653 2950 393 
Q 2752 134 2473 28 
Q 2195 -77 1837 -77 
z
M 1837 397 
Q 2202 397 2403 582 
Q 2605 768 2685 1133 
Q 2765 1498 2765 2042 
L 2765 2336 
Q 2765 2886 2685 3254 
Q 2605 3622 2403 3808 
Q 2202 3994 1837 3994 
Q 1472 3994 1267 3808 
Q 1062 3622 982 3257 
Q 902 2893 902 2342 
L 902 2054 
Q 902 1510 982 1139 
Q 1062 768 1267 582 
Q 1472 397 1837 397 
z
" transform="scale(0.015625)"/>
       </defs>
       <use xlink:href="#Archivo-Regular-30"/>
      </g>
     </g>
    </g>
    <g id="xtick_2">
     <g id="line2d_2">
      <g>
       <use xlink:href="#m9c81c4b8f9" x="201.28875" y="741.6" style="stroke: #000000; stroke-width: 0.8"/>
      </g>
     </g>
     <g id="text_2">
      <!-- 20 -->
      <g transform="translate(195.58875 755.829687) scale(0.1 -0.1)">
       <defs>
        <path id="Archivo-Regular-32" d="M 320 0 
L 320 186 
Q 320 454 425 681 
Q 531 909 707 1097 
Q 883 1286 1107 1459 
Q 1331 1632 1562 1798 
Q 1875 2016 2140 2233 
Q 2406 2451 2566 2704 
Q 2726 2957 2726 3270 
Q 2726 3469 2633 3632 
Q 2541 3795 2355 3891 
Q 2170 3987 1882 3987 
Q 1542 3987 1337 3872 
Q 1133 3757 1040 3565 
Q 947 3373 947 3142 
L 947 2880 
L 390 2880 
Q 384 2912 377 2979 
Q 371 3046 371 3136 
Q 371 3610 582 3901 
Q 794 4192 1146 4329 
Q 1498 4467 1907 4467 
Q 2272 4467 2534 4368 
Q 2797 4269 2969 4096 
Q 3142 3923 3225 3702 
Q 3309 3482 3309 3238 
Q 3309 2938 3203 2688 
Q 3098 2438 2909 2224 
Q 2720 2010 2467 1811 
Q 2214 1613 1920 1408 
Q 1715 1274 1516 1123 
Q 1318 973 1177 819 
Q 1037 666 998 525 
L 3334 525 
L 3334 0 
L 320 0 
z
" transform="scale(0.015625)"/>
       </defs>
       <use xlink:href="#Archivo-Regular-32"/>
       <use xlink:href="#Archivo-Regular-30" x="56.699997"/>
      </g>
     </g>
    </g>
    <g id="xtick_3">
     <g id="line2d_3">
      <g>
       <use xlink:href="#m9c81c4b8f9" x="299.20875" y="741.6" style="stroke: #000000; stroke-width: 0.8"/>
      </g>
     </g>
     <g id="text_3">
      <!-- 40 -->
      <g transform="translate(293.568906 755.829687) scale(0.1 -0.1)">
       <defs>
        <path id="Archivo-Regular-34" d="M 2221 0 
L 2221 1075 
L 179 1075 
L 179 1549 
Q 448 2010 669 2477 
Q 890 2944 1066 3437 
Q 1242 3930 1357 4467 
L 1958 4467 
Q 1875 4115 1753 3747 
Q 1632 3379 1485 3033 
Q 1338 2688 1194 2387 
Q 1050 2086 925 1868 
Q 800 1651 723 1549 
L 2221 1549 
L 2221 2944 
Q 2259 3046 2300 3158 
Q 2342 3270 2380 3388 
Q 2419 3507 2451 3612 
Q 2483 3718 2502 3814 
L 2784 3814 
L 2784 1549 
L 3366 1549 
L 3366 1075 
L 2784 1075 
L 2784 0 
L 2221 0 
z
" transform="scale(0.015625)"/>
       </defs>
       <use xlink:href="#Archivo-Regular-34"/>
       <use xlink:href="#Archivo-Regular-30" x="55.499985"/>
      </g>
     </g>
    </g>
    <g id="xtick_4">
     <g id="line2d_4">
      <g>
       <use xlink:href="#m9c81c4b8f9" x="397.12875" y="741.6" style="stroke: #000000; stroke-width: 0.8"/>
      </g>
     </g>
     <g id="text_4">
      <!-- 60 -->
      <g transform="translate(391.399062 755.829687) scale(0.1 -0.1)">
       <defs>
        <path id="Archivo-Regular-36" d="M 1920 -77 
Q 1542 -77 1244 32 
Q 947 141 739 384 
Q 531 627 422 1040 
Q 314 1453 314 2067 
Q 314 2746 422 3203 
Q 531 3661 732 3939 
Q 934 4218 1232 4342 
Q 1530 4467 1907 4467 
Q 2381 4467 2672 4288 
Q 2963 4109 3097 3805 
Q 3232 3501 3232 3110 
L 2656 3110 
Q 2656 3405 2573 3603 
Q 2490 3802 2314 3898 
Q 2138 3994 1875 3994 
Q 1491 3994 1276 3792 
Q 1062 3590 982 3206 
Q 902 2822 896 2291 
Q 986 2438 1149 2560 
Q 1312 2682 1536 2755 
Q 1760 2829 2010 2829 
Q 2483 2829 2790 2640 
Q 3098 2451 3245 2124 
Q 3392 1798 3392 1395 
Q 3392 954 3200 621 
Q 3008 288 2675 105 
Q 2342 -77 1920 -77 
z
M 1882 397 
Q 2195 397 2400 534 
Q 2605 672 2704 899 
Q 2803 1126 2803 1402 
Q 2803 1664 2707 1881 
Q 2611 2099 2409 2230 
Q 2208 2362 1894 2362 
Q 1581 2362 1369 2227 
Q 1158 2093 1056 1872 
Q 954 1651 954 1370 
Q 954 1107 1056 883 
Q 1158 659 1363 528 
Q 1568 397 1882 397 
z
" transform="scale(0.015625)"/>
       </defs>
       <use xlink:href="#Archivo-Regular-36"/>
       <use xlink:href="#Archivo-Regular-30" x="57.299988"/>
      </g>
     </g>
    </g>
    <g id="xtick_5">
     <g id="line2d_5">
      <g>
       <use xlink:href="#m9c81c4b8f9" x="495.04875" y="741.6" style="stroke: #000000; stroke-width: 0.8"/>
      </g>
     </g>
     <g id="text_5">
      <!-- 80 -->
      <g transform="translate(489.313594 755.829687) scale(0.1 -0.1)">
       <defs>
        <path id="Archivo-Regular-38" d="M 1837 -77 
Q 1293 -77 953 96 
Q 614 269 457 557 
Q 301 845 301 1197 
Q 301 1555 480 1830 
Q 659 2106 1043 2253 
Q 736 2413 579 2675 
Q 422 2938 422 3258 
Q 422 3597 579 3869 
Q 736 4141 1053 4304 
Q 1370 4467 1837 4467 
Q 2304 4467 2617 4304 
Q 2931 4141 3091 3869 
Q 3251 3597 3251 3258 
Q 3251 2938 3091 2675 
Q 2931 2413 2624 2253 
Q 3014 2106 3190 1830 
Q 3366 1555 3366 1197 
Q 3366 845 3209 557 
Q 3053 269 2717 96 
Q 2381 -77 1837 -77 
z
M 1837 390 
Q 2304 390 2541 608 
Q 2778 826 2778 1203 
Q 2778 1574 2541 1792 
Q 2304 2010 1837 2010 
Q 1370 2010 1130 1792 
Q 890 1574 890 1203 
Q 890 826 1130 608 
Q 1370 390 1837 390 
z
M 1837 2477 
Q 2227 2477 2451 2678 
Q 2675 2880 2675 3245 
Q 2675 3603 2451 3801 
Q 2227 4000 1837 4000 
Q 1446 4000 1222 3801 
Q 998 3603 998 3245 
Q 998 2880 1222 2678 
Q 1446 2477 1837 2477 
z
" transform="scale(0.015625)"/>
       </defs>
       <use xlink:href="#Archivo-Regular-38"/>
       <use xlink:href="#Archivo-Regular-30" x="57.399994"/>
      </g>
     </g>
    </g>
    <g id="xtick_6">
     <g id="line2d_6">
      <g>
       <use xlink:href="#m9c81c4b8f9" x="592.96875" y="741.6" style="stroke: #000000; stroke-width: 0.8"/>
      </g>
     </g>
     <g id="text_6">
      <!-- 100 -->
      <g transform="translate(584.634375 755.829687) scale(0.1 -0.1)">
       <defs>
        <path id="Archivo-Regular-31" d="M 429 0 
L 429 480 
L 1536 480 
L 1536 3520 
L 422 3520 
L 422 3878 
Q 659 3898 912 3949 
Q 1165 4000 1408 4112 
Q 1651 4224 1850 4403 
L 2106 4403 
L 2106 480 
L 3149 480 
L 3149 0 
L 429 0 
z
" transform="scale(0.015625)"/>
       </defs>
       <use xlink:href="#Archivo-Regular-31"/>
       <use xlink:href="#Archivo-Regular-30" x="52.099991"/>
       <use xlink:href="#Archivo-Regular-30" x="109.399979"/>
      </g>
     </g>
    </g>
   </g>
   <g id="matplotlib.axis_2">
    <g id="ytick_1">
     <g id="line2d_7">
      <defs>
       <path id="mc416a89612" d="M 0 0 
L -3.5 0 
" style="stroke: #000000; stroke-width: 0.8"/>
      </defs>
      <g>
       <use xlink:href="#mc416a89612" x="103.36875" y="724.114286" style="stroke: #000000; stroke-width: 0.8"/>
      </g>
     </g>
     <g id="text_7">
      <!-- Entre Ríos -->
      <g transform="translate(49.7875 727.729129) scale(0.1 -0.1)">
       <defs>
        <path id="Archivo-Regular-45" d="M 550 0 
L 550 4390 
L 3930 4390 
L 3930 3866 
L 1158 3866 
L 1158 2509 
L 3648 2509 
L 3648 1984 
L 1158 1984 
L 1158 525 
L 3968 525 
L 3968 0 
L 550 0 
z
" transform="scale(0.015625)"/>
        <path id="Archivo-Regular-6e" d="M 442 0 
L 442 3366 
L 896 3366 
L 947 2861 
L 992 2861 
Q 1126 3066 1296 3194 
Q 1466 3322 1674 3382 
Q 1882 3443 2118 3443 
Q 2438 3443 2678 3334 
Q 2918 3226 3056 2982 
Q 3194 2739 3194 2323 
L 3194 0 
L 2630 0 
L 2630 2246 
Q 2630 2458 2576 2592 
Q 2522 2726 2429 2803 
Q 2336 2880 2205 2912 
Q 2074 2944 1914 2944 
Q 1677 2944 1465 2829 
Q 1254 2714 1129 2496 
Q 1005 2278 1005 1978 
L 1005 0 
L 442 0 
z
" transform="scale(0.015625)"/>
        <path id="Archivo-Regular-74" d="M 1229 -77 
Q 966 -77 819 22 
Q 672 122 608 285 
Q 544 448 544 634 
L 544 2893 
L 109 2893 
L 109 3366 
L 557 3366 
L 659 4307 
L 1107 4307 
L 1107 3366 
L 1741 3366 
L 1741 2893 
L 1107 2893 
L 1107 717 
Q 1107 557 1164 477 
Q 1222 397 1382 397 
L 1741 397 
L 1741 26 
Q 1677 -6 1587 -25 
Q 1498 -45 1405 -61 
Q 1312 -77 1229 -77 
z
" transform="scale(0.015625)"/>
        <path id="Archivo-Regular-72" d="M 442 0 
L 442 3366 
L 896 3366 
L 947 2810 
L 992 2810 
Q 1043 2970 1132 3114 
Q 1222 3258 1376 3350 
Q 1530 3443 1754 3443 
Q 1850 3443 1930 3427 
Q 2010 3411 2048 3392 
L 2048 2874 
L 1837 2874 
Q 1619 2874 1462 2800 
Q 1306 2726 1203 2592 
Q 1101 2458 1053 2272 
Q 1005 2086 1005 1875 
L 1005 0 
L 442 0 
z
" transform="scale(0.015625)"/>
        <path id="Archivo-Regular-65" d="M 1786 -77 
Q 1286 -77 944 112 
Q 602 301 426 691 
Q 250 1082 250 1683 
Q 250 2291 426 2678 
Q 602 3066 947 3254 
Q 1293 3443 1811 3443 
Q 2285 3443 2605 3260 
Q 2925 3078 3088 2716 
Q 3251 2355 3251 1811 
L 3251 1542 
L 832 1542 
Q 845 1139 950 880 
Q 1056 621 1267 502 
Q 1478 384 1798 384 
Q 2016 384 2179 438 
Q 2342 493 2454 595 
Q 2566 698 2624 838 
Q 2682 979 2688 1146 
L 3238 1146 
Q 3232 877 3136 649 
Q 3040 422 2854 262 
Q 2669 102 2400 12 
Q 2131 -77 1786 -77 
z
M 845 1965 
L 2669 1965 
Q 2669 2246 2605 2438 
Q 2541 2630 2422 2752 
Q 2304 2874 2147 2928 
Q 1990 2982 1792 2982 
Q 1498 2982 1293 2873 
Q 1088 2765 979 2541 
Q 870 2317 845 1965 
z
" transform="scale(0.015625)"/>
        <path id="Archivo-Regular-20" transform="scale(0.015625)"/>
        <path id="Archivo-Regular-52" d="M 550 0 
L 550 4390 
L 2861 4390 
Q 3309 4390 3606 4227 
Q 3904 4064 4051 3773 
Q 4198 3482 4198 3104 
Q 4198 2650 3993 2323 
Q 3789 1997 3430 1856 
L 4352 0 
L 3686 0 
L 2829 1747 
L 1158 1747 
L 1158 0 
L 550 0 
z
M 1158 2266 
L 2803 2266 
Q 3168 2266 3376 2490 
Q 3584 2714 3584 3104 
Q 3584 3347 3494 3513 
Q 3405 3680 3232 3773 
Q 3059 3866 2803 3866 
L 1158 3866 
L 1158 2266 
z
" transform="scale(0.015625)"/>
        <path id="Archivo-Regular-ed" d="M 442 0 
L 442 3366 
L 1005 3366 
L 1005 0 
L 442 0 
z
M 384 3782 
L 941 4627 
L 1574 4627 
L 1581 4608 
L 877 3782 
L 384 3782 
z
" transform="scale(0.015625)"/>
        <path id="Archivo-Regular-6f" d="M 1824 -77 
Q 1312 -77 963 112 
Q 614 301 432 691 
Q 250 1082 250 1683 
Q 250 2291 432 2678 
Q 614 3066 963 3254 
Q 1312 3443 1824 3443 
Q 2336 3443 2685 3254 
Q 3034 3066 3213 2678 
Q 3392 2291 3392 1683 
Q 3392 1082 3213 691 
Q 3034 301 2685 112 
Q 2336 -77 1824 -77 
z
M 1824 397 
Q 2150 397 2368 525 
Q 2586 653 2698 925 
Q 2810 1197 2810 1613 
L 2810 1754 
Q 2810 2176 2698 2445 
Q 2586 2714 2368 2842 
Q 2150 2970 1824 2970 
Q 1498 2970 1277 2842 
Q 1056 2714 947 2445 
Q 838 2176 838 1754 
L 838 1613 
Q 838 1197 947 925 
Q 1056 653 1277 525 
Q 1498 397 1824 397 
z
" transform="scale(0.015625)"/>
        <path id="Archivo-Regular-73" d="M 1619 -77 
Q 1274 -77 1011 -6 
Q 749 64 576 198 
Q 403 333 313 518 
Q 224 704 224 941 
Q 224 973 224 1001 
Q 224 1030 230 1050 
L 787 1050 
Q 781 1024 781 1005 
Q 781 986 781 966 
Q 787 742 899 614 
Q 1011 486 1209 435 
Q 1408 384 1651 384 
Q 1862 384 2041 438 
Q 2221 493 2326 605 
Q 2432 717 2432 890 
Q 2432 1101 2294 1213 
Q 2157 1325 1933 1389 
Q 1709 1453 1466 1523 
Q 1261 1581 1056 1651 
Q 851 1722 688 1824 
Q 525 1926 425 2089 
Q 326 2253 326 2502 
Q 326 2726 419 2899 
Q 512 3072 685 3193 
Q 858 3315 1104 3376 
Q 1350 3437 1651 3437 
Q 1971 3437 2211 3366 
Q 2451 3296 2611 3168 
Q 2771 3040 2848 2877 
Q 2925 2714 2925 2528 
Q 2925 2490 2925 2454 
Q 2925 2419 2918 2400 
L 2368 2400 
L 2368 2470 
Q 2368 2598 2301 2716 
Q 2234 2835 2070 2908 
Q 1907 2982 1619 2982 
Q 1434 2982 1299 2953 
Q 1165 2925 1075 2864 
Q 986 2803 941 2723 
Q 896 2643 896 2541 
Q 896 2374 1005 2284 
Q 1114 2195 1296 2137 
Q 1478 2080 1690 2010 
Q 1914 1946 2147 1878 
Q 2381 1811 2576 1708 
Q 2771 1606 2889 1430 
Q 3008 1254 3008 966 
Q 3008 698 2905 499 
Q 2803 301 2614 173 
Q 2426 45 2173 -16 
Q 1920 -77 1619 -77 
z
" transform="scale(0.015625)"/>
       </defs>
       <use xlink:href="#Archivo-Regular-45"/>
       <use xlink:href="#Archivo-Regular-6e" x="67.699982"/>
       <use xlink:href="#Archivo-Regular-74" x="123.999969"/>
       <use xlink:href="#Archivo-Regular-72" x="153.699966"/>
       <use xlink:href="#Archivo-Regular-65" x="186.899963"/>
       <use xlink:href="#Archivo-Regular-20" x="241.699951"/>
       <use xlink:href="#Archivo-Regular-52" x="262.599945"/>
       <use xlink:href="#Archivo-Regular-ed" x="335.299927"/>
       <use xlink:href="#Archivo-Regular-6f" x="357.799911"/>
       <use xlink:href="#Archivo-Regular-73" x="414.799896"/>
      </g>
     </g>
    </g>
    <g id="ytick_2">
     <g id="line2d_8">
      <g>
       <use xlink:href="#mc416a89612" x="103.36875" y="694.971429" style="stroke: #000000; stroke-width: 0.8"/>
      </g>
     </g>
     <g id="text_8">
      <!-- Misiones -->
      <g transform="translate(56.389062 698.586272) scale(0.1 -0.1)">
       <defs>
        <path id="Archivo-Regular-4d" d="M 550 0 
L 550 4390 
L 1491 4390 
L 2490 1542 
Q 2528 1427 2569 1289 
Q 2611 1152 2646 1030 
Q 2682 909 2701 819 
L 2746 819 
Q 2765 915 2797 1040 
Q 2829 1165 2867 1299 
Q 2906 1434 2938 1542 
L 3936 4390 
L 4870 4390 
L 4870 0 
L 4262 0 
L 4262 2573 
Q 4262 2771 4268 3004 
Q 4275 3238 4281 3433 
Q 4288 3629 4288 3712 
L 4237 3712 
Q 4218 3629 4173 3478 
Q 4128 3328 4080 3165 
Q 4032 3002 3994 2874 
L 2963 0 
L 2438 0 
L 1408 2874 
Q 1370 2982 1328 3126 
Q 1286 3270 1244 3424 
Q 1203 3578 1165 3712 
L 1120 3712 
Q 1126 3571 1129 3363 
Q 1133 3155 1136 2947 
Q 1139 2739 1139 2573 
L 1139 0 
L 550 0 
z
" transform="scale(0.015625)"/>
        <path id="Archivo-Regular-69" d="M 442 4000 
L 442 4627 
L 1005 4627 
L 1005 4000 
L 442 4000 
z
M 442 0 
L 442 3366 
L 1005 3366 
L 1005 0 
L 442 0 
z
" transform="scale(0.015625)"/>
       </defs>
       <use xlink:href="#Archivo-Regular-4d"/>
       <use xlink:href="#Archivo-Regular-69" x="84.699982"/>
       <use xlink:href="#Archivo-Regular-73" x="107.199966"/>
       <use xlink:href="#Archivo-Regular-69" x="158.199951"/>
       <use xlink:href="#Archivo-Regular-6f" x="180.699936"/>
       <use xlink:href="#Archivo-Regular-6e" x="237.699921"/>
       <use xlink:href="#Archivo-Regular-65" x="293.999908"/>
       <use xlink:href="#Archivo-Regular-73" x="348.799896"/>
      </g>
     </g>
    </g>
    <g id="ytick_3">
     <g id="line2d_9">
      <g>
       <use xlink:href="#mc416a89612" x="103.36875" y="665.828571" style="stroke: #000000; stroke-width: 0.8"/>
      </g>
     </g>
     <g id="text_9">
      <!-- Chubut -->
      <g transform="translate(63.578125 669.443415) scale(0.1 -0.1)">
       <defs>
        <path id="Archivo-Regular-43" d="M 2426 -77 
Q 1754 -77 1286 169 
Q 819 416 572 918 
Q 326 1421 326 2195 
Q 326 3341 883 3904 
Q 1440 4467 2432 4467 
Q 2995 4467 3430 4284 
Q 3866 4102 4112 3734 
Q 4358 3366 4358 2810 
L 3744 2810 
Q 3744 3194 3581 3443 
Q 3418 3693 3123 3817 
Q 2829 3942 2432 3942 
Q 1971 3942 1638 3763 
Q 1306 3584 1133 3209 
Q 960 2835 960 2246 
L 960 2112 
Q 960 1530 1133 1162 
Q 1306 794 1635 621 
Q 1965 448 2432 448 
Q 2842 448 3139 569 
Q 3437 691 3600 944 
Q 3763 1197 3763 1581 
L 4358 1581 
Q 4358 1011 4105 646 
Q 3853 282 3417 102 
Q 2982 -77 2426 -77 
z
" transform="scale(0.015625)"/>
        <path id="Archivo-Regular-68" d="M 442 0 
L 442 4627 
L 1005 4627 
L 1005 2944 
L 1050 2944 
Q 1178 3117 1338 3225 
Q 1498 3334 1693 3388 
Q 1888 3443 2118 3443 
Q 2438 3443 2678 3334 
Q 2918 3226 3056 2982 
Q 3194 2739 3194 2323 
L 3194 0 
L 2630 0 
L 2630 2246 
Q 2630 2458 2576 2592 
Q 2522 2726 2429 2803 
Q 2336 2880 2205 2912 
Q 2074 2944 1914 2944 
Q 1677 2944 1465 2832 
Q 1254 2720 1129 2505 
Q 1005 2291 1005 1978 
L 1005 0 
L 442 0 
z
" transform="scale(0.015625)"/>
        <path id="Archivo-Regular-75" d="M 1485 -77 
Q 998 -77 704 172 
Q 410 422 410 1043 
L 410 3366 
L 973 3366 
L 973 1120 
Q 973 909 1024 774 
Q 1075 640 1171 563 
Q 1267 486 1398 454 
Q 1530 422 1683 422 
Q 1926 422 2131 537 
Q 2336 653 2467 873 
Q 2598 1094 2598 1389 
L 2598 3366 
L 3162 3366 
L 3162 0 
L 2707 0 
L 2656 506 
L 2611 506 
Q 2477 301 2307 173 
Q 2138 45 1930 -16 
Q 1722 -77 1485 -77 
z
" transform="scale(0.015625)"/>
        <path id="Archivo-Regular-62" d="M 2042 -77 
Q 1702 -77 1433 60 
Q 1165 198 992 480 
L 947 480 
L 890 0 
L 442 0 
L 442 4627 
L 1005 4627 
L 1005 2944 
L 1043 2944 
Q 1158 3123 1312 3232 
Q 1466 3341 1658 3392 
Q 1850 3443 2067 3443 
Q 2458 3443 2752 3257 
Q 3046 3072 3209 2688 
Q 3373 2304 3373 1709 
Q 3373 1082 3213 688 
Q 3053 294 2758 108 
Q 2464 -77 2042 -77 
z
M 1907 416 
Q 2195 416 2390 531 
Q 2586 646 2688 912 
Q 2790 1178 2790 1613 
L 2790 1747 
Q 2790 2170 2694 2435 
Q 2598 2701 2400 2825 
Q 2202 2950 1888 2950 
Q 1709 2950 1549 2892 
Q 1389 2835 1264 2694 
Q 1139 2554 1072 2317 
Q 1005 2080 1005 1734 
L 1005 1632 
Q 1005 1235 1097 966 
Q 1190 698 1392 557 
Q 1594 416 1907 416 
z
" transform="scale(0.015625)"/>
       </defs>
       <use xlink:href="#Archivo-Regular-43"/>
       <use xlink:href="#Archivo-Regular-68" x="72.799988"/>
       <use xlink:href="#Archivo-Regular-75" x="129.099976"/>
       <use xlink:href="#Archivo-Regular-62" x="185.299973"/>
       <use xlink:href="#Archivo-Regular-75" x="241.999969"/>
       <use xlink:href="#Archivo-Regular-74" x="298.199966"/>
      </g>
     </g>
    </g>
    <g id="ytick_4">
     <g id="line2d_10">
      <g>
       <use xlink:href="#mc416a89612" x="103.36875" y="636.685714" style="stroke: #000000; stroke-width: 0.8"/>
      </g>
     </g>
     <g id="text_10">
      <!-- Neuquén -->
      <g transform="translate(55.509375 640.300558) scale(0.1 -0.1)">
       <defs>
        <path id="Archivo-Regular-4e" d="M 550 0 
L 550 4390 
L 1139 4390 
L 3270 1498 
Q 3302 1459 3353 1382 
Q 3405 1306 3456 1232 
Q 3507 1158 3539 1101 
L 3565 1101 
Q 3565 1203 3565 1302 
Q 3565 1402 3565 1498 
L 3565 4390 
L 4160 4390 
L 4160 0 
L 3603 0 
L 1446 2944 
Q 1402 3014 1315 3142 
Q 1229 3270 1171 3347 
L 1139 3347 
Q 1139 3245 1139 3145 
Q 1139 3046 1139 2944 
L 1139 0 
L 550 0 
z
" transform="scale(0.015625)"/>
        <path id="Archivo-Regular-71" d="M 2624 -1107 
L 2624 422 
L 2586 422 
Q 2470 250 2313 138 
Q 2157 26 1965 -25 
Q 1773 -77 1562 -77 
Q 1171 -77 876 108 
Q 582 294 416 681 
Q 250 1069 250 1658 
Q 250 2285 413 2678 
Q 576 3072 873 3257 
Q 1171 3443 1587 3443 
Q 1926 3443 2195 3305 
Q 2464 3168 2637 2886 
L 2682 2886 
L 2733 3366 
L 3187 3366 
L 3187 -1107 
L 2624 -1107 
z
M 1741 416 
Q 1926 416 2086 473 
Q 2246 531 2364 672 
Q 2483 813 2553 1046 
Q 2624 1280 2624 1632 
L 2624 1728 
Q 2624 2125 2531 2400 
Q 2438 2675 2240 2812 
Q 2042 2950 1722 2950 
Q 1434 2950 1238 2835 
Q 1043 2720 940 2454 
Q 838 2189 838 1747 
L 838 1613 
Q 838 1197 934 931 
Q 1030 666 1228 541 
Q 1427 416 1741 416 
z
" transform="scale(0.015625)"/>
        <path id="Archivo-Regular-e9" d="M 1786 -77 
Q 1286 -77 944 112 
Q 602 301 426 691 
Q 250 1082 250 1683 
Q 250 2291 426 2678 
Q 602 3066 947 3254 
Q 1293 3443 1811 3443 
Q 2285 3443 2605 3260 
Q 2925 3078 3088 2716 
Q 3251 2355 3251 1811 
L 3251 1542 
L 832 1542 
Q 845 1139 950 880 
Q 1056 621 1267 502 
Q 1478 384 1798 384 
Q 2016 384 2179 438 
Q 2342 493 2454 595 
Q 2566 698 2624 838 
Q 2682 979 2688 1146 
L 3238 1146 
Q 3232 877 3136 649 
Q 3040 422 2854 262 
Q 2669 102 2400 12 
Q 2131 -77 1786 -77 
z
M 845 1965 
L 2669 1965 
Q 2669 2246 2605 2438 
Q 2541 2630 2422 2752 
Q 2304 2874 2147 2928 
Q 1990 2982 1792 2982 
Q 1498 2982 1293 2873 
Q 1088 2765 979 2541 
Q 870 2317 845 1965 
z
M 1459 3782 
L 2010 4627 
L 2650 4627 
L 2656 4608 
L 1946 3782 
L 1459 3782 
z
" transform="scale(0.015625)"/>
       </defs>
       <use xlink:href="#Archivo-Regular-4e"/>
       <use xlink:href="#Archivo-Regular-65" x="73.599991"/>
       <use xlink:href="#Archivo-Regular-75" x="128.399979"/>
       <use xlink:href="#Archivo-Regular-71" x="184.599976"/>
       <use xlink:href="#Archivo-Regular-75" x="241.299973"/>
       <use xlink:href="#Archivo-Regular-e9" x="297.499969"/>
       <use xlink:href="#Archivo-Regular-6e" x="352.299957"/>
      </g>
     </g>
    </g>
    <g id="ytick_5">
     <g id="line2d_11">
      <g>
       <use xlink:href="#mc416a89612" x="103.36875" y="607.542857" style="stroke: #000000; stroke-width: 0.8"/>
      </g>
     </g>
     <g id="text_11">
      <!-- Mendoza -->
      <g transform="translate(54.989062 611.157701) scale(0.1 -0.1)">
       <defs>
        <path id="Archivo-Regular-64" d="M 1587 -77 
Q 1171 -77 873 108 
Q 576 294 413 688 
Q 250 1082 250 1709 
Q 250 2304 416 2688 
Q 582 3072 876 3257 
Q 1171 3443 1562 3443 
Q 1786 3443 1978 3392 
Q 2170 3341 2320 3232 
Q 2470 3123 2586 2944 
L 2624 2944 
L 2624 4627 
L 3187 4627 
L 3187 0 
L 2733 0 
L 2682 480 
L 2637 480 
Q 2464 198 2189 60 
Q 1914 -77 1587 -77 
z
M 1722 416 
Q 2042 416 2240 557 
Q 2438 698 2531 966 
Q 2624 1235 2624 1632 
L 2624 1734 
Q 2624 2080 2553 2317 
Q 2483 2554 2361 2694 
Q 2240 2835 2080 2892 
Q 1920 2950 1741 2950 
Q 1427 2950 1228 2825 
Q 1030 2701 934 2435 
Q 838 2170 838 1747 
L 838 1613 
Q 838 1178 940 912 
Q 1043 646 1238 531 
Q 1434 416 1722 416 
z
" transform="scale(0.015625)"/>
        <path id="Archivo-Regular-7a" d="M 198 0 
L 198 301 
L 2074 2893 
L 333 2893 
L 333 3366 
L 2880 3366 
L 2880 3072 
L 998 474 
L 2982 474 
L 2982 0 
L 198 0 
z
" transform="scale(0.015625)"/>
        <path id="Archivo-Regular-61" d="M 1286 -77 
Q 1101 -77 915 -32 
Q 730 13 570 115 
Q 410 218 314 400 
Q 218 582 218 858 
Q 218 1203 384 1427 
Q 550 1651 848 1776 
Q 1146 1901 1555 1949 
Q 1965 1997 2445 1997 
L 2445 2381 
Q 2445 2566 2381 2700 
Q 2317 2835 2153 2908 
Q 1990 2982 1690 2982 
Q 1402 2982 1232 2908 
Q 1062 2835 995 2720 
Q 928 2605 928 2464 
L 928 2368 
L 384 2368 
Q 378 2400 378 2432 
Q 378 2464 378 2509 
Q 378 2816 547 3024 
Q 717 3232 1024 3337 
Q 1331 3443 1728 3443 
Q 2150 3443 2435 3321 
Q 2720 3200 2864 2976 
Q 3008 2752 3008 2438 
L 3008 614 
Q 3008 493 3065 445 
Q 3123 397 3206 397 
L 3456 397 
L 3456 26 
Q 3366 -13 3257 -41 
Q 3149 -70 3008 -70 
Q 2842 -70 2733 -3 
Q 2624 64 2566 182 
Q 2509 301 2490 448 
L 2445 448 
Q 2330 288 2154 169 
Q 1978 51 1760 -13 
Q 1542 -77 1286 -77 
z
M 1427 397 
Q 1632 397 1814 461 
Q 1997 525 2137 643 
Q 2278 762 2361 928 
Q 2445 1094 2445 1293 
L 2445 1574 
Q 1926 1574 1561 1516 
Q 1197 1459 1001 1312 
Q 806 1165 806 896 
Q 806 723 883 614 
Q 960 506 1101 451 
Q 1242 397 1427 397 
z
" transform="scale(0.015625)"/>
       </defs>
       <use xlink:href="#Archivo-Regular-4d"/>
       <use xlink:href="#Archivo-Regular-65" x="84.699982"/>
       <use xlink:href="#Archivo-Regular-6e" x="139.499969"/>
       <use xlink:href="#Archivo-Regular-64" x="195.799957"/>
       <use xlink:href="#Archivo-Regular-6f" x="252.499954"/>
       <use xlink:href="#Archivo-Regular-7a" x="309.499939"/>
       <use xlink:href="#Archivo-Regular-61" x="359.299927"/>
      </g>
     </g>
    </g>
    <g id="ytick_6">
     <g id="line2d_12">
      <g>
       <use xlink:href="#mc416a89612" x="103.36875" y="578.4" style="stroke: #000000; stroke-width: 0.8"/>
      </g>
     </g>
     <g id="text_12">
      <!-- Córdoba -->
      <g transform="translate(57.578125 582.014844) scale(0.1 -0.1)">
       <defs>
        <path id="Archivo-Regular-f3" d="M 1824 -77 
Q 1312 -77 963 112 
Q 614 301 432 691 
Q 250 1082 250 1683 
Q 250 2291 432 2678 
Q 614 3066 963 3254 
Q 1312 3443 1824 3443 
Q 2336 3443 2685 3254 
Q 3034 3066 3213 2678 
Q 3392 2291 3392 1683 
Q 3392 1082 3213 691 
Q 3034 301 2685 112 
Q 2336 -77 1824 -77 
z
M 1824 397 
Q 2150 397 2368 525 
Q 2586 653 2698 925 
Q 2810 1197 2810 1613 
L 2810 1754 
Q 2810 2176 2698 2445 
Q 2586 2714 2368 2842 
Q 2150 2970 1824 2970 
Q 1498 2970 1277 2842 
Q 1056 2714 947 2445 
Q 838 2176 838 1754 
L 838 1613 
Q 838 1197 947 925 
Q 1056 653 1277 525 
Q 1498 397 1824 397 
z
M 1491 3782 
L 2042 4627 
L 2682 4627 
L 2688 4608 
L 1978 3782 
L 1491 3782 
z
" transform="scale(0.015625)"/>
       </defs>
       <use xlink:href="#Archivo-Regular-43"/>
       <use xlink:href="#Archivo-Regular-f3" x="72.799988"/>
       <use xlink:href="#Archivo-Regular-72" x="129.799973"/>
       <use xlink:href="#Archivo-Regular-64" x="162.999969"/>
       <use xlink:href="#Archivo-Regular-6f" x="219.699966"/>
       <use xlink:href="#Archivo-Regular-62" x="276.699951"/>
       <use xlink:href="#Archivo-Regular-61" x="333.399948"/>
      </g>
     </g>
    </g>
    <g id="ytick_7">
     <g id="line2d_13">
      <g>
       <use xlink:href="#mc416a89612" x="103.36875" y="549.257143" style="stroke: #000000; stroke-width: 0.8"/>
      </g>
     </g>
     <g id="text_13">
      <!-- Tucumán -->
      <g transform="translate(54.198437 552.871987) scale(0.1 -0.1)">
       <defs>
        <path id="Archivo-Regular-54" d="M 1626 0 
L 1626 3859 
L 122 3859 
L 122 4390 
L 3750 4390 
L 3750 3859 
L 2234 3859 
L 2234 0 
L 1626 0 
z
" transform="scale(0.015625)"/>
        <path id="Archivo-Regular-63" d="M 1722 -77 
Q 1235 -77 905 112 
Q 576 301 406 694 
Q 237 1088 237 1683 
Q 237 2278 406 2668 
Q 576 3059 912 3251 
Q 1248 3443 1741 3443 
Q 2086 3443 2339 3353 
Q 2592 3264 2758 3091 
Q 2925 2918 3005 2675 
Q 3085 2432 3085 2118 
L 2515 2118 
Q 2515 2413 2435 2601 
Q 2355 2790 2182 2883 
Q 2010 2976 1728 2976 
Q 1446 2976 1241 2851 
Q 1037 2726 928 2457 
Q 819 2189 819 1747 
L 819 1613 
Q 819 1197 924 921 
Q 1030 646 1235 518 
Q 1440 390 1734 390 
Q 2022 390 2198 492 
Q 2374 595 2454 787 
Q 2534 979 2534 1248 
L 3085 1248 
Q 3085 966 3005 723 
Q 2925 480 2758 301 
Q 2592 122 2336 22 
Q 2080 -77 1722 -77 
z
" transform="scale(0.015625)"/>
        <path id="Archivo-Regular-6d" d="M 442 0 
L 442 3366 
L 896 3366 
L 947 2861 
L 992 2861 
Q 1120 3066 1280 3194 
Q 1440 3322 1632 3382 
Q 1824 3443 2048 3443 
Q 2374 3443 2611 3312 
Q 2848 3181 2963 2861 
L 3002 2861 
Q 3123 3066 3283 3190 
Q 3443 3315 3641 3379 
Q 3840 3443 4064 3443 
Q 4371 3443 4601 3337 
Q 4832 3232 4963 2992 
Q 5094 2752 5094 2349 
L 5094 0 
L 4531 0 
L 4531 2259 
Q 4531 2464 4483 2598 
Q 4435 2733 4345 2806 
Q 4256 2880 4137 2912 
Q 4019 2944 3885 2944 
Q 3661 2944 3472 2829 
Q 3283 2714 3168 2496 
Q 3053 2278 3053 1978 
L 3053 0 
L 2490 0 
L 2490 2259 
Q 2490 2464 2438 2598 
Q 2387 2733 2304 2806 
Q 2221 2880 2102 2912 
Q 1984 2944 1856 2944 
Q 1626 2944 1430 2829 
Q 1235 2714 1120 2496 
Q 1005 2278 1005 1978 
L 1005 0 
L 442 0 
z
" transform="scale(0.015625)"/>
        <path id="Archivo-Regular-e1" d="M 1286 -77 
Q 1101 -77 915 -32 
Q 730 13 570 115 
Q 410 218 314 400 
Q 218 582 218 858 
Q 218 1203 384 1427 
Q 550 1651 848 1776 
Q 1146 1901 1555 1949 
Q 1965 1997 2445 1997 
L 2445 2381 
Q 2445 2566 2381 2700 
Q 2317 2835 2153 2908 
Q 1990 2982 1690 2982 
Q 1402 2982 1232 2908 
Q 1062 2835 995 2720 
Q 928 2605 928 2464 
L 928 2368 
L 384 2368 
Q 378 2400 378 2432 
Q 378 2464 378 2509 
Q 378 2816 547 3024 
Q 717 3232 1024 3337 
Q 1331 3443 1728 3443 
Q 2150 3443 2435 3321 
Q 2720 3200 2864 2976 
Q 3008 2752 3008 2438 
L 3008 614 
Q 3008 493 3065 445 
Q 3123 397 3206 397 
L 3456 397 
L 3456 26 
Q 3366 -13 3257 -41 
Q 3149 -70 3008 -70 
Q 2842 -70 2733 -3 
Q 2624 64 2566 182 
Q 2509 301 2490 448 
L 2445 448 
Q 2330 288 2154 169 
Q 1978 51 1760 -13 
Q 1542 -77 1286 -77 
z
M 1427 397 
Q 1632 397 1814 461 
Q 1997 525 2137 643 
Q 2278 762 2361 928 
Q 2445 1094 2445 1293 
L 2445 1574 
Q 1926 1574 1561 1516 
Q 1197 1459 1001 1312 
Q 806 1165 806 896 
Q 806 723 883 614 
Q 960 506 1101 451 
Q 1242 397 1427 397 
z
M 1370 3782 
L 1926 4627 
L 2560 4627 
L 2566 4608 
L 1862 3782 
L 1370 3782 
z
" transform="scale(0.015625)"/>
       </defs>
       <use xlink:href="#Archivo-Regular-54"/>
       <use xlink:href="#Archivo-Regular-75" x="60.599991"/>
       <use xlink:href="#Archivo-Regular-63" x="116.799988"/>
       <use xlink:href="#Archivo-Regular-75" x="168.699982"/>
       <use xlink:href="#Archivo-Regular-6d" x="224.899979"/>
       <use xlink:href="#Archivo-Regular-e1" x="310.899963"/>
       <use xlink:href="#Archivo-Regular-6e" x="365.399948"/>
      </g>
     </g>
    </g>
    <g id="ytick_8">
     <g id="line2d_14">
      <g>
       <use xlink:href="#mc416a89612" x="103.36875" y="520.114286" style="stroke: #000000; stroke-width: 0.8"/>
      </g>
     </g>
     <g id="text_14">
      <!-- Buenos Aires -->
      <g transform="translate(36.798437 523.729129) scale(0.1 -0.1)">
       <defs>
        <path id="Archivo-Regular-42" d="M 550 0 
L 550 4390 
L 2816 4390 
Q 3194 4390 3469 4259 
Q 3744 4128 3894 3891 
Q 4045 3654 4045 3328 
Q 4045 3078 3955 2867 
Q 3866 2656 3706 2515 
Q 3546 2374 3341 2304 
L 3341 2278 
Q 3571 2227 3756 2092 
Q 3942 1958 4054 1737 
Q 4166 1517 4166 1197 
Q 4166 768 3987 505 
Q 3808 243 3507 121 
Q 3206 0 2816 0 
L 550 0 
z
M 1158 525 
L 2810 525 
Q 3136 525 3341 694 
Q 3546 864 3546 1261 
Q 3546 1504 3456 1667 
Q 3366 1830 3193 1910 
Q 3021 1990 2758 1990 
L 1158 1990 
L 1158 525 
z
M 1158 2509 
L 2701 2509 
Q 2918 2509 3078 2595 
Q 3238 2682 3331 2838 
Q 3424 2995 3424 3194 
Q 3424 3539 3238 3702 
Q 3053 3866 2746 3866 
L 1158 3866 
L 1158 2509 
z
" transform="scale(0.015625)"/>
        <path id="Archivo-Regular-41" d="M 45 0 
L 1779 4390 
L 2579 4390 
L 4320 0 
L 3661 0 
L 3232 1088 
L 1094 1088 
L 672 0 
L 45 0 
z
M 1293 1606 
L 3027 1606 
L 2496 2982 
Q 2477 3040 2438 3142 
Q 2400 3245 2355 3369 
Q 2310 3494 2265 3625 
Q 2221 3757 2182 3866 
L 2144 3866 
Q 2099 3738 2041 3571 
Q 1984 3405 1926 3248 
Q 1869 3091 1830 2982 
L 1293 1606 
z
" transform="scale(0.015625)"/>
       </defs>
       <use xlink:href="#Archivo-Regular-42"/>
       <use xlink:href="#Archivo-Regular-75" x="69.799988"/>
       <use xlink:href="#Archivo-Regular-65" x="125.999985"/>
       <use xlink:href="#Archivo-Regular-6e" x="180.799973"/>
       <use xlink:href="#Archivo-Regular-6f" x="237.09996"/>
       <use xlink:href="#Archivo-Regular-73" x="294.099945"/>
       <use xlink:href="#Archivo-Regular-20" x="345.09993"/>
       <use xlink:href="#Archivo-Regular-41" x="365.999924"/>
       <use xlink:href="#Archivo-Regular-69" x="434.199905"/>
       <use xlink:href="#Archivo-Regular-72" x="456.69989"/>
       <use xlink:href="#Archivo-Regular-65" x="489.899887"/>
       <use xlink:href="#Archivo-Regular-73" x="544.699875"/>
      </g>
     </g>
    </g>
    <g id="ytick_9">
     <g id="line2d_15">
      <g>
       <use xlink:href="#mc416a89612" x="103.36875" y="490.971429" style="stroke: #000000; stroke-width: 0.8"/>
      </g>
     </g>
     <g id="text_15">
      <!-- Salta -->
      <g transform="translate(73.51875 494.586272) scale(0.1 -0.1)">
       <defs>
        <path id="Archivo-Regular-53" d="M 2163 -77 
Q 1805 -77 1475 -6 
Q 1146 64 890 221 
Q 634 378 483 627 
Q 333 877 333 1242 
Q 333 1274 336 1306 
Q 339 1338 339 1370 
L 954 1370 
Q 954 1350 950 1308 
Q 947 1267 947 1235 
Q 947 979 1100 800 
Q 1254 621 1526 534 
Q 1798 448 2144 448 
Q 2298 448 2467 467 
Q 2637 486 2793 534 
Q 2950 582 3075 662 
Q 3200 742 3273 860 
Q 3347 979 3347 1152 
Q 3347 1370 3222 1514 
Q 3098 1658 2893 1750 
Q 2688 1843 2429 1916 
Q 2170 1990 1894 2060 
Q 1619 2131 1360 2224 
Q 1101 2317 896 2454 
Q 691 2592 566 2797 
Q 442 3002 442 3296 
Q 442 3571 554 3788 
Q 666 4006 886 4156 
Q 1107 4307 1433 4387 
Q 1760 4467 2182 4467 
Q 2528 4467 2825 4393 
Q 3123 4320 3350 4169 
Q 3578 4019 3706 3788 
Q 3834 3558 3834 3232 
L 3834 3155 
L 3232 3155 
L 3232 3251 
Q 3232 3469 3097 3622 
Q 2963 3776 2729 3859 
Q 2496 3942 2202 3942 
Q 1818 3942 1562 3868 
Q 1306 3795 1181 3657 
Q 1056 3520 1056 3347 
Q 1056 3149 1181 3014 
Q 1306 2880 1510 2793 
Q 1715 2707 1977 2636 
Q 2240 2566 2512 2492 
Q 2784 2419 3043 2326 
Q 3302 2234 3510 2096 
Q 3718 1958 3840 1750 
Q 3962 1542 3962 1242 
Q 3962 774 3731 483 
Q 3501 192 3097 57 
Q 2694 -77 2163 -77 
z
" transform="scale(0.015625)"/>
        <path id="Archivo-Regular-6c" d="M 442 0 
L 442 4627 
L 1005 4627 
L 1005 0 
L 442 0 
z
" transform="scale(0.015625)"/>
       </defs>
       <use xlink:href="#Archivo-Regular-53"/>
       <use xlink:href="#Archivo-Regular-61" x="67.299988"/>
       <use xlink:href="#Archivo-Regular-6c" x="121.799973"/>
       <use xlink:href="#Archivo-Regular-74" x="144.299957"/>
       <use xlink:href="#Archivo-Regular-61" x="173.999954"/>
      </g>
     </g>
    </g>
    <g id="ytick_10">
     <g id="line2d_16">
      <g>
       <use xlink:href="#mc416a89612" x="103.36875" y="461.828571" style="stroke: #000000; stroke-width: 0.8"/>
      </g>
     </g>
     <g id="text_16">
      <!-- Santiago del Estero -->
      <g transform="translate(9.707812 465.443415) scale(0.1 -0.1)">
       <defs>
        <path id="Archivo-Regular-67" d="M 1011 -1165 
Q 768 -1165 563 -1065 
Q 358 -966 236 -780 
Q 115 -595 115 -339 
Q 115 -58 272 128 
Q 429 314 646 403 
Q 486 480 396 617 
Q 307 755 307 922 
Q 307 1146 470 1299 
Q 634 1453 870 1504 
Q 653 1645 528 1865 
Q 403 2086 403 2355 
Q 403 2675 553 2918 
Q 704 3162 1014 3302 
Q 1325 3443 1773 3443 
Q 1978 3443 2157 3414 
Q 2336 3386 2477 3322 
Q 2701 3424 2813 3584 
Q 2925 3744 2950 3910 
L 3507 3910 
Q 3507 3718 3420 3548 
Q 3334 3379 3187 3267 
Q 3040 3155 2829 3117 
Q 2989 2963 3069 2771 
Q 3149 2579 3149 2355 
Q 3149 2035 2998 1788 
Q 2848 1542 2547 1401 
Q 2246 1261 1792 1261 
L 1267 1261 
Q 1094 1261 985 1193 
Q 877 1126 877 979 
Q 877 851 985 771 
Q 1094 691 1267 691 
L 2637 691 
Q 3008 691 3245 444 
Q 3482 198 3482 -186 
Q 3482 -461 3344 -681 
Q 3206 -902 2960 -1033 
Q 2714 -1165 2387 -1165 
L 1011 -1165 
z
M 1171 -736 
L 2381 -736 
Q 2528 -736 2649 -675 
Q 2771 -614 2841 -505 
Q 2912 -397 2912 -269 
Q 2912 -51 2784 77 
Q 2656 205 2464 205 
L 1171 205 
Q 966 205 825 67 
Q 685 -70 685 -269 
Q 685 -480 825 -608 
Q 966 -736 1171 -736 
z
M 1779 1683 
Q 2189 1683 2387 1862 
Q 2586 2042 2586 2355 
Q 2586 2662 2387 2841 
Q 2189 3021 1779 3021 
Q 1370 3021 1168 2841 
Q 966 2662 966 2355 
Q 966 2157 1056 2003 
Q 1146 1850 1325 1766 
Q 1504 1683 1779 1683 
z
" transform="scale(0.015625)"/>
       </defs>
       <use xlink:href="#Archivo-Regular-53"/>
       <use xlink:href="#Archivo-Regular-61" x="67.299988"/>
       <use xlink:href="#Archivo-Regular-6e" x="121.799973"/>
       <use xlink:href="#Archivo-Regular-74" x="178.09996"/>
       <use xlink:href="#Archivo-Regular-69" x="207.799957"/>
       <use xlink:href="#Archivo-Regular-61" x="230.299942"/>
       <use xlink:href="#Archivo-Regular-67" x="284.799927"/>
       <use xlink:href="#Archivo-Regular-6f" x="340.399918"/>
       <use xlink:href="#Archivo-Regular-20" x="397.399902"/>
       <use xlink:href="#Archivo-Regular-64" x="418.299896"/>
       <use xlink:href="#Archivo-Regular-65" x="474.999893"/>
       <use xlink:href="#Archivo-Regular-6c" x="529.799881"/>
       <use xlink:href="#Archivo-Regular-20" x="552.299866"/>
       <use xlink:href="#Archivo-Regular-45" x="573.19986"/>
       <use xlink:href="#Archivo-Regular-73" x="640.899841"/>
       <use xlink:href="#Archivo-Regular-74" x="691.899826"/>
       <use xlink:href="#Archivo-Regular-65" x="721.599823"/>
       <use xlink:href="#Archivo-Regular-72" x="776.399811"/>
       <use xlink:href="#Archivo-Regular-6f" x="809.599808"/>
      </g>
     </g>
    </g>
    <g id="ytick_11">
     <g id="line2d_17">
      <g>
       <use xlink:href="#mc416a89612" x="103.36875" y="432.685714" style="stroke: #000000; stroke-width: 0.8"/>
      </g>
     </g>
     <g id="text_17">
      <!-- Promedio nacional -->
      <g transform="translate(7.2 436.300558) scale(0.1 -0.1)">
       <defs>
        <path id="Archivo-Bold-50" d="M 486 0 
L 486 4390 
L 2771 4390 
Q 3245 4390 3561 4214 
Q 3878 4038 4041 3721 
Q 4205 3405 4205 2970 
Q 4205 2534 4035 2211 
Q 3866 1888 3539 1709 
Q 3213 1530 2739 1530 
L 1440 1530 
L 1440 0 
L 486 0 
z
M 1440 2310 
L 2611 2310 
Q 2912 2310 3075 2483 
Q 3238 2656 3238 2963 
Q 3238 3174 3168 3315 
Q 3098 3456 2960 3533 
Q 2822 3610 2611 3610 
L 1440 3610 
L 1440 2310 
z
" transform="scale(0.015625)"/>
        <path id="Archivo-Bold-72" d="M 410 0 
L 410 3366 
L 1146 3366 
L 1216 2842 
L 1261 2842 
Q 1325 3008 1427 3145 
Q 1530 3283 1683 3366 
Q 1837 3450 2042 3450 
Q 2150 3450 2240 3427 
Q 2330 3405 2374 3386 
L 2374 2579 
L 2099 2579 
Q 1901 2579 1750 2524 
Q 1600 2470 1497 2355 
Q 1395 2240 1347 2073 
Q 1299 1907 1299 1683 
L 1299 0 
L 410 0 
z
" transform="scale(0.015625)"/>
        <path id="Archivo-Bold-6f" d="M 1958 -77 
Q 1408 -77 1024 112 
Q 640 301 441 694 
Q 243 1088 243 1683 
Q 243 2291 441 2678 
Q 640 3066 1024 3254 
Q 1408 3443 1958 3443 
Q 2522 3443 2902 3254 
Q 3283 3066 3481 2678 
Q 3680 2291 3680 1683 
Q 3680 1088 3481 694 
Q 3283 301 2902 112 
Q 2522 -77 1958 -77 
z
M 1958 614 
Q 2253 614 2429 723 
Q 2605 832 2688 1056 
Q 2771 1280 2771 1606 
L 2771 1760 
Q 2771 2086 2688 2310 
Q 2605 2534 2429 2646 
Q 2253 2758 1958 2758 
Q 1670 2758 1494 2646 
Q 1318 2534 1235 2310 
Q 1152 2086 1152 1760 
L 1152 1606 
Q 1152 1280 1235 1056 
Q 1318 832 1494 723 
Q 1670 614 1958 614 
z
" transform="scale(0.015625)"/>
        <path id="Archivo-Bold-6d" d="M 410 0 
L 410 3366 
L 1146 3366 
L 1216 2906 
L 1261 2906 
Q 1370 3072 1520 3193 
Q 1670 3315 1859 3379 
Q 2048 3443 2266 3443 
Q 2586 3443 2819 3315 
Q 3053 3187 3181 2906 
L 3226 2906 
Q 3334 3072 3488 3193 
Q 3642 3315 3840 3379 
Q 4038 3443 4262 3443 
Q 4582 3443 4816 3328 
Q 5050 3213 5184 2953 
Q 5318 2694 5318 2285 
L 5318 0 
L 4429 0 
L 4429 2125 
Q 4429 2285 4393 2397 
Q 4358 2509 4294 2576 
Q 4230 2643 4134 2675 
Q 4038 2707 3930 2707 
Q 3750 2707 3609 2611 
Q 3469 2515 3389 2348 
Q 3309 2182 3309 1965 
L 3309 0 
L 2419 0 
L 2419 2125 
Q 2419 2285 2384 2397 
Q 2349 2509 2285 2576 
Q 2221 2643 2128 2675 
Q 2035 2707 1920 2707 
Q 1747 2707 1603 2611 
Q 1459 2515 1379 2348 
Q 1299 2182 1299 1965 
L 1299 0 
L 410 0 
z
" transform="scale(0.015625)"/>
        <path id="Archivo-Bold-65" d="M 1939 -77 
Q 1382 -77 1004 112 
Q 627 301 435 691 
Q 243 1082 243 1683 
Q 243 2291 435 2678 
Q 627 3066 1001 3254 
Q 1376 3443 1920 3443 
Q 2432 3443 2784 3260 
Q 3136 3078 3315 2697 
Q 3494 2317 3494 1715 
L 3494 1485 
L 1146 1485 
Q 1158 1190 1238 985 
Q 1318 781 1488 681 
Q 1658 582 1939 582 
Q 2093 582 2217 620 
Q 2342 659 2432 736 
Q 2522 813 2573 928 
Q 2624 1043 2624 1190 
L 3494 1190 
Q 3494 870 3379 633 
Q 3264 397 3059 240 
Q 2854 83 2569 3 
Q 2285 -77 1939 -77 
z
M 1158 2048 
L 2579 2048 
Q 2579 2240 2531 2381 
Q 2483 2522 2400 2611 
Q 2317 2701 2198 2742 
Q 2080 2784 1933 2784 
Q 1690 2784 1526 2704 
Q 1363 2624 1276 2461 
Q 1190 2298 1158 2048 
z
" transform="scale(0.015625)"/>
        <path id="Archivo-Bold-64" d="M 1600 -77 
Q 1184 -77 880 112 
Q 576 301 409 691 
Q 243 1082 243 1690 
Q 243 2298 412 2685 
Q 582 3072 880 3257 
Q 1178 3443 1568 3443 
Q 1786 3443 1974 3395 
Q 2163 3347 2307 3244 
Q 2451 3142 2554 2995 
L 2592 2995 
L 2592 4627 
L 3482 4627 
L 3482 0 
L 2752 0 
L 2682 454 
L 2637 454 
Q 2470 186 2201 54 
Q 1933 -77 1600 -77 
z
M 1882 653 
Q 2131 653 2288 768 
Q 2445 883 2521 1100 
Q 2598 1318 2598 1619 
L 2598 1734 
Q 2598 1958 2556 2144 
Q 2515 2330 2425 2454 
Q 2336 2579 2201 2646 
Q 2067 2714 1882 2714 
Q 1613 2714 1453 2608 
Q 1293 2502 1222 2288 
Q 1152 2074 1152 1754 
L 1152 1606 
Q 1152 1286 1222 1075 
Q 1293 864 1453 758 
Q 1613 653 1882 653 
z
" transform="scale(0.015625)"/>
        <path id="Archivo-Bold-69" d="M 410 3859 
L 410 4627 
L 1299 4627 
L 1299 3859 
L 410 3859 
z
M 410 0 
L 410 3366 
L 1299 3366 
L 1299 0 
L 410 0 
z
" transform="scale(0.015625)"/>
        <path id="Archivo-Bold-20" transform="scale(0.015625)"/>
        <path id="Archivo-Bold-6e" d="M 410 0 
L 410 3366 
L 1146 3366 
L 1216 2906 
L 1261 2906 
Q 1376 3072 1539 3193 
Q 1702 3315 1907 3379 
Q 2112 3443 2355 3443 
Q 2688 3443 2937 3321 
Q 3187 3200 3324 2937 
Q 3462 2675 3462 2253 
L 3462 0 
L 2573 0 
L 2573 2112 
Q 2573 2272 2534 2384 
Q 2496 2496 2422 2569 
Q 2349 2643 2240 2675 
Q 2131 2707 1997 2707 
Q 1798 2707 1638 2611 
Q 1478 2515 1388 2348 
Q 1299 2182 1299 1965 
L 1299 0 
L 410 0 
z
" transform="scale(0.015625)"/>
        <path id="Archivo-Bold-61" d="M 1299 -77 
Q 1133 -77 944 -38 
Q 755 0 588 99 
Q 422 198 316 387 
Q 211 576 211 870 
Q 211 1222 364 1452 
Q 518 1683 803 1814 
Q 1088 1946 1485 1997 
Q 1882 2048 2362 2048 
L 2362 2298 
Q 2362 2445 2314 2553 
Q 2266 2662 2147 2726 
Q 2029 2790 1818 2790 
Q 1606 2790 1475 2739 
Q 1344 2688 1289 2608 
Q 1235 2528 1235 2432 
L 1235 2355 
L 371 2355 
Q 365 2387 365 2416 
Q 365 2445 365 2490 
Q 365 2784 544 2998 
Q 723 3213 1049 3328 
Q 1376 3443 1811 3443 
Q 2278 3443 2595 3321 
Q 2912 3200 3081 2963 
Q 3251 2726 3251 2368 
L 3251 838 
Q 3251 723 3318 668 
Q 3386 614 3469 614 
L 3680 614 
L 3680 32 
Q 3616 0 3481 -35 
Q 3347 -70 3155 -70 
Q 2970 -70 2826 -16 
Q 2682 38 2586 137 
Q 2490 237 2451 378 
L 2406 378 
Q 2298 243 2141 140 
Q 1984 38 1776 -19 
Q 1568 -77 1299 -77 
z
M 1600 595 
Q 1779 595 1920 649 
Q 2061 704 2157 797 
Q 2253 890 2307 1024 
Q 2362 1158 2362 1312 
L 2362 1498 
Q 2003 1498 1721 1450 
Q 1440 1402 1277 1286 
Q 1114 1171 1114 966 
Q 1114 851 1171 768 
Q 1229 685 1337 640 
Q 1446 595 1600 595 
z
" transform="scale(0.015625)"/>
        <path id="Archivo-Bold-63" d="M 1888 -77 
Q 1350 -77 985 112 
Q 621 301 432 694 
Q 243 1088 243 1683 
Q 243 2291 432 2678 
Q 621 3066 989 3258 
Q 1357 3450 1888 3450 
Q 2234 3450 2512 3366 
Q 2790 3283 2995 3110 
Q 3200 2938 3305 2685 
Q 3411 2432 3411 2086 
L 2522 2086 
Q 2522 2317 2451 2464 
Q 2381 2611 2237 2688 
Q 2093 2765 1875 2765 
Q 1619 2765 1459 2649 
Q 1299 2534 1222 2310 
Q 1146 2086 1146 1754 
L 1146 1606 
Q 1146 1280 1226 1056 
Q 1306 832 1472 720 
Q 1638 608 1907 608 
Q 2125 608 2269 685 
Q 2413 762 2489 915 
Q 2566 1069 2566 1286 
L 3411 1286 
Q 3411 960 3305 704 
Q 3200 448 2998 275 
Q 2797 102 2515 12 
Q 2234 -77 1888 -77 
z
" transform="scale(0.015625)"/>
        <path id="Archivo-Bold-6c" d="M 410 0 
L 410 4627 
L 1299 4627 
L 1299 0 
L 410 0 
z
" transform="scale(0.015625)"/>
       </defs>
       <use xlink:href="#Archivo-Bold-50"/>
       <use xlink:href="#Archivo-Bold-72" x="68.099991"/>
       <use xlink:href="#Archivo-Bold-6f" x="106.099976"/>
       <use xlink:href="#Archivo-Bold-6d" x="167.399963"/>
       <use xlink:href="#Archivo-Bold-65" x="256.499954"/>
       <use xlink:href="#Archivo-Bold-64" x="314.899948"/>
       <use xlink:href="#Archivo-Bold-69" x="375.699936"/>
       <use xlink:href="#Archivo-Bold-6f" x="402.399933"/>
       <use xlink:href="#Archivo-Bold-20" x="463.699921"/>
       <use xlink:href="#Archivo-Bold-6e" x="483.299911"/>
       <use xlink:href="#Archivo-Bold-61" x="543.499908"/>
       <use xlink:href="#Archivo-Bold-63" x="601.499893"/>
       <use xlink:href="#Archivo-Bold-69" x="658.799881"/>
       <use xlink:href="#Archivo-Bold-6f" x="685.499878"/>
       <use xlink:href="#Archivo-Bold-6e" x="746.799866"/>
       <use xlink:href="#Archivo-Bold-61" x="806.999863"/>
       <use xlink:href="#Archivo-Bold-6c" x="864.999847"/>
      </g>
     </g>
    </g>
    <g id="ytick_12">
     <g id="line2d_18">
      <g>
       <use xlink:href="#mc416a89612" x="103.36875" y="403.542857" style="stroke: #000000; stroke-width: 0.8"/>
      </g>
     </g>
     <g id="text_18">
      <!-- San Juan -->
      <g transform="translate(54.178125 407.157701) scale(0.1 -0.1)">
       <defs>
        <path id="Archivo-Regular-4a" d="M 1626 -77 
Q 1184 -77 867 67 
Q 550 211 387 489 
Q 224 768 224 1190 
L 224 1382 
L 832 1382 
L 832 1158 
Q 832 813 1037 630 
Q 1242 448 1626 448 
Q 2016 448 2224 697 
Q 2432 947 2432 1440 
L 2432 4390 
L 3040 4390 
L 3040 1472 
Q 3040 954 2873 608 
Q 2707 262 2390 92 
Q 2074 -77 1626 -77 
z
" transform="scale(0.015625)"/>
       </defs>
       <use xlink:href="#Archivo-Regular-53"/>
       <use xlink:href="#Archivo-Regular-61" x="67.299988"/>
       <use xlink:href="#Archivo-Regular-6e" x="121.799973"/>
       <use xlink:href="#Archivo-Regular-20" x="178.09996"/>
       <use xlink:href="#Archivo-Regular-4a" x="198.999954"/>
       <use xlink:href="#Archivo-Regular-75" x="254.899948"/>
       <use xlink:href="#Archivo-Regular-61" x="311.099945"/>
       <use xlink:href="#Archivo-Regular-6e" x="365.59993"/>
      </g>
     </g>
    </g>
    <g id="ytick_13">
     <g id="line2d_19">
      <g>
       <use xlink:href="#mc416a89612" x="103.36875" y="374.4" style="stroke: #000000; stroke-width: 0.8"/>
      </g>
     </g>
     <g id="text_19">
      <!-- San Luis -->
      <g transform="translate(58.139062 378.014844) scale(0.1 -0.1)">
       <defs>
        <path id="Archivo-Regular-4c" d="M 550 0 
L 550 4390 
L 1158 4390 
L 1158 531 
L 3341 531 
L 3341 0 
L 550 0 
z
" transform="scale(0.015625)"/>
       </defs>
       <use xlink:href="#Archivo-Regular-53"/>
       <use xlink:href="#Archivo-Regular-61" x="67.299988"/>
       <use xlink:href="#Archivo-Regular-6e" x="121.799973"/>
       <use xlink:href="#Archivo-Regular-20" x="178.09996"/>
       <use xlink:href="#Archivo-Regular-4c" x="198.999954"/>
       <use xlink:href="#Archivo-Regular-75" x="252.599945"/>
       <use xlink:href="#Archivo-Regular-69" x="308.799942"/>
       <use xlink:href="#Archivo-Regular-73" x="331.299927"/>
      </g>
     </g>
    </g>
    <g id="ytick_14">
     <g id="line2d_20">
      <g>
       <use xlink:href="#mc416a89612" x="103.36875" y="345.257143" style="stroke: #000000; stroke-width: 0.8"/>
      </g>
     </g>
     <g id="text_20">
      <!-- La Rioja -->
      <g transform="translate(60.56875 348.871987) scale(0.1 -0.1)">
       <defs>
        <path id="Archivo-Regular-6a" d="M 442 4000 
L 442 4627 
L 1005 4627 
L 1005 4000 
L 442 4000 
z
M 294 -1165 
Q 224 -1165 141 -1155 
Q 58 -1146 -19 -1130 
Q -96 -1114 -147 -1094 
L -147 -704 
L 141 -704 
Q 288 -704 365 -624 
Q 442 -544 442 -397 
L 442 3366 
L 1005 3366 
L 1005 -410 
Q 1005 -602 941 -774 
Q 877 -947 726 -1056 
Q 576 -1165 294 -1165 
z
" transform="scale(0.015625)"/>
       </defs>
       <use xlink:href="#Archivo-Regular-4c"/>
       <use xlink:href="#Archivo-Regular-61" x="53.599991"/>
       <use xlink:href="#Archivo-Regular-20" x="108.099976"/>
       <use xlink:href="#Archivo-Regular-52" x="128.999969"/>
       <use xlink:href="#Archivo-Regular-69" x="201.699951"/>
       <use xlink:href="#Archivo-Regular-6f" x="224.199936"/>
       <use xlink:href="#Archivo-Regular-6a" x="281.199921"/>
       <use xlink:href="#Archivo-Regular-61" x="303.499908"/>
      </g>
     </g>
    </g>
    <g id="ytick_15">
     <g id="line2d_21">
      <g>
       <use xlink:href="#mc416a89612" x="103.36875" y="316.114286" style="stroke: #000000; stroke-width: 0.8"/>
      </g>
     </g>
     <g id="text_21">
      <!-- Jujuy -->
      <g transform="translate(72.267187 319.729129) scale(0.1 -0.1)">
       <defs>
        <path id="Archivo-Regular-79" d="M 730 -1165 
Q 576 -1165 464 -1142 
Q 352 -1120 314 -1114 
L 314 -704 
L 595 -704 
Q 749 -704 896 -640 
Q 1043 -576 1171 -422 
Q 1299 -269 1389 0 
L 83 3366 
L 672 3366 
L 1344 1632 
Q 1389 1510 1449 1334 
Q 1510 1158 1571 972 
Q 1632 787 1670 646 
L 1709 646 
Q 1734 749 1772 877 
Q 1811 1005 1852 1142 
Q 1894 1280 1936 1405 
Q 1978 1530 2003 1626 
L 2573 3366 
L 3142 3366 
L 2003 96 
Q 1907 -179 1792 -412 
Q 1677 -646 1536 -812 
Q 1395 -979 1196 -1072 
Q 998 -1165 730 -1165 
z
" transform="scale(0.015625)"/>
       </defs>
       <use xlink:href="#Archivo-Regular-4a"/>
       <use xlink:href="#Archivo-Regular-75" x="55.899994"/>
       <use xlink:href="#Archivo-Regular-6a" x="112.099991"/>
       <use xlink:href="#Archivo-Regular-75" x="134.399979"/>
       <use xlink:href="#Archivo-Regular-79" x="190.599976"/>
      </g>
     </g>
    </g>
    <g id="ytick_16">
     <g id="line2d_22">
      <g>
       <use xlink:href="#mc416a89612" x="103.36875" y="286.971429" style="stroke: #000000; stroke-width: 0.8"/>
      </g>
     </g>
     <g id="text_22">
      <!-- Santa Fe -->
      <g transform="translate(56.448437 290.586272) scale(0.1 -0.1)">
       <defs>
        <path id="Archivo-Regular-46" d="M 550 0 
L 550 4390 
L 3661 4390 
L 3661 3866 
L 1158 3866 
L 1158 2458 
L 3437 2458 
L 3437 1939 
L 1158 1939 
L 1158 0 
L 550 0 
z
" transform="scale(0.015625)"/>
       </defs>
       <use xlink:href="#Archivo-Regular-53"/>
       <use xlink:href="#Archivo-Regular-61" x="67.299988"/>
       <use xlink:href="#Archivo-Regular-6e" x="121.799973"/>
       <use xlink:href="#Archivo-Regular-74" x="178.09996"/>
       <use xlink:href="#Archivo-Regular-61" x="207.799957"/>
       <use xlink:href="#Archivo-Regular-20" x="262.299942"/>
       <use xlink:href="#Archivo-Regular-46" x="283.199936"/>
       <use xlink:href="#Archivo-Regular-65" x="344.399933"/>
      </g>
     </g>
    </g>
    <g id="ytick_17">
     <g id="line2d_23">
      <g>
       <use xlink:href="#mc416a89612" x="103.36875" y="257.828571" style="stroke: #000000; stroke-width: 0.8"/>
      </g>
     </g>
     <g id="text_23">
      <!-- La Pampa -->
      <g transform="translate(51.648437 261.443415) scale(0.1 -0.1)">
       <defs>
        <path id="Archivo-Regular-50" d="M 550 0 
L 550 4390 
L 2720 4390 
Q 3174 4390 3475 4220 
Q 3776 4051 3926 3750 
Q 4077 3450 4077 3053 
Q 4077 2650 3910 2339 
Q 3744 2029 3440 1856 
Q 3136 1683 2714 1683 
L 1158 1683 
L 1158 0 
L 550 0 
z
M 1158 2208 
L 2675 2208 
Q 3034 2208 3248 2432 
Q 3462 2656 3462 3046 
Q 3462 3309 3372 3488 
Q 3283 3667 3110 3766 
Q 2938 3866 2675 3866 
L 1158 3866 
L 1158 2208 
z
" transform="scale(0.015625)"/>
        <path id="Archivo-Regular-70" d="M 442 -1107 
L 442 3366 
L 890 3366 
L 947 2886 
L 992 2886 
Q 1165 3168 1433 3305 
Q 1702 3443 2042 3443 
Q 2464 3443 2758 3257 
Q 3053 3072 3213 2678 
Q 3373 2285 3373 1658 
Q 3373 1069 3209 681 
Q 3046 294 2752 108 
Q 2458 -77 2067 -77 
Q 1850 -77 1658 -25 
Q 1466 26 1312 138 
Q 1158 250 1043 422 
L 1005 422 
L 1005 -1107 
L 442 -1107 
z
M 1888 416 
Q 2202 416 2400 541 
Q 2598 666 2694 931 
Q 2790 1197 2790 1613 
L 2790 1747 
Q 2790 2189 2688 2454 
Q 2586 2720 2390 2835 
Q 2195 2950 1907 2950 
Q 1594 2950 1392 2812 
Q 1190 2675 1097 2400 
Q 1005 2125 1005 1728 
L 1005 1632 
Q 1005 1280 1072 1046 
Q 1139 813 1264 672 
Q 1389 531 1549 473 
Q 1709 416 1888 416 
z
" transform="scale(0.015625)"/>
       </defs>
       <use xlink:href="#Archivo-Regular-4c"/>
       <use xlink:href="#Archivo-Regular-61" x="53.599991"/>
       <use xlink:href="#Archivo-Regular-20" x="108.099976"/>
       <use xlink:href="#Archivo-Regular-50" x="128.999969"/>
       <use xlink:href="#Archivo-Regular-61" x="195.499954"/>
       <use xlink:href="#Archivo-Regular-6d" x="249.999939"/>
       <use xlink:href="#Archivo-Regular-70" x="335.999924"/>
       <use xlink:href="#Archivo-Regular-61" x="392.699921"/>
      </g>
     </g>
    </g>
    <g id="ytick_18">
     <g id="line2d_24">
      <g>
       <use xlink:href="#mc416a89612" x="103.36875" y="228.685714" style="stroke: #000000; stroke-width: 0.8"/>
      </g>
     </g>
     <g id="text_24">
      <!-- Corrientes -->
      <g transform="translate(49.839062 232.300558) scale(0.1 -0.1)">
       <use xlink:href="#Archivo-Regular-43"/>
       <use xlink:href="#Archivo-Regular-6f" x="72.799988"/>
       <use xlink:href="#Archivo-Regular-72" x="129.799973"/>
       <use xlink:href="#Archivo-Regular-72" x="162.999969"/>
       <use xlink:href="#Archivo-Regular-69" x="196.199966"/>
       <use xlink:href="#Archivo-Regular-65" x="218.699951"/>
       <use xlink:href="#Archivo-Regular-6e" x="273.499939"/>
       <use xlink:href="#Archivo-Regular-74" x="329.799927"/>
       <use xlink:href="#Archivo-Regular-65" x="359.499924"/>
       <use xlink:href="#Archivo-Regular-73" x="414.299911"/>
      </g>
     </g>
    </g>
    <g id="ytick_19">
     <g id="line2d_25">
      <g>
       <use xlink:href="#mc416a89612" x="103.36875" y="199.542857" style="stroke: #000000; stroke-width: 0.8"/>
      </g>
     </g>
     <g id="text_25">
      <!-- Formosa -->
      <g transform="translate(56.378125 203.157701) scale(0.1 -0.1)">
       <use xlink:href="#Archivo-Regular-46"/>
       <use xlink:href="#Archivo-Regular-6f" x="61.199997"/>
       <use xlink:href="#Archivo-Regular-72" x="118.199982"/>
       <use xlink:href="#Archivo-Regular-6d" x="151.399979"/>
       <use xlink:href="#Archivo-Regular-6f" x="237.399963"/>
       <use xlink:href="#Archivo-Regular-73" x="294.399948"/>
       <use xlink:href="#Archivo-Regular-61" x="345.399933"/>
      </g>
     </g>
    </g>
    <g id="ytick_20">
     <g id="line2d_26">
      <g>
       <use xlink:href="#mc416a89612" x="103.36875" y="170.4" style="stroke: #000000; stroke-width: 0.8"/>
      </g>
     </g>
     <g id="text_26">
      <!-- Río Negro -->
      <g transform="translate(51.639062 174.014844) scale(0.1 -0.1)">
       <use xlink:href="#Archivo-Regular-52"/>
       <use xlink:href="#Archivo-Regular-ed" x="72.699982"/>
       <use xlink:href="#Archivo-Regular-6f" x="95.199966"/>
       <use xlink:href="#Archivo-Regular-20" x="152.199951"/>
       <use xlink:href="#Archivo-Regular-4e" x="173.099945"/>
       <use xlink:href="#Archivo-Regular-65" x="246.699936"/>
       <use xlink:href="#Archivo-Regular-67" x="301.499924"/>
       <use xlink:href="#Archivo-Regular-72" x="357.099915"/>
       <use xlink:href="#Archivo-Regular-6f" x="390.299911"/>
      </g>
     </g>
    </g>
    <g id="ytick_21">
     <g id="line2d_27">
      <g>
       <use xlink:href="#mc416a89612" x="103.36875" y="141.257143" style="stroke: #000000; stroke-width: 0.8"/>
      </g>
     </g>
     <g id="text_27">
      <!-- Santa Cruz -->
      <g transform="translate(46.848437 144.871987) scale(0.1 -0.1)">
       <use xlink:href="#Archivo-Regular-53"/>
       <use xlink:href="#Archivo-Regular-61" x="67.299988"/>
       <use xlink:href="#Archivo-Regular-6e" x="121.799973"/>
       <use xlink:href="#Archivo-Regular-74" x="178.09996"/>
       <use xlink:href="#Archivo-Regular-61" x="207.799957"/>
       <use xlink:href="#Archivo-Regular-20" x="262.299942"/>
       <use xlink:href="#Archivo-Regular-43" x="283.199936"/>
       <use xlink:href="#Archivo-Regular-72" x="355.999924"/>
       <use xlink:href="#Archivo-Regular-75" x="389.199921"/>
       <use xlink:href="#Archivo-Regular-7a" x="445.399918"/>
      </g>
     </g>
    </g>
    <g id="ytick_22">
     <g id="line2d_28">
      <g>
       <use xlink:href="#mc416a89612" x="103.36875" y="112.114286" style="stroke: #000000; stroke-width: 0.8"/>
      </g>
     </g>
     <g id="text_28">
      <!-- Tierra del Fuego -->
      <g transform="translate(24.428125 115.729129) scale(0.1 -0.1)">
       <use xlink:href="#Archivo-Regular-54"/>
       <use xlink:href="#Archivo-Regular-69" x="60.599991"/>
       <use xlink:href="#Archivo-Regular-65" x="83.099976"/>
       <use xlink:href="#Archivo-Regular-72" x="137.899963"/>
       <use xlink:href="#Archivo-Regular-72" x="171.09996"/>
       <use xlink:href="#Archivo-Regular-61" x="204.299957"/>
       <use xlink:href="#Archivo-Regular-20" x="258.799942"/>
       <use xlink:href="#Archivo-Regular-64" x="279.699936"/>
       <use xlink:href="#Archivo-Regular-65" x="336.399933"/>
       <use xlink:href="#Archivo-Regular-6c" x="391.199921"/>
       <use xlink:href="#Archivo-Regular-20" x="413.699905"/>
       <use xlink:href="#Archivo-Regular-46" x="434.599899"/>
       <use xlink:href="#Archivo-Regular-75" x="495.799896"/>
       <use xlink:href="#Archivo-Regular-65" x="551.999893"/>
       <use xlink:href="#Archivo-Regular-67" x="606.799881"/>
       <use xlink:href="#Archivo-Regular-6f" x="662.399872"/>
      </g>
     </g>
    </g>
    <g id="ytick_23">
     <g id="line2d_29">
      <g>
       <use xlink:href="#mc416a89612" x="103.36875" y="82.971429" style="stroke: #000000; stroke-width: 0.8"/>
      </g>
     </g>
     <g id="text_29">
      <!-- Chaco -->
      <g transform="translate(67.11875 86.586272) scale(0.1 -0.1)">
       <use xlink:href="#Archivo-Regular-43"/>
       <use xlink:href="#Archivo-Regular-68" x="72.799988"/>
       <use xlink:href="#Archivo-Regular-61" x="129.099976"/>
       <use xlink:href="#Archivo-Regular-63" x="183.59996"/>
       <use xlink:href="#Archivo-Regular-6f" x="235.499954"/>
      </g>
     </g>
    </g>
    <g id="ytick_24">
     <g id="line2d_30">
      <g>
       <use xlink:href="#mc416a89612" x="103.36875" y="53.828571" style="stroke: #000000; stroke-width: 0.8"/>
      </g>
     </g>
     <g id="text_30">
      <!-- Catamarca -->
      <g transform="translate(47.207812 57.443415) scale(0.1 -0.1)">
       <use xlink:href="#Archivo-Regular-43"/>
       <use xlink:href="#Archivo-Regular-61" x="72.799988"/>
       <use xlink:href="#Archivo-Regular-74" x="127.299973"/>
       <use xlink:href="#Archivo-Regular-61" x="156.999969"/>
       <use xlink:href="#Archivo-Regular-6d" x="211.499954"/>
       <use xlink:href="#Archivo-Regular-61" x="297.499939"/>
       <use xlink:href="#Archivo-Regular-72" x="351.999924"/>
       <use xlink:href="#Archivo-Regular-63" x="385.199921"/>
       <use xlink:href="#Archivo-Regular-61" x="437.099915"/>
      </g>
     </g>
    </g>
    <g id="ytick_25">
     <g id="line2d_31">
      <g>
       <use xlink:href="#mc416a89612" x="103.36875" y="24.685714" style="stroke: #000000; stroke-width: 0.8"/>
      </g>
     </g>
     <g id="text_31">
      <!-- CABA -->
      <g transform="translate(68.46875 28.300558) scale(0.1 -0.1)">
       <use xlink:href="#Archivo-Regular-43"/>
       <use xlink:href="#Archivo-Regular-41" x="72.799988"/>
       <use xlink:href="#Archivo-Regular-42" x="140.999969"/>
       <use xlink:href="#Archivo-Regular-41" x="210.799957"/>
      </g>
     </g>
    </g>
   </g>
   <g id="patch_53">
    <path d="M 103.36875 741.6 
L 103.36875 7.2 
" style="fill: none; stroke: #000000; stroke-width: 0.8; stroke-linejoin: miter; stroke-linecap: square"/>
   </g>
   <g id="patch_54">
    <path d="M 103.36875 741.6 
L 592.96875 741.6 
" style="fill: none; stroke: #000000; stroke-width: 0.8; stroke-linejoin: miter; stroke-linecap: square"/>
   </g>
   <g id="legend_1">
    <g id="PathCollection_2">
     <g>
      <use xlink:href="#m36c58d7922" x="180.00625" y="791.924687" style="fill: #8d9bff; stroke: #8d9bff"/>
     </g>
    </g>
    <g id="text_32">
     <!-- IGTI -->
     <g transform="translate(198.00625 794.549687) scale(0.1 -0.1)">
      <defs>
       <path id="Archivo-Regular-49" d="M 550 0 
L 550 4390 
L 1158 4390 
L 1158 0 
L 550 0 
z
" transform="scale(0.015625)"/>
       <path id="Archivo-Regular-47" d="M 2528 -77 
Q 1466 -77 912 480 
Q 358 1037 358 2195 
Q 358 2950 614 3456 
Q 870 3962 1369 4214 
Q 1869 4467 2586 4467 
Q 3034 4467 3398 4371 
Q 3763 4275 4028 4080 
Q 4294 3885 4438 3590 
Q 4582 3296 4582 2893 
L 3962 2893 
Q 3962 3174 3859 3376 
Q 3757 3578 3568 3706 
Q 3379 3834 3129 3888 
Q 2880 3942 2598 3942 
Q 2214 3942 1913 3846 
Q 1613 3750 1408 3545 
Q 1203 3341 1094 3021 
Q 986 2701 986 2259 
L 986 2125 
Q 986 1530 1168 1158 
Q 1350 787 1696 617 
Q 2042 448 2528 448 
Q 3021 448 3341 585 
Q 3661 723 3817 1004 
Q 3974 1286 3974 1715 
L 3974 1792 
L 2426 1792 
L 2426 2310 
L 4589 2310 
L 4589 0 
L 4128 0 
L 4064 557 
Q 3891 333 3654 192 
Q 3418 51 3133 -13 
Q 2848 -77 2528 -77 
z
" transform="scale(0.015625)"/>
      </defs>
      <use xlink:href="#Archivo-Regular-49"/>
      <use xlink:href="#Archivo-Regular-47" x="26.699997"/>
      <use xlink:href="#Archivo-Regular-54" x="106.299988"/>
      <use xlink:href="#Archivo-Regular-49" x="166.899979"/>
     </g>
    </g>
    <g id="patch_55">
     <path d="M 237.365625 794.549687 
L 257.365625 794.549687 
L 257.365625 787.549687 
L 237.365625 787.549687 
z
" style="fill: #ff9750; opacity: 0.9"/>
    </g>
    <g id="text_33">
     <!-- Inserción laboral -->
     <g transform="translate(265.365625 794.549687) scale(0.1 -0.1)">
      <use xlink:href="#Archivo-Regular-49"/>
      <use xlink:href="#Archivo-Regular-6e" x="26.699997"/>
      <use xlink:href="#Archivo-Regular-73" x="82.999985"/>
      <use xlink:href="#Archivo-Regular-65" x="133.999969"/>
      <use xlink:href="#Archivo-Regular-72" x="188.799957"/>
      <use xlink:href="#Archivo-Regular-63" x="221.999954"/>
      <use xlink:href="#Archivo-Regular-69" x="273.899948"/>
      <use xlink:href="#Archivo-Regular-f3" x="296.399933"/>
      <use xlink:href="#Archivo-Regular-6e" x="353.399918"/>
      <use xlink:href="#Archivo-Regular-20" x="409.699905"/>
      <use xlink:href="#Archivo-Regular-6c" x="430.599899"/>
      <use xlink:href="#Archivo-Regular-61" x="453.099884"/>
      <use xlink:href="#Archivo-Regular-62" x="507.599869"/>
      <use xlink:href="#Archivo-Regular-6f" x="564.299866"/>
      <use xlink:href="#Archivo-Regular-72" x="621.29985"/>
      <use xlink:href="#Archivo-Regular-61" x="654.499847"/>
      <use xlink:href="#Archivo-Regular-6c" x="708.999832"/>
     </g>
    </g>
    <g id="patch_56">
     <path d="M 358.517187 794.549687 
L 378.517187 794.549687 
L 378.517187 787.549687 
L 358.517187 787.549687 
z
" style="fill: #9fc1ad; opacity: 0.9"/>
    </g>
    <g id="text_34">
     <!-- Uso del tiempo y oportunidades -->
     <g transform="translate(386.517187 794.549687) scale(0.1 -0.1)">
      <defs>
       <path id="Archivo-Regular-55" d="M 2330 -77 
Q 1773 -77 1369 102 
Q 966 282 752 669 
Q 538 1056 538 1664 
L 538 4390 
L 1146 4390 
L 1146 1600 
Q 1146 1024 1456 736 
Q 1766 448 2330 448 
Q 2899 448 3219 736 
Q 3539 1024 3539 1600 
L 3539 4390 
L 4141 4390 
L 4141 1664 
Q 4141 1056 3923 669 
Q 3706 282 3299 102 
Q 2893 -77 2330 -77 
z
" transform="scale(0.015625)"/>
      </defs>
      <use xlink:href="#Archivo-Regular-55"/>
      <use xlink:href="#Archivo-Regular-73" x="73.099991"/>
      <use xlink:href="#Archivo-Regular-6f" x="124.099976"/>
      <use xlink:href="#Archivo-Regular-20" x="181.09996"/>
      <use xlink:href="#Archivo-Regular-64" x="201.999954"/>
      <use xlink:href="#Archivo-Regular-65" x="258.699951"/>
      <use xlink:href="#Archivo-Regular-6c" x="313.499939"/>
      <use xlink:href="#Archivo-Regular-20" x="335.999924"/>
      <use xlink:href="#Archivo-Regular-74" x="356.899918"/>
      <use xlink:href="#Archivo-Regular-69" x="386.599915"/>
      <use xlink:href="#Archivo-Regular-65" x="409.099899"/>
      <use xlink:href="#Archivo-Regular-6d" x="463.899887"/>
      <use xlink:href="#Archivo-Regular-70" x="549.899872"/>
      <use xlink:href="#Archivo-Regular-6f" x="606.599869"/>
      <use xlink:href="#Archivo-Regular-20" x="663.599854"/>
      <use xlink:href="#Archivo-Regular-79" x="684.499847"/>
      <use xlink:href="#Archivo-Regular-20" x="734.899841"/>
      <use xlink:href="#Archivo-Regular-6f" x="755.799835"/>
      <use xlink:href="#Archivo-Regular-70" x="812.79982"/>
      <use xlink:href="#Archivo-Regular-6f" x="869.499817"/>
      <use xlink:href="#Archivo-Regular-72" x="926.499802"/>
      <use xlink:href="#Archivo-Regular-74" x="959.699799"/>
      <use xlink:href="#Archivo-Regular-75" x="989.399796"/>
      <use xlink:href="#Archivo-Regular-6e" x="1045.599792"/>
      <use xlink:href="#Archivo-Regular-69" x="1101.89978"/>
      <use xlink:href="#Archivo-Regular-64" x="1124.399765"/>
      <use xlink:href="#Archivo-Regular-61" x="1181.099762"/>
      <use xlink:href="#Archivo-Regular-64" x="1235.599747"/>
      <use xlink:href="#Archivo-Regular-65" x="1292.299744"/>
      <use xlink:href="#Archivo-Regular-73" x="1347.099731"/>
     </g>
    </g>
   </g>
  </g>
 </g>
 <defs>
  <clipPath id="p1497d2d7a8">
   <rect x="103.36875" y="7.2" width="489.6" height="734.4"/>
  </clipPath>
 </defs>
</svg>
