<?xml version="1.0" encoding="utf-8" standalone="no"?>
<!DOCTYPE svg PUBLIC "-//W3C//DTD SVG 1.1//EN"
  "http://www.w3.org/Graphics/SVG/1.1/DTD/svg11.dtd">
<svg xmlns:xlink="http://www.w3.org/1999/xlink" width="852.006875pt" height="479.301688pt" viewBox="0 0 852.006875 479.301688" xmlns="http://www.w3.org/2000/svg" version="1.1">
 <metadata>
  <rdf:RDF xmlns:dc="http://purl.org/dc/elements/1.1/" xmlns:cc="http://creativecommons.org/ns#" xmlns:rdf="http://www.w3.org/1999/02/22-rdf-syntax-ns#">
   <cc:Work>
    <dc:type rdf:resource="http://purl.org/dc/dcmitype/StillImage"/>
    <dc:date>2023-08-02T20:34:23.443958</dc:date>
    <dc:format>image/svg+xml</dc:format>
    <dc:creator>
     <cc:Agent>
      <dc:title>Matplotlib v3.6.3, https://matplotlib.org/</dc:title>
     </cc:Agent>
    </dc:creator>
   </cc:Work>
  </rdf:RDF>
 </metadata>
 <defs>
  <style type="text/css">*{stroke-linejoin: round; stroke-linecap: butt}</style>
 </defs>
 <g id="figure_1">
  <g id="patch_1">
   <path d="M 0 479.301688 
L 852.006875 479.301688 
L 852.006875 0 
L 0 0 
L 0 479.301688 
z
" style="fill: none"/>
  </g>
  <g id="axes_1">
   <g id="patch_2">
    <path d="M 49.206875 385.301688 
L 844.806875 385.301688 
L 844.806875 18.101688 
L 49.206875 18.101688 
L 49.206875 385.301688 
z
" style="fill: none"/>
   </g>
   <g id="patch_3">
    <path d="M 57.099732 385.301688 
L 64.466399 385.301688 
L 64.466399 237.282485 
L 57.099732 237.282485 
z
" clip-path="url(#p2b1df6affa)" style="fill: #8d9bff; opacity: 0.9; stroke: #f5f5f5; stroke-width: 0.5; stroke-linejoin: miter"/>
   </g>
   <g id="patch_4">
    <path d="M 88.671161 385.301688 
L 96.037827 385.301688 
L 96.037827 237.282485 
L 88.671161 237.282485 
z
" clip-path="url(#p2b1df6affa)" style="fill: #8d9bff; opacity: 0.9; stroke: #f5f5f5; stroke-width: 0.5; stroke-linejoin: miter"/>
   </g>
   <g id="patch_5">
    <path d="M 120.242589 385.301688 
L 127.609256 385.301688 
L 127.609256 237.282485 
L 120.242589 237.282485 
z
" clip-path="url(#p2b1df6affa)" style="fill: #8d9bff; opacity: 0.9; stroke: #f5f5f5; stroke-width: 0.5; stroke-linejoin: miter"/>
   </g>
   <g id="patch_6">
    <path d="M 151.814018 385.301688 
L 159.180685 385.301688 
L 159.180685 237.282485 
L 151.814018 237.282485 
z
" clip-path="url(#p2b1df6affa)" style="fill: #8d9bff; opacity: 0.9; stroke: #f5f5f5; stroke-width: 0.5; stroke-linejoin: miter"/>
   </g>
   <g id="patch_7">
    <path d="M 183.385446 385.301688 
L 190.752113 385.301688 
L 190.752113 237.282485 
L 183.385446 237.282485 
z
" clip-path="url(#p2b1df6affa)" style="fill: #8d9bff; opacity: 0.9; stroke: #f5f5f5; stroke-width: 0.5; stroke-linejoin: miter"/>
   </g>
   <g id="patch_8">
    <path d="M 214.956875 385.301688 
L 222.323542 385.301688 
L 222.323542 237.282485 
L 214.956875 237.282485 
z
" clip-path="url(#p2b1df6affa)" style="fill: #8d9bff; opacity: 0.9; stroke: #f5f5f5; stroke-width: 0.5; stroke-linejoin: miter"/>
   </g>
   <g id="patch_9">
    <path d="M 246.528304 385.301688 
L 253.89497 385.301688 
L 253.89497 209.317549 
L 246.528304 209.317549 
z
" clip-path="url(#p2b1df6affa)" style="fill: #8d9bff; opacity: 0.9; stroke: #f5f5f5; stroke-width: 0.5; stroke-linejoin: miter"/>
   </g>
   <g id="patch_10">
    <path d="M 278.099732 385.301688 
L 285.466399 385.301688 
L 285.466399 209.317549 
L 278.099732 209.317549 
z
" clip-path="url(#p2b1df6affa)" style="fill: #8d9bff; opacity: 0.9; stroke: #f5f5f5; stroke-width: 0.5; stroke-linejoin: miter"/>
   </g>
   <g id="patch_11">
    <path d="M 309.671161 385.301688 
L 317.037827 385.301688 
L 317.037827 209.317549 
L 309.671161 209.317549 
z
" clip-path="url(#p2b1df6affa)" style="fill: #8d9bff; opacity: 0.9; stroke: #f5f5f5; stroke-width: 0.5; stroke-linejoin: miter"/>
   </g>
   <g id="patch_12">
    <path d="M 341.242589 385.301688 
L 348.609256 385.301688 
L 348.609256 209.317549 
L 341.242589 209.317549 
z
" clip-path="url(#p2b1df6affa)" style="fill: #8d9bff; opacity: 0.9; stroke: #f5f5f5; stroke-width: 0.5; stroke-linejoin: miter"/>
   </g>
   <g id="patch_13">
    <path d="M 372.814018 385.301688 
L 380.180685 385.301688 
L 380.180685 211.13463 
L 372.814018 211.13463 
z
" clip-path="url(#p2b1df6affa)" style="fill: #8d9bff; opacity: 0.9; stroke: #f5f5f5; stroke-width: 0.5; stroke-linejoin: miter"/>
   </g>
   <g id="patch_14">
    <path d="M 404.385446 385.301688 
L 411.752113 385.301688 
L 411.752113 211.13463 
L 404.385446 211.13463 
z
" clip-path="url(#p2b1df6affa)" style="fill: #8d9bff; opacity: 0.9; stroke: #f5f5f5; stroke-width: 0.5; stroke-linejoin: miter"/>
   </g>
   <g id="patch_15">
    <path d="M 435.956875 385.301688 
L 443.323542 385.301688 
L 443.323542 211.13463 
L 435.956875 211.13463 
z
" clip-path="url(#p2b1df6affa)" style="fill: #8d9bff; opacity: 0.9; stroke: #f5f5f5; stroke-width: 0.5; stroke-linejoin: miter"/>
   </g>
   <g id="patch_16">
    <path d="M 467.528304 385.301688 
L 474.89497 385.301688 
L 474.89497 200.75156 
L 467.528304 200.75156 
z
" clip-path="url(#p2b1df6affa)" style="fill: #8d9bff; opacity: 0.9; stroke: #f5f5f5; stroke-width: 0.5; stroke-linejoin: miter"/>
   </g>
   <g id="patch_17">
    <path d="M 499.099732 385.301688 
L 506.466399 385.301688 
L 506.466399 177.693188 
L 499.099732 177.693188 
z
" clip-path="url(#p2b1df6affa)" style="fill: #8d9bff; opacity: 0.9; stroke: #f5f5f5; stroke-width: 0.5; stroke-linejoin: miter"/>
   </g>
   <g id="patch_18">
    <path d="M 530.671161 385.301688 
L 538.037827 385.301688 
L 538.037827 177.693188 
L 530.671161 177.693188 
z
" clip-path="url(#p2b1df6affa)" style="fill: #8d9bff; opacity: 0.9; stroke: #f5f5f5; stroke-width: 0.5; stroke-linejoin: miter"/>
   </g>
   <g id="patch_19">
    <path d="M 562.242589 385.301688 
L 569.609256 385.301688 
L 569.609256 177.693188 
L 562.242589 177.693188 
z
" clip-path="url(#p2b1df6affa)" style="fill: #8d9bff; opacity: 0.9; stroke: #f5f5f5; stroke-width: 0.5; stroke-linejoin: miter"/>
   </g>
   <g id="patch_20">
    <path d="M 593.814018 385.301688 
L 601.180685 385.301688 
L 601.180685 195.171319 
L 593.814018 195.171319 
z
" clip-path="url(#p2b1df6affa)" style="fill: #8d9bff; opacity: 0.9; stroke: #f5f5f5; stroke-width: 0.5; stroke-linejoin: miter"/>
   </g>
   <g id="patch_21">
    <path d="M 625.385446 385.301688 
L 632.752113 385.301688 
L 632.752113 177.693188 
L 625.385446 177.693188 
z
" clip-path="url(#p2b1df6affa)" style="fill: #8d9bff; opacity: 0.9; stroke: #f5f5f5; stroke-width: 0.5; stroke-linejoin: miter"/>
   </g>
   <g id="patch_22">
    <path d="M 656.956875 385.301688 
L 664.323542 385.301688 
L 664.323542 186.170383 
L 656.956875 186.170383 
z
" clip-path="url(#p2b1df6affa)" style="fill: #8d9bff; opacity: 0.9; stroke: #f5f5f5; stroke-width: 0.5; stroke-linejoin: miter"/>
   </g>
   <g id="patch_23">
    <path d="M 688.528304 385.301688 
L 695.89497 385.301688 
L 695.89497 186.170383 
L 688.528304 186.170383 
z
" clip-path="url(#p2b1df6affa)" style="fill: #8d9bff; opacity: 0.9; stroke: #f5f5f5; stroke-width: 0.5; stroke-linejoin: miter"/>
   </g>
   <g id="patch_24">
    <path d="M 720.099732 385.301688 
L 727.466399 385.301688 
L 727.466399 186.170383 
L 720.099732 186.170383 
z
" clip-path="url(#p2b1df6affa)" style="fill: #8d9bff; opacity: 0.9; stroke: #f5f5f5; stroke-width: 0.5; stroke-linejoin: miter"/>
   </g>
   <g id="patch_25">
    <path d="M 751.671161 385.301688 
L 759.037827 385.301688 
L 759.037827 186.170383 
L 751.671161 186.170383 
z
" clip-path="url(#p2b1df6affa)" style="fill: #8d9bff; opacity: 0.9; stroke: #f5f5f5; stroke-width: 0.5; stroke-linejoin: miter"/>
   </g>
   <g id="patch_26">
    <path d="M 783.242589 385.301688 
L 790.609256 385.301688 
L 790.609256 186.170383 
L 783.242589 186.170383 
z
" clip-path="url(#p2b1df6affa)" style="fill: #8d9bff; opacity: 0.9; stroke: #f5f5f5; stroke-width: 0.5; stroke-linejoin: miter"/>
   </g>
   <g id="patch_27">
    <path d="M 814.814018 385.301688 
L 822.180685 385.301688 
L 822.180685 205.496523 
L 814.814018 205.496523 
z
" clip-path="url(#p2b1df6affa)" style="fill: #8d9bff; opacity: 0.9; stroke: #f5f5f5; stroke-width: 0.5; stroke-linejoin: miter"/>
   </g>
   <g id="patch_28">
    <path d="M 64.466399 385.301688 
L 71.833065 385.301688 
L 71.833065 18.101688 
L 64.466399 18.101688 
z
" clip-path="url(#p2b1df6affa)" style="fill: #9fc1ad; opacity: 0.9; stroke: #f5f5f5; stroke-width: 0.5; stroke-linejoin: miter"/>
   </g>
   <g id="patch_29">
    <path d="M 96.037827 385.301688 
L 103.404494 385.301688 
L 103.404494 47.254508 
L 96.037827 47.254508 
z
" clip-path="url(#p2b1df6affa)" style="fill: #9fc1ad; opacity: 0.9; stroke: #f5f5f5; stroke-width: 0.5; stroke-linejoin: miter"/>
   </g>
   <g id="patch_30">
    <path d="M 127.609256 385.301688 
L 134.975923 385.301688 
L 134.975923 30.105216 
L 127.609256 30.105216 
z
" clip-path="url(#p2b1df6affa)" style="fill: #9fc1ad; opacity: 0.9; stroke: #f5f5f5; stroke-width: 0.5; stroke-linejoin: miter"/>
   </g>
   <g id="patch_31">
    <path d="M 159.180685 385.301688 
L 166.547351 385.301688 
L 166.547351 18.101688 
L 159.180685 18.101688 
z
" clip-path="url(#p2b1df6affa)" style="fill: #9fc1ad; opacity: 0.9; stroke: #f5f5f5; stroke-width: 0.5; stroke-linejoin: miter"/>
   </g>
   <g id="patch_32">
    <path d="M 190.752113 385.301688 
L 198.11878 385.301688 
L 198.11878 39.835429 
L 190.752113 39.835429 
z
" clip-path="url(#p2b1df6affa)" style="fill: #9fc1ad; opacity: 0.9; stroke: #f5f5f5; stroke-width: 0.5; stroke-linejoin: miter"/>
   </g>
   <g id="patch_33">
    <path d="M 222.323542 385.301688 
L 229.690208 385.301688 
L 229.690208 84.718526 
L 222.323542 84.718526 
z
" clip-path="url(#p2b1df6affa)" style="fill: #9fc1ad; opacity: 0.9; stroke: #f5f5f5; stroke-width: 0.5; stroke-linejoin: miter"/>
   </g>
   <g id="patch_34">
    <path d="M 253.89497 385.301688 
L 261.261637 385.301688 
L 261.261637 28.780161 
L 253.89497 28.780161 
z
" clip-path="url(#p2b1df6affa)" style="fill: #9fc1ad; opacity: 0.9; stroke: #f5f5f5; stroke-width: 0.5; stroke-linejoin: miter"/>
   </g>
   <g id="patch_35">
    <path d="M 285.466399 385.301688 
L 292.833065 385.301688 
L 292.833065 18.101688 
L 285.466399 18.101688 
z
" clip-path="url(#p2b1df6affa)" style="fill: #9fc1ad; opacity: 0.9; stroke: #f5f5f5; stroke-width: 0.5; stroke-linejoin: miter"/>
   </g>
   <g id="patch_36">
    <path d="M 317.037827 385.301688 
L 324.404494 385.301688 
L 324.404494 25.800812 
L 317.037827 25.800812 
z
" clip-path="url(#p2b1df6affa)" style="fill: #9fc1ad; opacity: 0.9; stroke: #f5f5f5; stroke-width: 0.5; stroke-linejoin: miter"/>
   </g>
   <g id="patch_37">
    <path d="M 348.609256 385.301688 
L 355.975923 385.301688 
L 355.975923 77.220036 
L 348.609256 77.220036 
z
" clip-path="url(#p2b1df6affa)" style="fill: #9fc1ad; opacity: 0.9; stroke: #f5f5f5; stroke-width: 0.5; stroke-linejoin: miter"/>
   </g>
   <g id="patch_38">
    <path d="M 380.180685 385.301688 
L 387.547351 385.301688 
L 387.547351 53.158499 
L 380.180685 53.158499 
z
" clip-path="url(#p2b1df6affa)" style="fill: #9fc1ad; opacity: 0.9; stroke: #f5f5f5; stroke-width: 0.5; stroke-linejoin: miter"/>
   </g>
   <g id="patch_39">
    <path d="M 411.752113 385.301688 
L 419.11878 385.301688 
L 419.11878 52.667134 
L 411.752113 52.667134 
z
" clip-path="url(#p2b1df6affa)" style="fill: #9fc1ad; opacity: 0.9; stroke: #f5f5f5; stroke-width: 0.5; stroke-linejoin: miter"/>
   </g>
   <g id="patch_40">
    <path d="M 443.323542 385.301688 
L 450.690208 385.301688 
L 450.690208 62.576549 
L 443.323542 62.576549 
z
" clip-path="url(#p2b1df6affa)" style="fill: #9fc1ad; opacity: 0.9; stroke: #f5f5f5; stroke-width: 0.5; stroke-linejoin: miter"/>
   </g>
   <g id="patch_41">
    <path d="M 474.89497 385.301688 
L 482.261637 385.301688 
L 482.261637 18.101688 
L 474.89497 18.101688 
z
" clip-path="url(#p2b1df6affa)" style="fill: #9fc1ad; opacity: 0.9; stroke: #f5f5f5; stroke-width: 0.5; stroke-linejoin: miter"/>
   </g>
   <g id="patch_42">
    <path d="M 506.466399 385.301688 
L 513.833065 385.301688 
L 513.833065 53.651984 
L 506.466399 53.651984 
z
" clip-path="url(#p2b1df6affa)" style="fill: #9fc1ad; opacity: 0.9; stroke: #f5f5f5; stroke-width: 0.5; stroke-linejoin: miter"/>
   </g>
   <g id="patch_43">
    <path d="M 538.037827 385.301688 
L 545.404494 385.301688 
L 545.404494 44.995406 
L 538.037827 44.995406 
z
" clip-path="url(#p2b1df6affa)" style="fill: #9fc1ad; opacity: 0.9; stroke: #f5f5f5; stroke-width: 0.5; stroke-linejoin: miter"/>
   </g>
   <g id="patch_44">
    <path d="M 569.609256 385.301688 
L 576.975923 385.301688 
L 576.975923 38.175375 
L 569.609256 38.175375 
z
" clip-path="url(#p2b1df6affa)" style="fill: #9fc1ad; opacity: 0.9; stroke: #f5f5f5; stroke-width: 0.5; stroke-linejoin: miter"/>
   </g>
   <g id="patch_45">
    <path d="M 601.180685 385.301688 
L 608.547351 385.301688 
L 608.547351 69.155192 
L 601.180685 69.155192 
z
" clip-path="url(#p2b1df6affa)" style="fill: #9fc1ad; opacity: 0.9; stroke: #f5f5f5; stroke-width: 0.5; stroke-linejoin: miter"/>
   </g>
   <g id="patch_46">
    <path d="M 632.752113 385.301688 
L 640.11878 385.301688 
L 640.11878 77.184709 
L 632.752113 77.184709 
z
" clip-path="url(#p2b1df6affa)" style="fill: #9fc1ad; opacity: 0.9; stroke: #f5f5f5; stroke-width: 0.5; stroke-linejoin: miter"/>
   </g>
   <g id="patch_47">
    <path d="M 664.323542 385.301688 
L 671.690208 385.301688 
L 671.690208 73.947863 
L 664.323542 73.947863 
z
" clip-path="url(#p2b1df6affa)" style="fill: #9fc1ad; opacity: 0.9; stroke: #f5f5f5; stroke-width: 0.5; stroke-linejoin: miter"/>
   </g>
   <g id="patch_48">
    <path d="M 695.89497 385.301688 
L 703.261637 385.301688 
L 703.261637 96.662074 
L 695.89497 96.662074 
z
" clip-path="url(#p2b1df6affa)" style="fill: #9fc1ad; opacity: 0.9; stroke: #f5f5f5; stroke-width: 0.5; stroke-linejoin: miter"/>
   </g>
   <g id="patch_49">
    <path d="M 727.466399 385.301688 
L 734.833065 385.301688 
L 734.833065 62.77378 
L 727.466399 62.77378 
z
" clip-path="url(#p2b1df6affa)" style="fill: #9fc1ad; opacity: 0.9; stroke: #f5f5f5; stroke-width: 0.5; stroke-linejoin: miter"/>
   </g>
   <g id="patch_50">
    <path d="M 759.037827 385.301688 
L 766.404494 385.301688 
L 766.404494 92.524232 
L 759.037827 92.524232 
z
" clip-path="url(#p2b1df6affa)" style="fill: #9fc1ad; opacity: 0.9; stroke: #f5f5f5; stroke-width: 0.5; stroke-linejoin: miter"/>
   </g>
   <g id="patch_51">
    <path d="M 790.609256 385.301688 
L 797.975923 385.301688 
L 797.975923 102.302825 
L 790.609256 102.302825 
z
" clip-path="url(#p2b1df6affa)" style="fill: #9fc1ad; opacity: 0.9; stroke: #f5f5f5; stroke-width: 0.5; stroke-linejoin: miter"/>
   </g>
   <g id="patch_52">
    <path d="M 822.180685 385.301688 
L 829.547351 385.301688 
L 829.547351 53.579044 
L 822.180685 53.579044 
z
" clip-path="url(#p2b1df6affa)" style="fill: #9fc1ad; opacity: 0.9; stroke: #f5f5f5; stroke-width: 0.5; stroke-linejoin: miter"/>
   </g>
   <g id="patch_53">
    <path d="M 71.833065 385.301688 
L 79.199732 385.301688 
L 79.199732 19.903731 
L 71.833065 19.903731 
z
" clip-path="url(#p2b1df6affa)" style="fill: #d3d3e0; opacity: 0.9; stroke: #f5f5f5; stroke-width: 0.5; stroke-linejoin: miter"/>
   </g>
   <g id="patch_54">
    <path d="M 103.404494 385.301688 
L 110.771161 385.301688 
L 110.771161 24.999727 
L 103.404494 24.999727 
z
" clip-path="url(#p2b1df6affa)" style="fill: #d3d3e0; opacity: 0.9; stroke: #f5f5f5; stroke-width: 0.5; stroke-linejoin: miter"/>
   </g>
   <g id="patch_55">
    <path d="M 134.975923 385.301688 
L 142.342589 385.301688 
L 142.342589 45.823482 
L 134.975923 45.823482 
z
" clip-path="url(#p2b1df6affa)" style="fill: #d3d3e0; opacity: 0.9; stroke: #f5f5f5; stroke-width: 0.5; stroke-linejoin: miter"/>
   </g>
   <g id="patch_56">
    <path d="M 166.547351 385.301688 
L 173.914018 385.301688 
L 173.914018 64.266805 
L 166.547351 64.266805 
z
" clip-path="url(#p2b1df6affa)" style="fill: #d3d3e0; opacity: 0.9; stroke: #f5f5f5; stroke-width: 0.5; stroke-linejoin: miter"/>
   </g>
   <g id="patch_57">
    <path d="M 198.11878 385.301688 
L 205.485446 385.301688 
L 205.485446 45.460987 
L 198.11878 45.460987 
z
" clip-path="url(#p2b1df6affa)" style="fill: #d3d3e0; opacity: 0.9; stroke: #f5f5f5; stroke-width: 0.5; stroke-linejoin: miter"/>
   </g>
   <g id="patch_58">
    <path d="M 229.690208 385.301688 
L 237.056875 385.301688 
L 237.056875 38.866979 
L 229.690208 38.866979 
z
" clip-path="url(#p2b1df6affa)" style="fill: #d3d3e0; opacity: 0.9; stroke: #f5f5f5; stroke-width: 0.5; stroke-linejoin: miter"/>
   </g>
   <g id="patch_59">
    <path d="M 261.261637 385.301688 
L 268.628304 385.301688 
L 268.628304 18.101688 
L 261.261637 18.101688 
z
" clip-path="url(#p2b1df6affa)" style="fill: #d3d3e0; opacity: 0.9; stroke: #f5f5f5; stroke-width: 0.5; stroke-linejoin: miter"/>
   </g>
   <g id="patch_60">
    <path d="M 292.833065 385.301688 
L 300.199732 385.301688 
L 300.199732 65.223619 
L 292.833065 65.223619 
z
" clip-path="url(#p2b1df6affa)" style="fill: #d3d3e0; opacity: 0.9; stroke: #f5f5f5; stroke-width: 0.5; stroke-linejoin: miter"/>
   </g>
   <g id="patch_61">
    <path d="M 324.404494 385.301688 
L 331.771161 385.301688 
L 331.771161 73.19915 
L 324.404494 73.19915 
z
" clip-path="url(#p2b1df6affa)" style="fill: #d3d3e0; opacity: 0.9; stroke: #f5f5f5; stroke-width: 0.5; stroke-linejoin: miter"/>
   </g>
   <g id="patch_62">
    <path d="M 355.975923 385.301688 
L 363.342589 385.301688 
L 363.342589 80.736001 
L 355.975923 80.736001 
z
" clip-path="url(#p2b1df6affa)" style="fill: #d3d3e0; opacity: 0.9; stroke: #f5f5f5; stroke-width: 0.5; stroke-linejoin: miter"/>
   </g>
   <g id="patch_63">
    <path d="M 387.547351 385.301688 
L 394.914018 385.301688 
L 394.914018 41.315054 
L 387.547351 41.315054 
z
" clip-path="url(#p2b1df6affa)" style="fill: #d3d3e0; opacity: 0.9; stroke: #f5f5f5; stroke-width: 0.5; stroke-linejoin: miter"/>
   </g>
   <g id="patch_64">
    <path d="M 419.11878 385.301688 
L 426.485446 385.301688 
L 426.485446 44.185789 
L 419.11878 44.185789 
z
" clip-path="url(#p2b1df6affa)" style="fill: #d3d3e0; opacity: 0.9; stroke: #f5f5f5; stroke-width: 0.5; stroke-linejoin: miter"/>
   </g>
   <g id="patch_65">
    <path d="M 450.690208 385.301688 
L 458.056875 385.301688 
L 458.056875 66.049133 
L 450.690208 66.049133 
z
" clip-path="url(#p2b1df6affa)" style="fill: #d3d3e0; opacity: 0.9; stroke: #f5f5f5; stroke-width: 0.5; stroke-linejoin: miter"/>
   </g>
   <g id="patch_66">
    <path d="M 482.261637 385.301688 
L 489.628304 385.301688 
L 489.628304 29.625274 
L 482.261637 29.625274 
z
" clip-path="url(#p2b1df6affa)" style="fill: #d3d3e0; opacity: 0.9; stroke: #f5f5f5; stroke-width: 0.5; stroke-linejoin: miter"/>
   </g>
   <g id="patch_67">
    <path d="M 513.833065 385.301688 
L 521.199732 385.301688 
L 521.199732 42.179871 
L 513.833065 42.179871 
z
" clip-path="url(#p2b1df6affa)" style="fill: #d3d3e0; opacity: 0.9; stroke: #f5f5f5; stroke-width: 0.5; stroke-linejoin: miter"/>
   </g>
   <g id="patch_68">
    <path d="M 545.404494 385.301688 
L 552.771161 385.301688 
L 552.771161 64.789142 
L 545.404494 64.789142 
z
" clip-path="url(#p2b1df6affa)" style="fill: #d3d3e0; opacity: 0.9; stroke: #f5f5f5; stroke-width: 0.5; stroke-linejoin: miter"/>
   </g>
   <g id="patch_69">
    <path d="M 576.975923 385.301688 
L 584.342589 385.301688 
L 584.342589 128.246728 
L 576.975923 128.246728 
z
" clip-path="url(#p2b1df6affa)" style="fill: #d3d3e0; opacity: 0.9; stroke: #f5f5f5; stroke-width: 0.5; stroke-linejoin: miter"/>
   </g>
   <g id="patch_70">
    <path d="M 608.547351 385.301688 
L 615.914018 385.301688 
L 615.914018 82.335923 
L 608.547351 82.335923 
z
" clip-path="url(#p2b1df6affa)" style="fill: #d3d3e0; opacity: 0.9; stroke: #f5f5f5; stroke-width: 0.5; stroke-linejoin: miter"/>
   </g>
   <g id="patch_71">
    <path d="M 640.11878 385.301688 
L 647.485446 385.301688 
L 647.485446 106.081759 
L 640.11878 106.081759 
z
" clip-path="url(#p2b1df6affa)" style="fill: #d3d3e0; opacity: 0.9; stroke: #f5f5f5; stroke-width: 0.5; stroke-linejoin: miter"/>
   </g>
   <g id="patch_72">
    <path d="M 671.690208 385.301688 
L 679.056875 385.301688 
L 679.056875 18.101688 
L 671.690208 18.101688 
z
" clip-path="url(#p2b1df6affa)" style="fill: #d3d3e0; opacity: 0.9; stroke: #f5f5f5; stroke-width: 0.5; stroke-linejoin: miter"/>
   </g>
   <g id="patch_73">
    <path d="M 703.261637 385.301688 
L 710.628304 385.301688 
L 710.628304 23.697778 
L 703.261637 23.697778 
z
" clip-path="url(#p2b1df6affa)" style="fill: #d3d3e0; opacity: 0.9; stroke: #f5f5f5; stroke-width: 0.5; stroke-linejoin: miter"/>
   </g>
   <g id="patch_74">
    <path d="M 734.833065 385.301688 
L 742.199732 385.301688 
L 742.199732 72.46434 
L 734.833065 72.46434 
z
" clip-path="url(#p2b1df6affa)" style="fill: #d3d3e0; opacity: 0.9; stroke: #f5f5f5; stroke-width: 0.5; stroke-linejoin: miter"/>
   </g>
   <g id="patch_75">
    <path d="M 766.404494 385.301688 
L 773.771161 385.301688 
L 773.771161 74.186488 
L 766.404494 74.186488 
z
" clip-path="url(#p2b1df6affa)" style="fill: #d3d3e0; opacity: 0.9; stroke: #f5f5f5; stroke-width: 0.5; stroke-linejoin: miter"/>
   </g>
   <g id="patch_76">
    <path d="M 797.975923 385.301688 
L 805.342589 385.301688 
L 805.342589 97.880029 
L 797.975923 97.880029 
z
" clip-path="url(#p2b1df6affa)" style="fill: #d3d3e0; opacity: 0.9; stroke: #f5f5f5; stroke-width: 0.5; stroke-linejoin: miter"/>
   </g>
   <g id="patch_77">
    <path d="M 829.547351 385.301688 
L 836.914018 385.301688 
L 836.914018 56.988382 
L 829.547351 56.988382 
z
" clip-path="url(#p2b1df6affa)" style="fill: #d3d3e0; opacity: 0.9; stroke: #f5f5f5; stroke-width: 0.5; stroke-linejoin: miter"/>
   </g>
   <g id="matplotlib.axis_1">
    <g id="xtick_1">
     <g id="line2d_1">
      <defs>
       <path id="mdd6fd15080" d="M 0 0 
L 0 3.5 
" style="stroke: #000000; stroke-width: 0.8"/>
      </defs>
      <g>
       <use xlink:href="#mdd6fd15080" x="68.149732" y="385.301688" style="stroke: #000000; stroke-width: 0.8"/>
      </g>
     </g>
     <g id="text_1">
      <!-- Catamarca -->
      <g transform="translate(21.624191 436.867652) rotate(-40) scale(0.12 -0.12)">
       <defs>
        <path id="Archivo-Regular-43" d="M 2426 -77 
Q 1754 -77 1286 169 
Q 819 416 572 918 
Q 326 1421 326 2195 
Q 326 3341 883 3904 
Q 1440 4467 2432 4467 
Q 2995 4467 3430 4284 
Q 3866 4102 4112 3734 
Q 4358 3366 4358 2810 
L 3744 2810 
Q 3744 3194 3581 3443 
Q 3418 3693 3123 3817 
Q 2829 3942 2432 3942 
Q 1971 3942 1638 3763 
Q 1306 3584 1133 3209 
Q 960 2835 960 2246 
L 960 2112 
Q 960 1530 1133 1162 
Q 1306 794 1635 621 
Q 1965 448 2432 448 
Q 2842 448 3139 569 
Q 3437 691 3600 944 
Q 3763 1197 3763 1581 
L 4358 1581 
Q 4358 1011 4105 646 
Q 3853 282 3417 102 
Q 2982 -77 2426 -77 
z
" transform="scale(0.015625)"/>
        <path id="Archivo-Regular-61" d="M 1286 -77 
Q 1101 -77 915 -32 
Q 730 13 570 115 
Q 410 218 314 400 
Q 218 582 218 858 
Q 218 1203 384 1427 
Q 550 1651 848 1776 
Q 1146 1901 1555 1949 
Q 1965 1997 2445 1997 
L 2445 2381 
Q 2445 2566 2381 2700 
Q 2317 2835 2153 2908 
Q 1990 2982 1690 2982 
Q 1402 2982 1232 2908 
Q 1062 2835 995 2720 
Q 928 2605 928 2464 
L 928 2368 
L 384 2368 
Q 378 2400 378 2432 
Q 378 2464 378 2509 
Q 378 2816 547 3024 
Q 717 3232 1024 3337 
Q 1331 3443 1728 3443 
Q 2150 3443 2435 3321 
Q 2720 3200 2864 2976 
Q 3008 2752 3008 2438 
L 3008 614 
Q 3008 493 3065 445 
Q 3123 397 3206 397 
L 3456 397 
L 3456 26 
Q 3366 -13 3257 -41 
Q 3149 -70 3008 -70 
Q 2842 -70 2733 -3 
Q 2624 64 2566 182 
Q 2509 301 2490 448 
L 2445 448 
Q 2330 288 2154 169 
Q 1978 51 1760 -13 
Q 1542 -77 1286 -77 
z
M 1427 397 
Q 1632 397 1814 461 
Q 1997 525 2137 643 
Q 2278 762 2361 928 
Q 2445 1094 2445 1293 
L 2445 1574 
Q 1926 1574 1561 1516 
Q 1197 1459 1001 1312 
Q 806 1165 806 896 
Q 806 723 883 614 
Q 960 506 1101 451 
Q 1242 397 1427 397 
z
" transform="scale(0.015625)"/>
        <path id="Archivo-Regular-74" d="M 1229 -77 
Q 966 -77 819 22 
Q 672 122 608 285 
Q 544 448 544 634 
L 544 2893 
L 109 2893 
L 109 3366 
L 557 3366 
L 659 4307 
L 1107 4307 
L 1107 3366 
L 1741 3366 
L 1741 2893 
L 1107 2893 
L 1107 717 
Q 1107 557 1164 477 
Q 1222 397 1382 397 
L 1741 397 
L 1741 26 
Q 1677 -6 1587 -25 
Q 1498 -45 1405 -61 
Q 1312 -77 1229 -77 
z
" transform="scale(0.015625)"/>
        <path id="Archivo-Regular-6d" d="M 442 0 
L 442 3366 
L 896 3366 
L 947 2861 
L 992 2861 
Q 1120 3066 1280 3194 
Q 1440 3322 1632 3382 
Q 1824 3443 2048 3443 
Q 2374 3443 2611 3312 
Q 2848 3181 2963 2861 
L 3002 2861 
Q 3123 3066 3283 3190 
Q 3443 3315 3641 3379 
Q 3840 3443 4064 3443 
Q 4371 3443 4601 3337 
Q 4832 3232 4963 2992 
Q 5094 2752 5094 2349 
L 5094 0 
L 4531 0 
L 4531 2259 
Q 4531 2464 4483 2598 
Q 4435 2733 4345 2806 
Q 4256 2880 4137 2912 
Q 4019 2944 3885 2944 
Q 3661 2944 3472 2829 
Q 3283 2714 3168 2496 
Q 3053 2278 3053 1978 
L 3053 0 
L 2490 0 
L 2490 2259 
Q 2490 2464 2438 2598 
Q 2387 2733 2304 2806 
Q 2221 2880 2102 2912 
Q 1984 2944 1856 2944 
Q 1626 2944 1430 2829 
Q 1235 2714 1120 2496 
Q 1005 2278 1005 1978 
L 1005 0 
L 442 0 
z
" transform="scale(0.015625)"/>
        <path id="Archivo-Regular-72" d="M 442 0 
L 442 3366 
L 896 3366 
L 947 2810 
L 992 2810 
Q 1043 2970 1132 3114 
Q 1222 3258 1376 3350 
Q 1530 3443 1754 3443 
Q 1850 3443 1930 3427 
Q 2010 3411 2048 3392 
L 2048 2874 
L 1837 2874 
Q 1619 2874 1462 2800 
Q 1306 2726 1203 2592 
Q 1101 2458 1053 2272 
Q 1005 2086 1005 1875 
L 1005 0 
L 442 0 
z
" transform="scale(0.015625)"/>
        <path id="Archivo-Regular-63" d="M 1722 -77 
Q 1235 -77 905 112 
Q 576 301 406 694 
Q 237 1088 237 1683 
Q 237 2278 406 2668 
Q 576 3059 912 3251 
Q 1248 3443 1741 3443 
Q 2086 3443 2339 3353 
Q 2592 3264 2758 3091 
Q 2925 2918 3005 2675 
Q 3085 2432 3085 2118 
L 2515 2118 
Q 2515 2413 2435 2601 
Q 2355 2790 2182 2883 
Q 2010 2976 1728 2976 
Q 1446 2976 1241 2851 
Q 1037 2726 928 2457 
Q 819 2189 819 1747 
L 819 1613 
Q 819 1197 924 921 
Q 1030 646 1235 518 
Q 1440 390 1734 390 
Q 2022 390 2198 492 
Q 2374 595 2454 787 
Q 2534 979 2534 1248 
L 3085 1248 
Q 3085 966 3005 723 
Q 2925 480 2758 301 
Q 2592 122 2336 22 
Q 2080 -77 1722 -77 
z
" transform="scale(0.015625)"/>
       </defs>
       <use xlink:href="#Archivo-Regular-43"/>
       <use xlink:href="#Archivo-Regular-61" x="72.799988"/>
       <use xlink:href="#Archivo-Regular-74" x="127.299973"/>
       <use xlink:href="#Archivo-Regular-61" x="156.999969"/>
       <use xlink:href="#Archivo-Regular-6d" x="211.499954"/>
       <use xlink:href="#Archivo-Regular-61" x="297.499939"/>
       <use xlink:href="#Archivo-Regular-72" x="351.999924"/>
       <use xlink:href="#Archivo-Regular-63" x="385.199921"/>
       <use xlink:href="#Archivo-Regular-61" x="437.099915"/>
      </g>
     </g>
    </g>
    <g id="xtick_2">
     <g id="line2d_2">
      <g>
       <use xlink:href="#mdd6fd15080" x="99.721161" y="385.301688" style="stroke: #000000; stroke-width: 0.8"/>
      </g>
     </g>
     <g id="text_2">
      <!-- Santiago del Estero -->
      <g transform="translate(18.653716 465.793094) rotate(-40) scale(0.12 -0.12)">
       <defs>
        <path id="Archivo-Regular-53" d="M 2163 -77 
Q 1805 -77 1475 -6 
Q 1146 64 890 221 
Q 634 378 483 627 
Q 333 877 333 1242 
Q 333 1274 336 1306 
Q 339 1338 339 1370 
L 954 1370 
Q 954 1350 950 1308 
Q 947 1267 947 1235 
Q 947 979 1100 800 
Q 1254 621 1526 534 
Q 1798 448 2144 448 
Q 2298 448 2467 467 
Q 2637 486 2793 534 
Q 2950 582 3075 662 
Q 3200 742 3273 860 
Q 3347 979 3347 1152 
Q 3347 1370 3222 1514 
Q 3098 1658 2893 1750 
Q 2688 1843 2429 1916 
Q 2170 1990 1894 2060 
Q 1619 2131 1360 2224 
Q 1101 2317 896 2454 
Q 691 2592 566 2797 
Q 442 3002 442 3296 
Q 442 3571 554 3788 
Q 666 4006 886 4156 
Q 1107 4307 1433 4387 
Q 1760 4467 2182 4467 
Q 2528 4467 2825 4393 
Q 3123 4320 3350 4169 
Q 3578 4019 3706 3788 
Q 3834 3558 3834 3232 
L 3834 3155 
L 3232 3155 
L 3232 3251 
Q 3232 3469 3097 3622 
Q 2963 3776 2729 3859 
Q 2496 3942 2202 3942 
Q 1818 3942 1562 3868 
Q 1306 3795 1181 3657 
Q 1056 3520 1056 3347 
Q 1056 3149 1181 3014 
Q 1306 2880 1510 2793 
Q 1715 2707 1977 2636 
Q 2240 2566 2512 2492 
Q 2784 2419 3043 2326 
Q 3302 2234 3510 2096 
Q 3718 1958 3840 1750 
Q 3962 1542 3962 1242 
Q 3962 774 3731 483 
Q 3501 192 3097 57 
Q 2694 -77 2163 -77 
z
" transform="scale(0.015625)"/>
        <path id="Archivo-Regular-6e" d="M 442 0 
L 442 3366 
L 896 3366 
L 947 2861 
L 992 2861 
Q 1126 3066 1296 3194 
Q 1466 3322 1674 3382 
Q 1882 3443 2118 3443 
Q 2438 3443 2678 3334 
Q 2918 3226 3056 2982 
Q 3194 2739 3194 2323 
L 3194 0 
L 2630 0 
L 2630 2246 
Q 2630 2458 2576 2592 
Q 2522 2726 2429 2803 
Q 2336 2880 2205 2912 
Q 2074 2944 1914 2944 
Q 1677 2944 1465 2829 
Q 1254 2714 1129 2496 
Q 1005 2278 1005 1978 
L 1005 0 
L 442 0 
z
" transform="scale(0.015625)"/>
        <path id="Archivo-Regular-69" d="M 442 4000 
L 442 4627 
L 1005 4627 
L 1005 4000 
L 442 4000 
z
M 442 0 
L 442 3366 
L 1005 3366 
L 1005 0 
L 442 0 
z
" transform="scale(0.015625)"/>
        <path id="Archivo-Regular-67" d="M 1011 -1165 
Q 768 -1165 563 -1065 
Q 358 -966 236 -780 
Q 115 -595 115 -339 
Q 115 -58 272 128 
Q 429 314 646 403 
Q 486 480 396 617 
Q 307 755 307 922 
Q 307 1146 470 1299 
Q 634 1453 870 1504 
Q 653 1645 528 1865 
Q 403 2086 403 2355 
Q 403 2675 553 2918 
Q 704 3162 1014 3302 
Q 1325 3443 1773 3443 
Q 1978 3443 2157 3414 
Q 2336 3386 2477 3322 
Q 2701 3424 2813 3584 
Q 2925 3744 2950 3910 
L 3507 3910 
Q 3507 3718 3420 3548 
Q 3334 3379 3187 3267 
Q 3040 3155 2829 3117 
Q 2989 2963 3069 2771 
Q 3149 2579 3149 2355 
Q 3149 2035 2998 1788 
Q 2848 1542 2547 1401 
Q 2246 1261 1792 1261 
L 1267 1261 
Q 1094 1261 985 1193 
Q 877 1126 877 979 
Q 877 851 985 771 
Q 1094 691 1267 691 
L 2637 691 
Q 3008 691 3245 444 
Q 3482 198 3482 -186 
Q 3482 -461 3344 -681 
Q 3206 -902 2960 -1033 
Q 2714 -1165 2387 -1165 
L 1011 -1165 
z
M 1171 -736 
L 2381 -736 
Q 2528 -736 2649 -675 
Q 2771 -614 2841 -505 
Q 2912 -397 2912 -269 
Q 2912 -51 2784 77 
Q 2656 205 2464 205 
L 1171 205 
Q 966 205 825 67 
Q 685 -70 685 -269 
Q 685 -480 825 -608 
Q 966 -736 1171 -736 
z
M 1779 1683 
Q 2189 1683 2387 1862 
Q 2586 2042 2586 2355 
Q 2586 2662 2387 2841 
Q 2189 3021 1779 3021 
Q 1370 3021 1168 2841 
Q 966 2662 966 2355 
Q 966 2157 1056 2003 
Q 1146 1850 1325 1766 
Q 1504 1683 1779 1683 
z
" transform="scale(0.015625)"/>
        <path id="Archivo-Regular-6f" d="M 1824 -77 
Q 1312 -77 963 112 
Q 614 301 432 691 
Q 250 1082 250 1683 
Q 250 2291 432 2678 
Q 614 3066 963 3254 
Q 1312 3443 1824 3443 
Q 2336 3443 2685 3254 
Q 3034 3066 3213 2678 
Q 3392 2291 3392 1683 
Q 3392 1082 3213 691 
Q 3034 301 2685 112 
Q 2336 -77 1824 -77 
z
M 1824 397 
Q 2150 397 2368 525 
Q 2586 653 2698 925 
Q 2810 1197 2810 1613 
L 2810 1754 
Q 2810 2176 2698 2445 
Q 2586 2714 2368 2842 
Q 2150 2970 1824 2970 
Q 1498 2970 1277 2842 
Q 1056 2714 947 2445 
Q 838 2176 838 1754 
L 838 1613 
Q 838 1197 947 925 
Q 1056 653 1277 525 
Q 1498 397 1824 397 
z
" transform="scale(0.015625)"/>
        <path id="Archivo-Regular-20" transform="scale(0.015625)"/>
        <path id="Archivo-Regular-64" d="M 1587 -77 
Q 1171 -77 873 108 
Q 576 294 413 688 
Q 250 1082 250 1709 
Q 250 2304 416 2688 
Q 582 3072 876 3257 
Q 1171 3443 1562 3443 
Q 1786 3443 1978 3392 
Q 2170 3341 2320 3232 
Q 2470 3123 2586 2944 
L 2624 2944 
L 2624 4627 
L 3187 4627 
L 3187 0 
L 2733 0 
L 2682 480 
L 2637 480 
Q 2464 198 2189 60 
Q 1914 -77 1587 -77 
z
M 1722 416 
Q 2042 416 2240 557 
Q 2438 698 2531 966 
Q 2624 1235 2624 1632 
L 2624 1734 
Q 2624 2080 2553 2317 
Q 2483 2554 2361 2694 
Q 2240 2835 2080 2892 
Q 1920 2950 1741 2950 
Q 1427 2950 1228 2825 
Q 1030 2701 934 2435 
Q 838 2170 838 1747 
L 838 1613 
Q 838 1178 940 912 
Q 1043 646 1238 531 
Q 1434 416 1722 416 
z
" transform="scale(0.015625)"/>
        <path id="Archivo-Regular-65" d="M 1786 -77 
Q 1286 -77 944 112 
Q 602 301 426 691 
Q 250 1082 250 1683 
Q 250 2291 426 2678 
Q 602 3066 947 3254 
Q 1293 3443 1811 3443 
Q 2285 3443 2605 3260 
Q 2925 3078 3088 2716 
Q 3251 2355 3251 1811 
L 3251 1542 
L 832 1542 
Q 845 1139 950 880 
Q 1056 621 1267 502 
Q 1478 384 1798 384 
Q 2016 384 2179 438 
Q 2342 493 2454 595 
Q 2566 698 2624 838 
Q 2682 979 2688 1146 
L 3238 1146 
Q 3232 877 3136 649 
Q 3040 422 2854 262 
Q 2669 102 2400 12 
Q 2131 -77 1786 -77 
z
M 845 1965 
L 2669 1965 
Q 2669 2246 2605 2438 
Q 2541 2630 2422 2752 
Q 2304 2874 2147 2928 
Q 1990 2982 1792 2982 
Q 1498 2982 1293 2873 
Q 1088 2765 979 2541 
Q 870 2317 845 1965 
z
" transform="scale(0.015625)"/>
        <path id="Archivo-Regular-6c" d="M 442 0 
L 442 4627 
L 1005 4627 
L 1005 0 
L 442 0 
z
" transform="scale(0.015625)"/>
        <path id="Archivo-Regular-45" d="M 550 0 
L 550 4390 
L 3930 4390 
L 3930 3866 
L 1158 3866 
L 1158 2509 
L 3648 2509 
L 3648 1984 
L 1158 1984 
L 1158 525 
L 3968 525 
L 3968 0 
L 550 0 
z
" transform="scale(0.015625)"/>
        <path id="Archivo-Regular-73" d="M 1619 -77 
Q 1274 -77 1011 -6 
Q 749 64 576 198 
Q 403 333 313 518 
Q 224 704 224 941 
Q 224 973 224 1001 
Q 224 1030 230 1050 
L 787 1050 
Q 781 1024 781 1005 
Q 781 986 781 966 
Q 787 742 899 614 
Q 1011 486 1209 435 
Q 1408 384 1651 384 
Q 1862 384 2041 438 
Q 2221 493 2326 605 
Q 2432 717 2432 890 
Q 2432 1101 2294 1213 
Q 2157 1325 1933 1389 
Q 1709 1453 1466 1523 
Q 1261 1581 1056 1651 
Q 851 1722 688 1824 
Q 525 1926 425 2089 
Q 326 2253 326 2502 
Q 326 2726 419 2899 
Q 512 3072 685 3193 
Q 858 3315 1104 3376 
Q 1350 3437 1651 3437 
Q 1971 3437 2211 3366 
Q 2451 3296 2611 3168 
Q 2771 3040 2848 2877 
Q 2925 2714 2925 2528 
Q 2925 2490 2925 2454 
Q 2925 2419 2918 2400 
L 2368 2400 
L 2368 2470 
Q 2368 2598 2301 2716 
Q 2234 2835 2070 2908 
Q 1907 2982 1619 2982 
Q 1434 2982 1299 2953 
Q 1165 2925 1075 2864 
Q 986 2803 941 2723 
Q 896 2643 896 2541 
Q 896 2374 1005 2284 
Q 1114 2195 1296 2137 
Q 1478 2080 1690 2010 
Q 1914 1946 2147 1878 
Q 2381 1811 2576 1708 
Q 2771 1606 2889 1430 
Q 3008 1254 3008 966 
Q 3008 698 2905 499 
Q 2803 301 2614 173 
Q 2426 45 2173 -16 
Q 1920 -77 1619 -77 
z
" transform="scale(0.015625)"/>
       </defs>
       <use xlink:href="#Archivo-Regular-53"/>
       <use xlink:href="#Archivo-Regular-61" x="67.299988"/>
       <use xlink:href="#Archivo-Regular-6e" x="121.799973"/>
       <use xlink:href="#Archivo-Regular-74" x="178.09996"/>
       <use xlink:href="#Archivo-Regular-69" x="207.799957"/>
       <use xlink:href="#Archivo-Regular-61" x="230.299942"/>
       <use xlink:href="#Archivo-Regular-67" x="284.799927"/>
       <use xlink:href="#Archivo-Regular-6f" x="340.399918"/>
       <use xlink:href="#Archivo-Regular-20" x="397.399902"/>
       <use xlink:href="#Archivo-Regular-64" x="418.299896"/>
       <use xlink:href="#Archivo-Regular-65" x="474.999893"/>
       <use xlink:href="#Archivo-Regular-6c" x="529.799881"/>
       <use xlink:href="#Archivo-Regular-20" x="552.299866"/>
       <use xlink:href="#Archivo-Regular-45" x="573.19986"/>
       <use xlink:href="#Archivo-Regular-73" x="640.899841"/>
       <use xlink:href="#Archivo-Regular-74" x="691.899826"/>
       <use xlink:href="#Archivo-Regular-65" x="721.599823"/>
       <use xlink:href="#Archivo-Regular-72" x="776.399811"/>
       <use xlink:href="#Archivo-Regular-6f" x="809.599808"/>
      </g>
     </g>
    </g>
    <g id="xtick_3">
     <g id="line2d_3">
      <g>
       <use xlink:href="#mdd6fd15080" x="131.292589" y="385.301688" style="stroke: #000000; stroke-width: 0.8"/>
      </g>
     </g>
     <g id="text_3">
      <!-- Salta -->
      <g transform="translate(108.953465 416.572838) rotate(-40) scale(0.12 -0.12)">
       <use xlink:href="#Archivo-Regular-53"/>
       <use xlink:href="#Archivo-Regular-61" x="67.299988"/>
       <use xlink:href="#Archivo-Regular-6c" x="121.799973"/>
       <use xlink:href="#Archivo-Regular-74" x="144.299957"/>
       <use xlink:href="#Archivo-Regular-61" x="173.999954"/>
      </g>
     </g>
    </g>
    <g id="xtick_4">
     <g id="line2d_4">
      <g>
       <use xlink:href="#mdd6fd15080" x="162.864018" y="385.301688" style="stroke: #000000; stroke-width: 0.8"/>
      </g>
     </g>
     <g id="text_4">
      <!-- Tucumán -->
      <g transform="translate(122.764632 431.475467) rotate(-40) scale(0.12 -0.12)">
       <defs>
        <path id="Archivo-Regular-54" d="M 1626 0 
L 1626 3859 
L 122 3859 
L 122 4390 
L 3750 4390 
L 3750 3859 
L 2234 3859 
L 2234 0 
L 1626 0 
z
" transform="scale(0.015625)"/>
        <path id="Archivo-Regular-75" d="M 1485 -77 
Q 998 -77 704 172 
Q 410 422 410 1043 
L 410 3366 
L 973 3366 
L 973 1120 
Q 973 909 1024 774 
Q 1075 640 1171 563 
Q 1267 486 1398 454 
Q 1530 422 1683 422 
Q 1926 422 2131 537 
Q 2336 653 2467 873 
Q 2598 1094 2598 1389 
L 2598 3366 
L 3162 3366 
L 3162 0 
L 2707 0 
L 2656 506 
L 2611 506 
Q 2477 301 2307 173 
Q 2138 45 1930 -16 
Q 1722 -77 1485 -77 
z
" transform="scale(0.015625)"/>
        <path id="Archivo-Regular-e1" d="M 1286 -77 
Q 1101 -77 915 -32 
Q 730 13 570 115 
Q 410 218 314 400 
Q 218 582 218 858 
Q 218 1203 384 1427 
Q 550 1651 848 1776 
Q 1146 1901 1555 1949 
Q 1965 1997 2445 1997 
L 2445 2381 
Q 2445 2566 2381 2700 
Q 2317 2835 2153 2908 
Q 1990 2982 1690 2982 
Q 1402 2982 1232 2908 
Q 1062 2835 995 2720 
Q 928 2605 928 2464 
L 928 2368 
L 384 2368 
Q 378 2400 378 2432 
Q 378 2464 378 2509 
Q 378 2816 547 3024 
Q 717 3232 1024 3337 
Q 1331 3443 1728 3443 
Q 2150 3443 2435 3321 
Q 2720 3200 2864 2976 
Q 3008 2752 3008 2438 
L 3008 614 
Q 3008 493 3065 445 
Q 3123 397 3206 397 
L 3456 397 
L 3456 26 
Q 3366 -13 3257 -41 
Q 3149 -70 3008 -70 
Q 2842 -70 2733 -3 
Q 2624 64 2566 182 
Q 2509 301 2490 448 
L 2445 448 
Q 2330 288 2154 169 
Q 1978 51 1760 -13 
Q 1542 -77 1286 -77 
z
M 1427 397 
Q 1632 397 1814 461 
Q 1997 525 2137 643 
Q 2278 762 2361 928 
Q 2445 1094 2445 1293 
L 2445 1574 
Q 1926 1574 1561 1516 
Q 1197 1459 1001 1312 
Q 806 1165 806 896 
Q 806 723 883 614 
Q 960 506 1101 451 
Q 1242 397 1427 397 
z
M 1370 3782 
L 1926 4627 
L 2560 4627 
L 2566 4608 
L 1862 3782 
L 1370 3782 
z
" transform="scale(0.015625)"/>
       </defs>
       <use xlink:href="#Archivo-Regular-54"/>
       <use xlink:href="#Archivo-Regular-75" x="60.599991"/>
       <use xlink:href="#Archivo-Regular-63" x="116.799988"/>
       <use xlink:href="#Archivo-Regular-75" x="168.699982"/>
       <use xlink:href="#Archivo-Regular-6d" x="224.899979"/>
       <use xlink:href="#Archivo-Regular-e1" x="310.899963"/>
       <use xlink:href="#Archivo-Regular-6e" x="365.399948"/>
      </g>
     </g>
    </g>
    <g id="xtick_5">
     <g id="line2d_5">
      <g>
       <use xlink:href="#mdd6fd15080" x="194.435446" y="385.301688" style="stroke: #000000; stroke-width: 0.8"/>
      </g>
     </g>
     <g id="text_5">
      <!-- Jujuy -->
      <g transform="translate(170.875916 417.538225) rotate(-40) scale(0.12 -0.12)">
       <defs>
        <path id="Archivo-Regular-4a" d="M 1626 -77 
Q 1184 -77 867 67 
Q 550 211 387 489 
Q 224 768 224 1190 
L 224 1382 
L 832 1382 
L 832 1158 
Q 832 813 1037 630 
Q 1242 448 1626 448 
Q 2016 448 2224 697 
Q 2432 947 2432 1440 
L 2432 4390 
L 3040 4390 
L 3040 1472 
Q 3040 954 2873 608 
Q 2707 262 2390 92 
Q 2074 -77 1626 -77 
z
" transform="scale(0.015625)"/>
        <path id="Archivo-Regular-6a" d="M 442 4000 
L 442 4627 
L 1005 4627 
L 1005 4000 
L 442 4000 
z
M 294 -1165 
Q 224 -1165 141 -1155 
Q 58 -1146 -19 -1130 
Q -96 -1114 -147 -1094 
L -147 -704 
L 141 -704 
Q 288 -704 365 -624 
Q 442 -544 442 -397 
L 442 3366 
L 1005 3366 
L 1005 -410 
Q 1005 -602 941 -774 
Q 877 -947 726 -1056 
Q 576 -1165 294 -1165 
z
" transform="scale(0.015625)"/>
        <path id="Archivo-Regular-79" d="M 730 -1165 
Q 576 -1165 464 -1142 
Q 352 -1120 314 -1114 
L 314 -704 
L 595 -704 
Q 749 -704 896 -640 
Q 1043 -576 1171 -422 
Q 1299 -269 1389 0 
L 83 3366 
L 672 3366 
L 1344 1632 
Q 1389 1510 1449 1334 
Q 1510 1158 1571 972 
Q 1632 787 1670 646 
L 1709 646 
Q 1734 749 1772 877 
Q 1811 1005 1852 1142 
Q 1894 1280 1936 1405 
Q 1978 1530 2003 1626 
L 2573 3366 
L 3142 3366 
L 2003 96 
Q 1907 -179 1792 -412 
Q 1677 -646 1536 -812 
Q 1395 -979 1196 -1072 
Q 998 -1165 730 -1165 
z
" transform="scale(0.015625)"/>
       </defs>
       <use xlink:href="#Archivo-Regular-4a"/>
       <use xlink:href="#Archivo-Regular-75" x="55.899994"/>
       <use xlink:href="#Archivo-Regular-6a" x="112.099991"/>
       <use xlink:href="#Archivo-Regular-75" x="134.399979"/>
       <use xlink:href="#Archivo-Regular-79" x="190.599976"/>
      </g>
     </g>
    </g>
    <g id="xtick_6">
     <g id="line2d_6">
      <g>
       <use xlink:href="#mdd6fd15080" x="226.006875" y="385.301688" style="stroke: #000000; stroke-width: 0.8"/>
      </g>
     </g>
     <g id="text_6">
      <!-- La Rioja -->
      <g transform="translate(191.693517 426.561758) rotate(-40) scale(0.12 -0.12)">
       <defs>
        <path id="Archivo-Regular-4c" d="M 550 0 
L 550 4390 
L 1158 4390 
L 1158 531 
L 3341 531 
L 3341 0 
L 550 0 
z
" transform="scale(0.015625)"/>
        <path id="Archivo-Regular-52" d="M 550 0 
L 550 4390 
L 2861 4390 
Q 3309 4390 3606 4227 
Q 3904 4064 4051 3773 
Q 4198 3482 4198 3104 
Q 4198 2650 3993 2323 
Q 3789 1997 3430 1856 
L 4352 0 
L 3686 0 
L 2829 1747 
L 1158 1747 
L 1158 0 
L 550 0 
z
M 1158 2266 
L 2803 2266 
Q 3168 2266 3376 2490 
Q 3584 2714 3584 3104 
Q 3584 3347 3494 3513 
Q 3405 3680 3232 3773 
Q 3059 3866 2803 3866 
L 1158 3866 
L 1158 2266 
z
" transform="scale(0.015625)"/>
       </defs>
       <use xlink:href="#Archivo-Regular-4c"/>
       <use xlink:href="#Archivo-Regular-61" x="53.599991"/>
       <use xlink:href="#Archivo-Regular-20" x="108.099976"/>
       <use xlink:href="#Archivo-Regular-52" x="128.999969"/>
       <use xlink:href="#Archivo-Regular-69" x="201.699951"/>
       <use xlink:href="#Archivo-Regular-6f" x="224.199936"/>
       <use xlink:href="#Archivo-Regular-6a" x="281.199921"/>
       <use xlink:href="#Archivo-Regular-61" x="303.499908"/>
      </g>
     </g>
    </g>
    <g id="xtick_7">
     <g id="line2d_7">
      <g>
       <use xlink:href="#mdd6fd15080" x="257.578304" y="385.301688" style="stroke: #000000; stroke-width: 0.8"/>
      </g>
     </g>
     <g id="text_7">
      <!-- Chaco -->
      <g transform="translate(229.355958 421.509447) rotate(-40) scale(0.12 -0.12)">
       <defs>
        <path id="Archivo-Regular-68" d="M 442 0 
L 442 4627 
L 1005 4627 
L 1005 2944 
L 1050 2944 
Q 1178 3117 1338 3225 
Q 1498 3334 1693 3388 
Q 1888 3443 2118 3443 
Q 2438 3443 2678 3334 
Q 2918 3226 3056 2982 
Q 3194 2739 3194 2323 
L 3194 0 
L 2630 0 
L 2630 2246 
Q 2630 2458 2576 2592 
Q 2522 2726 2429 2803 
Q 2336 2880 2205 2912 
Q 2074 2944 1914 2944 
Q 1677 2944 1465 2832 
Q 1254 2720 1129 2505 
Q 1005 2291 1005 1978 
L 1005 0 
L 442 0 
z
" transform="scale(0.015625)"/>
       </defs>
       <use xlink:href="#Archivo-Regular-43"/>
       <use xlink:href="#Archivo-Regular-68" x="72.799988"/>
       <use xlink:href="#Archivo-Regular-61" x="129.099976"/>
       <use xlink:href="#Archivo-Regular-63" x="183.59996"/>
       <use xlink:href="#Archivo-Regular-6f" x="235.499954"/>
      </g>
     </g>
    </g>
    <g id="xtick_8">
     <g id="line2d_8">
      <g>
       <use xlink:href="#mdd6fd15080" x="289.149732" y="385.301688" style="stroke: #000000; stroke-width: 0.8"/>
      </g>
     </g>
     <g id="text_8">
      <!-- Formosa -->
      <g transform="translate(251.054031 429.794176) rotate(-40) scale(0.12 -0.12)">
       <defs>
        <path id="Archivo-Regular-46" d="M 550 0 
L 550 4390 
L 3661 4390 
L 3661 3866 
L 1158 3866 
L 1158 2458 
L 3437 2458 
L 3437 1939 
L 1158 1939 
L 1158 0 
L 550 0 
z
" transform="scale(0.015625)"/>
       </defs>
       <use xlink:href="#Archivo-Regular-46"/>
       <use xlink:href="#Archivo-Regular-6f" x="61.199997"/>
       <use xlink:href="#Archivo-Regular-72" x="118.199982"/>
       <use xlink:href="#Archivo-Regular-6d" x="151.399979"/>
       <use xlink:href="#Archivo-Regular-6f" x="237.399963"/>
       <use xlink:href="#Archivo-Regular-73" x="294.399948"/>
       <use xlink:href="#Archivo-Regular-61" x="345.399933"/>
      </g>
     </g>
    </g>
    <g id="xtick_9">
     <g id="line2d_9">
      <g>
       <use xlink:href="#mdd6fd15080" x="320.721161" y="385.301688" style="stroke: #000000; stroke-width: 0.8"/>
      </g>
     </g>
     <g id="text_9">
      <!-- Corrientes -->
      <g transform="translate(276.614404 434.83805) rotate(-40) scale(0.12 -0.12)">
       <use xlink:href="#Archivo-Regular-43"/>
       <use xlink:href="#Archivo-Regular-6f" x="72.799988"/>
       <use xlink:href="#Archivo-Regular-72" x="129.799973"/>
       <use xlink:href="#Archivo-Regular-72" x="162.999969"/>
       <use xlink:href="#Archivo-Regular-69" x="196.199966"/>
       <use xlink:href="#Archivo-Regular-65" x="218.699951"/>
       <use xlink:href="#Archivo-Regular-6e" x="273.499939"/>
       <use xlink:href="#Archivo-Regular-74" x="329.799927"/>
       <use xlink:href="#Archivo-Regular-65" x="359.499924"/>
       <use xlink:href="#Archivo-Regular-73" x="414.299911"/>
      </g>
     </g>
    </g>
    <g id="xtick_10">
     <g id="line2d_10">
      <g>
       <use xlink:href="#mdd6fd15080" x="352.292589" y="385.301688" style="stroke: #000000; stroke-width: 0.8"/>
      </g>
     </g>
     <g id="text_10">
      <!-- Misiones -->
      <g transform="translate(314.206942 429.785739) rotate(-40) scale(0.12 -0.12)">
       <defs>
        <path id="Archivo-Regular-4d" d="M 550 0 
L 550 4390 
L 1491 4390 
L 2490 1542 
Q 2528 1427 2569 1289 
Q 2611 1152 2646 1030 
Q 2682 909 2701 819 
L 2746 819 
Q 2765 915 2797 1040 
Q 2829 1165 2867 1299 
Q 2906 1434 2938 1542 
L 3936 4390 
L 4870 4390 
L 4870 0 
L 4262 0 
L 4262 2573 
Q 4262 2771 4268 3004 
Q 4275 3238 4281 3433 
Q 4288 3629 4288 3712 
L 4237 3712 
Q 4218 3629 4173 3478 
Q 4128 3328 4080 3165 
Q 4032 3002 3994 2874 
L 2963 0 
L 2438 0 
L 1408 2874 
Q 1370 2982 1328 3126 
Q 1286 3270 1244 3424 
Q 1203 3578 1165 3712 
L 1120 3712 
Q 1126 3571 1129 3363 
Q 1133 3155 1136 2947 
Q 1139 2739 1139 2573 
L 1139 0 
L 550 0 
z
" transform="scale(0.015625)"/>
       </defs>
       <use xlink:href="#Archivo-Regular-4d"/>
       <use xlink:href="#Archivo-Regular-69" x="84.699982"/>
       <use xlink:href="#Archivo-Regular-73" x="107.199966"/>
       <use xlink:href="#Archivo-Regular-69" x="158.199951"/>
       <use xlink:href="#Archivo-Regular-6f" x="180.699936"/>
       <use xlink:href="#Archivo-Regular-6e" x="237.699921"/>
       <use xlink:href="#Archivo-Regular-65" x="293.999908"/>
       <use xlink:href="#Archivo-Regular-73" x="348.799896"/>
      </g>
     </g>
    </g>
    <g id="xtick_11">
     <g id="line2d_11">
      <g>
       <use xlink:href="#mdd6fd15080" x="383.864018" y="385.301688" style="stroke: #000000; stroke-width: 0.8"/>
      </g>
     </g>
     <g id="text_11">
      <!-- San Luis -->
      <g transform="translate(347.387064 428.435885) rotate(-40) scale(0.12 -0.12)">
       <use xlink:href="#Archivo-Regular-53"/>
       <use xlink:href="#Archivo-Regular-61" x="67.299988"/>
       <use xlink:href="#Archivo-Regular-6e" x="121.799973"/>
       <use xlink:href="#Archivo-Regular-20" x="178.09996"/>
       <use xlink:href="#Archivo-Regular-4c" x="198.999954"/>
       <use xlink:href="#Archivo-Regular-75" x="252.599945"/>
       <use xlink:href="#Archivo-Regular-69" x="308.799942"/>
       <use xlink:href="#Archivo-Regular-73" x="331.299927"/>
      </g>
     </g>
    </g>
    <g id="xtick_12">
     <g id="line2d_12">
      <g>
       <use xlink:href="#mdd6fd15080" x="415.435446" y="385.301688" style="stroke: #000000; stroke-width: 0.8"/>
      </g>
     </g>
     <g id="text_12">
      <!-- San Juan -->
      <g transform="translate(375.317388 431.491135) rotate(-40) scale(0.12 -0.12)">
       <use xlink:href="#Archivo-Regular-53"/>
       <use xlink:href="#Archivo-Regular-61" x="67.299988"/>
       <use xlink:href="#Archivo-Regular-6e" x="121.799973"/>
       <use xlink:href="#Archivo-Regular-20" x="178.09996"/>
       <use xlink:href="#Archivo-Regular-4a" x="198.999954"/>
       <use xlink:href="#Archivo-Regular-75" x="254.899948"/>
       <use xlink:href="#Archivo-Regular-61" x="311.099945"/>
       <use xlink:href="#Archivo-Regular-6e" x="365.59993"/>
      </g>
     </g>
    </g>
    <g id="xtick_13">
     <g id="line2d_13">
      <g>
       <use xlink:href="#mdd6fd15080" x="447.006875" y="385.301688" style="stroke: #000000; stroke-width: 0.8"/>
      </g>
     </g>
     <g id="text_13">
      <!-- Mendoza -->
      <g transform="translate(407.634273 430.865622) rotate(-40) scale(0.12 -0.12)">
       <defs>
        <path id="Archivo-Regular-7a" d="M 198 0 
L 198 301 
L 2074 2893 
L 333 2893 
L 333 3366 
L 2880 3366 
L 2880 3072 
L 998 474 
L 2982 474 
L 2982 0 
L 198 0 
z
" transform="scale(0.015625)"/>
       </defs>
       <use xlink:href="#Archivo-Regular-4d"/>
       <use xlink:href="#Archivo-Regular-65" x="84.699982"/>
       <use xlink:href="#Archivo-Regular-6e" x="139.499969"/>
       <use xlink:href="#Archivo-Regular-64" x="195.799957"/>
       <use xlink:href="#Archivo-Regular-6f" x="252.499954"/>
       <use xlink:href="#Archivo-Regular-7a" x="309.499939"/>
       <use xlink:href="#Archivo-Regular-61" x="359.299927"/>
      </g>
     </g>
    </g>
    <g id="xtick_14">
     <g id="line2d_14">
      <g>
       <use xlink:href="#mdd6fd15080" x="478.578304" y="385.301688" style="stroke: #000000; stroke-width: 0.8"/>
      </g>
     </g>
     <g id="text_14">
      <!-- CABA -->
      <g transform="translate(451.59695 420.468131) rotate(-40) scale(0.12 -0.12)">
       <defs>
        <path id="Archivo-Regular-41" d="M 45 0 
L 1779 4390 
L 2579 4390 
L 4320 0 
L 3661 0 
L 3232 1088 
L 1094 1088 
L 672 0 
L 45 0 
z
M 1293 1606 
L 3027 1606 
L 2496 2982 
Q 2477 3040 2438 3142 
Q 2400 3245 2355 3369 
Q 2310 3494 2265 3625 
Q 2221 3757 2182 3866 
L 2144 3866 
Q 2099 3738 2041 3571 
Q 1984 3405 1926 3248 
Q 1869 3091 1830 2982 
L 1293 1606 
z
" transform="scale(0.015625)"/>
        <path id="Archivo-Regular-42" d="M 550 0 
L 550 4390 
L 2816 4390 
Q 3194 4390 3469 4259 
Q 3744 4128 3894 3891 
Q 4045 3654 4045 3328 
Q 4045 3078 3955 2867 
Q 3866 2656 3706 2515 
Q 3546 2374 3341 2304 
L 3341 2278 
Q 3571 2227 3756 2092 
Q 3942 1958 4054 1737 
Q 4166 1517 4166 1197 
Q 4166 768 3987 505 
Q 3808 243 3507 121 
Q 3206 0 2816 0 
L 550 0 
z
M 1158 525 
L 2810 525 
Q 3136 525 3341 694 
Q 3546 864 3546 1261 
Q 3546 1504 3456 1667 
Q 3366 1830 3193 1910 
Q 3021 1990 2758 1990 
L 1158 1990 
L 1158 525 
z
M 1158 2509 
L 2701 2509 
Q 2918 2509 3078 2595 
Q 3238 2682 3331 2838 
Q 3424 2995 3424 3194 
Q 3424 3539 3238 3702 
Q 3053 3866 2746 3866 
L 1158 3866 
L 1158 2509 
z
" transform="scale(0.015625)"/>
       </defs>
       <use xlink:href="#Archivo-Regular-43"/>
       <use xlink:href="#Archivo-Regular-41" x="72.799988"/>
       <use xlink:href="#Archivo-Regular-42" x="140.999969"/>
       <use xlink:href="#Archivo-Regular-41" x="210.799957"/>
      </g>
     </g>
    </g>
    <g id="xtick_15">
     <g id="line2d_15">
      <g>
       <use xlink:href="#mdd6fd15080" x="510.149732" y="385.301688" style="stroke: #000000; stroke-width: 0.8"/>
      </g>
     </g>
     <g id="text_15">
      <!-- La Pampa -->
      <g transform="translate(467.70625 433.442397) rotate(-40) scale(0.12 -0.12)">
       <defs>
        <path id="Archivo-Regular-50" d="M 550 0 
L 550 4390 
L 2720 4390 
Q 3174 4390 3475 4220 
Q 3776 4051 3926 3750 
Q 4077 3450 4077 3053 
Q 4077 2650 3910 2339 
Q 3744 2029 3440 1856 
Q 3136 1683 2714 1683 
L 1158 1683 
L 1158 0 
L 550 0 
z
M 1158 2208 
L 2675 2208 
Q 3034 2208 3248 2432 
Q 3462 2656 3462 3046 
Q 3462 3309 3372 3488 
Q 3283 3667 3110 3766 
Q 2938 3866 2675 3866 
L 1158 3866 
L 1158 2208 
z
" transform="scale(0.015625)"/>
        <path id="Archivo-Regular-70" d="M 442 -1107 
L 442 3366 
L 890 3366 
L 947 2886 
L 992 2886 
Q 1165 3168 1433 3305 
Q 1702 3443 2042 3443 
Q 2464 3443 2758 3257 
Q 3053 3072 3213 2678 
Q 3373 2285 3373 1658 
Q 3373 1069 3209 681 
Q 3046 294 2752 108 
Q 2458 -77 2067 -77 
Q 1850 -77 1658 -25 
Q 1466 26 1312 138 
Q 1158 250 1043 422 
L 1005 422 
L 1005 -1107 
L 442 -1107 
z
M 1888 416 
Q 2202 416 2400 541 
Q 2598 666 2694 931 
Q 2790 1197 2790 1613 
L 2790 1747 
Q 2790 2189 2688 2454 
Q 2586 2720 2390 2835 
Q 2195 2950 1907 2950 
Q 1594 2950 1392 2812 
Q 1190 2675 1097 2400 
Q 1005 2125 1005 1728 
L 1005 1632 
Q 1005 1280 1072 1046 
Q 1139 813 1264 672 
Q 1389 531 1549 473 
Q 1709 416 1888 416 
z
" transform="scale(0.015625)"/>
       </defs>
       <use xlink:href="#Archivo-Regular-4c"/>
       <use xlink:href="#Archivo-Regular-61" x="53.599991"/>
       <use xlink:href="#Archivo-Regular-20" x="108.099976"/>
       <use xlink:href="#Archivo-Regular-50" x="128.999969"/>
       <use xlink:href="#Archivo-Regular-61" x="195.499954"/>
       <use xlink:href="#Archivo-Regular-6d" x="249.999939"/>
       <use xlink:href="#Archivo-Regular-70" x="335.999924"/>
       <use xlink:href="#Archivo-Regular-61" x="392.699921"/>
      </g>
     </g>
    </g>
    <g id="xtick_16">
     <g id="line2d_16">
      <g>
       <use xlink:href="#mdd6fd15080" x="541.721161" y="385.301688" style="stroke: #000000; stroke-width: 0.8"/>
      </g>
     </g>
     <g id="text_16">
      <!-- Santa Fe -->
      <g transform="translate(503.690094 429.739941) rotate(-40) scale(0.12 -0.12)">
       <use xlink:href="#Archivo-Regular-53"/>
       <use xlink:href="#Archivo-Regular-61" x="67.299988"/>
       <use xlink:href="#Archivo-Regular-6e" x="121.799973"/>
       <use xlink:href="#Archivo-Regular-74" x="178.09996"/>
       <use xlink:href="#Archivo-Regular-61" x="207.799957"/>
       <use xlink:href="#Archivo-Regular-20" x="262.299942"/>
       <use xlink:href="#Archivo-Regular-46" x="283.199936"/>
       <use xlink:href="#Archivo-Regular-65" x="344.399933"/>
      </g>
     </g>
    </g>
    <g id="xtick_17">
     <g id="line2d_17">
      <g>
       <use xlink:href="#mdd6fd15080" x="573.292589" y="385.301688" style="stroke: #000000; stroke-width: 0.8"/>
      </g>
     </g>
     <g id="text_17">
      <!-- Córdoba -->
      <g transform="translate(536.299992 428.868562) rotate(-40) scale(0.12 -0.12)">
       <defs>
        <path id="Archivo-Regular-f3" d="M 1824 -77 
Q 1312 -77 963 112 
Q 614 301 432 691 
Q 250 1082 250 1683 
Q 250 2291 432 2678 
Q 614 3066 963 3254 
Q 1312 3443 1824 3443 
Q 2336 3443 2685 3254 
Q 3034 3066 3213 2678 
Q 3392 2291 3392 1683 
Q 3392 1082 3213 691 
Q 3034 301 2685 112 
Q 2336 -77 1824 -77 
z
M 1824 397 
Q 2150 397 2368 525 
Q 2586 653 2698 925 
Q 2810 1197 2810 1613 
L 2810 1754 
Q 2810 2176 2698 2445 
Q 2586 2714 2368 2842 
Q 2150 2970 1824 2970 
Q 1498 2970 1277 2842 
Q 1056 2714 947 2445 
Q 838 2176 838 1754 
L 838 1613 
Q 838 1197 947 925 
Q 1056 653 1277 525 
Q 1498 397 1824 397 
z
M 1491 3782 
L 2042 4627 
L 2682 4627 
L 2688 4608 
L 1978 3782 
L 1491 3782 
z
" transform="scale(0.015625)"/>
        <path id="Archivo-Regular-62" d="M 2042 -77 
Q 1702 -77 1433 60 
Q 1165 198 992 480 
L 947 480 
L 890 0 
L 442 0 
L 442 4627 
L 1005 4627 
L 1005 2944 
L 1043 2944 
Q 1158 3123 1312 3232 
Q 1466 3341 1658 3392 
Q 1850 3443 2067 3443 
Q 2458 3443 2752 3257 
Q 3046 3072 3209 2688 
Q 3373 2304 3373 1709 
Q 3373 1082 3213 688 
Q 3053 294 2758 108 
Q 2464 -77 2042 -77 
z
M 1907 416 
Q 2195 416 2390 531 
Q 2586 646 2688 912 
Q 2790 1178 2790 1613 
L 2790 1747 
Q 2790 2170 2694 2435 
Q 2598 2701 2400 2825 
Q 2202 2950 1888 2950 
Q 1709 2950 1549 2892 
Q 1389 2835 1264 2694 
Q 1139 2554 1072 2317 
Q 1005 2080 1005 1734 
L 1005 1632 
Q 1005 1235 1097 966 
Q 1190 698 1392 557 
Q 1594 416 1907 416 
z
" transform="scale(0.015625)"/>
       </defs>
       <use xlink:href="#Archivo-Regular-43"/>
       <use xlink:href="#Archivo-Regular-f3" x="72.799988"/>
       <use xlink:href="#Archivo-Regular-72" x="129.799973"/>
       <use xlink:href="#Archivo-Regular-64" x="162.999969"/>
       <use xlink:href="#Archivo-Regular-6f" x="219.699966"/>
       <use xlink:href="#Archivo-Regular-62" x="276.699951"/>
       <use xlink:href="#Archivo-Regular-61" x="333.399948"/>
      </g>
     </g>
    </g>
    <g id="xtick_18">
     <g id="line2d_18">
      <g>
       <use xlink:href="#mdd6fd15080" x="604.864018" y="385.301688" style="stroke: #000000; stroke-width: 0.8"/>
      </g>
     </g>
     <g id="text_18">
      <!-- Buenos Aires -->
      <g transform="translate(548.769624 444.896872) rotate(-40) scale(0.12 -0.12)">
       <use xlink:href="#Archivo-Regular-42"/>
       <use xlink:href="#Archivo-Regular-75" x="69.799988"/>
       <use xlink:href="#Archivo-Regular-65" x="125.999985"/>
       <use xlink:href="#Archivo-Regular-6e" x="180.799973"/>
       <use xlink:href="#Archivo-Regular-6f" x="237.09996"/>
       <use xlink:href="#Archivo-Regular-73" x="294.099945"/>
       <use xlink:href="#Archivo-Regular-20" x="345.09993"/>
       <use xlink:href="#Archivo-Regular-41" x="365.999924"/>
       <use xlink:href="#Archivo-Regular-69" x="434.199905"/>
       <use xlink:href="#Archivo-Regular-72" x="456.69989"/>
       <use xlink:href="#Archivo-Regular-65" x="489.899887"/>
       <use xlink:href="#Archivo-Regular-73" x="544.699875"/>
      </g>
     </g>
    </g>
    <g id="xtick_19">
     <g id="line2d_19">
      <g>
       <use xlink:href="#mdd6fd15080" x="636.435446" y="385.301688" style="stroke: #000000; stroke-width: 0.8"/>
      </g>
     </g>
     <g id="text_19">
      <!-- Entre Ríos -->
      <g transform="translate(592.281291 434.877822) rotate(-40) scale(0.12 -0.12)">
       <defs>
        <path id="Archivo-Regular-ed" d="M 442 0 
L 442 3366 
L 1005 3366 
L 1005 0 
L 442 0 
z
M 384 3782 
L 941 4627 
L 1574 4627 
L 1581 4608 
L 877 3782 
L 384 3782 
z
" transform="scale(0.015625)"/>
       </defs>
       <use xlink:href="#Archivo-Regular-45"/>
       <use xlink:href="#Archivo-Regular-6e" x="67.699982"/>
       <use xlink:href="#Archivo-Regular-74" x="123.999969"/>
       <use xlink:href="#Archivo-Regular-72" x="153.699966"/>
       <use xlink:href="#Archivo-Regular-65" x="186.899963"/>
       <use xlink:href="#Archivo-Regular-20" x="241.699951"/>
       <use xlink:href="#Archivo-Regular-52" x="262.599945"/>
       <use xlink:href="#Archivo-Regular-ed" x="335.299927"/>
       <use xlink:href="#Archivo-Regular-6f" x="357.799911"/>
       <use xlink:href="#Archivo-Regular-73" x="414.799896"/>
      </g>
     </g>
    </g>
    <g id="xtick_20">
     <g id="line2d_20">
      <g>
       <use xlink:href="#mdd6fd15080" x="668.006875" y="385.301688" style="stroke: #000000; stroke-width: 0.8"/>
      </g>
     </g>
     <g id="text_20">
      <!-- Santa Cruz -->
      <g transform="translate(621.150977 437.144854) rotate(-40) scale(0.12 -0.12)">
       <use xlink:href="#Archivo-Regular-53"/>
       <use xlink:href="#Archivo-Regular-61" x="67.299988"/>
       <use xlink:href="#Archivo-Regular-6e" x="121.799973"/>
       <use xlink:href="#Archivo-Regular-74" x="178.09996"/>
       <use xlink:href="#Archivo-Regular-61" x="207.799957"/>
       <use xlink:href="#Archivo-Regular-20" x="262.299942"/>
       <use xlink:href="#Archivo-Regular-43" x="283.199936"/>
       <use xlink:href="#Archivo-Regular-72" x="355.999924"/>
       <use xlink:href="#Archivo-Regular-75" x="389.199921"/>
       <use xlink:href="#Archivo-Regular-7a" x="445.399918"/>
      </g>
     </g>
    </g>
    <g id="xtick_21">
     <g id="line2d_21">
      <g>
       <use xlink:href="#mdd6fd15080" x="699.578304" y="385.301688" style="stroke: #000000; stroke-width: 0.8"/>
      </g>
     </g>
     <g id="text_21">
      <!-- TdF -->
      <g transform="translate(681.835446 412.716112) rotate(-40) scale(0.12 -0.12)">
       <use xlink:href="#Archivo-Regular-54"/>
       <use xlink:href="#Archivo-Regular-64" x="60.599991"/>
       <use xlink:href="#Archivo-Regular-46" x="117.299988"/>
      </g>
     </g>
    </g>
    <g id="xtick_22">
     <g id="line2d_22">
      <g>
       <use xlink:href="#mdd6fd15080" x="731.149732" y="385.301688" style="stroke: #000000; stroke-width: 0.8"/>
      </g>
     </g>
     <g id="text_22">
      <!-- Río Negro -->
      <g transform="translate(688.627729 433.449629) rotate(-40) scale(0.12 -0.12)">
       <defs>
        <path id="Archivo-Regular-4e" d="M 550 0 
L 550 4390 
L 1139 4390 
L 3270 1498 
Q 3302 1459 3353 1382 
Q 3405 1306 3456 1232 
Q 3507 1158 3539 1101 
L 3565 1101 
Q 3565 1203 3565 1302 
Q 3565 1402 3565 1498 
L 3565 4390 
L 4160 4390 
L 4160 0 
L 3603 0 
L 1446 2944 
Q 1402 3014 1315 3142 
Q 1229 3270 1171 3347 
L 1139 3347 
Q 1139 3245 1139 3145 
Q 1139 3046 1139 2944 
L 1139 0 
L 550 0 
z
" transform="scale(0.015625)"/>
       </defs>
       <use xlink:href="#Archivo-Regular-52"/>
       <use xlink:href="#Archivo-Regular-ed" x="72.699982"/>
       <use xlink:href="#Archivo-Regular-6f" x="95.199966"/>
       <use xlink:href="#Archivo-Regular-20" x="152.199951"/>
       <use xlink:href="#Archivo-Regular-4e" x="173.099945"/>
       <use xlink:href="#Archivo-Regular-65" x="246.699936"/>
       <use xlink:href="#Archivo-Regular-67" x="301.499924"/>
       <use xlink:href="#Archivo-Regular-72" x="357.099915"/>
       <use xlink:href="#Archivo-Regular-6f" x="390.299911"/>
      </g>
     </g>
    </g>
    <g id="xtick_23">
     <g id="line2d_23">
      <g>
       <use xlink:href="#mdd6fd15080" x="762.721161" y="385.301688" style="stroke: #000000; stroke-width: 0.8"/>
      </g>
     </g>
     <g id="text_23">
      <!-- Chubut -->
      <g transform="translate(731.244083 424.240491) rotate(-40) scale(0.12 -0.12)">
       <use xlink:href="#Archivo-Regular-43"/>
       <use xlink:href="#Archivo-Regular-68" x="72.799988"/>
       <use xlink:href="#Archivo-Regular-75" x="129.099976"/>
       <use xlink:href="#Archivo-Regular-62" x="185.299973"/>
       <use xlink:href="#Archivo-Regular-75" x="241.999969"/>
       <use xlink:href="#Archivo-Regular-74" x="298.199966"/>
      </g>
     </g>
    </g>
    <g id="xtick_24">
     <g id="line2d_24">
      <g>
       <use xlink:href="#mdd6fd15080" x="794.292589" y="385.301688" style="stroke: #000000; stroke-width: 0.8"/>
      </g>
     </g>
     <g id="text_24">
      <!-- Neuquén -->
      <g transform="translate(755.398287 430.464282) rotate(-40) scale(0.12 -0.12)">
       <defs>
        <path id="Archivo-Regular-71" d="M 2624 -1107 
L 2624 422 
L 2586 422 
Q 2470 250 2313 138 
Q 2157 26 1965 -25 
Q 1773 -77 1562 -77 
Q 1171 -77 876 108 
Q 582 294 416 681 
Q 250 1069 250 1658 
Q 250 2285 413 2678 
Q 576 3072 873 3257 
Q 1171 3443 1587 3443 
Q 1926 3443 2195 3305 
Q 2464 3168 2637 2886 
L 2682 2886 
L 2733 3366 
L 3187 3366 
L 3187 -1107 
L 2624 -1107 
z
M 1741 416 
Q 1926 416 2086 473 
Q 2246 531 2364 672 
Q 2483 813 2553 1046 
Q 2624 1280 2624 1632 
L 2624 1728 
Q 2624 2125 2531 2400 
Q 2438 2675 2240 2812 
Q 2042 2950 1722 2950 
Q 1434 2950 1238 2835 
Q 1043 2720 940 2454 
Q 838 2189 838 1747 
L 838 1613 
Q 838 1197 934 931 
Q 1030 666 1228 541 
Q 1427 416 1741 416 
z
" transform="scale(0.015625)"/>
        <path id="Archivo-Regular-e9" d="M 1786 -77 
Q 1286 -77 944 112 
Q 602 301 426 691 
Q 250 1082 250 1683 
Q 250 2291 426 2678 
Q 602 3066 947 3254 
Q 1293 3443 1811 3443 
Q 2285 3443 2605 3260 
Q 2925 3078 3088 2716 
Q 3251 2355 3251 1811 
L 3251 1542 
L 832 1542 
Q 845 1139 950 880 
Q 1056 621 1267 502 
Q 1478 384 1798 384 
Q 2016 384 2179 438 
Q 2342 493 2454 595 
Q 2566 698 2624 838 
Q 2682 979 2688 1146 
L 3238 1146 
Q 3232 877 3136 649 
Q 3040 422 2854 262 
Q 2669 102 2400 12 
Q 2131 -77 1786 -77 
z
M 845 1965 
L 2669 1965 
Q 2669 2246 2605 2438 
Q 2541 2630 2422 2752 
Q 2304 2874 2147 2928 
Q 1990 2982 1792 2982 
Q 1498 2982 1293 2873 
Q 1088 2765 979 2541 
Q 870 2317 845 1965 
z
M 1459 3782 
L 2010 4627 
L 2650 4627 
L 2656 4608 
L 1946 3782 
L 1459 3782 
z
" transform="scale(0.015625)"/>
       </defs>
       <use xlink:href="#Archivo-Regular-4e"/>
       <use xlink:href="#Archivo-Regular-65" x="73.599991"/>
       <use xlink:href="#Archivo-Regular-75" x="128.399979"/>
       <use xlink:href="#Archivo-Regular-71" x="184.599976"/>
       <use xlink:href="#Archivo-Regular-75" x="241.299973"/>
       <use xlink:href="#Archivo-Regular-e9" x="297.499969"/>
       <use xlink:href="#Archivo-Regular-6e" x="352.299957"/>
      </g>
     </g>
    </g>
    <g id="xtick_25">
     <g id="line2d_25">
      <g>
       <use xlink:href="#mdd6fd15080" x="825.864018" y="385.301688" style="stroke: #000000; stroke-width: 0.8"/>
      </g>
     </g>
     <g id="text_25">
      <!-- Total Nacional -->
      <g transform="translate(765.881469 448.159421) rotate(-40) scale(0.12 -0.12)">
       <use xlink:href="#Archivo-Regular-54"/>
       <use xlink:href="#Archivo-Regular-6f" x="60.599991"/>
       <use xlink:href="#Archivo-Regular-74" x="117.599976"/>
       <use xlink:href="#Archivo-Regular-61" x="147.299973"/>
       <use xlink:href="#Archivo-Regular-6c" x="201.799957"/>
       <use xlink:href="#Archivo-Regular-20" x="224.299942"/>
       <use xlink:href="#Archivo-Regular-4e" x="245.199936"/>
       <use xlink:href="#Archivo-Regular-61" x="318.799927"/>
       <use xlink:href="#Archivo-Regular-63" x="373.299911"/>
       <use xlink:href="#Archivo-Regular-69" x="425.199905"/>
       <use xlink:href="#Archivo-Regular-6f" x="447.69989"/>
       <use xlink:href="#Archivo-Regular-6e" x="504.699875"/>
       <use xlink:href="#Archivo-Regular-61" x="560.999863"/>
       <use xlink:href="#Archivo-Regular-6c" x="615.499847"/>
      </g>
     </g>
    </g>
   </g>
   <g id="matplotlib.axis_2">
    <g id="ytick_1">
     <g id="line2d_26">
      <defs>
       <path id="m4e447cfb96" d="M 0 0 
L -3.5 0 
" style="stroke: #000000; stroke-width: 0.8"/>
      </defs>
      <g>
       <use xlink:href="#m4e447cfb96" x="49.206875" y="385.301688" style="stroke: #000000; stroke-width: 0.8"/>
      </g>
     </g>
     <g id="text_26">
      <!-- 0 -->
      <g transform="translate(35.33125 389.6395) scale(0.12 -0.12)">
       <defs>
        <path id="Archivo-Regular-30" d="M 1837 -77 
Q 1478 -77 1196 28 
Q 915 134 716 393 
Q 518 653 416 1091 
Q 314 1530 314 2195 
Q 314 2861 416 3299 
Q 518 3738 716 3997 
Q 915 4256 1196 4361 
Q 1478 4467 1837 4467 
Q 2195 4467 2473 4361 
Q 2752 4256 2950 3997 
Q 3149 3738 3251 3299 
Q 3354 2861 3354 2195 
Q 3354 1530 3251 1091 
Q 3149 653 2950 393 
Q 2752 134 2473 28 
Q 2195 -77 1837 -77 
z
M 1837 397 
Q 2202 397 2403 582 
Q 2605 768 2685 1133 
Q 2765 1498 2765 2042 
L 2765 2336 
Q 2765 2886 2685 3254 
Q 2605 3622 2403 3808 
Q 2202 3994 1837 3994 
Q 1472 3994 1267 3808 
Q 1062 3622 982 3257 
Q 902 2893 902 2342 
L 902 2054 
Q 902 1510 982 1139 
Q 1062 768 1267 582 
Q 1472 397 1837 397 
z
" transform="scale(0.015625)"/>
       </defs>
       <use xlink:href="#Archivo-Regular-30"/>
      </g>
     </g>
    </g>
    <g id="ytick_2">
     <g id="line2d_27">
      <g>
       <use xlink:href="#m4e447cfb96" x="49.206875" y="311.861688" style="stroke: #000000; stroke-width: 0.8"/>
      </g>
     </g>
     <g id="text_27">
      <!-- 20 -->
      <g transform="translate(28.526875 316.1995) scale(0.12 -0.12)">
       <defs>
        <path id="Archivo-Regular-32" d="M 320 0 
L 320 186 
Q 320 454 425 681 
Q 531 909 707 1097 
Q 883 1286 1107 1459 
Q 1331 1632 1562 1798 
Q 1875 2016 2140 2233 
Q 2406 2451 2566 2704 
Q 2726 2957 2726 3270 
Q 2726 3469 2633 3632 
Q 2541 3795 2355 3891 
Q 2170 3987 1882 3987 
Q 1542 3987 1337 3872 
Q 1133 3757 1040 3565 
Q 947 3373 947 3142 
L 947 2880 
L 390 2880 
Q 384 2912 377 2979 
Q 371 3046 371 3136 
Q 371 3610 582 3901 
Q 794 4192 1146 4329 
Q 1498 4467 1907 4467 
Q 2272 4467 2534 4368 
Q 2797 4269 2969 4096 
Q 3142 3923 3225 3702 
Q 3309 3482 3309 3238 
Q 3309 2938 3203 2688 
Q 3098 2438 2909 2224 
Q 2720 2010 2467 1811 
Q 2214 1613 1920 1408 
Q 1715 1274 1516 1123 
Q 1318 973 1177 819 
Q 1037 666 998 525 
L 3334 525 
L 3334 0 
L 320 0 
z
" transform="scale(0.015625)"/>
       </defs>
       <use xlink:href="#Archivo-Regular-32"/>
       <use xlink:href="#Archivo-Regular-30" x="56.699997"/>
      </g>
     </g>
    </g>
    <g id="ytick_3">
     <g id="line2d_28">
      <g>
       <use xlink:href="#m4e447cfb96" x="49.206875" y="238.421688" style="stroke: #000000; stroke-width: 0.8"/>
      </g>
     </g>
     <g id="text_28">
      <!-- 40 -->
      <g transform="translate(28.67125 242.7595) scale(0.12 -0.12)">
       <defs>
        <path id="Archivo-Regular-34" d="M 2221 0 
L 2221 1075 
L 179 1075 
L 179 1549 
Q 448 2010 669 2477 
Q 890 2944 1066 3437 
Q 1242 3930 1357 4467 
L 1958 4467 
Q 1875 4115 1753 3747 
Q 1632 3379 1485 3033 
Q 1338 2688 1194 2387 
Q 1050 2086 925 1868 
Q 800 1651 723 1549 
L 2221 1549 
L 2221 2944 
Q 2259 3046 2300 3158 
Q 2342 3270 2380 3388 
Q 2419 3507 2451 3612 
Q 2483 3718 2502 3814 
L 2784 3814 
L 2784 1549 
L 3366 1549 
L 3366 1075 
L 2784 1075 
L 2784 0 
L 2221 0 
z
" transform="scale(0.015625)"/>
       </defs>
       <use xlink:href="#Archivo-Regular-34"/>
       <use xlink:href="#Archivo-Regular-30" x="55.499985"/>
      </g>
     </g>
    </g>
    <g id="ytick_4">
     <g id="line2d_29">
      <g>
       <use xlink:href="#m4e447cfb96" x="49.206875" y="164.981688" style="stroke: #000000; stroke-width: 0.8"/>
      </g>
     </g>
     <g id="text_29">
      <!-- 60 -->
      <g transform="translate(28.455625 169.3195) scale(0.12 -0.12)">
       <defs>
        <path id="Archivo-Regular-36" d="M 1920 -77 
Q 1542 -77 1244 32 
Q 947 141 739 384 
Q 531 627 422 1040 
Q 314 1453 314 2067 
Q 314 2746 422 3203 
Q 531 3661 732 3939 
Q 934 4218 1232 4342 
Q 1530 4467 1907 4467 
Q 2381 4467 2672 4288 
Q 2963 4109 3097 3805 
Q 3232 3501 3232 3110 
L 2656 3110 
Q 2656 3405 2573 3603 
Q 2490 3802 2314 3898 
Q 2138 3994 1875 3994 
Q 1491 3994 1276 3792 
Q 1062 3590 982 3206 
Q 902 2822 896 2291 
Q 986 2438 1149 2560 
Q 1312 2682 1536 2755 
Q 1760 2829 2010 2829 
Q 2483 2829 2790 2640 
Q 3098 2451 3245 2124 
Q 3392 1798 3392 1395 
Q 3392 954 3200 621 
Q 3008 288 2675 105 
Q 2342 -77 1920 -77 
z
M 1882 397 
Q 2195 397 2400 534 
Q 2605 672 2704 899 
Q 2803 1126 2803 1402 
Q 2803 1664 2707 1881 
Q 2611 2099 2409 2230 
Q 2208 2362 1894 2362 
Q 1581 2362 1369 2227 
Q 1158 2093 1056 1872 
Q 954 1651 954 1370 
Q 954 1107 1056 883 
Q 1158 659 1363 528 
Q 1568 397 1882 397 
z
" transform="scale(0.015625)"/>
       </defs>
       <use xlink:href="#Archivo-Regular-36"/>
       <use xlink:href="#Archivo-Regular-30" x="57.299988"/>
      </g>
     </g>
    </g>
    <g id="ytick_5">
     <g id="line2d_30">
      <g>
       <use xlink:href="#m4e447cfb96" x="49.206875" y="91.541688" style="stroke: #000000; stroke-width: 0.8"/>
      </g>
     </g>
     <g id="text_30">
      <!-- 80 -->
      <g transform="translate(28.4425 95.8795) scale(0.12 -0.12)">
       <defs>
        <path id="Archivo-Regular-38" d="M 1837 -77 
Q 1293 -77 953 96 
Q 614 269 457 557 
Q 301 845 301 1197 
Q 301 1555 480 1830 
Q 659 2106 1043 2253 
Q 736 2413 579 2675 
Q 422 2938 422 3258 
Q 422 3597 579 3869 
Q 736 4141 1053 4304 
Q 1370 4467 1837 4467 
Q 2304 4467 2617 4304 
Q 2931 4141 3091 3869 
Q 3251 3597 3251 3258 
Q 3251 2938 3091 2675 
Q 2931 2413 2624 2253 
Q 3014 2106 3190 1830 
Q 3366 1555 3366 1197 
Q 3366 845 3209 557 
Q 3053 269 2717 96 
Q 2381 -77 1837 -77 
z
M 1837 390 
Q 2304 390 2541 608 
Q 2778 826 2778 1203 
Q 2778 1574 2541 1792 
Q 2304 2010 1837 2010 
Q 1370 2010 1130 1792 
Q 890 1574 890 1203 
Q 890 826 1130 608 
Q 1370 390 1837 390 
z
M 1837 2477 
Q 2227 2477 2451 2678 
Q 2675 2880 2675 3245 
Q 2675 3603 2451 3801 
Q 2227 4000 1837 4000 
Q 1446 4000 1222 3801 
Q 998 3603 998 3245 
Q 998 2880 1222 2678 
Q 1446 2477 1837 2477 
z
" transform="scale(0.015625)"/>
       </defs>
       <use xlink:href="#Archivo-Regular-38"/>
       <use xlink:href="#Archivo-Regular-30" x="57.399994"/>
      </g>
     </g>
    </g>
    <g id="ytick_6">
     <g id="line2d_31">
      <g>
       <use xlink:href="#m4e447cfb96" x="49.206875" y="18.101688" style="stroke: #000000; stroke-width: 0.8"/>
      </g>
     </g>
     <g id="text_31">
      <!-- 100 -->
      <g transform="translate(22.204375 22.4395) scale(0.12 -0.12)">
       <defs>
        <path id="Archivo-Regular-31" d="M 429 0 
L 429 480 
L 1536 480 
L 1536 3520 
L 422 3520 
L 422 3878 
Q 659 3898 912 3949 
Q 1165 4000 1408 4112 
Q 1651 4224 1850 4403 
L 2106 4403 
L 2106 480 
L 3149 480 
L 3149 0 
L 429 0 
z
" transform="scale(0.015625)"/>
       </defs>
       <use xlink:href="#Archivo-Regular-31"/>
       <use xlink:href="#Archivo-Regular-30" x="52.099991"/>
       <use xlink:href="#Archivo-Regular-30" x="109.399979"/>
      </g>
     </g>
    </g>
    <g id="text_32">
     <!-- Ratio Mujeres/Varones -->
     <g transform="translate(16.02 262.620437) rotate(-90) scale(0.12 -0.12)">
      <defs>
       <path id="Archivo-Regular-2f" d="M 0 -314 
L 1427 4704 
L 1882 4704 
L 454 -314 
L 0 -314 
z
" transform="scale(0.015625)"/>
       <path id="Archivo-Regular-56" d="M 1702 0 
L 64 4390 
L 723 4390 
L 1850 1280 
Q 1888 1190 1926 1075 
Q 1965 960 2003 851 
Q 2042 742 2074 659 
L 2112 659 
Q 2138 736 2176 845 
Q 2214 954 2252 1066 
Q 2291 1178 2330 1280 
L 3443 4390 
L 4083 4390 
L 2438 0 
L 1702 0 
z
" transform="scale(0.015625)"/>
      </defs>
      <use xlink:href="#Archivo-Regular-52"/>
      <use xlink:href="#Archivo-Regular-61" x="72.699982"/>
      <use xlink:href="#Archivo-Regular-74" x="127.199966"/>
      <use xlink:href="#Archivo-Regular-69" x="156.899963"/>
      <use xlink:href="#Archivo-Regular-6f" x="179.399948"/>
      <use xlink:href="#Archivo-Regular-20" x="236.399933"/>
      <use xlink:href="#Archivo-Regular-4d" x="257.299927"/>
      <use xlink:href="#Archivo-Regular-75" x="341.999908"/>
      <use xlink:href="#Archivo-Regular-6a" x="398.199905"/>
      <use xlink:href="#Archivo-Regular-65" x="420.499893"/>
      <use xlink:href="#Archivo-Regular-72" x="475.299881"/>
      <use xlink:href="#Archivo-Regular-65" x="508.499878"/>
      <use xlink:href="#Archivo-Regular-73" x="563.299866"/>
      <use xlink:href="#Archivo-Regular-2f" x="614.29985"/>
      <use xlink:href="#Archivo-Regular-56" x="643.699844"/>
      <use xlink:href="#Archivo-Regular-61" x="708.499832"/>
      <use xlink:href="#Archivo-Regular-72" x="762.999817"/>
      <use xlink:href="#Archivo-Regular-6f" x="796.199814"/>
      <use xlink:href="#Archivo-Regular-6e" x="853.199799"/>
      <use xlink:href="#Archivo-Regular-65" x="909.499786"/>
      <use xlink:href="#Archivo-Regular-73" x="964.299774"/>
     </g>
    </g>
   </g>
   <g id="line2d_32">
    <defs>
     <path id="m9687a88d59" d="M 0 3.5 
C 0.928211 3.5 1.81853 3.131218 2.474874 2.474874 
C 3.131218 1.81853 3.5 0.928211 3.5 0 
C 3.5 -0.928211 3.131218 -1.81853 2.474874 -2.474874 
C 1.81853 -3.131218 0.928211 -3.5 0 -3.5 
C -0.928211 -3.5 -1.81853 -3.131218 -2.474874 -2.474874 
C -3.131218 -1.81853 -3.5 -0.928211 -3.5 0 
C -3.5 0.928211 -3.131218 1.81853 -2.474874 2.474874 
C -1.81853 3.131218 -0.928211 3.5 0 3.5 
z
" style="stroke: #ff9750"/>
    </defs>
    <g clip-path="url(#p2b1df6affa)">
     <use xlink:href="#m9687a88d59" x="68.149732" y="91.762634" style="fill: #ff9750; stroke: #ff9750"/>
     <use xlink:href="#m9687a88d59" x="99.721161" y="103.178907" style="fill: #ff9750; stroke: #ff9750"/>
     <use xlink:href="#m9687a88d59" x="131.292589" y="104.403728" style="fill: #ff9750; stroke: #ff9750"/>
     <use xlink:href="#m9687a88d59" x="162.864018" y="106.550326" style="fill: #ff9750; stroke: #ff9750"/>
     <use xlink:href="#m9687a88d59" x="194.435446" y="107.5263" style="fill: #ff9750; stroke: #ff9750"/>
     <use xlink:href="#m9687a88d59" x="226.006875" y="120.28933" style="fill: #ff9750; stroke: #ff9750"/>
     <use xlink:href="#m9687a88d59" x="257.578304" y="85.399799" style="fill: #ff9750; stroke: #ff9750"/>
     <use xlink:href="#m9687a88d59" x="289.149732" y="97.547619" style="fill: #ff9750; stroke: #ff9750"/>
     <use xlink:href="#m9687a88d59" x="320.721161" y="102.772504" style="fill: #ff9750; stroke: #ff9750"/>
     <use xlink:href="#m9687a88d59" x="352.292589" y="122.424529" style="fill: #ff9750; stroke: #ff9750"/>
     <use xlink:href="#m9687a88d59" x="383.864018" y="101.869395" style="fill: #ff9750; stroke: #ff9750"/>
     <use xlink:href="#m9687a88d59" x="415.435446" y="102.662517" style="fill: #ff9750; stroke: #ff9750"/>
     <use xlink:href="#m9687a88d59" x="447.006875" y="113.253437" style="fill: #ff9750; stroke: #ff9750"/>
     <use xlink:href="#m9687a88d59" x="478.578304" y="82.826174" style="fill: #ff9750; stroke: #ff9750"/>
     <use xlink:href="#m9687a88d59" x="510.149732" y="91.175014" style="fill: #ff9750; stroke: #ff9750"/>
     <use xlink:href="#m9687a88d59" x="541.721161" y="95.825912" style="fill: #ff9750; stroke: #ff9750"/>
     <use xlink:href="#m9687a88d59" x="573.292589" y="114.705097" style="fill: #ff9750; stroke: #ff9750"/>
     <use xlink:href="#m9687a88d59" x="604.864018" y="115.554144" style="fill: #ff9750; stroke: #ff9750"/>
     <use xlink:href="#m9687a88d59" x="636.435446" y="120.319886" style="fill: #ff9750; stroke: #ff9750"/>
     <use xlink:href="#m9687a88d59" x="668.006875" y="92.739978" style="fill: #ff9750; stroke: #ff9750"/>
     <use xlink:href="#m9687a88d59" x="699.578304" y="102.176745" style="fill: #ff9750; stroke: #ff9750"/>
     <use xlink:href="#m9687a88d59" x="731.149732" y="107.136168" style="fill: #ff9750; stroke: #ff9750"/>
     <use xlink:href="#m9687a88d59" x="762.721161" y="117.627035" style="fill: #ff9750; stroke: #ff9750"/>
     <use xlink:href="#m9687a88d59" x="794.292589" y="128.784413" style="fill: #ff9750; stroke: #ff9750"/>
     <use xlink:href="#m9687a88d59" x="825.864018" y="105.35465" style="fill: #ff9750; stroke: #ff9750"/>
    </g>
   </g>
   <g id="patch_78">
    <path d="M 49.206875 385.301688 
L 49.206875 18.101688 
" style="fill: none; stroke: #000000; stroke-width: 0.8; stroke-linejoin: miter; stroke-linecap: square"/>
   </g>
   <g id="patch_79">
    <path d="M 49.206875 385.301688 
L 844.806875 385.301688 
" style="fill: none; stroke: #000000; stroke-width: 0.8; stroke-linejoin: miter; stroke-linecap: square"/>
   </g>
   <g id="patch_80">
    <path d="M 235.628384 18.101687 
Q 153.447523 18.101687 71.266662 18.101687 
" style="fill: none; stroke: #000000; stroke-linecap: round"/>
    <path d="M 231.628384 16.101687 
L 235.628384 18.101687 
L 231.628384 20.101687 
" style="fill: none; stroke: #000000; stroke-linecap: round"/>
    <path d="M 75.266662 20.101687 
L 71.266662 18.101687 
L 75.266662 16.101687 
" style="fill: none; stroke: #000000; stroke-linecap: round"/>
   </g>
   <g id="text_33">
    <!--   -->
    <g transform="translate(240.747277 20.851687) scale(0.1 -0.1)">
     <use xlink:href="#Archivo-Regular-20"/>
    </g>
   </g>
   <g id="text_34">
    <!-- Noroeste -->
    <g transform="translate(132.871161 14.429687) scale(0.1 -0.1)">
     <use xlink:href="#Archivo-Regular-4e"/>
     <use xlink:href="#Archivo-Regular-6f" x="73.599991"/>
     <use xlink:href="#Archivo-Regular-72" x="130.599976"/>
     <use xlink:href="#Archivo-Regular-6f" x="163.799973"/>
     <use xlink:href="#Archivo-Regular-65" x="220.799957"/>
     <use xlink:href="#Archivo-Regular-73" x="275.599945"/>
     <use xlink:href="#Archivo-Regular-74" x="326.59993"/>
     <use xlink:href="#Archivo-Regular-65" x="356.299927"/>
    </g>
   </g>
   <g id="patch_81">
    <path d="M 222.009166 105.618538 
Q 146.077225 105.618538 70.145284 105.618538 
" style="fill: none; opacity: 0.5; stroke: #ff9750; stroke-width: 1.5; stroke-linecap: round"/>
   </g>
   <g id="text_35">
    <!--   -->
    <g transform="translate(226.006875 108.368538) scale(0.1 -0.1)">
     <use xlink:href="#Archivo-Regular-20"/>
    </g>
   </g>
   <g id="patch_82">
    <path d="M 361.918108 18.101687 
Q 311.306511 18.101687 260.694913 18.101687 
" style="fill: none; stroke: #000000; stroke-linecap: round"/>
    <path d="M 357.918108 16.101687 
L 361.918108 18.101687 
L 357.918108 20.101687 
" style="fill: none; stroke: #000000; stroke-linecap: round"/>
    <path d="M 264.694913 20.101687 
L 260.694913 18.101687 
L 264.694913 16.101687 
" style="fill: none; stroke: #000000; stroke-linecap: round"/>
   </g>
   <g id="text_36">
    <!--   -->
    <g transform="translate(367.032991 20.851687) scale(0.1 -0.1)">
     <use xlink:href="#Archivo-Regular-20"/>
    </g>
   </g>
   <g id="text_37">
    <!-- Noreste -->
    <g transform="translate(294.674732 14.429687) scale(0.1 -0.1)">
     <use xlink:href="#Archivo-Regular-4e"/>
     <use xlink:href="#Archivo-Regular-6f" x="73.599991"/>
     <use xlink:href="#Archivo-Regular-72" x="130.599976"/>
     <use xlink:href="#Archivo-Regular-65" x="163.799973"/>
     <use xlink:href="#Archivo-Regular-73" x="218.59996"/>
     <use xlink:href="#Archivo-Regular-74" x="269.599945"/>
     <use xlink:href="#Archivo-Regular-65" x="299.299942"/>
    </g>
   </g>
   <g id="patch_83">
    <path d="M 348.289551 102.036113 
Q 303.934663 102.036113 259.579775 102.036113 
" style="fill: none; opacity: 0.5; stroke: #ff9750; stroke-width: 1.5; stroke-linecap: round"/>
   </g>
   <g id="text_38">
    <!--   -->
    <g transform="translate(352.292589 104.786113) scale(0.1 -0.1)">
     <use xlink:href="#Archivo-Regular-20"/>
    </g>
   </g>
   <g id="patch_84">
    <path d="M 456.629042 18.101687 
Q 421.804393 18.101687 386.979744 18.101687 
" style="fill: none; stroke: #000000; stroke-linecap: round"/>
    <path d="M 452.629042 16.101687 
L 456.629042 18.101687 
L 452.629042 20.101687 
" style="fill: none; stroke: #000000; stroke-linecap: round"/>
    <path d="M 390.979744 20.101687 
L 386.979744 18.101687 
L 390.979744 16.101687 
" style="fill: none; stroke: #000000; stroke-linecap: round"/>
   </g>
   <g id="text_39">
    <!--   -->
    <g transform="translate(461.747277 20.851687) scale(0.1 -0.1)">
     <use xlink:href="#Archivo-Regular-20"/>
    </g>
   </g>
   <g id="text_40">
    <!-- Cuyo -->
    <g transform="translate(409.121161 14.429687) scale(0.1 -0.1)">
     <use xlink:href="#Archivo-Regular-43"/>
     <use xlink:href="#Archivo-Regular-75" x="72.799988"/>
     <use xlink:href="#Archivo-Regular-79" x="128.999985"/>
     <use xlink:href="#Archivo-Regular-6f" x="179.399979"/>
    </g>
   </g>
   <g id="patch_85">
    <path d="M 443.01152 105.92845 
Q 414.439565 105.92845 385.867611 105.92845 
" style="fill: none; opacity: 0.5; stroke: #ff9750; stroke-width: 1.5; stroke-linecap: round"/>
   </g>
   <g id="text_41">
    <!--   -->
    <g transform="translate(447.006875 108.67845) scale(0.1 -0.1)">
     <use xlink:href="#Archivo-Regular-20"/>
    </g>
   </g>
   <g id="patch_86">
    <path d="M 646.056955 18.101687 
Q 563.876094 18.101687 481.695233 18.101687 
" style="fill: none; stroke: #000000; stroke-linecap: round"/>
    <path d="M 642.056955 16.101687 
L 646.056955 18.101687 
L 642.056955 20.101687 
" style="fill: none; stroke: #000000; stroke-linecap: round"/>
    <path d="M 485.695233 20.101687 
L 481.695233 18.101687 
L 485.695233 16.101687 
" style="fill: none; stroke: #000000; stroke-linecap: round"/>
   </g>
   <g id="text_42">
    <!--   -->
    <g transform="translate(651.175848 20.851687) scale(0.1 -0.1)">
     <use xlink:href="#Archivo-Regular-20"/>
    </g>
   </g>
   <g id="text_43">
    <!-- Pampeana -->
    <g transform="translate(543.299732 14.429687) scale(0.1 -0.1)">
     <use xlink:href="#Archivo-Regular-50"/>
     <use xlink:href="#Archivo-Regular-61" x="66.499985"/>
     <use xlink:href="#Archivo-Regular-6d" x="120.999969"/>
     <use xlink:href="#Archivo-Regular-70" x="206.999954"/>
     <use xlink:href="#Archivo-Regular-65" x="263.699951"/>
     <use xlink:href="#Archivo-Regular-61" x="318.499939"/>
     <use xlink:href="#Archivo-Regular-6e" x="372.999924"/>
     <use xlink:href="#Archivo-Regular-61" x="429.299911"/>
    </g>
   </g>
   <g id="patch_87">
    <path d="M 632.437738 103.401038 
Q 556.505797 103.401038 480.573856 103.401038 
" style="fill: none; opacity: 0.5; stroke: #ff9750; stroke-width: 1.5; stroke-linecap: round"/>
   </g>
   <g id="text_44">
    <!--   -->
    <g transform="translate(636.435446 106.151038) scale(0.1 -0.1)">
     <use xlink:href="#Archivo-Regular-20"/>
    </g>
   </g>
   <g id="patch_88">
    <path d="M 803.913997 18.101687 
Q 737.520964 18.101687 671.127932 18.101687 
" style="fill: none; stroke: #000000; stroke-linecap: round"/>
    <path d="M 799.913997 16.101687 
L 803.913997 18.101687 
L 799.913997 20.101687 
" style="fill: none; stroke: #000000; stroke-linecap: round"/>
    <path d="M 675.127932 20.101687 
L 671.127932 18.101687 
L 675.127932 16.101687 
" style="fill: none; stroke: #000000; stroke-linecap: round"/>
   </g>
   <g id="text_45">
    <!--   -->
    <g transform="translate(809.032991 20.851687) scale(0.1 -0.1)">
     <use xlink:href="#Archivo-Regular-20"/>
    </g>
   </g>
   <g id="text_46">
    <!-- Patagonia -->
    <g transform="translate(717.731875 14.429687) scale(0.1 -0.1)">
     <use xlink:href="#Archivo-Regular-50"/>
     <use xlink:href="#Archivo-Regular-61" x="66.499985"/>
     <use xlink:href="#Archivo-Regular-74" x="120.999969"/>
     <use xlink:href="#Archivo-Regular-61" x="150.699966"/>
     <use xlink:href="#Archivo-Regular-67" x="205.199951"/>
     <use xlink:href="#Archivo-Regular-6f" x="260.799942"/>
     <use xlink:href="#Archivo-Regular-6e" x="317.799927"/>
     <use xlink:href="#Archivo-Regular-69" x="374.099915"/>
     <use xlink:href="#Archivo-Regular-61" x="396.599899"/>
    </g>
   </g>
   <g id="patch_89">
    <path d="M 790.296392 109.692868 
Q 730.149938 109.692868 670.003484 109.692868 
" style="fill: none; opacity: 0.5; stroke: #ff9750; stroke-width: 1.5; stroke-linecap: round"/>
   </g>
   <g id="text_47">
    <!--   -->
    <g transform="translate(794.292589 112.442868) scale(0.1 -0.1)">
     <use xlink:href="#Archivo-Regular-20"/>
    </g>
   </g>
   <g id="legend_1">
    <g id="line2d_33">
     <g>
      <use xlink:href="#m9687a88d59" x="254.81625" y="462.872" style="fill: #ff9750; stroke: #ff9750"/>
     </g>
    </g>
    <g id="text_48">
     <!-- Autonomía económica -->
     <g transform="translate(272.81625 466.372) scale(0.1 -0.1)">
      <use xlink:href="#Archivo-Regular-41"/>
      <use xlink:href="#Archivo-Regular-75" x="68.199982"/>
      <use xlink:href="#Archivo-Regular-74" x="124.399979"/>
      <use xlink:href="#Archivo-Regular-6f" x="154.099976"/>
      <use xlink:href="#Archivo-Regular-6e" x="211.09996"/>
      <use xlink:href="#Archivo-Regular-6f" x="267.399948"/>
      <use xlink:href="#Archivo-Regular-6d" x="324.399933"/>
      <use xlink:href="#Archivo-Regular-ed" x="410.399918"/>
      <use xlink:href="#Archivo-Regular-61" x="432.899902"/>
      <use xlink:href="#Archivo-Regular-20" x="487.399887"/>
      <use xlink:href="#Archivo-Regular-65" x="508.299881"/>
      <use xlink:href="#Archivo-Regular-63" x="563.099869"/>
      <use xlink:href="#Archivo-Regular-6f" x="614.999863"/>
      <use xlink:href="#Archivo-Regular-6e" x="671.999847"/>
      <use xlink:href="#Archivo-Regular-f3" x="728.299835"/>
      <use xlink:href="#Archivo-Regular-6d" x="785.29982"/>
      <use xlink:href="#Archivo-Regular-69" x="871.299805"/>
      <use xlink:href="#Archivo-Regular-63" x="893.799789"/>
      <use xlink:href="#Archivo-Regular-61" x="945.699783"/>
     </g>
    </g>
    <g id="patch_90">
     <path d="M 392.838125 466.372 
L 412.838125 466.372 
L 412.838125 459.372 
L 392.838125 459.372 
z
" style="fill: #8d9bff; opacity: 0.9; stroke: #f5f5f5; stroke-width: 0.5; stroke-linejoin: miter"/>
    </g>
    <g id="text_49">
     <!-- TNR -->
     <g transform="translate(420.838125 466.372) scale(0.1 -0.1)">
      <use xlink:href="#Archivo-Regular-54"/>
      <use xlink:href="#Archivo-Regular-4e" x="60.599991"/>
      <use xlink:href="#Archivo-Regular-52" x="134.199982"/>
     </g>
    </g>
    <g id="patch_91">
     <path d="M 461.527188 466.372 
L 481.527188 466.372 
L 481.527188 459.372 
L 461.527188 459.372 
z
" style="fill: #9fc1ad; opacity: 0.9; stroke: #f5f5f5; stroke-width: 0.5; stroke-linejoin: miter"/>
    </g>
    <g id="text_50">
     <!-- Dependencia -->
     <g transform="translate(489.527188 466.372) scale(0.1 -0.1)">
      <defs>
       <path id="Archivo-Regular-44" d="M 550 0 
L 550 4390 
L 2189 4390 
Q 2880 4390 3366 4160 
Q 3853 3930 4112 3446 
Q 4371 2963 4371 2195 
Q 4371 1440 4112 953 
Q 3853 467 3366 233 
Q 2880 0 2189 0 
L 550 0 
z
M 1158 525 
L 2176 525 
Q 2541 525 2829 617 
Q 3117 710 3321 902 
Q 3526 1094 3632 1398 
Q 3738 1702 3738 2125 
L 3738 2253 
Q 3738 2688 3632 2992 
Q 3526 3296 3324 3488 
Q 3123 3680 2835 3773 
Q 2547 3866 2176 3866 
L 1158 3866 
L 1158 525 
z
" transform="scale(0.015625)"/>
      </defs>
      <use xlink:href="#Archivo-Regular-44"/>
      <use xlink:href="#Archivo-Regular-65" x="73.399994"/>
      <use xlink:href="#Archivo-Regular-70" x="128.199982"/>
      <use xlink:href="#Archivo-Regular-65" x="184.899979"/>
      <use xlink:href="#Archivo-Regular-6e" x="239.699966"/>
      <use xlink:href="#Archivo-Regular-64" x="295.999954"/>
      <use xlink:href="#Archivo-Regular-65" x="352.699951"/>
      <use xlink:href="#Archivo-Regular-6e" x="407.499939"/>
      <use xlink:href="#Archivo-Regular-63" x="463.799927"/>
      <use xlink:href="#Archivo-Regular-69" x="515.699921"/>
      <use xlink:href="#Archivo-Regular-61" x="538.199905"/>
     </g>
    </g>
    <g id="patch_92">
     <path d="M 568.7975 466.372 
L 588.7975 466.372 
L 588.7975 459.372 
L 568.7975 459.372 
z
" style="fill: #d3d3e0; opacity: 0.9; stroke: #f5f5f5; stroke-width: 0.5; stroke-linejoin: miter"/>
    </g>
    <g id="text_51">
     <!-- No Pobreza -->
     <g transform="translate(596.7975 466.372) scale(0.1 -0.1)">
      <use xlink:href="#Archivo-Regular-4e"/>
      <use xlink:href="#Archivo-Regular-6f" x="73.599991"/>
      <use xlink:href="#Archivo-Regular-20" x="130.599976"/>
      <use xlink:href="#Archivo-Regular-50" x="151.499969"/>
      <use xlink:href="#Archivo-Regular-6f" x="217.999954"/>
      <use xlink:href="#Archivo-Regular-62" x="274.999939"/>
      <use xlink:href="#Archivo-Regular-72" x="331.699936"/>
      <use xlink:href="#Archivo-Regular-65" x="364.899933"/>
      <use xlink:href="#Archivo-Regular-7a" x="419.699921"/>
      <use xlink:href="#Archivo-Regular-61" x="469.499908"/>
     </g>
    </g>
   </g>
  </g>
 </g>
 <defs>
  <clipPath id="p2b1df6affa">
   <rect x="49.206875" y="18.101687" width="795.6" height="367.2"/>
  </clipPath>
 </defs>
</svg>
