<?xml version="1.0" encoding="utf-8" standalone="no"?>
<!DOCTYPE svg PUBLIC "-//W3C//DTD SVG 1.1//EN"
  "http://www.w3.org/Graphics/SVG/1.1/DTD/svg11.dtd">
<svg height="479.301688pt" version="1.1" viewBox="0 0 974.406875 479.301688" width="974.406875pt" xmlns="http://www.w3.org/2000/svg" xmlns:xlink="http://www.w3.org/1999/xlink">
 <metadata>
  <rdf:RDF xmlns:cc="http://creativecommons.org/ns#" xmlns:dc="http://purl.org/dc/elements/1.1/" xmlns:rdf="http://www.w3.org/1999/02/22-rdf-syntax-ns#">
   <cc:Work>
    <dc:type rdf:resource="http://purl.org/dc/dcmitype/StillImage"/>
    <dc:date>2023-08-03T10:22:52.030441</dc:date>
    <dc:format>image/svg+xml</dc:format>
    <dc:creator>
     <cc:Agent>
      <dc:title>Matplotlib v3.4.3, https://matplotlib.org/</dc:title>
     </cc:Agent>
    </dc:creator>
   </cc:Work>
  </rdf:RDF>
 </metadata>
 <defs>
  <style type="text/css">*{stroke-linecap:butt;stroke-linejoin:round;}</style>
 </defs>
 <g id="figure_1">
  <g id="patch_1">
   <path d="M 0 479.301688 
L 974.406875 479.301688 
L 974.406875 0 
L 0 0 
z
" style="fill:none;"/>
  </g>
  <g id="axes_1">
   <g id="patch_2">
    <path d="M 49.206875 385.301688 
L 967.206875 385.301688 
L 967.206875 18.101688 
L 49.206875 18.101688 
z
" style="fill:none;"/>
   </g>
   <g id="patch_3">
    <path clip-path="url(#p56d0d56cc1)" d="M 58.314018 385.301688 
L 64.689018 385.301688 
L 64.689018 125.345181 
L 58.314018 125.345181 
z
" style="fill:#8d9bff;opacity:0.9;stroke:#f5f5f5;stroke-linejoin:miter;stroke-width:0.5;"/>
   </g>
   <g id="patch_4">
    <path clip-path="url(#p56d0d56cc1)" d="M 94.742589 385.301688 
L 101.117589 385.301688 
L 101.117589 105.581595 
L 94.742589 105.581595 
z
" style="fill:#8d9bff;opacity:0.9;stroke:#f5f5f5;stroke-linejoin:miter;stroke-width:0.5;"/>
   </g>
   <g id="patch_5">
    <path clip-path="url(#p56d0d56cc1)" d="M 131.171161 385.301688 
L 137.546161 385.301688 
L 137.546161 119.295841 
L 131.171161 119.295841 
z
" style="fill:#8d9bff;opacity:0.9;stroke:#f5f5f5;stroke-linejoin:miter;stroke-width:0.5;"/>
   </g>
   <g id="patch_6">
    <path clip-path="url(#p56d0d56cc1)" d="M 167.599732 385.301688 
L 173.974732 385.301688 
L 173.974732 170.442667 
L 167.599732 170.442667 
z
" style="fill:#8d9bff;opacity:0.9;stroke:#f5f5f5;stroke-linejoin:miter;stroke-width:0.5;"/>
   </g>
   <g id="patch_7">
    <path clip-path="url(#p56d0d56cc1)" d="M 204.028304 385.301688 
L 210.403304 385.301688 
L 210.403304 143.260281 
L 204.028304 143.260281 
z
" style="fill:#8d9bff;opacity:0.9;stroke:#f5f5f5;stroke-linejoin:miter;stroke-width:0.5;"/>
   </g>
   <g id="patch_8">
    <path clip-path="url(#p56d0d56cc1)" d="M 240.456875 385.301688 
L 246.831875 385.301688 
L 246.831875 117.380111 
L 240.456875 117.380111 
z
" style="fill:#8d9bff;opacity:0.9;stroke:#f5f5f5;stroke-linejoin:miter;stroke-width:0.5;"/>
   </g>
   <g id="patch_9">
    <path clip-path="url(#p56d0d56cc1)" d="M 276.885446 385.301688 
L 283.260446 385.301688 
L 283.260446 154.238249 
L 276.885446 154.238249 
z
" style="fill:#8d9bff;opacity:0.9;stroke:#f5f5f5;stroke-linejoin:miter;stroke-width:0.5;"/>
   </g>
   <g id="patch_10">
    <path clip-path="url(#p56d0d56cc1)" d="M 313.314018 385.301688 
L 319.689018 385.301688 
L 319.689018 173.148295 
L 313.314018 173.148295 
z
" style="fill:#8d9bff;opacity:0.9;stroke:#f5f5f5;stroke-linejoin:miter;stroke-width:0.5;"/>
   </g>
   <g id="patch_11">
    <path clip-path="url(#p56d0d56cc1)" d="M 349.742589 385.301688 
L 356.117589 385.301688 
L 356.117589 209.681107 
L 349.742589 209.681107 
z
" style="fill:#8d9bff;opacity:0.9;stroke:#f5f5f5;stroke-linejoin:miter;stroke-width:0.5;"/>
   </g>
   <g id="patch_12">
    <path clip-path="url(#p56d0d56cc1)" d="M 386.171161 385.301688 
L 392.546161 385.301688 
L 392.546161 138.965167 
L 386.171161 138.965167 
z
" style="fill:#8d9bff;opacity:0.9;stroke:#f5f5f5;stroke-linejoin:miter;stroke-width:0.5;"/>
   </g>
   <g id="patch_13">
    <path clip-path="url(#p56d0d56cc1)" d="M 422.599732 385.301688 
L 428.974732 385.301688 
L 428.974732 132.605721 
L 422.599732 132.605721 
z
" style="fill:#8d9bff;opacity:0.9;stroke:#f5f5f5;stroke-linejoin:miter;stroke-width:0.5;"/>
   </g>
   <g id="patch_14">
    <path clip-path="url(#p56d0d56cc1)" d="M 459.028304 385.301688 
L 465.403304 385.301688 
L 465.403304 164.347805 
L 459.028304 164.347805 
z
" style="fill:#8d9bff;opacity:0.9;stroke:#f5f5f5;stroke-linejoin:miter;stroke-width:0.5;"/>
   </g>
   <g id="patch_15">
    <path clip-path="url(#p56d0d56cc1)" d="M 495.456875 385.301688 
L 501.831875 385.301688 
L 501.831875 136.354869 
L 495.456875 136.354869 
z
" style="fill:#8d9bff;opacity:0.9;stroke:#f5f5f5;stroke-linejoin:miter;stroke-width:0.5;"/>
   </g>
   <g id="patch_16">
    <path clip-path="url(#p56d0d56cc1)" d="M 531.885446 385.301688 
L 538.260446 385.301688 
L 538.260446 88.622777 
L 531.885446 88.622777 
z
" style="fill:#8d9bff;opacity:0.9;stroke:#f5f5f5;stroke-linejoin:miter;stroke-width:0.5;"/>
   </g>
   <g id="patch_17">
    <path clip-path="url(#p56d0d56cc1)" d="M 568.314018 385.301688 
L 574.689018 385.301688 
L 574.689018 119.617169 
L 568.314018 119.617169 
z
" style="fill:#8d9bff;opacity:0.9;stroke:#f5f5f5;stroke-linejoin:miter;stroke-width:0.5;"/>
   </g>
   <g id="patch_18">
    <path clip-path="url(#p56d0d56cc1)" d="M 604.742589 385.301688 
L 611.117589 385.301688 
L 611.117589 117.190447 
L 604.742589 117.190447 
z
" style="fill:#8d9bff;opacity:0.9;stroke:#f5f5f5;stroke-linejoin:miter;stroke-width:0.5;"/>
   </g>
   <g id="patch_19">
    <path clip-path="url(#p56d0d56cc1)" d="M 641.171161 385.301688 
L 647.546161 385.301688 
L 647.546161 140.937387 
L 641.171161 140.937387 
z
" style="fill:#8d9bff;opacity:0.9;stroke:#f5f5f5;stroke-linejoin:miter;stroke-width:0.5;"/>
   </g>
   <g id="patch_20">
    <path clip-path="url(#p56d0d56cc1)" d="M 677.599732 385.301688 
L 683.974732 385.301688 
L 683.974732 120.336162 
L 677.599732 120.336162 
z
" style="fill:#8d9bff;opacity:0.9;stroke:#f5f5f5;stroke-linejoin:miter;stroke-width:0.5;"/>
   </g>
   <g id="patch_21">
    <path clip-path="url(#p56d0d56cc1)" d="M 714.028304 385.301688 
L 720.403304 385.301688 
L 720.403304 124.668692 
L 714.028304 124.668692 
z
" style="fill:#8d9bff;opacity:0.9;stroke:#f5f5f5;stroke-linejoin:miter;stroke-width:0.5;"/>
   </g>
   <g id="patch_22">
    <path clip-path="url(#p56d0d56cc1)" d="M 750.456875 385.301688 
L 756.831875 385.301688 
L 756.831875 121.085146 
L 750.456875 121.085146 
z
" style="fill:#8d9bff;opacity:0.9;stroke:#f5f5f5;stroke-linejoin:miter;stroke-width:0.5;"/>
   </g>
   <g id="patch_23">
    <path clip-path="url(#p56d0d56cc1)" d="M 786.885446 385.301688 
L 793.260446 385.301688 
L 793.260446 127.297835 
L 786.885446 127.297835 
z
" style="fill:#8d9bff;opacity:0.9;stroke:#f5f5f5;stroke-linejoin:miter;stroke-width:0.5;"/>
   </g>
   <g id="patch_24">
    <path clip-path="url(#p56d0d56cc1)" d="M 823.314018 385.301688 
L 829.689018 385.301688 
L 829.689018 94.684237 
L 823.314018 94.684237 
z
" style="fill:#8d9bff;opacity:0.9;stroke:#f5f5f5;stroke-linejoin:miter;stroke-width:0.5;"/>
   </g>
   <g id="patch_25">
    <path clip-path="url(#p56d0d56cc1)" d="M 859.742589 385.301688 
L 866.117589 385.301688 
L 866.117589 115.152225 
L 859.742589 115.152225 
z
" style="fill:#8d9bff;opacity:0.9;stroke:#f5f5f5;stroke-linejoin:miter;stroke-width:0.5;"/>
   </g>
   <g id="patch_26">
    <path clip-path="url(#p56d0d56cc1)" d="M 896.171161 385.301688 
L 902.546161 385.301688 
L 902.546161 125.730221 
L 896.171161 125.730221 
z
" style="fill:#8d9bff;opacity:0.9;stroke:#f5f5f5;stroke-linejoin:miter;stroke-width:0.5;"/>
   </g>
   <g id="patch_27">
    <path clip-path="url(#p56d0d56cc1)" d="M 932.599732 385.301688 
L 938.974732 385.301688 
L 938.974732 132.748716 
L 932.599732 132.748716 
z
" style="fill:#8d9bff;opacity:0.9;stroke:#f5f5f5;stroke-linejoin:miter;stroke-width:0.5;"/>
   </g>
   <g id="patch_28">
    <path clip-path="url(#p56d0d56cc1)" d="M 64.689018 385.301688 
L 71.064018 385.301688 
L 71.064018 26.859956 
L 64.689018 26.859956 
z
" style="fill:#9fc1ad;opacity:0.9;stroke:#f5f5f5;stroke-linejoin:miter;stroke-width:0.5;"/>
   </g>
   <g id="patch_29">
    <path clip-path="url(#p56d0d56cc1)" d="M 101.117589 385.301688 
L 107.492589 385.301688 
L 107.492589 25.550093 
L 101.117589 25.550093 
z
" style="fill:#9fc1ad;opacity:0.9;stroke:#f5f5f5;stroke-linejoin:miter;stroke-width:0.5;"/>
   </g>
   <g id="patch_30">
    <path clip-path="url(#p56d0d56cc1)" d="M 137.546161 385.301688 
L 143.921161 385.301688 
L 143.921161 36.475278 
L 137.546161 36.475278 
z
" style="fill:#9fc1ad;opacity:0.9;stroke:#f5f5f5;stroke-linejoin:miter;stroke-width:0.5;"/>
   </g>
   <g id="patch_31">
    <path clip-path="url(#p56d0d56cc1)" d="M 173.974732 385.301688 
L 180.349732 385.301688 
L 180.349732 58.07045 
L 173.974732 58.07045 
z
" style="fill:#9fc1ad;opacity:0.9;stroke:#f5f5f5;stroke-linejoin:miter;stroke-width:0.5;"/>
   </g>
   <g id="patch_32">
    <path clip-path="url(#p56d0d56cc1)" d="M 210.403304 385.301688 
L 216.778304 385.301688 
L 216.778304 52.354795 
L 210.403304 52.354795 
z
" style="fill:#9fc1ad;opacity:0.9;stroke:#f5f5f5;stroke-linejoin:miter;stroke-width:0.5;"/>
   </g>
   <g id="patch_33">
    <path clip-path="url(#p56d0d56cc1)" d="M 246.831875 385.301688 
L 253.206875 385.301688 
L 253.206875 74.897838 
L 246.831875 74.897838 
z
" style="fill:#9fc1ad;opacity:0.9;stroke:#f5f5f5;stroke-linejoin:miter;stroke-width:0.5;"/>
   </g>
   <g id="patch_34">
    <path clip-path="url(#p56d0d56cc1)" d="M 283.260446 385.301688 
L 289.635446 385.301688 
L 289.635446 27.740844 
L 283.260446 27.740844 
z
" style="fill:#9fc1ad;opacity:0.9;stroke:#f5f5f5;stroke-linejoin:miter;stroke-width:0.5;"/>
   </g>
   <g id="patch_35">
    <path clip-path="url(#p56d0d56cc1)" d="M 319.689018 385.301688 
L 326.064018 385.301688 
L 326.064018 18.101688 
L 319.689018 18.101688 
z
" style="fill:#9fc1ad;opacity:0.9;stroke:#f5f5f5;stroke-linejoin:miter;stroke-width:0.5;"/>
   </g>
   <g id="patch_36">
    <path clip-path="url(#p56d0d56cc1)" d="M 356.117589 385.301688 
L 362.492589 385.301688 
L 362.492589 18.101688 
L 356.117589 18.101688 
z
" style="fill:#9fc1ad;opacity:0.9;stroke:#f5f5f5;stroke-linejoin:miter;stroke-width:0.5;"/>
   </g>
   <g id="patch_37">
    <path clip-path="url(#p56d0d56cc1)" d="M 392.546161 385.301688 
L 398.921161 385.301688 
L 398.921161 69.3266 
L 392.546161 69.3266 
z
" style="fill:#9fc1ad;opacity:0.9;stroke:#f5f5f5;stroke-linejoin:miter;stroke-width:0.5;"/>
   </g>
   <g id="patch_38">
    <path clip-path="url(#p56d0d56cc1)" d="M 428.974732 385.301688 
L 435.349732 385.301688 
L 435.349732 70.41388 
L 428.974732 70.41388 
z
" style="fill:#9fc1ad;opacity:0.9;stroke:#f5f5f5;stroke-linejoin:miter;stroke-width:0.5;"/>
   </g>
   <g id="patch_39">
    <path clip-path="url(#p56d0d56cc1)" d="M 465.403304 385.301688 
L 471.778304 385.301688 
L 471.778304 18.101688 
L 465.403304 18.101688 
z
" style="fill:#9fc1ad;opacity:0.9;stroke:#f5f5f5;stroke-linejoin:miter;stroke-width:0.5;"/>
   </g>
   <g id="patch_40">
    <path clip-path="url(#p56d0d56cc1)" d="M 501.831875 385.301688 
L 508.206875 385.301688 
L 508.206875 65.856728 
L 501.831875 65.856728 
z
" style="fill:#9fc1ad;opacity:0.9;stroke:#f5f5f5;stroke-linejoin:miter;stroke-width:0.5;"/>
   </g>
   <g id="patch_41">
    <path clip-path="url(#p56d0d56cc1)" d="M 538.260446 385.301688 
L 544.635446 385.301688 
L 544.635446 38.797102 
L 538.260446 38.797102 
z
" style="fill:#9fc1ad;opacity:0.9;stroke:#f5f5f5;stroke-linejoin:miter;stroke-width:0.5;"/>
   </g>
   <g id="patch_42">
    <path clip-path="url(#p56d0d56cc1)" d="M 574.689018 385.301688 
L 581.064018 385.301688 
L 581.064018 41.009802 
L 574.689018 41.009802 
z
" style="fill:#9fc1ad;opacity:0.9;stroke:#f5f5f5;stroke-linejoin:miter;stroke-width:0.5;"/>
   </g>
   <g id="patch_43">
    <path clip-path="url(#p56d0d56cc1)" d="M 611.117589 385.301688 
L 617.492589 385.301688 
L 617.492589 65.723516 
L 611.117589 65.723516 
z
" style="fill:#9fc1ad;opacity:0.9;stroke:#f5f5f5;stroke-linejoin:miter;stroke-width:0.5;"/>
   </g>
   <g id="patch_44">
    <path clip-path="url(#p56d0d56cc1)" d="M 647.546161 385.301688 
L 653.921161 385.301688 
L 653.921161 42.308671 
L 647.546161 42.308671 
z
" style="fill:#9fc1ad;opacity:0.9;stroke:#f5f5f5;stroke-linejoin:miter;stroke-width:0.5;"/>
   </g>
   <g id="patch_45">
    <path clip-path="url(#p56d0d56cc1)" d="M 683.974732 385.301688 
L 690.349732 385.301688 
L 690.349732 51.619924 
L 683.974732 51.619924 
z
" style="fill:#9fc1ad;opacity:0.9;stroke:#f5f5f5;stroke-linejoin:miter;stroke-width:0.5;"/>
   </g>
   <g id="patch_46">
    <path clip-path="url(#p56d0d56cc1)" d="M 720.403304 385.301688 
L 726.778304 385.301688 
L 726.778304 67.107865 
L 720.403304 67.107865 
z
" style="fill:#9fc1ad;opacity:0.9;stroke:#f5f5f5;stroke-linejoin:miter;stroke-width:0.5;"/>
   </g>
   <g id="patch_47">
    <path clip-path="url(#p56d0d56cc1)" d="M 756.831875 385.301688 
L 763.206875 385.301688 
L 763.206875 37.584079 
L 756.831875 37.584079 
z
" style="fill:#9fc1ad;opacity:0.9;stroke:#f5f5f5;stroke-linejoin:miter;stroke-width:0.5;"/>
   </g>
   <g id="patch_48">
    <path clip-path="url(#p56d0d56cc1)" d="M 793.260446 385.301688 
L 799.635446 385.301688 
L 799.635446 18.101688 
L 793.260446 18.101688 
z
" style="fill:#9fc1ad;opacity:0.9;stroke:#f5f5f5;stroke-linejoin:miter;stroke-width:0.5;"/>
   </g>
   <g id="patch_49">
    <path clip-path="url(#p56d0d56cc1)" d="M 829.689018 385.301688 
L 836.064018 385.301688 
L 836.064018 50.129338 
L 829.689018 50.129338 
z
" style="fill:#9fc1ad;opacity:0.9;stroke:#f5f5f5;stroke-linejoin:miter;stroke-width:0.5;"/>
   </g>
   <g id="patch_50">
    <path clip-path="url(#p56d0d56cc1)" d="M 866.117589 385.301688 
L 872.492589 385.301688 
L 872.492589 56.689038 
L 866.117589 56.689038 
z
" style="fill:#9fc1ad;opacity:0.9;stroke:#f5f5f5;stroke-linejoin:miter;stroke-width:0.5;"/>
   </g>
   <g id="patch_51">
    <path clip-path="url(#p56d0d56cc1)" d="M 902.546161 385.301688 
L 908.921161 385.301688 
L 908.921161 55.791355 
L 902.546161 55.791355 
z
" style="fill:#9fc1ad;opacity:0.9;stroke:#f5f5f5;stroke-linejoin:miter;stroke-width:0.5;"/>
   </g>
   <g id="patch_52">
    <path clip-path="url(#p56d0d56cc1)" d="M 938.974732 385.301688 
L 945.349732 385.301688 
L 945.349732 45.279746 
L 938.974732 45.279746 
z
" style="fill:#9fc1ad;opacity:0.9;stroke:#f5f5f5;stroke-linejoin:miter;stroke-width:0.5;"/>
   </g>
   <g id="patch_53">
    <path clip-path="url(#p56d0d56cc1)" d="M 71.064018 385.301688 
L 77.439018 385.301688 
L 77.439018 93.155269 
L 71.064018 93.155269 
z
" style="fill:#d3d3e0;opacity:0.9;stroke:#f5f5f5;stroke-linejoin:miter;stroke-width:0.5;"/>
   </g>
   <g id="patch_54">
    <path clip-path="url(#p56d0d56cc1)" d="M 107.492589 385.301688 
L 113.867589 385.301688 
L 113.867589 105.673651 
L 107.492589 105.673651 
z
" style="fill:#d3d3e0;opacity:0.9;stroke:#f5f5f5;stroke-linejoin:miter;stroke-width:0.5;"/>
   </g>
   <g id="patch_55">
    <path clip-path="url(#p56d0d56cc1)" d="M 143.921161 385.301688 
L 150.296161 385.301688 
L 150.296161 99.436766 
L 143.921161 99.436766 
z
" style="fill:#d3d3e0;opacity:0.9;stroke:#f5f5f5;stroke-linejoin:miter;stroke-width:0.5;"/>
   </g>
   <g id="patch_56">
    <path clip-path="url(#p56d0d56cc1)" d="M 180.349732 385.301688 
L 186.724732 385.301688 
L 186.724732 100.959186 
L 180.349732 100.959186 
z
" style="fill:#d3d3e0;opacity:0.9;stroke:#f5f5f5;stroke-linejoin:miter;stroke-width:0.5;"/>
   </g>
   <g id="patch_57">
    <path clip-path="url(#p56d0d56cc1)" d="M 216.778304 385.301688 
L 223.153304 385.301688 
L 223.153304 120.124178 
L 216.778304 120.124178 
z
" style="fill:#d3d3e0;opacity:0.9;stroke:#f5f5f5;stroke-linejoin:miter;stroke-width:0.5;"/>
   </g>
   <g id="patch_58">
    <path clip-path="url(#p56d0d56cc1)" d="M 253.206875 385.301688 
L 259.581875 385.301688 
L 259.581875 121.437313 
L 253.206875 121.437313 
z
" style="fill:#d3d3e0;opacity:0.9;stroke:#f5f5f5;stroke-linejoin:miter;stroke-width:0.5;"/>
   </g>
   <g id="patch_59">
    <path clip-path="url(#p56d0d56cc1)" d="M 289.635446 385.301688 
L 296.010446 385.301688 
L 296.010446 90.848856 
L 289.635446 90.848856 
z
" style="fill:#d3d3e0;opacity:0.9;stroke:#f5f5f5;stroke-linejoin:miter;stroke-width:0.5;"/>
   </g>
   <g id="patch_60">
    <path clip-path="url(#p56d0d56cc1)" d="M 326.064018 385.301688 
L 332.439018 385.301688 
L 332.439018 102.038217 
L 326.064018 102.038217 
z
" style="fill:#d3d3e0;opacity:0.9;stroke:#f5f5f5;stroke-linejoin:miter;stroke-width:0.5;"/>
   </g>
   <g id="patch_61">
    <path clip-path="url(#p56d0d56cc1)" d="M 362.492589 385.301688 
L 368.867589 385.301688 
L 368.867589 72.906069 
L 362.492589 72.906069 
z
" style="fill:#d3d3e0;opacity:0.9;stroke:#f5f5f5;stroke-linejoin:miter;stroke-width:0.5;"/>
   </g>
   <g id="patch_62">
    <path clip-path="url(#p56d0d56cc1)" d="M 398.921161 385.301688 
L 405.296161 385.301688 
L 405.296161 103.966086 
L 398.921161 103.966086 
z
" style="fill:#d3d3e0;opacity:0.9;stroke:#f5f5f5;stroke-linejoin:miter;stroke-width:0.5;"/>
   </g>
   <g id="patch_63">
    <path clip-path="url(#p56d0d56cc1)" d="M 435.349732 385.301688 
L 441.724732 385.301688 
L 441.724732 98.509641 
L 435.349732 98.509641 
z
" style="fill:#d3d3e0;opacity:0.9;stroke:#f5f5f5;stroke-linejoin:miter;stroke-width:0.5;"/>
   </g>
   <g id="patch_64">
    <path clip-path="url(#p56d0d56cc1)" d="M 471.778304 385.301688 
L 478.153304 385.301688 
L 478.153304 113.401874 
L 471.778304 113.401874 
z
" style="fill:#d3d3e0;opacity:0.9;stroke:#f5f5f5;stroke-linejoin:miter;stroke-width:0.5;"/>
   </g>
   <g id="patch_65">
    <path clip-path="url(#p56d0d56cc1)" d="M 508.206875 385.301688 
L 514.581875 385.301688 
L 514.581875 98.933927 
L 508.206875 98.933927 
z
" style="fill:#d3d3e0;opacity:0.9;stroke:#f5f5f5;stroke-linejoin:miter;stroke-width:0.5;"/>
   </g>
   <g id="patch_66">
    <path clip-path="url(#p56d0d56cc1)" d="M 544.635446 385.301688 
L 551.010446 385.301688 
L 551.010446 75.000152 
L 544.635446 75.000152 
z
" style="fill:#d3d3e0;opacity:0.9;stroke:#f5f5f5;stroke-linejoin:miter;stroke-width:0.5;"/>
   </g>
   <g id="patch_67">
    <path clip-path="url(#p56d0d56cc1)" d="M 581.064018 385.301688 
L 587.439018 385.301688 
L 587.439018 103.184338 
L 581.064018 103.184338 
z
" style="fill:#d3d3e0;opacity:0.9;stroke:#f5f5f5;stroke-linejoin:miter;stroke-width:0.5;"/>
   </g>
   <g id="patch_68">
    <path clip-path="url(#p56d0d56cc1)" d="M 617.492589 385.301688 
L 623.867589 385.301688 
L 623.867589 102.139684 
L 617.492589 102.139684 
z
" style="fill:#d3d3e0;opacity:0.9;stroke:#f5f5f5;stroke-linejoin:miter;stroke-width:0.5;"/>
   </g>
   <g id="patch_69">
    <path clip-path="url(#p56d0d56cc1)" d="M 653.921161 385.301688 
L 660.296161 385.301688 
L 660.296161 103.325833 
L 653.921161 103.325833 
z
" style="fill:#d3d3e0;opacity:0.9;stroke:#f5f5f5;stroke-linejoin:miter;stroke-width:0.5;"/>
   </g>
   <g id="patch_70">
    <path clip-path="url(#p56d0d56cc1)" d="M 690.349732 385.301688 
L 696.724732 385.301688 
L 696.724732 124.781428 
L 690.349732 124.781428 
z
" style="fill:#d3d3e0;opacity:0.9;stroke:#f5f5f5;stroke-linejoin:miter;stroke-width:0.5;"/>
   </g>
   <g id="patch_71">
    <path clip-path="url(#p56d0d56cc1)" d="M 726.778304 385.301688 
L 733.153304 385.301688 
L 733.153304 133.254523 
L 726.778304 133.254523 
z
" style="fill:#d3d3e0;opacity:0.9;stroke:#f5f5f5;stroke-linejoin:miter;stroke-width:0.5;"/>
   </g>
   <g id="patch_72">
    <path clip-path="url(#p56d0d56cc1)" d="M 763.206875 385.301688 
L 769.581875 385.301688 
L 769.581875 63.181529 
L 763.206875 63.181529 
z
" style="fill:#d3d3e0;opacity:0.9;stroke:#f5f5f5;stroke-linejoin:miter;stroke-width:0.5;"/>
   </g>
   <g id="patch_73">
    <path clip-path="url(#p56d0d56cc1)" d="M 799.635446 385.301688 
L 806.010446 385.301688 
L 806.010446 93.362733 
L 799.635446 93.362733 
z
" style="fill:#d3d3e0;opacity:0.9;stroke:#f5f5f5;stroke-linejoin:miter;stroke-width:0.5;"/>
   </g>
   <g id="patch_74">
    <path clip-path="url(#p56d0d56cc1)" d="M 836.064018 385.301688 
L 842.439018 385.301688 
L 842.439018 96.711887 
L 836.064018 96.711887 
z
" style="fill:#d3d3e0;opacity:0.9;stroke:#f5f5f5;stroke-linejoin:miter;stroke-width:0.5;"/>
   </g>
   <g id="patch_75">
    <path clip-path="url(#p56d0d56cc1)" d="M 872.492589 385.301688 
L 878.867589 385.301688 
L 878.867589 105.54514 
L 872.492589 105.54514 
z
" style="fill:#d3d3e0;opacity:0.9;stroke:#f5f5f5;stroke-linejoin:miter;stroke-width:0.5;"/>
   </g>
   <g id="patch_76">
    <path clip-path="url(#p56d0d56cc1)" d="M 908.921161 385.301688 
L 915.296161 385.301688 
L 915.296161 110.161027 
L 908.921161 110.161027 
z
" style="fill:#d3d3e0;opacity:0.9;stroke:#f5f5f5;stroke-linejoin:miter;stroke-width:0.5;"/>
   </g>
   <g id="patch_77">
    <path clip-path="url(#p56d0d56cc1)" d="M 945.349732 385.301688 
L 951.724732 385.301688 
L 951.724732 101.334971 
L 945.349732 101.334971 
z
" style="fill:#d3d3e0;opacity:0.9;stroke:#f5f5f5;stroke-linejoin:miter;stroke-width:0.5;"/>
   </g>
   <g id="patch_78">
    <path clip-path="url(#p56d0d56cc1)" d="M 77.439018 385.301688 
L 83.814018 385.301688 
L 83.814018 61.420963 
L 77.439018 61.420963 
z
" style="fill:#7bb5c4;opacity:0.9;stroke:#f5f5f5;stroke-linejoin:miter;stroke-width:0.5;"/>
   </g>
   <g id="patch_79">
    <path clip-path="url(#p56d0d56cc1)" d="M 113.867589 385.301688 
L 120.242589 385.301688 
L 120.242589 80.399965 
L 113.867589 80.399965 
z
" style="fill:#7bb5c4;opacity:0.9;stroke:#f5f5f5;stroke-linejoin:miter;stroke-width:0.5;"/>
   </g>
   <g id="patch_80">
    <path clip-path="url(#p56d0d56cc1)" d="M 150.296161 385.301688 
L 156.671161 385.301688 
L 156.671161 112.859051 
L 150.296161 112.859051 
z
" style="fill:#7bb5c4;opacity:0.9;stroke:#f5f5f5;stroke-linejoin:miter;stroke-width:0.5;"/>
   </g>
   <g id="patch_81">
    <path clip-path="url(#p56d0d56cc1)" d="M 186.724732 385.301688 
L 193.099732 385.301688 
L 193.099732 86.203021 
L 186.724732 86.203021 
z
" style="fill:#7bb5c4;opacity:0.9;stroke:#f5f5f5;stroke-linejoin:miter;stroke-width:0.5;"/>
   </g>
   <g id="patch_82">
    <path clip-path="url(#p56d0d56cc1)" d="M 223.153304 385.301688 
L 229.528304 385.301688 
L 229.528304 111.187292 
L 223.153304 111.187292 
z
" style="fill:#7bb5c4;opacity:0.9;stroke:#f5f5f5;stroke-linejoin:miter;stroke-width:0.5;"/>
   </g>
   <g id="patch_83">
    <path clip-path="url(#p56d0d56cc1)" d="M 259.581875 385.301688 
L 265.956875 385.301688 
L 265.956875 117.288178 
L 259.581875 117.288178 
z
" style="fill:#7bb5c4;opacity:0.9;stroke:#f5f5f5;stroke-linejoin:miter;stroke-width:0.5;"/>
   </g>
   <g id="patch_84">
    <path clip-path="url(#p56d0d56cc1)" d="M 296.010446 385.301688 
L 302.385446 385.301688 
L 302.385446 74.490827 
L 296.010446 74.490827 
z
" style="fill:#7bb5c4;opacity:0.9;stroke:#f5f5f5;stroke-linejoin:miter;stroke-width:0.5;"/>
   </g>
   <g id="patch_85">
    <path clip-path="url(#p56d0d56cc1)" d="M 332.439018 385.301688 
L 338.814018 385.301688 
L 338.814018 64.179567 
L 332.439018 64.179567 
z
" style="fill:#7bb5c4;opacity:0.9;stroke:#f5f5f5;stroke-linejoin:miter;stroke-width:0.5;"/>
   </g>
   <g id="patch_86">
    <path clip-path="url(#p56d0d56cc1)" d="M 368.867589 385.301688 
L 375.242589 385.301688 
L 375.242589 64.111511 
L 368.867589 64.111511 
z
" style="fill:#7bb5c4;opacity:0.9;stroke:#f5f5f5;stroke-linejoin:miter;stroke-width:0.5;"/>
   </g>
   <g id="patch_87">
    <path clip-path="url(#p56d0d56cc1)" d="M 405.296161 385.301688 
L 411.671161 385.301688 
L 411.671161 108.065243 
L 405.296161 108.065243 
z
" style="fill:#7bb5c4;opacity:0.9;stroke:#f5f5f5;stroke-linejoin:miter;stroke-width:0.5;"/>
   </g>
   <g id="patch_88">
    <path clip-path="url(#p56d0d56cc1)" d="M 441.724732 385.301688 
L 448.099732 385.301688 
L 448.099732 90.973234 
L 441.724732 90.973234 
z
" style="fill:#7bb5c4;opacity:0.9;stroke:#f5f5f5;stroke-linejoin:miter;stroke-width:0.5;"/>
   </g>
   <g id="patch_89">
    <path clip-path="url(#p56d0d56cc1)" d="M 478.153304 385.301688 
L 484.528304 385.301688 
L 484.528304 98.92247 
L 478.153304 98.92247 
z
" style="fill:#7bb5c4;opacity:0.9;stroke:#f5f5f5;stroke-linejoin:miter;stroke-width:0.5;"/>
   </g>
   <g id="patch_90">
    <path clip-path="url(#p56d0d56cc1)" d="M 514.581875 385.301688 
L 520.956875 385.301688 
L 520.956875 125.13355 
L 514.581875 125.13355 
z
" style="fill:#7bb5c4;opacity:0.9;stroke:#f5f5f5;stroke-linejoin:miter;stroke-width:0.5;"/>
   </g>
   <g id="patch_91">
    <path clip-path="url(#p56d0d56cc1)" d="M 551.010446 385.301688 
L 557.385446 385.301688 
L 557.385446 82.075783 
L 551.010446 82.075783 
z
" style="fill:#7bb5c4;opacity:0.9;stroke:#f5f5f5;stroke-linejoin:miter;stroke-width:0.5;"/>
   </g>
   <g id="patch_92">
    <path clip-path="url(#p56d0d56cc1)" d="M 587.439018 385.301688 
L 593.814018 385.301688 
L 593.814018 120.799022 
L 587.439018 120.799022 
z
" style="fill:#7bb5c4;opacity:0.9;stroke:#f5f5f5;stroke-linejoin:miter;stroke-width:0.5;"/>
   </g>
   <g id="patch_93">
    <path clip-path="url(#p56d0d56cc1)" d="M 623.867589 385.301688 
L 630.242589 385.301688 
L 630.242589 117.156934 
L 623.867589 117.156934 
z
" style="fill:#7bb5c4;opacity:0.9;stroke:#f5f5f5;stroke-linejoin:miter;stroke-width:0.5;"/>
   </g>
   <g id="patch_94">
    <path clip-path="url(#p56d0d56cc1)" d="M 660.296161 385.301688 
L 666.671161 385.301688 
L 666.671161 130.766961 
L 660.296161 130.766961 
z
" style="fill:#7bb5c4;opacity:0.9;stroke:#f5f5f5;stroke-linejoin:miter;stroke-width:0.5;"/>
   </g>
   <g id="patch_95">
    <path clip-path="url(#p56d0d56cc1)" d="M 696.724732 385.301688 
L 703.099732 385.301688 
L 703.099732 124.440401 
L 696.724732 124.440401 
z
" style="fill:#7bb5c4;opacity:0.9;stroke:#f5f5f5;stroke-linejoin:miter;stroke-width:0.5;"/>
   </g>
   <g id="patch_96">
    <path clip-path="url(#p56d0d56cc1)" d="M 733.153304 385.301688 
L 739.528304 385.301688 
L 739.528304 143.599557 
L 733.153304 143.599557 
z
" style="fill:#7bb5c4;opacity:0.9;stroke:#f5f5f5;stroke-linejoin:miter;stroke-width:0.5;"/>
   </g>
   <g id="patch_97">
    <path clip-path="url(#p56d0d56cc1)" d="M 769.581875 385.301688 
L 775.956875 385.301688 
L 775.956875 56.162762 
L 769.581875 56.162762 
z
" style="fill:#7bb5c4;opacity:0.9;stroke:#f5f5f5;stroke-linejoin:miter;stroke-width:0.5;"/>
   </g>
   <g id="patch_98">
    <path clip-path="url(#p56d0d56cc1)" d="M 806.010446 385.301688 
L 812.385446 385.301688 
L 812.385446 73.211176 
L 806.010446 73.211176 
z
" style="fill:#7bb5c4;opacity:0.9;stroke:#f5f5f5;stroke-linejoin:miter;stroke-width:0.5;"/>
   </g>
   <g id="patch_99">
    <path clip-path="url(#p56d0d56cc1)" d="M 842.439018 385.301688 
L 848.814018 385.301688 
L 848.814018 129.113919 
L 842.439018 129.113919 
z
" style="fill:#7bb5c4;opacity:0.9;stroke:#f5f5f5;stroke-linejoin:miter;stroke-width:0.5;"/>
   </g>
   <g id="patch_100">
    <path clip-path="url(#p56d0d56cc1)" d="M 878.867589 385.301688 
L 885.242589 385.301688 
L 885.242589 112.957847 
L 878.867589 112.957847 
z
" style="fill:#7bb5c4;opacity:0.9;stroke:#f5f5f5;stroke-linejoin:miter;stroke-width:0.5;"/>
   </g>
   <g id="patch_101">
    <path clip-path="url(#p56d0d56cc1)" d="M 915.296161 385.301688 
L 921.671161 385.301688 
L 921.671161 141.303694 
L 915.296161 141.303694 
z
" style="fill:#7bb5c4;opacity:0.9;stroke:#f5f5f5;stroke-linejoin:miter;stroke-width:0.5;"/>
   </g>
   <g id="patch_102">
    <path clip-path="url(#p56d0d56cc1)" d="M 951.724732 385.301688 
L 958.099732 385.301688 
L 958.099732 101.117622 
L 951.724732 101.117622 
z
" style="fill:#7bb5c4;opacity:0.9;stroke:#f5f5f5;stroke-linejoin:miter;stroke-width:0.5;"/>
   </g>
   <g id="matplotlib.axis_1">
    <g id="xtick_1">
     <g id="line2d_1">
      <defs>
       <path d="M 0 0 
L 0 3.5 
" id="m6cc9ddb8f3" style="stroke:#000000;stroke-width:0.8;"/>
      </defs>
      <g>
       <use style="stroke:#000000;stroke-width:0.8;" x="71.064018" xlink:href="#m6cc9ddb8f3" y="385.301688"/>
      </g>
     </g>
     <g id="text_1">
      <!-- La Rioja -->
      <g transform="translate(36.750659 426.561758)rotate(-40)scale(0.12 -0.12)">
       <defs>
        <path d="M 550 0 
L 550 4390 
L 1158 4390 
L 1158 531 
L 3341 531 
L 3341 0 
L 550 0 
z
" id="Archivo-Regular-4c" transform="scale(0.015625)"/>
        <path d="M 1286 -77 
Q 1101 -77 915 -32 
Q 730 13 570 115 
Q 410 218 314 400 
Q 218 582 218 858 
Q 218 1203 384 1427 
Q 550 1651 848 1776 
Q 1146 1901 1555 1949 
Q 1965 1997 2445 1997 
L 2445 2381 
Q 2445 2566 2381 2700 
Q 2317 2835 2153 2908 
Q 1990 2982 1690 2982 
Q 1402 2982 1232 2908 
Q 1062 2835 995 2720 
Q 928 2605 928 2464 
L 928 2368 
L 384 2368 
Q 378 2400 378 2432 
Q 378 2464 378 2509 
Q 378 2816 547 3024 
Q 717 3232 1024 3337 
Q 1331 3443 1728 3443 
Q 2150 3443 2435 3321 
Q 2720 3200 2864 2976 
Q 3008 2752 3008 2438 
L 3008 614 
Q 3008 493 3065 445 
Q 3123 397 3206 397 
L 3456 397 
L 3456 26 
Q 3366 -13 3257 -41 
Q 3149 -70 3008 -70 
Q 2842 -70 2733 -3 
Q 2624 64 2566 182 
Q 2509 301 2490 448 
L 2445 448 
Q 2330 288 2154 169 
Q 1978 51 1760 -13 
Q 1542 -77 1286 -77 
z
M 1427 397 
Q 1632 397 1814 461 
Q 1997 525 2137 643 
Q 2278 762 2361 928 
Q 2445 1094 2445 1293 
L 2445 1574 
Q 1926 1574 1561 1516 
Q 1197 1459 1001 1312 
Q 806 1165 806 896 
Q 806 723 883 614 
Q 960 506 1101 451 
Q 1242 397 1427 397 
z
" id="Archivo-Regular-61" transform="scale(0.015625)"/>
        <path id="Archivo-Regular-20" transform="scale(0.015625)"/>
        <path d="M 550 0 
L 550 4390 
L 2861 4390 
Q 3309 4390 3606 4227 
Q 3904 4064 4051 3773 
Q 4198 3482 4198 3104 
Q 4198 2650 3993 2323 
Q 3789 1997 3430 1856 
L 4352 0 
L 3686 0 
L 2829 1747 
L 1158 1747 
L 1158 0 
L 550 0 
z
M 1158 2266 
L 2803 2266 
Q 3168 2266 3376 2490 
Q 3584 2714 3584 3104 
Q 3584 3347 3494 3513 
Q 3405 3680 3232 3773 
Q 3059 3866 2803 3866 
L 1158 3866 
L 1158 2266 
z
" id="Archivo-Regular-52" transform="scale(0.015625)"/>
        <path d="M 442 4000 
L 442 4627 
L 1005 4627 
L 1005 4000 
L 442 4000 
z
M 442 0 
L 442 3366 
L 1005 3366 
L 1005 0 
L 442 0 
z
" id="Archivo-Regular-69" transform="scale(0.015625)"/>
        <path d="M 1824 -77 
Q 1312 -77 963 112 
Q 614 301 432 691 
Q 250 1082 250 1683 
Q 250 2291 432 2678 
Q 614 3066 963 3254 
Q 1312 3443 1824 3443 
Q 2336 3443 2685 3254 
Q 3034 3066 3213 2678 
Q 3392 2291 3392 1683 
Q 3392 1082 3213 691 
Q 3034 301 2685 112 
Q 2336 -77 1824 -77 
z
M 1824 397 
Q 2150 397 2368 525 
Q 2586 653 2698 925 
Q 2810 1197 2810 1613 
L 2810 1754 
Q 2810 2176 2698 2445 
Q 2586 2714 2368 2842 
Q 2150 2970 1824 2970 
Q 1498 2970 1277 2842 
Q 1056 2714 947 2445 
Q 838 2176 838 1754 
L 838 1613 
Q 838 1197 947 925 
Q 1056 653 1277 525 
Q 1498 397 1824 397 
z
" id="Archivo-Regular-6f" transform="scale(0.015625)"/>
        <path d="M 442 4000 
L 442 4627 
L 1005 4627 
L 1005 4000 
L 442 4000 
z
M 294 -1165 
Q 224 -1165 141 -1155 
Q 58 -1146 -19 -1130 
Q -96 -1114 -147 -1094 
L -147 -704 
L 141 -704 
Q 288 -704 365 -624 
Q 442 -544 442 -397 
L 442 3366 
L 1005 3366 
L 1005 -410 
Q 1005 -602 941 -774 
Q 877 -947 726 -1056 
Q 576 -1165 294 -1165 
z
" id="Archivo-Regular-6a" transform="scale(0.015625)"/>
       </defs>
       <use xlink:href="#Archivo-Regular-4c"/>
       <use x="53.599991" xlink:href="#Archivo-Regular-61"/>
       <use x="108.099976" xlink:href="#Archivo-Regular-20"/>
       <use x="128.999969" xlink:href="#Archivo-Regular-52"/>
       <use x="201.699951" xlink:href="#Archivo-Regular-69"/>
       <use x="224.199936" xlink:href="#Archivo-Regular-6f"/>
       <use x="281.199921" xlink:href="#Archivo-Regular-6a"/>
       <use x="303.499908" xlink:href="#Archivo-Regular-61"/>
      </g>
     </g>
    </g>
    <g id="xtick_2">
     <g id="line2d_2">
      <g>
       <use style="stroke:#000000;stroke-width:0.8;" x="107.492589" xlink:href="#m6cc9ddb8f3" y="385.301688"/>
      </g>
     </g>
     <g id="text_2">
      <!-- Catamarca -->
      <g transform="translate(60.967048 436.867652)rotate(-40)scale(0.12 -0.12)">
       <defs>
        <path d="M 2426 -77 
Q 1754 -77 1286 169 
Q 819 416 572 918 
Q 326 1421 326 2195 
Q 326 3341 883 3904 
Q 1440 4467 2432 4467 
Q 2995 4467 3430 4284 
Q 3866 4102 4112 3734 
Q 4358 3366 4358 2810 
L 3744 2810 
Q 3744 3194 3581 3443 
Q 3418 3693 3123 3817 
Q 2829 3942 2432 3942 
Q 1971 3942 1638 3763 
Q 1306 3584 1133 3209 
Q 960 2835 960 2246 
L 960 2112 
Q 960 1530 1133 1162 
Q 1306 794 1635 621 
Q 1965 448 2432 448 
Q 2842 448 3139 569 
Q 3437 691 3600 944 
Q 3763 1197 3763 1581 
L 4358 1581 
Q 4358 1011 4105 646 
Q 3853 282 3417 102 
Q 2982 -77 2426 -77 
z
" id="Archivo-Regular-43" transform="scale(0.015625)"/>
        <path d="M 1229 -77 
Q 966 -77 819 22 
Q 672 122 608 285 
Q 544 448 544 634 
L 544 2893 
L 109 2893 
L 109 3366 
L 557 3366 
L 659 4307 
L 1107 4307 
L 1107 3366 
L 1741 3366 
L 1741 2893 
L 1107 2893 
L 1107 717 
Q 1107 557 1164 477 
Q 1222 397 1382 397 
L 1741 397 
L 1741 26 
Q 1677 -6 1587 -25 
Q 1498 -45 1405 -61 
Q 1312 -77 1229 -77 
z
" id="Archivo-Regular-74" transform="scale(0.015625)"/>
        <path d="M 442 0 
L 442 3366 
L 896 3366 
L 947 2861 
L 992 2861 
Q 1120 3066 1280 3194 
Q 1440 3322 1632 3382 
Q 1824 3443 2048 3443 
Q 2374 3443 2611 3312 
Q 2848 3181 2963 2861 
L 3002 2861 
Q 3123 3066 3283 3190 
Q 3443 3315 3641 3379 
Q 3840 3443 4064 3443 
Q 4371 3443 4601 3337 
Q 4832 3232 4963 2992 
Q 5094 2752 5094 2349 
L 5094 0 
L 4531 0 
L 4531 2259 
Q 4531 2464 4483 2598 
Q 4435 2733 4345 2806 
Q 4256 2880 4137 2912 
Q 4019 2944 3885 2944 
Q 3661 2944 3472 2829 
Q 3283 2714 3168 2496 
Q 3053 2278 3053 1978 
L 3053 0 
L 2490 0 
L 2490 2259 
Q 2490 2464 2438 2598 
Q 2387 2733 2304 2806 
Q 2221 2880 2102 2912 
Q 1984 2944 1856 2944 
Q 1626 2944 1430 2829 
Q 1235 2714 1120 2496 
Q 1005 2278 1005 1978 
L 1005 0 
L 442 0 
z
" id="Archivo-Regular-6d" transform="scale(0.015625)"/>
        <path d="M 442 0 
L 442 3366 
L 896 3366 
L 947 2810 
L 992 2810 
Q 1043 2970 1132 3114 
Q 1222 3258 1376 3350 
Q 1530 3443 1754 3443 
Q 1850 3443 1930 3427 
Q 2010 3411 2048 3392 
L 2048 2874 
L 1837 2874 
Q 1619 2874 1462 2800 
Q 1306 2726 1203 2592 
Q 1101 2458 1053 2272 
Q 1005 2086 1005 1875 
L 1005 0 
L 442 0 
z
" id="Archivo-Regular-72" transform="scale(0.015625)"/>
        <path d="M 1722 -77 
Q 1235 -77 905 112 
Q 576 301 406 694 
Q 237 1088 237 1683 
Q 237 2278 406 2668 
Q 576 3059 912 3251 
Q 1248 3443 1741 3443 
Q 2086 3443 2339 3353 
Q 2592 3264 2758 3091 
Q 2925 2918 3005 2675 
Q 3085 2432 3085 2118 
L 2515 2118 
Q 2515 2413 2435 2601 
Q 2355 2790 2182 2883 
Q 2010 2976 1728 2976 
Q 1446 2976 1241 2851 
Q 1037 2726 928 2457 
Q 819 2189 819 1747 
L 819 1613 
Q 819 1197 924 921 
Q 1030 646 1235 518 
Q 1440 390 1734 390 
Q 2022 390 2198 492 
Q 2374 595 2454 787 
Q 2534 979 2534 1248 
L 3085 1248 
Q 3085 966 3005 723 
Q 2925 480 2758 301 
Q 2592 122 2336 22 
Q 2080 -77 1722 -77 
z
" id="Archivo-Regular-63" transform="scale(0.015625)"/>
       </defs>
       <use xlink:href="#Archivo-Regular-43"/>
       <use x="72.799988" xlink:href="#Archivo-Regular-61"/>
       <use x="127.299973" xlink:href="#Archivo-Regular-74"/>
       <use x="156.999969" xlink:href="#Archivo-Regular-61"/>
       <use x="211.499954" xlink:href="#Archivo-Regular-6d"/>
       <use x="297.499939" xlink:href="#Archivo-Regular-61"/>
       <use x="351.999924" xlink:href="#Archivo-Regular-72"/>
       <use x="385.199921" xlink:href="#Archivo-Regular-63"/>
       <use x="437.099915" xlink:href="#Archivo-Regular-61"/>
      </g>
     </g>
    </g>
    <g id="xtick_3">
     <g id="line2d_3">
      <g>
       <use style="stroke:#000000;stroke-width:0.8;" x="143.921161" xlink:href="#m6cc9ddb8f3" y="385.301688"/>
      </g>
     </g>
     <g id="text_3">
      <!-- Jujuy -->
      <g transform="translate(120.36163 417.538225)rotate(-40)scale(0.12 -0.12)">
       <defs>
        <path d="M 1626 -77 
Q 1184 -77 867 67 
Q 550 211 387 489 
Q 224 768 224 1190 
L 224 1382 
L 832 1382 
L 832 1158 
Q 832 813 1037 630 
Q 1242 448 1626 448 
Q 2016 448 2224 697 
Q 2432 947 2432 1440 
L 2432 4390 
L 3040 4390 
L 3040 1472 
Q 3040 954 2873 608 
Q 2707 262 2390 92 
Q 2074 -77 1626 -77 
z
" id="Archivo-Regular-4a" transform="scale(0.015625)"/>
        <path d="M 1485 -77 
Q 998 -77 704 172 
Q 410 422 410 1043 
L 410 3366 
L 973 3366 
L 973 1120 
Q 973 909 1024 774 
Q 1075 640 1171 563 
Q 1267 486 1398 454 
Q 1530 422 1683 422 
Q 1926 422 2131 537 
Q 2336 653 2467 873 
Q 2598 1094 2598 1389 
L 2598 3366 
L 3162 3366 
L 3162 0 
L 2707 0 
L 2656 506 
L 2611 506 
Q 2477 301 2307 173 
Q 2138 45 1930 -16 
Q 1722 -77 1485 -77 
z
" id="Archivo-Regular-75" transform="scale(0.015625)"/>
        <path d="M 730 -1165 
Q 576 -1165 464 -1142 
Q 352 -1120 314 -1114 
L 314 -704 
L 595 -704 
Q 749 -704 896 -640 
Q 1043 -576 1171 -422 
Q 1299 -269 1389 0 
L 83 3366 
L 672 3366 
L 1344 1632 
Q 1389 1510 1449 1334 
Q 1510 1158 1571 972 
Q 1632 787 1670 646 
L 1709 646 
Q 1734 749 1772 877 
Q 1811 1005 1852 1142 
Q 1894 1280 1936 1405 
Q 1978 1530 2003 1626 
L 2573 3366 
L 3142 3366 
L 2003 96 
Q 1907 -179 1792 -412 
Q 1677 -646 1536 -812 
Q 1395 -979 1196 -1072 
Q 998 -1165 730 -1165 
z
" id="Archivo-Regular-79" transform="scale(0.015625)"/>
       </defs>
       <use xlink:href="#Archivo-Regular-4a"/>
       <use x="55.899994" xlink:href="#Archivo-Regular-75"/>
       <use x="112.099991" xlink:href="#Archivo-Regular-6a"/>
       <use x="134.399979" xlink:href="#Archivo-Regular-75"/>
       <use x="190.599976" xlink:href="#Archivo-Regular-79"/>
      </g>
     </g>
    </g>
    <g id="xtick_4">
     <g id="line2d_4">
      <g>
       <use style="stroke:#000000;stroke-width:0.8;" x="180.349732" xlink:href="#m6cc9ddb8f3" y="385.301688"/>
      </g>
     </g>
     <g id="text_4">
      <!-- Santiago del Estero -->
      <g transform="translate(99.282287 465.793094)rotate(-40)scale(0.12 -0.12)">
       <defs>
        <path d="M 2163 -77 
Q 1805 -77 1475 -6 
Q 1146 64 890 221 
Q 634 378 483 627 
Q 333 877 333 1242 
Q 333 1274 336 1306 
Q 339 1338 339 1370 
L 954 1370 
Q 954 1350 950 1308 
Q 947 1267 947 1235 
Q 947 979 1100 800 
Q 1254 621 1526 534 
Q 1798 448 2144 448 
Q 2298 448 2467 467 
Q 2637 486 2793 534 
Q 2950 582 3075 662 
Q 3200 742 3273 860 
Q 3347 979 3347 1152 
Q 3347 1370 3222 1514 
Q 3098 1658 2893 1750 
Q 2688 1843 2429 1916 
Q 2170 1990 1894 2060 
Q 1619 2131 1360 2224 
Q 1101 2317 896 2454 
Q 691 2592 566 2797 
Q 442 3002 442 3296 
Q 442 3571 554 3788 
Q 666 4006 886 4156 
Q 1107 4307 1433 4387 
Q 1760 4467 2182 4467 
Q 2528 4467 2825 4393 
Q 3123 4320 3350 4169 
Q 3578 4019 3706 3788 
Q 3834 3558 3834 3232 
L 3834 3155 
L 3232 3155 
L 3232 3251 
Q 3232 3469 3097 3622 
Q 2963 3776 2729 3859 
Q 2496 3942 2202 3942 
Q 1818 3942 1562 3868 
Q 1306 3795 1181 3657 
Q 1056 3520 1056 3347 
Q 1056 3149 1181 3014 
Q 1306 2880 1510 2793 
Q 1715 2707 1977 2636 
Q 2240 2566 2512 2492 
Q 2784 2419 3043 2326 
Q 3302 2234 3510 2096 
Q 3718 1958 3840 1750 
Q 3962 1542 3962 1242 
Q 3962 774 3731 483 
Q 3501 192 3097 57 
Q 2694 -77 2163 -77 
z
" id="Archivo-Regular-53" transform="scale(0.015625)"/>
        <path d="M 442 0 
L 442 3366 
L 896 3366 
L 947 2861 
L 992 2861 
Q 1126 3066 1296 3194 
Q 1466 3322 1674 3382 
Q 1882 3443 2118 3443 
Q 2438 3443 2678 3334 
Q 2918 3226 3056 2982 
Q 3194 2739 3194 2323 
L 3194 0 
L 2630 0 
L 2630 2246 
Q 2630 2458 2576 2592 
Q 2522 2726 2429 2803 
Q 2336 2880 2205 2912 
Q 2074 2944 1914 2944 
Q 1677 2944 1465 2829 
Q 1254 2714 1129 2496 
Q 1005 2278 1005 1978 
L 1005 0 
L 442 0 
z
" id="Archivo-Regular-6e" transform="scale(0.015625)"/>
        <path d="M 1011 -1165 
Q 768 -1165 563 -1065 
Q 358 -966 236 -780 
Q 115 -595 115 -339 
Q 115 -58 272 128 
Q 429 314 646 403 
Q 486 480 396 617 
Q 307 755 307 922 
Q 307 1146 470 1299 
Q 634 1453 870 1504 
Q 653 1645 528 1865 
Q 403 2086 403 2355 
Q 403 2675 553 2918 
Q 704 3162 1014 3302 
Q 1325 3443 1773 3443 
Q 1978 3443 2157 3414 
Q 2336 3386 2477 3322 
Q 2701 3424 2813 3584 
Q 2925 3744 2950 3910 
L 3507 3910 
Q 3507 3718 3420 3548 
Q 3334 3379 3187 3267 
Q 3040 3155 2829 3117 
Q 2989 2963 3069 2771 
Q 3149 2579 3149 2355 
Q 3149 2035 2998 1788 
Q 2848 1542 2547 1401 
Q 2246 1261 1792 1261 
L 1267 1261 
Q 1094 1261 985 1193 
Q 877 1126 877 979 
Q 877 851 985 771 
Q 1094 691 1267 691 
L 2637 691 
Q 3008 691 3245 444 
Q 3482 198 3482 -186 
Q 3482 -461 3344 -681 
Q 3206 -902 2960 -1033 
Q 2714 -1165 2387 -1165 
L 1011 -1165 
z
M 1171 -736 
L 2381 -736 
Q 2528 -736 2649 -675 
Q 2771 -614 2841 -505 
Q 2912 -397 2912 -269 
Q 2912 -51 2784 77 
Q 2656 205 2464 205 
L 1171 205 
Q 966 205 825 67 
Q 685 -70 685 -269 
Q 685 -480 825 -608 
Q 966 -736 1171 -736 
z
M 1779 1683 
Q 2189 1683 2387 1862 
Q 2586 2042 2586 2355 
Q 2586 2662 2387 2841 
Q 2189 3021 1779 3021 
Q 1370 3021 1168 2841 
Q 966 2662 966 2355 
Q 966 2157 1056 2003 
Q 1146 1850 1325 1766 
Q 1504 1683 1779 1683 
z
" id="Archivo-Regular-67" transform="scale(0.015625)"/>
        <path d="M 1587 -77 
Q 1171 -77 873 108 
Q 576 294 413 688 
Q 250 1082 250 1709 
Q 250 2304 416 2688 
Q 582 3072 876 3257 
Q 1171 3443 1562 3443 
Q 1786 3443 1978 3392 
Q 2170 3341 2320 3232 
Q 2470 3123 2586 2944 
L 2624 2944 
L 2624 4627 
L 3187 4627 
L 3187 0 
L 2733 0 
L 2682 480 
L 2637 480 
Q 2464 198 2189 60 
Q 1914 -77 1587 -77 
z
M 1722 416 
Q 2042 416 2240 557 
Q 2438 698 2531 966 
Q 2624 1235 2624 1632 
L 2624 1734 
Q 2624 2080 2553 2317 
Q 2483 2554 2361 2694 
Q 2240 2835 2080 2892 
Q 1920 2950 1741 2950 
Q 1427 2950 1228 2825 
Q 1030 2701 934 2435 
Q 838 2170 838 1747 
L 838 1613 
Q 838 1178 940 912 
Q 1043 646 1238 531 
Q 1434 416 1722 416 
z
" id="Archivo-Regular-64" transform="scale(0.015625)"/>
        <path d="M 1786 -77 
Q 1286 -77 944 112 
Q 602 301 426 691 
Q 250 1082 250 1683 
Q 250 2291 426 2678 
Q 602 3066 947 3254 
Q 1293 3443 1811 3443 
Q 2285 3443 2605 3260 
Q 2925 3078 3088 2716 
Q 3251 2355 3251 1811 
L 3251 1542 
L 832 1542 
Q 845 1139 950 880 
Q 1056 621 1267 502 
Q 1478 384 1798 384 
Q 2016 384 2179 438 
Q 2342 493 2454 595 
Q 2566 698 2624 838 
Q 2682 979 2688 1146 
L 3238 1146 
Q 3232 877 3136 649 
Q 3040 422 2854 262 
Q 2669 102 2400 12 
Q 2131 -77 1786 -77 
z
M 845 1965 
L 2669 1965 
Q 2669 2246 2605 2438 
Q 2541 2630 2422 2752 
Q 2304 2874 2147 2928 
Q 1990 2982 1792 2982 
Q 1498 2982 1293 2873 
Q 1088 2765 979 2541 
Q 870 2317 845 1965 
z
" id="Archivo-Regular-65" transform="scale(0.015625)"/>
        <path d="M 442 0 
L 442 4627 
L 1005 4627 
L 1005 0 
L 442 0 
z
" id="Archivo-Regular-6c" transform="scale(0.015625)"/>
        <path d="M 550 0 
L 550 4390 
L 3930 4390 
L 3930 3866 
L 1158 3866 
L 1158 2509 
L 3648 2509 
L 3648 1984 
L 1158 1984 
L 1158 525 
L 3968 525 
L 3968 0 
L 550 0 
z
" id="Archivo-Regular-45" transform="scale(0.015625)"/>
        <path d="M 1619 -77 
Q 1274 -77 1011 -6 
Q 749 64 576 198 
Q 403 333 313 518 
Q 224 704 224 941 
Q 224 973 224 1001 
Q 224 1030 230 1050 
L 787 1050 
Q 781 1024 781 1005 
Q 781 986 781 966 
Q 787 742 899 614 
Q 1011 486 1209 435 
Q 1408 384 1651 384 
Q 1862 384 2041 438 
Q 2221 493 2326 605 
Q 2432 717 2432 890 
Q 2432 1101 2294 1213 
Q 2157 1325 1933 1389 
Q 1709 1453 1466 1523 
Q 1261 1581 1056 1651 
Q 851 1722 688 1824 
Q 525 1926 425 2089 
Q 326 2253 326 2502 
Q 326 2726 419 2899 
Q 512 3072 685 3193 
Q 858 3315 1104 3376 
Q 1350 3437 1651 3437 
Q 1971 3437 2211 3366 
Q 2451 3296 2611 3168 
Q 2771 3040 2848 2877 
Q 2925 2714 2925 2528 
Q 2925 2490 2925 2454 
Q 2925 2419 2918 2400 
L 2368 2400 
L 2368 2470 
Q 2368 2598 2301 2716 
Q 2234 2835 2070 2908 
Q 1907 2982 1619 2982 
Q 1434 2982 1299 2953 
Q 1165 2925 1075 2864 
Q 986 2803 941 2723 
Q 896 2643 896 2541 
Q 896 2374 1005 2284 
Q 1114 2195 1296 2137 
Q 1478 2080 1690 2010 
Q 1914 1946 2147 1878 
Q 2381 1811 2576 1708 
Q 2771 1606 2889 1430 
Q 3008 1254 3008 966 
Q 3008 698 2905 499 
Q 2803 301 2614 173 
Q 2426 45 2173 -16 
Q 1920 -77 1619 -77 
z
" id="Archivo-Regular-73" transform="scale(0.015625)"/>
       </defs>
       <use xlink:href="#Archivo-Regular-53"/>
       <use x="67.299988" xlink:href="#Archivo-Regular-61"/>
       <use x="121.799973" xlink:href="#Archivo-Regular-6e"/>
       <use x="178.09996" xlink:href="#Archivo-Regular-74"/>
       <use x="207.799957" xlink:href="#Archivo-Regular-69"/>
       <use x="230.299942" xlink:href="#Archivo-Regular-61"/>
       <use x="284.799927" xlink:href="#Archivo-Regular-67"/>
       <use x="340.399918" xlink:href="#Archivo-Regular-6f"/>
       <use x="397.399902" xlink:href="#Archivo-Regular-20"/>
       <use x="418.299896" xlink:href="#Archivo-Regular-64"/>
       <use x="474.999893" xlink:href="#Archivo-Regular-65"/>
       <use x="529.799881" xlink:href="#Archivo-Regular-6c"/>
       <use x="552.299866" xlink:href="#Archivo-Regular-20"/>
       <use x="573.19986" xlink:href="#Archivo-Regular-45"/>
       <use x="640.899841" xlink:href="#Archivo-Regular-73"/>
       <use x="691.899826" xlink:href="#Archivo-Regular-74"/>
       <use x="721.599823" xlink:href="#Archivo-Regular-65"/>
       <use x="776.399811" xlink:href="#Archivo-Regular-72"/>
       <use x="809.599808" xlink:href="#Archivo-Regular-6f"/>
      </g>
     </g>
    </g>
    <g id="xtick_5">
     <g id="line2d_5">
      <g>
       <use style="stroke:#000000;stroke-width:0.8;" x="216.778304" xlink:href="#m6cc9ddb8f3" y="385.301688"/>
      </g>
     </g>
     <g id="text_5">
      <!-- Tucumán -->
      <g transform="translate(176.678917 431.475467)rotate(-40)scale(0.12 -0.12)">
       <defs>
        <path d="M 1626 0 
L 1626 3859 
L 122 3859 
L 122 4390 
L 3750 4390 
L 3750 3859 
L 2234 3859 
L 2234 0 
L 1626 0 
z
" id="Archivo-Regular-54" transform="scale(0.015625)"/>
        <path d="M 1286 -77 
Q 1101 -77 915 -32 
Q 730 13 570 115 
Q 410 218 314 400 
Q 218 582 218 858 
Q 218 1203 384 1427 
Q 550 1651 848 1776 
Q 1146 1901 1555 1949 
Q 1965 1997 2445 1997 
L 2445 2381 
Q 2445 2566 2381 2700 
Q 2317 2835 2153 2908 
Q 1990 2982 1690 2982 
Q 1402 2982 1232 2908 
Q 1062 2835 995 2720 
Q 928 2605 928 2464 
L 928 2368 
L 384 2368 
Q 378 2400 378 2432 
Q 378 2464 378 2509 
Q 378 2816 547 3024 
Q 717 3232 1024 3337 
Q 1331 3443 1728 3443 
Q 2150 3443 2435 3321 
Q 2720 3200 2864 2976 
Q 3008 2752 3008 2438 
L 3008 614 
Q 3008 493 3065 445 
Q 3123 397 3206 397 
L 3456 397 
L 3456 26 
Q 3366 -13 3257 -41 
Q 3149 -70 3008 -70 
Q 2842 -70 2733 -3 
Q 2624 64 2566 182 
Q 2509 301 2490 448 
L 2445 448 
Q 2330 288 2154 169 
Q 1978 51 1760 -13 
Q 1542 -77 1286 -77 
z
M 1427 397 
Q 1632 397 1814 461 
Q 1997 525 2137 643 
Q 2278 762 2361 928 
Q 2445 1094 2445 1293 
L 2445 1574 
Q 1926 1574 1561 1516 
Q 1197 1459 1001 1312 
Q 806 1165 806 896 
Q 806 723 883 614 
Q 960 506 1101 451 
Q 1242 397 1427 397 
z
M 1370 3782 
L 1926 4627 
L 2560 4627 
L 2566 4608 
L 1862 3782 
L 1370 3782 
z
" id="Archivo-Regular-e1" transform="scale(0.015625)"/>
       </defs>
       <use xlink:href="#Archivo-Regular-54"/>
       <use x="60.599991" xlink:href="#Archivo-Regular-75"/>
       <use x="116.799988" xlink:href="#Archivo-Regular-63"/>
       <use x="168.699982" xlink:href="#Archivo-Regular-75"/>
       <use x="224.899979" xlink:href="#Archivo-Regular-6d"/>
       <use x="310.899963" xlink:href="#Archivo-Regular-e1"/>
       <use x="365.399948" xlink:href="#Archivo-Regular-6e"/>
      </g>
     </g>
    </g>
    <g id="xtick_6">
     <g id="line2d_6">
      <g>
       <use style="stroke:#000000;stroke-width:0.8;" x="253.206875" xlink:href="#m6cc9ddb8f3" y="385.301688"/>
      </g>
     </g>
     <g id="text_6">
      <!-- Salta -->
      <g transform="translate(230.86775 416.572838)rotate(-40)scale(0.12 -0.12)">
       <use xlink:href="#Archivo-Regular-53"/>
       <use x="67.299988" xlink:href="#Archivo-Regular-61"/>
       <use x="121.799973" xlink:href="#Archivo-Regular-6c"/>
       <use x="144.299957" xlink:href="#Archivo-Regular-74"/>
       <use x="173.999954" xlink:href="#Archivo-Regular-61"/>
      </g>
     </g>
    </g>
    <g id="xtick_7">
     <g id="line2d_7">
      <g>
       <use style="stroke:#000000;stroke-width:0.8;" x="289.635446" xlink:href="#m6cc9ddb8f3" y="385.301688"/>
      </g>
     </g>
     <g id="text_7">
      <!-- Corrientes -->
      <g transform="translate(245.52869 434.83805)rotate(-40)scale(0.12 -0.12)">
       <use xlink:href="#Archivo-Regular-43"/>
       <use x="72.799988" xlink:href="#Archivo-Regular-6f"/>
       <use x="129.799973" xlink:href="#Archivo-Regular-72"/>
       <use x="162.999969" xlink:href="#Archivo-Regular-72"/>
       <use x="196.199966" xlink:href="#Archivo-Regular-69"/>
       <use x="218.699951" xlink:href="#Archivo-Regular-65"/>
       <use x="273.499939" xlink:href="#Archivo-Regular-6e"/>
       <use x="329.799927" xlink:href="#Archivo-Regular-74"/>
       <use x="359.499924" xlink:href="#Archivo-Regular-65"/>
       <use x="414.299911" xlink:href="#Archivo-Regular-73"/>
      </g>
     </g>
    </g>
    <g id="xtick_8">
     <g id="line2d_8">
      <g>
       <use style="stroke:#000000;stroke-width:0.8;" x="326.064018" xlink:href="#m6cc9ddb8f3" y="385.301688"/>
      </g>
     </g>
     <g id="text_8">
      <!-- Chaco -->
      <g transform="translate(297.841672 421.509447)rotate(-40)scale(0.12 -0.12)">
       <defs>
        <path d="M 442 0 
L 442 4627 
L 1005 4627 
L 1005 2944 
L 1050 2944 
Q 1178 3117 1338 3225 
Q 1498 3334 1693 3388 
Q 1888 3443 2118 3443 
Q 2438 3443 2678 3334 
Q 2918 3226 3056 2982 
Q 3194 2739 3194 2323 
L 3194 0 
L 2630 0 
L 2630 2246 
Q 2630 2458 2576 2592 
Q 2522 2726 2429 2803 
Q 2336 2880 2205 2912 
Q 2074 2944 1914 2944 
Q 1677 2944 1465 2832 
Q 1254 2720 1129 2505 
Q 1005 2291 1005 1978 
L 1005 0 
L 442 0 
z
" id="Archivo-Regular-68" transform="scale(0.015625)"/>
       </defs>
       <use xlink:href="#Archivo-Regular-43"/>
       <use x="72.799988" xlink:href="#Archivo-Regular-68"/>
       <use x="129.099976" xlink:href="#Archivo-Regular-61"/>
       <use x="183.59996" xlink:href="#Archivo-Regular-63"/>
       <use x="235.499954" xlink:href="#Archivo-Regular-6f"/>
      </g>
     </g>
    </g>
    <g id="xtick_9">
     <g id="line2d_9">
      <g>
       <use style="stroke:#000000;stroke-width:0.8;" x="362.492589" xlink:href="#m6cc9ddb8f3" y="385.301688"/>
      </g>
     </g>
     <g id="text_9">
      <!-- Formosa -->
      <g transform="translate(324.396888 429.794176)rotate(-40)scale(0.12 -0.12)">
       <defs>
        <path d="M 550 0 
L 550 4390 
L 3661 4390 
L 3661 3866 
L 1158 3866 
L 1158 2458 
L 3437 2458 
L 3437 1939 
L 1158 1939 
L 1158 0 
L 550 0 
z
" id="Archivo-Regular-46" transform="scale(0.015625)"/>
       </defs>
       <use xlink:href="#Archivo-Regular-46"/>
       <use x="61.199997" xlink:href="#Archivo-Regular-6f"/>
       <use x="118.199982" xlink:href="#Archivo-Regular-72"/>
       <use x="151.399979" xlink:href="#Archivo-Regular-6d"/>
       <use x="237.399963" xlink:href="#Archivo-Regular-6f"/>
       <use x="294.399948" xlink:href="#Archivo-Regular-73"/>
       <use x="345.399933" xlink:href="#Archivo-Regular-61"/>
      </g>
     </g>
    </g>
    <g id="xtick_10">
     <g id="line2d_10">
      <g>
       <use style="stroke:#000000;stroke-width:0.8;" x="398.921161" xlink:href="#m6cc9ddb8f3" y="385.301688"/>
      </g>
     </g>
     <g id="text_10">
      <!-- Misiones -->
      <g transform="translate(360.835514 429.785739)rotate(-40)scale(0.12 -0.12)">
       <defs>
        <path d="M 550 0 
L 550 4390 
L 1491 4390 
L 2490 1542 
Q 2528 1427 2569 1289 
Q 2611 1152 2646 1030 
Q 2682 909 2701 819 
L 2746 819 
Q 2765 915 2797 1040 
Q 2829 1165 2867 1299 
Q 2906 1434 2938 1542 
L 3936 4390 
L 4870 4390 
L 4870 0 
L 4262 0 
L 4262 2573 
Q 4262 2771 4268 3004 
Q 4275 3238 4281 3433 
Q 4288 3629 4288 3712 
L 4237 3712 
Q 4218 3629 4173 3478 
Q 4128 3328 4080 3165 
Q 4032 3002 3994 2874 
L 2963 0 
L 2438 0 
L 1408 2874 
Q 1370 2982 1328 3126 
Q 1286 3270 1244 3424 
Q 1203 3578 1165 3712 
L 1120 3712 
Q 1126 3571 1129 3363 
Q 1133 3155 1136 2947 
Q 1139 2739 1139 2573 
L 1139 0 
L 550 0 
z
" id="Archivo-Regular-4d" transform="scale(0.015625)"/>
       </defs>
       <use xlink:href="#Archivo-Regular-4d"/>
       <use x="84.699982" xlink:href="#Archivo-Regular-69"/>
       <use x="107.199966" xlink:href="#Archivo-Regular-73"/>
       <use x="158.199951" xlink:href="#Archivo-Regular-69"/>
       <use x="180.699936" xlink:href="#Archivo-Regular-6f"/>
       <use x="237.699921" xlink:href="#Archivo-Regular-6e"/>
       <use x="293.999908" xlink:href="#Archivo-Regular-65"/>
       <use x="348.799896" xlink:href="#Archivo-Regular-73"/>
      </g>
     </g>
    </g>
    <g id="xtick_11">
     <g id="line2d_11">
      <g>
       <use style="stroke:#000000;stroke-width:0.8;" x="435.349732" xlink:href="#m6cc9ddb8f3" y="385.301688"/>
      </g>
     </g>
     <g id="text_11">
      <!-- San Luis -->
      <g transform="translate(398.872779 428.435885)rotate(-40)scale(0.12 -0.12)">
       <use xlink:href="#Archivo-Regular-53"/>
       <use x="67.299988" xlink:href="#Archivo-Regular-61"/>
       <use x="121.799973" xlink:href="#Archivo-Regular-6e"/>
       <use x="178.09996" xlink:href="#Archivo-Regular-20"/>
       <use x="198.999954" xlink:href="#Archivo-Regular-4c"/>
       <use x="252.599945" xlink:href="#Archivo-Regular-75"/>
       <use x="308.799942" xlink:href="#Archivo-Regular-69"/>
       <use x="331.299927" xlink:href="#Archivo-Regular-73"/>
      </g>
     </g>
    </g>
    <g id="xtick_12">
     <g id="line2d_12">
      <g>
       <use style="stroke:#000000;stroke-width:0.8;" x="471.778304" xlink:href="#m6cc9ddb8f3" y="385.301688"/>
      </g>
     </g>
     <g id="text_12">
      <!-- San Juan -->
      <g transform="translate(431.660245 431.491135)rotate(-40)scale(0.12 -0.12)">
       <use xlink:href="#Archivo-Regular-53"/>
       <use x="67.299988" xlink:href="#Archivo-Regular-61"/>
       <use x="121.799973" xlink:href="#Archivo-Regular-6e"/>
       <use x="178.09996" xlink:href="#Archivo-Regular-20"/>
       <use x="198.999954" xlink:href="#Archivo-Regular-4a"/>
       <use x="254.899948" xlink:href="#Archivo-Regular-75"/>
       <use x="311.099945" xlink:href="#Archivo-Regular-61"/>
       <use x="365.59993" xlink:href="#Archivo-Regular-6e"/>
      </g>
     </g>
    </g>
    <g id="xtick_13">
     <g id="line2d_13">
      <g>
       <use style="stroke:#000000;stroke-width:0.8;" x="508.206875" xlink:href="#m6cc9ddb8f3" y="385.301688"/>
      </g>
     </g>
     <g id="text_13">
      <!-- Mendoza -->
      <g transform="translate(468.834273 430.865622)rotate(-40)scale(0.12 -0.12)">
       <defs>
        <path d="M 198 0 
L 198 301 
L 2074 2893 
L 333 2893 
L 333 3366 
L 2880 3366 
L 2880 3072 
L 998 474 
L 2982 474 
L 2982 0 
L 198 0 
z
" id="Archivo-Regular-7a" transform="scale(0.015625)"/>
       </defs>
       <use xlink:href="#Archivo-Regular-4d"/>
       <use x="84.699982" xlink:href="#Archivo-Regular-65"/>
       <use x="139.499969" xlink:href="#Archivo-Regular-6e"/>
       <use x="195.799957" xlink:href="#Archivo-Regular-64"/>
       <use x="252.499954" xlink:href="#Archivo-Regular-6f"/>
       <use x="309.499939" xlink:href="#Archivo-Regular-7a"/>
       <use x="359.299927" xlink:href="#Archivo-Regular-61"/>
      </g>
     </g>
    </g>
    <g id="xtick_14">
     <g id="line2d_14">
      <g>
       <use style="stroke:#000000;stroke-width:0.8;" x="544.635446" xlink:href="#m6cc9ddb8f3" y="385.301688"/>
      </g>
     </g>
     <g id="text_14">
      <!-- CABA -->
      <g transform="translate(517.654092 420.468131)rotate(-40)scale(0.12 -0.12)">
       <defs>
        <path d="M 45 0 
L 1779 4390 
L 2579 4390 
L 4320 0 
L 3661 0 
L 3232 1088 
L 1094 1088 
L 672 0 
L 45 0 
z
M 1293 1606 
L 3027 1606 
L 2496 2982 
Q 2477 3040 2438 3142 
Q 2400 3245 2355 3369 
Q 2310 3494 2265 3625 
Q 2221 3757 2182 3866 
L 2144 3866 
Q 2099 3738 2041 3571 
Q 1984 3405 1926 3248 
Q 1869 3091 1830 2982 
L 1293 1606 
z
" id="Archivo-Regular-41" transform="scale(0.015625)"/>
        <path d="M 550 0 
L 550 4390 
L 2816 4390 
Q 3194 4390 3469 4259 
Q 3744 4128 3894 3891 
Q 4045 3654 4045 3328 
Q 4045 3078 3955 2867 
Q 3866 2656 3706 2515 
Q 3546 2374 3341 2304 
L 3341 2278 
Q 3571 2227 3756 2092 
Q 3942 1958 4054 1737 
Q 4166 1517 4166 1197 
Q 4166 768 3987 505 
Q 3808 243 3507 121 
Q 3206 0 2816 0 
L 550 0 
z
M 1158 525 
L 2810 525 
Q 3136 525 3341 694 
Q 3546 864 3546 1261 
Q 3546 1504 3456 1667 
Q 3366 1830 3193 1910 
Q 3021 1990 2758 1990 
L 1158 1990 
L 1158 525 
z
M 1158 2509 
L 2701 2509 
Q 2918 2509 3078 2595 
Q 3238 2682 3331 2838 
Q 3424 2995 3424 3194 
Q 3424 3539 3238 3702 
Q 3053 3866 2746 3866 
L 1158 3866 
L 1158 2509 
z
" id="Archivo-Regular-42" transform="scale(0.015625)"/>
       </defs>
       <use xlink:href="#Archivo-Regular-43"/>
       <use x="72.799988" xlink:href="#Archivo-Regular-41"/>
       <use x="140.999969" xlink:href="#Archivo-Regular-42"/>
       <use x="210.799957" xlink:href="#Archivo-Regular-41"/>
      </g>
     </g>
    </g>
    <g id="xtick_15">
     <g id="line2d_15">
      <g>
       <use style="stroke:#000000;stroke-width:0.8;" x="581.064018" xlink:href="#m6cc9ddb8f3" y="385.301688"/>
      </g>
     </g>
     <g id="text_15">
      <!-- Buenos Aires -->
      <g transform="translate(524.969624 444.896872)rotate(-40)scale(0.12 -0.12)">
       <use xlink:href="#Archivo-Regular-42"/>
       <use x="69.799988" xlink:href="#Archivo-Regular-75"/>
       <use x="125.999985" xlink:href="#Archivo-Regular-65"/>
       <use x="180.799973" xlink:href="#Archivo-Regular-6e"/>
       <use x="237.09996" xlink:href="#Archivo-Regular-6f"/>
       <use x="294.099945" xlink:href="#Archivo-Regular-73"/>
       <use x="345.09993" xlink:href="#Archivo-Regular-20"/>
       <use x="365.999924" xlink:href="#Archivo-Regular-41"/>
       <use x="434.199905" xlink:href="#Archivo-Regular-69"/>
       <use x="456.69989" xlink:href="#Archivo-Regular-72"/>
       <use x="489.899887" xlink:href="#Archivo-Regular-65"/>
       <use x="544.699875" xlink:href="#Archivo-Regular-73"/>
      </g>
     </g>
    </g>
    <g id="xtick_16">
     <g id="line2d_16">
      <g>
       <use style="stroke:#000000;stroke-width:0.8;" x="617.492589" xlink:href="#m6cc9ddb8f3" y="385.301688"/>
      </g>
     </g>
     <g id="text_16">
      <!-- Santa Fe -->
      <g transform="translate(579.461523 429.739941)rotate(-40)scale(0.12 -0.12)">
       <use xlink:href="#Archivo-Regular-53"/>
       <use x="67.299988" xlink:href="#Archivo-Regular-61"/>
       <use x="121.799973" xlink:href="#Archivo-Regular-6e"/>
       <use x="178.09996" xlink:href="#Archivo-Regular-74"/>
       <use x="207.799957" xlink:href="#Archivo-Regular-61"/>
       <use x="262.299942" xlink:href="#Archivo-Regular-20"/>
       <use x="283.199936" xlink:href="#Archivo-Regular-46"/>
       <use x="344.399933" xlink:href="#Archivo-Regular-65"/>
      </g>
     </g>
    </g>
    <g id="xtick_17">
     <g id="line2d_17">
      <g>
       <use style="stroke:#000000;stroke-width:0.8;" x="653.921161" xlink:href="#m6cc9ddb8f3" y="385.301688"/>
      </g>
     </g>
     <g id="text_17">
      <!-- Córdoba -->
      <g transform="translate(616.928563 428.868562)rotate(-40)scale(0.12 -0.12)">
       <defs>
        <path d="M 1824 -77 
Q 1312 -77 963 112 
Q 614 301 432 691 
Q 250 1082 250 1683 
Q 250 2291 432 2678 
Q 614 3066 963 3254 
Q 1312 3443 1824 3443 
Q 2336 3443 2685 3254 
Q 3034 3066 3213 2678 
Q 3392 2291 3392 1683 
Q 3392 1082 3213 691 
Q 3034 301 2685 112 
Q 2336 -77 1824 -77 
z
M 1824 397 
Q 2150 397 2368 525 
Q 2586 653 2698 925 
Q 2810 1197 2810 1613 
L 2810 1754 
Q 2810 2176 2698 2445 
Q 2586 2714 2368 2842 
Q 2150 2970 1824 2970 
Q 1498 2970 1277 2842 
Q 1056 2714 947 2445 
Q 838 2176 838 1754 
L 838 1613 
Q 838 1197 947 925 
Q 1056 653 1277 525 
Q 1498 397 1824 397 
z
M 1491 3782 
L 2042 4627 
L 2682 4627 
L 2688 4608 
L 1978 3782 
L 1491 3782 
z
" id="Archivo-Regular-f3" transform="scale(0.015625)"/>
        <path d="M 2042 -77 
Q 1702 -77 1433 60 
Q 1165 198 992 480 
L 947 480 
L 890 0 
L 442 0 
L 442 4627 
L 1005 4627 
L 1005 2944 
L 1043 2944 
Q 1158 3123 1312 3232 
Q 1466 3341 1658 3392 
Q 1850 3443 2067 3443 
Q 2458 3443 2752 3257 
Q 3046 3072 3209 2688 
Q 3373 2304 3373 1709 
Q 3373 1082 3213 688 
Q 3053 294 2758 108 
Q 2464 -77 2042 -77 
z
M 1907 416 
Q 2195 416 2390 531 
Q 2586 646 2688 912 
Q 2790 1178 2790 1613 
L 2790 1747 
Q 2790 2170 2694 2435 
Q 2598 2701 2400 2825 
Q 2202 2950 1888 2950 
Q 1709 2950 1549 2892 
Q 1389 2835 1264 2694 
Q 1139 2554 1072 2317 
Q 1005 2080 1005 1734 
L 1005 1632 
Q 1005 1235 1097 966 
Q 1190 698 1392 557 
Q 1594 416 1907 416 
z
" id="Archivo-Regular-62" transform="scale(0.015625)"/>
       </defs>
       <use xlink:href="#Archivo-Regular-43"/>
       <use x="72.799988" xlink:href="#Archivo-Regular-f3"/>
       <use x="129.799973" xlink:href="#Archivo-Regular-72"/>
       <use x="162.999969" xlink:href="#Archivo-Regular-64"/>
       <use x="219.699966" xlink:href="#Archivo-Regular-6f"/>
       <use x="276.699951" xlink:href="#Archivo-Regular-62"/>
       <use x="333.399948" xlink:href="#Archivo-Regular-61"/>
      </g>
     </g>
    </g>
    <g id="xtick_18">
     <g id="line2d_18">
      <g>
       <use style="stroke:#000000;stroke-width:0.8;" x="690.349732" xlink:href="#m6cc9ddb8f3" y="385.301688"/>
      </g>
     </g>
     <g id="text_18">
      <!-- La Pampa -->
      <g transform="translate(647.90625 433.442397)rotate(-40)scale(0.12 -0.12)">
       <defs>
        <path d="M 550 0 
L 550 4390 
L 2720 4390 
Q 3174 4390 3475 4220 
Q 3776 4051 3926 3750 
Q 4077 3450 4077 3053 
Q 4077 2650 3910 2339 
Q 3744 2029 3440 1856 
Q 3136 1683 2714 1683 
L 1158 1683 
L 1158 0 
L 550 0 
z
M 1158 2208 
L 2675 2208 
Q 3034 2208 3248 2432 
Q 3462 2656 3462 3046 
Q 3462 3309 3372 3488 
Q 3283 3667 3110 3766 
Q 2938 3866 2675 3866 
L 1158 3866 
L 1158 2208 
z
" id="Archivo-Regular-50" transform="scale(0.015625)"/>
        <path d="M 442 -1107 
L 442 3366 
L 890 3366 
L 947 2886 
L 992 2886 
Q 1165 3168 1433 3305 
Q 1702 3443 2042 3443 
Q 2464 3443 2758 3257 
Q 3053 3072 3213 2678 
Q 3373 2285 3373 1658 
Q 3373 1069 3209 681 
Q 3046 294 2752 108 
Q 2458 -77 2067 -77 
Q 1850 -77 1658 -25 
Q 1466 26 1312 138 
Q 1158 250 1043 422 
L 1005 422 
L 1005 -1107 
L 442 -1107 
z
M 1888 416 
Q 2202 416 2400 541 
Q 2598 666 2694 931 
Q 2790 1197 2790 1613 
L 2790 1747 
Q 2790 2189 2688 2454 
Q 2586 2720 2390 2835 
Q 2195 2950 1907 2950 
Q 1594 2950 1392 2812 
Q 1190 2675 1097 2400 
Q 1005 2125 1005 1728 
L 1005 1632 
Q 1005 1280 1072 1046 
Q 1139 813 1264 672 
Q 1389 531 1549 473 
Q 1709 416 1888 416 
z
" id="Archivo-Regular-70" transform="scale(0.015625)"/>
       </defs>
       <use xlink:href="#Archivo-Regular-4c"/>
       <use x="53.599991" xlink:href="#Archivo-Regular-61"/>
       <use x="108.099976" xlink:href="#Archivo-Regular-20"/>
       <use x="128.999969" xlink:href="#Archivo-Regular-50"/>
       <use x="195.499954" xlink:href="#Archivo-Regular-61"/>
       <use x="249.999939" xlink:href="#Archivo-Regular-6d"/>
       <use x="335.999924" xlink:href="#Archivo-Regular-70"/>
       <use x="392.699921" xlink:href="#Archivo-Regular-61"/>
      </g>
     </g>
    </g>
    <g id="xtick_19">
     <g id="line2d_19">
      <g>
       <use style="stroke:#000000;stroke-width:0.8;" x="726.778304" xlink:href="#m6cc9ddb8f3" y="385.301688"/>
      </g>
     </g>
     <g id="text_19">
      <!-- Entre Ríos -->
      <g transform="translate(682.624148 434.877822)rotate(-40)scale(0.12 -0.12)">
       <defs>
        <path d="M 442 0 
L 442 3366 
L 1005 3366 
L 1005 0 
L 442 0 
z
M 384 3782 
L 941 4627 
L 1574 4627 
L 1581 4608 
L 877 3782 
L 384 3782 
z
" id="Archivo-Regular-ed" transform="scale(0.015625)"/>
       </defs>
       <use xlink:href="#Archivo-Regular-45"/>
       <use x="67.699982" xlink:href="#Archivo-Regular-6e"/>
       <use x="123.999969" xlink:href="#Archivo-Regular-74"/>
       <use x="153.699966" xlink:href="#Archivo-Regular-72"/>
       <use x="186.899963" xlink:href="#Archivo-Regular-65"/>
       <use x="241.699951" xlink:href="#Archivo-Regular-20"/>
       <use x="262.599945" xlink:href="#Archivo-Regular-52"/>
       <use x="335.299927" xlink:href="#Archivo-Regular-ed"/>
       <use x="357.799911" xlink:href="#Archivo-Regular-6f"/>
       <use x="414.799896" xlink:href="#Archivo-Regular-73"/>
      </g>
     </g>
    </g>
    <g id="xtick_20">
     <g id="line2d_20">
      <g>
       <use style="stroke:#000000;stroke-width:0.8;" x="763.206875" xlink:href="#m6cc9ddb8f3" y="385.301688"/>
      </g>
     </g>
     <g id="text_20">
      <!-- TdF -->
      <g transform="translate(745.464017 412.716112)rotate(-40)scale(0.12 -0.12)">
       <use xlink:href="#Archivo-Regular-54"/>
       <use x="60.599991" xlink:href="#Archivo-Regular-64"/>
       <use x="117.299988" xlink:href="#Archivo-Regular-46"/>
      </g>
     </g>
    </g>
    <g id="xtick_21">
     <g id="line2d_21">
      <g>
       <use style="stroke:#000000;stroke-width:0.8;" x="799.635446" xlink:href="#m6cc9ddb8f3" y="385.301688"/>
      </g>
     </g>
     <g id="text_21">
      <!-- Río Negro -->
      <g transform="translate(757.113443 433.449629)rotate(-40)scale(0.12 -0.12)">
       <defs>
        <path d="M 550 0 
L 550 4390 
L 1139 4390 
L 3270 1498 
Q 3302 1459 3353 1382 
Q 3405 1306 3456 1232 
Q 3507 1158 3539 1101 
L 3565 1101 
Q 3565 1203 3565 1302 
Q 3565 1402 3565 1498 
L 3565 4390 
L 4160 4390 
L 4160 0 
L 3603 0 
L 1446 2944 
Q 1402 3014 1315 3142 
Q 1229 3270 1171 3347 
L 1139 3347 
Q 1139 3245 1139 3145 
Q 1139 3046 1139 2944 
L 1139 0 
L 550 0 
z
" id="Archivo-Regular-4e" transform="scale(0.015625)"/>
       </defs>
       <use xlink:href="#Archivo-Regular-52"/>
       <use x="72.699982" xlink:href="#Archivo-Regular-ed"/>
       <use x="95.199966" xlink:href="#Archivo-Regular-6f"/>
       <use x="152.199951" xlink:href="#Archivo-Regular-20"/>
       <use x="173.099945" xlink:href="#Archivo-Regular-4e"/>
       <use x="246.699936" xlink:href="#Archivo-Regular-65"/>
       <use x="301.499924" xlink:href="#Archivo-Regular-67"/>
       <use x="357.099915" xlink:href="#Archivo-Regular-72"/>
       <use x="390.299911" xlink:href="#Archivo-Regular-6f"/>
      </g>
     </g>
    </g>
    <g id="xtick_22">
     <g id="line2d_22">
      <g>
       <use style="stroke:#000000;stroke-width:0.8;" x="836.064018" xlink:href="#m6cc9ddb8f3" y="385.301688"/>
      </g>
     </g>
     <g id="text_22">
      <!-- Santa Cruz -->
      <g transform="translate(789.20812 437.144854)rotate(-40)scale(0.12 -0.12)">
       <use xlink:href="#Archivo-Regular-53"/>
       <use x="67.299988" xlink:href="#Archivo-Regular-61"/>
       <use x="121.799973" xlink:href="#Archivo-Regular-6e"/>
       <use x="178.09996" xlink:href="#Archivo-Regular-74"/>
       <use x="207.799957" xlink:href="#Archivo-Regular-61"/>
       <use x="262.299942" xlink:href="#Archivo-Regular-20"/>
       <use x="283.199936" xlink:href="#Archivo-Regular-43"/>
       <use x="355.999924" xlink:href="#Archivo-Regular-72"/>
       <use x="389.199921" xlink:href="#Archivo-Regular-75"/>
       <use x="445.399918" xlink:href="#Archivo-Regular-7a"/>
      </g>
     </g>
    </g>
    <g id="xtick_23">
     <g id="line2d_23">
      <g>
       <use style="stroke:#000000;stroke-width:0.8;" x="872.492589" xlink:href="#m6cc9ddb8f3" y="385.301688"/>
      </g>
     </g>
     <g id="text_23">
      <!-- Neuquén -->
      <g transform="translate(833.598287 430.464282)rotate(-40)scale(0.12 -0.12)">
       <defs>
        <path d="M 2624 -1107 
L 2624 422 
L 2586 422 
Q 2470 250 2313 138 
Q 2157 26 1965 -25 
Q 1773 -77 1562 -77 
Q 1171 -77 876 108 
Q 582 294 416 681 
Q 250 1069 250 1658 
Q 250 2285 413 2678 
Q 576 3072 873 3257 
Q 1171 3443 1587 3443 
Q 1926 3443 2195 3305 
Q 2464 3168 2637 2886 
L 2682 2886 
L 2733 3366 
L 3187 3366 
L 3187 -1107 
L 2624 -1107 
z
M 1741 416 
Q 1926 416 2086 473 
Q 2246 531 2364 672 
Q 2483 813 2553 1046 
Q 2624 1280 2624 1632 
L 2624 1728 
Q 2624 2125 2531 2400 
Q 2438 2675 2240 2812 
Q 2042 2950 1722 2950 
Q 1434 2950 1238 2835 
Q 1043 2720 940 2454 
Q 838 2189 838 1747 
L 838 1613 
Q 838 1197 934 931 
Q 1030 666 1228 541 
Q 1427 416 1741 416 
z
" id="Archivo-Regular-71" transform="scale(0.015625)"/>
        <path d="M 1786 -77 
Q 1286 -77 944 112 
Q 602 301 426 691 
Q 250 1082 250 1683 
Q 250 2291 426 2678 
Q 602 3066 947 3254 
Q 1293 3443 1811 3443 
Q 2285 3443 2605 3260 
Q 2925 3078 3088 2716 
Q 3251 2355 3251 1811 
L 3251 1542 
L 832 1542 
Q 845 1139 950 880 
Q 1056 621 1267 502 
Q 1478 384 1798 384 
Q 2016 384 2179 438 
Q 2342 493 2454 595 
Q 2566 698 2624 838 
Q 2682 979 2688 1146 
L 3238 1146 
Q 3232 877 3136 649 
Q 3040 422 2854 262 
Q 2669 102 2400 12 
Q 2131 -77 1786 -77 
z
M 845 1965 
L 2669 1965 
Q 2669 2246 2605 2438 
Q 2541 2630 2422 2752 
Q 2304 2874 2147 2928 
Q 1990 2982 1792 2982 
Q 1498 2982 1293 2873 
Q 1088 2765 979 2541 
Q 870 2317 845 1965 
z
M 1459 3782 
L 2010 4627 
L 2650 4627 
L 2656 4608 
L 1946 3782 
L 1459 3782 
z
" id="Archivo-Regular-e9" transform="scale(0.015625)"/>
       </defs>
       <use xlink:href="#Archivo-Regular-4e"/>
       <use x="73.599991" xlink:href="#Archivo-Regular-65"/>
       <use x="128.399979" xlink:href="#Archivo-Regular-75"/>
       <use x="184.599976" xlink:href="#Archivo-Regular-71"/>
       <use x="241.299973" xlink:href="#Archivo-Regular-75"/>
       <use x="297.499969" xlink:href="#Archivo-Regular-e9"/>
       <use x="352.299957" xlink:href="#Archivo-Regular-6e"/>
      </g>
     </g>
    </g>
    <g id="xtick_24">
     <g id="line2d_24">
      <g>
       <use style="stroke:#000000;stroke-width:0.8;" x="908.921161" xlink:href="#m6cc9ddb8f3" y="385.301688"/>
      </g>
     </g>
     <g id="text_24">
      <!-- Chubut -->
      <g transform="translate(877.444083 424.240491)rotate(-40)scale(0.12 -0.12)">
       <use xlink:href="#Archivo-Regular-43"/>
       <use x="72.799988" xlink:href="#Archivo-Regular-68"/>
       <use x="129.099976" xlink:href="#Archivo-Regular-75"/>
       <use x="185.299973" xlink:href="#Archivo-Regular-62"/>
       <use x="241.999969" xlink:href="#Archivo-Regular-75"/>
       <use x="298.199966" xlink:href="#Archivo-Regular-74"/>
      </g>
     </g>
    </g>
    <g id="xtick_25">
     <g id="line2d_25">
      <g>
       <use style="stroke:#000000;stroke-width:0.8;" x="945.349732" xlink:href="#m6cc9ddb8f3" y="385.301688"/>
      </g>
     </g>
     <g id="text_25">
      <!-- Total Nacional -->
      <g transform="translate(885.367184 448.159421)rotate(-40)scale(0.12 -0.12)">
       <use xlink:href="#Archivo-Regular-54"/>
       <use x="60.599991" xlink:href="#Archivo-Regular-6f"/>
       <use x="117.599976" xlink:href="#Archivo-Regular-74"/>
       <use x="147.299973" xlink:href="#Archivo-Regular-61"/>
       <use x="201.799957" xlink:href="#Archivo-Regular-6c"/>
       <use x="224.299942" xlink:href="#Archivo-Regular-20"/>
       <use x="245.199936" xlink:href="#Archivo-Regular-4e"/>
       <use x="318.799927" xlink:href="#Archivo-Regular-61"/>
       <use x="373.299911" xlink:href="#Archivo-Regular-63"/>
       <use x="425.199905" xlink:href="#Archivo-Regular-69"/>
       <use x="447.69989" xlink:href="#Archivo-Regular-6f"/>
       <use x="504.699875" xlink:href="#Archivo-Regular-6e"/>
       <use x="560.999863" xlink:href="#Archivo-Regular-61"/>
       <use x="615.499847" xlink:href="#Archivo-Regular-6c"/>
      </g>
     </g>
    </g>
   </g>
   <g id="matplotlib.axis_2">
    <g id="ytick_1">
     <g id="line2d_26">
      <defs>
       <path d="M 0 0 
L -3.5 0 
" id="m165b9d2444" style="stroke:#000000;stroke-width:0.8;"/>
      </defs>
      <g>
       <use style="stroke:#000000;stroke-width:0.8;" x="49.206875" xlink:href="#m165b9d2444" y="385.301688"/>
      </g>
     </g>
     <g id="text_26">
      <!-- 0 -->
      <g transform="translate(35.33125 389.6395)scale(0.12 -0.12)">
       <defs>
        <path d="M 1837 -77 
Q 1478 -77 1196 28 
Q 915 134 716 393 
Q 518 653 416 1091 
Q 314 1530 314 2195 
Q 314 2861 416 3299 
Q 518 3738 716 3997 
Q 915 4256 1196 4361 
Q 1478 4467 1837 4467 
Q 2195 4467 2473 4361 
Q 2752 4256 2950 3997 
Q 3149 3738 3251 3299 
Q 3354 2861 3354 2195 
Q 3354 1530 3251 1091 
Q 3149 653 2950 393 
Q 2752 134 2473 28 
Q 2195 -77 1837 -77 
z
M 1837 397 
Q 2202 397 2403 582 
Q 2605 768 2685 1133 
Q 2765 1498 2765 2042 
L 2765 2336 
Q 2765 2886 2685 3254 
Q 2605 3622 2403 3808 
Q 2202 3994 1837 3994 
Q 1472 3994 1267 3808 
Q 1062 3622 982 3257 
Q 902 2893 902 2342 
L 902 2054 
Q 902 1510 982 1139 
Q 1062 768 1267 582 
Q 1472 397 1837 397 
z
" id="Archivo-Regular-30" transform="scale(0.015625)"/>
       </defs>
       <use xlink:href="#Archivo-Regular-30"/>
      </g>
     </g>
    </g>
    <g id="ytick_2">
     <g id="line2d_27">
      <g>
       <use style="stroke:#000000;stroke-width:0.8;" x="49.206875" xlink:href="#m165b9d2444" y="311.861688"/>
      </g>
     </g>
     <g id="text_27">
      <!-- 20 -->
      <g transform="translate(28.526875 316.1995)scale(0.12 -0.12)">
       <defs>
        <path d="M 320 0 
L 320 186 
Q 320 454 425 681 
Q 531 909 707 1097 
Q 883 1286 1107 1459 
Q 1331 1632 1562 1798 
Q 1875 2016 2140 2233 
Q 2406 2451 2566 2704 
Q 2726 2957 2726 3270 
Q 2726 3469 2633 3632 
Q 2541 3795 2355 3891 
Q 2170 3987 1882 3987 
Q 1542 3987 1337 3872 
Q 1133 3757 1040 3565 
Q 947 3373 947 3142 
L 947 2880 
L 390 2880 
Q 384 2912 377 2979 
Q 371 3046 371 3136 
Q 371 3610 582 3901 
Q 794 4192 1146 4329 
Q 1498 4467 1907 4467 
Q 2272 4467 2534 4368 
Q 2797 4269 2969 4096 
Q 3142 3923 3225 3702 
Q 3309 3482 3309 3238 
Q 3309 2938 3203 2688 
Q 3098 2438 2909 2224 
Q 2720 2010 2467 1811 
Q 2214 1613 1920 1408 
Q 1715 1274 1516 1123 
Q 1318 973 1177 819 
Q 1037 666 998 525 
L 3334 525 
L 3334 0 
L 320 0 
z
" id="Archivo-Regular-32" transform="scale(0.015625)"/>
       </defs>
       <use xlink:href="#Archivo-Regular-32"/>
       <use x="56.699997" xlink:href="#Archivo-Regular-30"/>
      </g>
     </g>
    </g>
    <g id="ytick_3">
     <g id="line2d_28">
      <g>
       <use style="stroke:#000000;stroke-width:0.8;" x="49.206875" xlink:href="#m165b9d2444" y="238.421688"/>
      </g>
     </g>
     <g id="text_28">
      <!-- 40 -->
      <g transform="translate(28.67125 242.7595)scale(0.12 -0.12)">
       <defs>
        <path d="M 2221 0 
L 2221 1075 
L 179 1075 
L 179 1549 
Q 448 2010 669 2477 
Q 890 2944 1066 3437 
Q 1242 3930 1357 4467 
L 1958 4467 
Q 1875 4115 1753 3747 
Q 1632 3379 1485 3033 
Q 1338 2688 1194 2387 
Q 1050 2086 925 1868 
Q 800 1651 723 1549 
L 2221 1549 
L 2221 2944 
Q 2259 3046 2300 3158 
Q 2342 3270 2380 3388 
Q 2419 3507 2451 3612 
Q 2483 3718 2502 3814 
L 2784 3814 
L 2784 1549 
L 3366 1549 
L 3366 1075 
L 2784 1075 
L 2784 0 
L 2221 0 
z
" id="Archivo-Regular-34" transform="scale(0.015625)"/>
       </defs>
       <use xlink:href="#Archivo-Regular-34"/>
       <use x="55.499985" xlink:href="#Archivo-Regular-30"/>
      </g>
     </g>
    </g>
    <g id="ytick_4">
     <g id="line2d_29">
      <g>
       <use style="stroke:#000000;stroke-width:0.8;" x="49.206875" xlink:href="#m165b9d2444" y="164.981688"/>
      </g>
     </g>
     <g id="text_29">
      <!-- 60 -->
      <g transform="translate(28.455625 169.3195)scale(0.12 -0.12)">
       <defs>
        <path d="M 1920 -77 
Q 1542 -77 1244 32 
Q 947 141 739 384 
Q 531 627 422 1040 
Q 314 1453 314 2067 
Q 314 2746 422 3203 
Q 531 3661 732 3939 
Q 934 4218 1232 4342 
Q 1530 4467 1907 4467 
Q 2381 4467 2672 4288 
Q 2963 4109 3097 3805 
Q 3232 3501 3232 3110 
L 2656 3110 
Q 2656 3405 2573 3603 
Q 2490 3802 2314 3898 
Q 2138 3994 1875 3994 
Q 1491 3994 1276 3792 
Q 1062 3590 982 3206 
Q 902 2822 896 2291 
Q 986 2438 1149 2560 
Q 1312 2682 1536 2755 
Q 1760 2829 2010 2829 
Q 2483 2829 2790 2640 
Q 3098 2451 3245 2124 
Q 3392 1798 3392 1395 
Q 3392 954 3200 621 
Q 3008 288 2675 105 
Q 2342 -77 1920 -77 
z
M 1882 397 
Q 2195 397 2400 534 
Q 2605 672 2704 899 
Q 2803 1126 2803 1402 
Q 2803 1664 2707 1881 
Q 2611 2099 2409 2230 
Q 2208 2362 1894 2362 
Q 1581 2362 1369 2227 
Q 1158 2093 1056 1872 
Q 954 1651 954 1370 
Q 954 1107 1056 883 
Q 1158 659 1363 528 
Q 1568 397 1882 397 
z
" id="Archivo-Regular-36" transform="scale(0.015625)"/>
       </defs>
       <use xlink:href="#Archivo-Regular-36"/>
       <use x="57.299988" xlink:href="#Archivo-Regular-30"/>
      </g>
     </g>
    </g>
    <g id="ytick_5">
     <g id="line2d_30">
      <g>
       <use style="stroke:#000000;stroke-width:0.8;" x="49.206875" xlink:href="#m165b9d2444" y="91.541688"/>
      </g>
     </g>
     <g id="text_30">
      <!-- 80 -->
      <g transform="translate(28.4425 95.8795)scale(0.12 -0.12)">
       <defs>
        <path d="M 1837 -77 
Q 1293 -77 953 96 
Q 614 269 457 557 
Q 301 845 301 1197 
Q 301 1555 480 1830 
Q 659 2106 1043 2253 
Q 736 2413 579 2675 
Q 422 2938 422 3258 
Q 422 3597 579 3869 
Q 736 4141 1053 4304 
Q 1370 4467 1837 4467 
Q 2304 4467 2617 4304 
Q 2931 4141 3091 3869 
Q 3251 3597 3251 3258 
Q 3251 2938 3091 2675 
Q 2931 2413 2624 2253 
Q 3014 2106 3190 1830 
Q 3366 1555 3366 1197 
Q 3366 845 3209 557 
Q 3053 269 2717 96 
Q 2381 -77 1837 -77 
z
M 1837 390 
Q 2304 390 2541 608 
Q 2778 826 2778 1203 
Q 2778 1574 2541 1792 
Q 2304 2010 1837 2010 
Q 1370 2010 1130 1792 
Q 890 1574 890 1203 
Q 890 826 1130 608 
Q 1370 390 1837 390 
z
M 1837 2477 
Q 2227 2477 2451 2678 
Q 2675 2880 2675 3245 
Q 2675 3603 2451 3801 
Q 2227 4000 1837 4000 
Q 1446 4000 1222 3801 
Q 998 3603 998 3245 
Q 998 2880 1222 2678 
Q 1446 2477 1837 2477 
z
" id="Archivo-Regular-38" transform="scale(0.015625)"/>
       </defs>
       <use xlink:href="#Archivo-Regular-38"/>
       <use x="57.399994" xlink:href="#Archivo-Regular-30"/>
      </g>
     </g>
    </g>
    <g id="ytick_6">
     <g id="line2d_31">
      <g>
       <use style="stroke:#000000;stroke-width:0.8;" x="49.206875" xlink:href="#m165b9d2444" y="18.101688"/>
      </g>
     </g>
     <g id="text_31">
      <!-- 100 -->
      <g transform="translate(22.204375 22.4395)scale(0.12 -0.12)">
       <defs>
        <path d="M 429 0 
L 429 480 
L 1536 480 
L 1536 3520 
L 422 3520 
L 422 3878 
Q 659 3898 912 3949 
Q 1165 4000 1408 4112 
Q 1651 4224 1850 4403 
L 2106 4403 
L 2106 480 
L 3149 480 
L 3149 0 
L 429 0 
z
" id="Archivo-Regular-31" transform="scale(0.015625)"/>
       </defs>
       <use xlink:href="#Archivo-Regular-31"/>
       <use x="52.099991" xlink:href="#Archivo-Regular-30"/>
       <use x="109.399979" xlink:href="#Archivo-Regular-30"/>
      </g>
     </g>
    </g>
    <g id="text_32">
     <!-- Ratio Mujeres/Varones -->
     <g transform="translate(16.02 262.620437)rotate(-90)scale(0.12 -0.12)">
      <defs>
       <path d="M 0 -314 
L 1427 4704 
L 1882 4704 
L 454 -314 
L 0 -314 
z
" id="Archivo-Regular-2f" transform="scale(0.015625)"/>
       <path d="M 1702 0 
L 64 4390 
L 723 4390 
L 1850 1280 
Q 1888 1190 1926 1075 
Q 1965 960 2003 851 
Q 2042 742 2074 659 
L 2112 659 
Q 2138 736 2176 845 
Q 2214 954 2252 1066 
Q 2291 1178 2330 1280 
L 3443 4390 
L 4083 4390 
L 2438 0 
L 1702 0 
z
" id="Archivo-Regular-56" transform="scale(0.015625)"/>
      </defs>
      <use xlink:href="#Archivo-Regular-52"/>
      <use x="72.699982" xlink:href="#Archivo-Regular-61"/>
      <use x="127.199966" xlink:href="#Archivo-Regular-74"/>
      <use x="156.899963" xlink:href="#Archivo-Regular-69"/>
      <use x="179.399948" xlink:href="#Archivo-Regular-6f"/>
      <use x="236.399933" xlink:href="#Archivo-Regular-20"/>
      <use x="257.299927" xlink:href="#Archivo-Regular-4d"/>
      <use x="341.999908" xlink:href="#Archivo-Regular-75"/>
      <use x="398.199905" xlink:href="#Archivo-Regular-6a"/>
      <use x="420.499893" xlink:href="#Archivo-Regular-65"/>
      <use x="475.299881" xlink:href="#Archivo-Regular-72"/>
      <use x="508.499878" xlink:href="#Archivo-Regular-65"/>
      <use x="563.299866" xlink:href="#Archivo-Regular-73"/>
      <use x="614.29985" xlink:href="#Archivo-Regular-2f"/>
      <use x="643.699844" xlink:href="#Archivo-Regular-56"/>
      <use x="708.499832" xlink:href="#Archivo-Regular-61"/>
      <use x="762.999817" xlink:href="#Archivo-Regular-72"/>
      <use x="796.199814" xlink:href="#Archivo-Regular-6f"/>
      <use x="853.199799" xlink:href="#Archivo-Regular-6e"/>
      <use x="909.499786" xlink:href="#Archivo-Regular-65"/>
      <use x="964.299774" xlink:href="#Archivo-Regular-73"/>
     </g>
    </g>
   </g>
   <g id="line2d_32">
    <defs>
     <path d="M 0 3.5 
C 0.928211 3.5 1.81853 3.131218 2.474874 2.474874 
C 3.131218 1.81853 3.5 0.928211 3.5 0 
C 3.5 -0.928211 3.131218 -1.81853 2.474874 -2.474874 
C 1.81853 -3.131218 0.928211 -3.5 0 -3.5 
C -0.928211 -3.5 -1.81853 -3.131218 -2.474874 -2.474874 
C -3.131218 -1.81853 -3.5 -0.928211 -3.5 0 
C -3.5 0.928211 -3.131218 1.81853 -2.474874 2.474874 
C -1.81853 3.131218 -0.928211 3.5 0 3.5 
z
" id="m531d71feed" style="stroke:#ff9750;"/>
    </defs>
    <g clip-path="url(#p56d0d56cc1)">
     <use style="fill:#ff9750;stroke:#ff9750;" x="71.064018" xlink:href="#m531d71feed" y="76.695342"/>
     <use style="fill:#ff9750;stroke:#ff9750;" x="107.492589" xlink:href="#m531d71feed" y="79.301326"/>
     <use style="fill:#ff9750;stroke:#ff9750;" x="143.921161" xlink:href="#m531d71feed" y="92.016734"/>
     <use style="fill:#ff9750;stroke:#ff9750;" x="180.349732" xlink:href="#m531d71feed" y="103.918831"/>
     <use style="fill:#ff9750;stroke:#ff9750;" x="216.778304" xlink:href="#m531d71feed" y="106.731636"/>
     <use style="fill:#ff9750;stroke:#ff9750;" x="253.206875" xlink:href="#m531d71feed" y="107.75086"/>
     <use style="fill:#ff9750;stroke:#ff9750;" x="289.635446" xlink:href="#m531d71feed" y="86.829694"/>
     <use style="fill:#ff9750;stroke:#ff9750;" x="326.064018" xlink:href="#m531d71feed" y="89.366942"/>
     <use style="fill:#ff9750;stroke:#ff9750;" x="362.492589" xlink:href="#m531d71feed" y="91.200094"/>
     <use style="fill:#ff9750;stroke:#ff9750;" x="398.921161" xlink:href="#m531d71feed" y="105.080774"/>
     <use style="fill:#ff9750;stroke:#ff9750;" x="435.349732" xlink:href="#m531d71feed" y="98.125619"/>
     <use style="fill:#ff9750;stroke:#ff9750;" x="471.778304" xlink:href="#m531d71feed" y="98.693459"/>
     <use style="fill:#ff9750;stroke:#ff9750;" x="508.206875" xlink:href="#m531d71feed" y="106.569769"/>
     <use style="fill:#ff9750;stroke:#ff9750;" x="544.635446" xlink:href="#m531d71feed" y="71.123953"/>
     <use style="fill:#ff9750;stroke:#ff9750;" x="581.064018" xlink:href="#m531d71feed" y="96.152583"/>
     <use style="fill:#ff9750;stroke:#ff9750;" x="617.492589" xlink:href="#m531d71feed" y="100.552645"/>
     <use style="fill:#ff9750;stroke:#ff9750;" x="653.921161" xlink:href="#m531d71feed" y="104.334713"/>
     <use style="fill:#ff9750;stroke:#ff9750;" x="690.349732" xlink:href="#m531d71feed" y="105.294479"/>
     <use style="fill:#ff9750;stroke:#ff9750;" x="726.778304" xlink:href="#m531d71feed" y="117.157659"/>
     <use style="fill:#ff9750;stroke:#ff9750;" x="763.206875" xlink:href="#m531d71feed" y="69.503379"/>
     <use style="fill:#ff9750;stroke:#ff9750;" x="799.635446" xlink:href="#m531d71feed" y="77.993358"/>
     <use style="fill:#ff9750;stroke:#ff9750;" x="836.064018" xlink:href="#m531d71feed" y="92.659845"/>
     <use style="fill:#ff9750;stroke:#ff9750;" x="872.492589" xlink:href="#m531d71feed" y="97.586062"/>
     <use style="fill:#ff9750;stroke:#ff9750;" x="908.921161" xlink:href="#m531d71feed" y="108.246575"/>
     <use style="fill:#ff9750;stroke:#ff9750;" x="945.349732" xlink:href="#m531d71feed" y="95.120264"/>
    </g>
   </g>
   <g id="patch_103">
    <path d="M 49.206875 385.301688 
L 49.206875 18.101688 
" style="fill:none;stroke:#000000;stroke-linecap:square;stroke-linejoin:miter;stroke-width:0.8;"/>
   </g>
   <g id="patch_104">
    <path d="M 49.206875 385.301688 
L 967.206875 385.301688 
" style="fill:none;stroke:#000000;stroke-linecap:square;stroke-linejoin:miter;stroke-width:0.8;"/>
   </g>
   <g id="patch_105">
    <path d="M 265.252977 18.101687 
Q 169.717354 18.101687 74.181731 18.101687 
" style="fill:none;stroke:#000000;stroke-linecap:round;"/>
    <path d="M 261.252977 16.101687 
L 265.252977 18.101687 
L 261.252977 20.101687 
" style="fill:none;stroke:#000000;stroke-linecap:round;"/>
    <path d="M 78.181731 20.101687 
L 74.181731 18.101687 
L 78.181731 16.101687 
" style="fill:none;stroke:#000000;stroke-linecap:round;"/>
   </g>
   <g id="text_33">
    <!--   -->
    <g transform="translate(270.375848 20.851687)scale(0.1 -0.1)">
     <use xlink:href="#Archivo-Regular-20"/>
    </g>
   </g>
   <g id="text_34">
    <!-- Noroeste -->
    <g transform="translate(145.742589 14.429687)scale(0.1 -0.1)">
     <use xlink:href="#Archivo-Regular-4e"/>
     <use x="73.599991" xlink:href="#Archivo-Regular-6f"/>
     <use x="130.599976" xlink:href="#Archivo-Regular-72"/>
     <use x="163.799973" xlink:href="#Archivo-Regular-6f"/>
     <use x="220.799957" xlink:href="#Archivo-Regular-65"/>
     <use x="275.599945" xlink:href="#Archivo-Regular-73"/>
     <use x="326.59993" xlink:href="#Archivo-Regular-74"/>
     <use x="356.299927" xlink:href="#Archivo-Regular-65"/>
    </g>
   </g>
   <g id="patch_106">
    <path d="M 249.209818 94.402455 
Q 161.135889 94.402455 73.06196 94.402455 
" style="fill:none;opacity:0.5;stroke:#ff9750;stroke-linecap:round;stroke-width:1.5;"/>
   </g>
   <g id="text_35">
    <!--   -->
    <g transform="translate(253.206875 97.152455)scale(0.1 -0.1)">
     <use xlink:href="#Archivo-Regular-20"/>
    </g>
   </g>
   <g id="patch_107">
    <path d="M 410.969212 18.101687 
Q 351.860976 18.101687 292.752739 18.101687 
" style="fill:none;stroke:#000000;stroke-linecap:round;"/>
    <path d="M 406.969212 16.101687 
L 410.969212 18.101687 
L 406.969212 20.101687 
" style="fill:none;stroke:#000000;stroke-linecap:round;"/>
    <path d="M 296.752739 20.101687 
L 292.752739 18.101687 
L 296.752739 16.101687 
" style="fill:none;stroke:#000000;stroke-linecap:round;"/>
   </g>
   <g id="text_36">
    <!--   -->
    <g transform="translate(416.090134 20.851687)scale(0.1 -0.1)">
     <use xlink:href="#Archivo-Regular-20"/>
    </g>
   </g>
   <g id="text_37">
    <!-- Noreste -->
    <g transform="translate(332.439018 14.429687)scale(0.1 -0.1)">
     <use xlink:href="#Archivo-Regular-4e"/>
     <use x="73.599991" xlink:href="#Archivo-Regular-6f"/>
     <use x="130.599976" xlink:href="#Archivo-Regular-72"/>
     <use x="163.799973" xlink:href="#Archivo-Regular-65"/>
     <use x="218.59996" xlink:href="#Archivo-Regular-73"/>
     <use x="269.599945" xlink:href="#Archivo-Regular-74"/>
     <use x="299.299942" xlink:href="#Archivo-Regular-65"/>
    </g>
   </g>
   <g id="patch_108">
    <path d="M 394.918865 93.119376 
Q 343.278004 93.119376 291.637142 93.119376 
" style="fill:none;opacity:0.5;stroke:#ff9750;stroke-linecap:round;stroke-width:1.5;"/>
   </g>
   <g id="text_38">
    <!--   -->
    <g transform="translate(398.921161 95.869376)scale(0.1 -0.1)">
     <use xlink:href="#Archivo-Regular-20"/>
    </g>
   </g>
   <g id="patch_109">
    <path d="M 520.258444 18.101687 
Q 479.362042 18.101687 438.465641 18.101687 
" style="fill:none;stroke:#000000;stroke-linecap:round;"/>
    <path d="M 516.258444 16.101687 
L 520.258444 18.101687 
L 516.258444 20.101687 
" style="fill:none;stroke:#000000;stroke-linecap:round;"/>
    <path d="M 442.465641 20.101687 
L 438.465641 18.101687 
L 442.465641 16.101687 
" style="fill:none;stroke:#000000;stroke-linecap:round;"/>
   </g>
   <g id="text_39">
    <!--   -->
    <g transform="translate(525.375848 20.851687)scale(0.1 -0.1)">
     <use xlink:href="#Archivo-Regular-20"/>
    </g>
   </g>
   <g id="text_40">
    <!-- Cuyo -->
    <g transform="translate(464.492589 14.429687)scale(0.1 -0.1)">
     <use xlink:href="#Archivo-Regular-43"/>
     <use x="72.799988" xlink:href="#Archivo-Regular-75"/>
     <use x="128.999985" xlink:href="#Archivo-Regular-79"/>
     <use x="179.399979" xlink:href="#Archivo-Regular-6f"/>
    </g>
   </g>
   <g id="patch_110">
    <path d="M 504.205111 101.129616 
Q 470.775539 101.129616 437.345967 101.129616 
" style="fill:none;opacity:0.5;stroke:#ff9750;stroke-linecap:round;stroke-width:1.5;"/>
   </g>
   <g id="text_41">
    <!--   -->
    <g transform="translate(508.206875 103.879616)scale(0.1 -0.1)">
     <use xlink:href="#Archivo-Regular-20"/>
    </g>
   </g>
   <g id="patch_111">
    <path d="M 738.824405 18.101687 
Q 643.288783 18.101687 547.75316 18.101687 
" style="fill:none;stroke:#000000;stroke-linecap:round;"/>
    <path d="M 734.824405 16.101687 
L 738.824405 18.101687 
L 734.824405 20.101687 
" style="fill:none;stroke:#000000;stroke-linecap:round;"/>
    <path d="M 551.75316 20.101687 
L 547.75316 18.101687 
L 551.75316 16.101687 
" style="fill:none;stroke:#000000;stroke-linecap:round;"/>
   </g>
   <g id="text_42">
    <!--   -->
    <g transform="translate(743.947277 20.851687)scale(0.1 -0.1)">
     <use xlink:href="#Archivo-Regular-20"/>
    </g>
   </g>
   <g id="text_43">
    <!-- Pampeana -->
    <g transform="translate(619.314018 14.429687)scale(0.1 -0.1)">
     <use xlink:href="#Archivo-Regular-50"/>
     <use x="66.499985" xlink:href="#Archivo-Regular-61"/>
     <use x="120.999969" xlink:href="#Archivo-Regular-6d"/>
     <use x="206.999954" xlink:href="#Archivo-Regular-70"/>
     <use x="263.699951" xlink:href="#Archivo-Regular-65"/>
     <use x="318.499939" xlink:href="#Archivo-Regular-61"/>
     <use x="372.999924" xlink:href="#Archivo-Regular-6e"/>
     <use x="429.299911" xlink:href="#Archivo-Regular-61"/>
    </g>
   </g>
   <g id="patch_112">
    <path d="M 722.781247 99.102672 
Q 634.707318 99.102672 546.633389 99.102672 
" style="fill:none;opacity:0.5;stroke:#ff9750;stroke-linecap:round;stroke-width:1.5;"/>
   </g>
   <g id="text_44">
    <!--   -->
    <g transform="translate(726.778304 101.852672)scale(0.1 -0.1)">
     <use xlink:href="#Archivo-Regular-20"/>
    </g>
   </g>
   <g id="patch_113">
    <path d="M 920.974978 18.101687 
Q 843.651225 18.101687 766.327472 18.101687 
" style="fill:none;stroke:#000000;stroke-linecap:round;"/>
    <path d="M 916.974978 16.101687 
L 920.974978 18.101687 
L 916.974978 20.101687 
" style="fill:none;stroke:#000000;stroke-linecap:round;"/>
    <path d="M 770.327472 20.101687 
L 766.327472 18.101687 
L 770.327472 16.101687 
" style="fill:none;stroke:#000000;stroke-linecap:round;"/>
   </g>
   <g id="text_45">
    <!--   -->
    <g transform="translate(926.090134 20.851687)scale(0.1 -0.1)">
     <use xlink:href="#Archivo-Regular-20"/>
    </g>
   </g>
   <g id="text_46">
    <!-- Patagonia -->
    <g transform="translate(820.581875 14.429687)scale(0.1 -0.1)">
     <use xlink:href="#Archivo-Regular-50"/>
     <use x="66.499985" xlink:href="#Archivo-Regular-61"/>
     <use x="120.999969" xlink:href="#Archivo-Regular-74"/>
     <use x="150.699966" xlink:href="#Archivo-Regular-61"/>
     <use x="205.199951" xlink:href="#Archivo-Regular-67"/>
     <use x="260.799942" xlink:href="#Archivo-Regular-6f"/>
     <use x="317.799927" xlink:href="#Archivo-Regular-6e"/>
     <use x="374.099915" xlink:href="#Archivo-Regular-69"/>
     <use x="396.599899" xlink:href="#Archivo-Regular-61"/>
    </g>
   </g>
   <g id="patch_114">
    <path d="M 904.921028 89.197844 
Q 835.065137 89.197844 765.209245 89.197844 
" style="fill:none;opacity:0.5;stroke:#ff9750;stroke-linecap:round;stroke-width:1.5;"/>
   </g>
   <g id="text_47">
    <!--   -->
    <g transform="translate(908.921161 91.947844)scale(0.1 -0.1)">
     <use xlink:href="#Archivo-Regular-20"/>
    </g>
   </g>
   <g id="legend_1">
    <g id="line2d_33"/>
    <g id="line2d_34">
     <g>
      <use style="fill:#ff9750;stroke:#ff9750;" x="204.362344" xlink:href="#m531d71feed" y="462.781375"/>
     </g>
    </g>
    <g id="text_48">
     <!-- Inserción laboral -->
     <g transform="translate(222.362344 466.281375)scale(0.1 -0.1)">
      <defs>
       <path d="M 550 0 
L 550 4390 
L 1158 4390 
L 1158 0 
L 550 0 
z
" id="Archivo-Regular-49" transform="scale(0.015625)"/>
      </defs>
      <use xlink:href="#Archivo-Regular-49"/>
      <use x="26.699997" xlink:href="#Archivo-Regular-6e"/>
      <use x="82.999985" xlink:href="#Archivo-Regular-73"/>
      <use x="133.999969" xlink:href="#Archivo-Regular-65"/>
      <use x="188.799957" xlink:href="#Archivo-Regular-72"/>
      <use x="221.999954" xlink:href="#Archivo-Regular-63"/>
      <use x="273.899948" xlink:href="#Archivo-Regular-69"/>
      <use x="296.399933" xlink:href="#Archivo-Regular-f3"/>
      <use x="353.399918" xlink:href="#Archivo-Regular-6e"/>
      <use x="409.699905" xlink:href="#Archivo-Regular-20"/>
      <use x="430.599899" xlink:href="#Archivo-Regular-6c"/>
      <use x="453.099884" xlink:href="#Archivo-Regular-61"/>
      <use x="507.599869" xlink:href="#Archivo-Regular-62"/>
      <use x="564.299866" xlink:href="#Archivo-Regular-6f"/>
      <use x="621.29985" xlink:href="#Archivo-Regular-72"/>
      <use x="654.499847" xlink:href="#Archivo-Regular-61"/>
      <use x="708.999832" xlink:href="#Archivo-Regular-6c"/>
     </g>
    </g>
    <g id="patch_115">
     <path d="M 315.513906 466.281375 
L 335.513906 466.281375 
L 335.513906 459.281375 
L 315.513906 459.281375 
z
" style="fill:#8d9bff;opacity:0.9;stroke:#f5f5f5;stroke-linejoin:miter;stroke-width:0.5;"/>
    </g>
    <g id="text_49">
     <!-- Actividad -->
     <g transform="translate(343.513906 466.281375)scale(0.1 -0.1)">
      <defs>
       <path d="M 1331 0 
L 83 3366 
L 672 3366 
L 1286 1683 
Q 1331 1562 1388 1379 
Q 1446 1197 1507 1008 
Q 1568 819 1606 672 
L 1638 672 
Q 1683 813 1740 1001 
Q 1798 1190 1859 1372 
Q 1920 1555 1965 1683 
L 2573 3366 
L 3142 3366 
L 1894 0 
L 1331 0 
z
" id="Archivo-Regular-76" transform="scale(0.015625)"/>
      </defs>
      <use xlink:href="#Archivo-Regular-41"/>
      <use x="68.199982" xlink:href="#Archivo-Regular-63"/>
      <use x="120.099976" xlink:href="#Archivo-Regular-74"/>
      <use x="149.799973" xlink:href="#Archivo-Regular-69"/>
      <use x="172.299957" xlink:href="#Archivo-Regular-76"/>
      <use x="222.699951" xlink:href="#Archivo-Regular-69"/>
      <use x="245.199936" xlink:href="#Archivo-Regular-64"/>
      <use x="301.899933" xlink:href="#Archivo-Regular-61"/>
      <use x="356.399918" xlink:href="#Archivo-Regular-64"/>
     </g>
    </g>
    <g id="patch_116">
     <path d="M 404.826406 466.281375 
L 424.826406 466.281375 
L 424.826406 459.281375 
L 404.826406 459.281375 
z
" style="fill:#9fc1ad;opacity:0.9;stroke:#f5f5f5;stroke-linejoin:miter;stroke-width:0.5;"/>
    </g>
    <g id="text_50">
     <!-- Formalidad -->
     <g transform="translate(432.826406 466.281375)scale(0.1 -0.1)">
      <use xlink:href="#Archivo-Regular-46"/>
      <use x="61.199997" xlink:href="#Archivo-Regular-6f"/>
      <use x="118.199982" xlink:href="#Archivo-Regular-72"/>
      <use x="151.399979" xlink:href="#Archivo-Regular-6d"/>
      <use x="237.399963" xlink:href="#Archivo-Regular-61"/>
      <use x="291.899948" xlink:href="#Archivo-Regular-6c"/>
      <use x="314.399933" xlink:href="#Archivo-Regular-69"/>
      <use x="336.899918" xlink:href="#Archivo-Regular-64"/>
      <use x="393.599915" xlink:href="#Archivo-Regular-61"/>
      <use x="448.099899" xlink:href="#Archivo-Regular-64"/>
     </g>
    </g>
    <g id="patch_117">
     <path d="M 503.307656 466.281375 
L 523.307656 466.281375 
L 523.307656 459.281375 
L 503.307656 459.281375 
z
" style="fill:#d3d3e0;opacity:0.9;stroke:#f5f5f5;stroke-linejoin:miter;stroke-width:0.5;"/>
    </g>
    <g id="text_51">
     <!-- Horas promedio remuneradas -->
     <g transform="translate(531.307656 466.281375)scale(0.1 -0.1)">
      <defs>
       <path d="M 550 0 
L 550 4390 
L 1158 4390 
L 1158 2509 
L 3546 2509 
L 3546 4390 
L 4160 4390 
L 4160 0 
L 3546 0 
L 3546 1978 
L 1158 1978 
L 1158 0 
L 550 0 
z
" id="Archivo-Regular-48" transform="scale(0.015625)"/>
      </defs>
      <use xlink:href="#Archivo-Regular-48"/>
      <use x="73.599991" xlink:href="#Archivo-Regular-6f"/>
      <use x="130.599976" xlink:href="#Archivo-Regular-72"/>
      <use x="163.799973" xlink:href="#Archivo-Regular-61"/>
      <use x="218.299957" xlink:href="#Archivo-Regular-73"/>
      <use x="269.299942" xlink:href="#Archivo-Regular-20"/>
      <use x="290.199936" xlink:href="#Archivo-Regular-70"/>
      <use x="346.899933" xlink:href="#Archivo-Regular-72"/>
      <use x="380.09993" xlink:href="#Archivo-Regular-6f"/>
      <use x="437.099915" xlink:href="#Archivo-Regular-6d"/>
      <use x="523.099899" xlink:href="#Archivo-Regular-65"/>
      <use x="577.899887" xlink:href="#Archivo-Regular-64"/>
      <use x="634.599884" xlink:href="#Archivo-Regular-69"/>
      <use x="657.099869" xlink:href="#Archivo-Regular-6f"/>
      <use x="714.099854" xlink:href="#Archivo-Regular-20"/>
      <use x="734.999847" xlink:href="#Archivo-Regular-72"/>
      <use x="768.199844" xlink:href="#Archivo-Regular-65"/>
      <use x="822.999832" xlink:href="#Archivo-Regular-6d"/>
      <use x="908.999817" xlink:href="#Archivo-Regular-75"/>
      <use x="965.199814" xlink:href="#Archivo-Regular-6e"/>
      <use x="1021.499802" xlink:href="#Archivo-Regular-65"/>
      <use x="1076.299789" xlink:href="#Archivo-Regular-72"/>
      <use x="1109.499786" xlink:href="#Archivo-Regular-61"/>
      <use x="1163.999771" xlink:href="#Archivo-Regular-64"/>
      <use x="1220.699768" xlink:href="#Archivo-Regular-61"/>
      <use x="1275.199753" xlink:href="#Archivo-Regular-73"/>
     </g>
    </g>
    <g id="patch_118">
     <path d="M 683.929531 466.281375 
L 703.929531 466.281375 
L 703.929531 459.281375 
L 683.929531 459.281375 
z
" style="fill:#7bb5c4;opacity:0.9;stroke:#f5f5f5;stroke-linejoin:miter;stroke-width:0.5;"/>
    </g>
    <g id="text_52">
     <!-- Ingreso laboral promedio -->
     <g transform="translate(711.929531 466.281375)scale(0.1 -0.1)">
      <use xlink:href="#Archivo-Regular-49"/>
      <use x="26.699997" xlink:href="#Archivo-Regular-6e"/>
      <use x="82.999985" xlink:href="#Archivo-Regular-67"/>
      <use x="138.599976" xlink:href="#Archivo-Regular-72"/>
      <use x="171.799973" xlink:href="#Archivo-Regular-65"/>
      <use x="226.59996" xlink:href="#Archivo-Regular-73"/>
      <use x="277.599945" xlink:href="#Archivo-Regular-6f"/>
      <use x="334.59993" xlink:href="#Archivo-Regular-20"/>
      <use x="355.499924" xlink:href="#Archivo-Regular-6c"/>
      <use x="377.999908" xlink:href="#Archivo-Regular-61"/>
      <use x="432.499893" xlink:href="#Archivo-Regular-62"/>
      <use x="489.19989" xlink:href="#Archivo-Regular-6f"/>
      <use x="546.199875" xlink:href="#Archivo-Regular-72"/>
      <use x="579.399872" xlink:href="#Archivo-Regular-61"/>
      <use x="633.899857" xlink:href="#Archivo-Regular-6c"/>
      <use x="656.399841" xlink:href="#Archivo-Regular-20"/>
      <use x="677.299835" xlink:href="#Archivo-Regular-70"/>
      <use x="733.999832" xlink:href="#Archivo-Regular-72"/>
      <use x="767.199829" xlink:href="#Archivo-Regular-6f"/>
      <use x="824.199814" xlink:href="#Archivo-Regular-6d"/>
      <use x="910.199799" xlink:href="#Archivo-Regular-65"/>
      <use x="964.999786" xlink:href="#Archivo-Regular-64"/>
      <use x="1021.699783" xlink:href="#Archivo-Regular-69"/>
      <use x="1044.199768" xlink:href="#Archivo-Regular-6f"/>
     </g>
    </g>
   </g>
  </g>
 </g>
 <defs>
  <clipPath id="p56d0d56cc1">
   <rect height="367.2" width="918" x="49.206875" y="18.101687"/>
  </clipPath>
 </defs>
</svg>
